G04 Layer_Color=128*
%FSLAX25Y25*%
%MOIN*%
G70*
G01*
G75*
%ADD25C,0.00500*%
D25*
X389228Y600000D02*
X392772D01*
X391000Y598228D02*
Y601772D01*
X399228Y600000D02*
X402772D01*
X401000Y598228D02*
Y601772D01*
X409228Y600000D02*
X412772D01*
X411000Y598228D02*
Y601772D01*
X486228Y618000D02*
X489772D01*
X488000Y616228D02*
Y619772D01*
X476228Y618000D02*
X479772D01*
X478000Y616228D02*
Y619772D01*
X466228Y618000D02*
X469772D01*
X468000Y616228D02*
Y619772D01*
X456228Y618000D02*
X459772D01*
X458000Y616228D02*
Y619772D01*
X446228Y666000D02*
X449772D01*
X448000Y664228D02*
Y667772D01*
X446228Y676000D02*
X449772D01*
X448000Y674228D02*
Y677772D01*
X446228Y686000D02*
X449772D01*
X448000Y684228D02*
Y687772D01*
X446228Y696000D02*
X449772D01*
X448000Y694228D02*
Y697772D01*
X409228Y618000D02*
X412772D01*
X411000Y616228D02*
Y619772D01*
X419228Y618000D02*
X422772D01*
X421000Y616228D02*
Y619772D01*
X429228Y618000D02*
X432772D01*
X431000Y616228D02*
Y619772D01*
X439228Y618000D02*
X442772D01*
X441000Y616228D02*
Y619772D01*
X409228Y633000D02*
X412772D01*
X411000Y631228D02*
Y634772D01*
X419228Y633000D02*
X422772D01*
X421000Y631228D02*
Y634772D01*
X429228Y633000D02*
X432772D01*
X431000Y631228D02*
Y634772D01*
X439228Y633000D02*
X442772D01*
X441000Y631228D02*
Y634772D01*
X409228Y647000D02*
X412772D01*
X411000Y645228D02*
Y648772D01*
X419228Y647000D02*
X422772D01*
X421000Y645228D02*
Y648772D01*
X429228Y647000D02*
X432772D01*
X431000Y645228D02*
Y648772D01*
X439228Y647000D02*
X442772D01*
X441000Y645228D02*
Y648772D01*
X486228Y647000D02*
X489772D01*
X488000Y645228D02*
Y648772D01*
X476228Y647000D02*
X479772D01*
X478000Y645228D02*
Y648772D01*
X466228Y647000D02*
X469772D01*
X468000Y645228D02*
Y648772D01*
X456228Y647000D02*
X459772D01*
X458000Y645228D02*
Y648772D01*
X486228Y633000D02*
X489772D01*
X488000Y631228D02*
Y634772D01*
X476228Y633000D02*
X479772D01*
X478000Y631228D02*
Y634772D01*
X466228Y633000D02*
X469772D01*
X468000Y631228D02*
Y634772D01*
X456228Y633000D02*
X459772D01*
X458000Y631228D02*
Y634772D01*
X415228Y666000D02*
X418772D01*
X417000Y664228D02*
Y667772D01*
X415228Y676000D02*
X418772D01*
X417000Y674228D02*
Y677772D01*
X415228Y686000D02*
X418772D01*
X417000Y684228D02*
Y687772D01*
X415228Y696000D02*
X418772D01*
X417000Y694228D02*
Y697772D01*
X537992Y293520D02*
X542008D01*
X540000Y291512D02*
Y295528D01*
X527992Y293520D02*
X532008D01*
X530000Y291512D02*
Y295528D01*
X357992Y293520D02*
X362008D01*
X360000Y291512D02*
Y295528D01*
X347992Y293520D02*
X352008D01*
X350000Y291512D02*
Y295528D01*
X537992Y469520D02*
X542008D01*
X540000Y467512D02*
Y471528D01*
X527992Y469520D02*
X532008D01*
X530000Y467512D02*
Y471528D01*
X537992Y479520D02*
X542008D01*
X540000Y477512D02*
Y481528D01*
X527992Y479520D02*
X532008D01*
X530000Y477512D02*
Y481528D01*
X537992Y489520D02*
X542008D01*
X540000Y487512D02*
Y491528D01*
X527992Y489520D02*
X532008D01*
X530000Y487512D02*
Y491528D01*
X537992Y499520D02*
X542008D01*
X540000Y497512D02*
Y501528D01*
X527992Y499520D02*
X532008D01*
X530000Y497512D02*
Y501528D01*
X537992Y509520D02*
X542008D01*
X540000Y507512D02*
Y511528D01*
X527992Y509520D02*
X532008D01*
X530000Y507512D02*
Y511528D01*
X537992Y519520D02*
X542008D01*
X540000Y517512D02*
Y521528D01*
X527992Y519520D02*
X532008D01*
X530000Y517512D02*
Y521528D01*
X537992Y529520D02*
X542008D01*
X540000Y527512D02*
Y531528D01*
X527992Y529520D02*
X532008D01*
X530000Y527512D02*
Y531528D01*
X537992Y539520D02*
X542008D01*
X540000Y537512D02*
Y541528D01*
X527992Y539520D02*
X532008D01*
X530000Y537512D02*
Y541528D01*
X537992Y549520D02*
X542008D01*
X540000Y547512D02*
Y551528D01*
X527992Y549520D02*
X532008D01*
X530000Y547512D02*
Y551528D01*
X537992Y303520D02*
X542008D01*
X540000Y301512D02*
Y305528D01*
X527992Y303520D02*
X532008D01*
X530000Y301512D02*
Y305528D01*
X537992Y313520D02*
X542008D01*
X540000Y311512D02*
Y315528D01*
X527992Y313520D02*
X532008D01*
X530000Y311512D02*
Y315528D01*
X537992Y323520D02*
X542008D01*
X540000Y321512D02*
Y325528D01*
X527992Y323520D02*
X532008D01*
X530000Y321512D02*
Y325528D01*
X537992Y333520D02*
X542008D01*
X540000Y331512D02*
Y335528D01*
X527992Y333520D02*
X532008D01*
X530000Y331512D02*
Y335528D01*
X537992Y343520D02*
X542008D01*
X540000Y341512D02*
Y345528D01*
X527992Y343520D02*
X532008D01*
X530000Y341512D02*
Y345528D01*
X537992Y353520D02*
X542008D01*
X540000Y351512D02*
Y355528D01*
X527992Y353520D02*
X532008D01*
X530000Y351512D02*
Y355528D01*
X537992Y363520D02*
X542008D01*
X540000Y361512D02*
Y365528D01*
X527992Y363520D02*
X532008D01*
X530000Y361512D02*
Y365528D01*
X537992Y373520D02*
X542008D01*
X540000Y371512D02*
Y375528D01*
X527992Y373520D02*
X532008D01*
X530000Y371512D02*
Y375528D01*
X537992Y383520D02*
X542008D01*
X540000Y381512D02*
Y385528D01*
X527992Y383520D02*
X532008D01*
X530000Y381512D02*
Y385528D01*
X537992Y393520D02*
X542008D01*
X540000Y391512D02*
Y395528D01*
X527992Y393520D02*
X532008D01*
X530000Y391512D02*
Y395528D01*
X537992Y403520D02*
X542008D01*
X540000Y401512D02*
Y405528D01*
X527992Y403520D02*
X532008D01*
X530000Y401512D02*
Y405528D01*
X537992Y413520D02*
X542008D01*
X540000Y411512D02*
Y415528D01*
X527992Y413520D02*
X532008D01*
X530000Y411512D02*
Y415528D01*
X537992Y423520D02*
X542008D01*
X540000Y421512D02*
Y425528D01*
X527992Y423520D02*
X532008D01*
X530000Y421512D02*
Y425528D01*
X537992Y433520D02*
X542008D01*
X540000Y431512D02*
Y435528D01*
X527992Y433520D02*
X532008D01*
X530000Y431512D02*
Y435528D01*
X537992Y443520D02*
X542008D01*
X540000Y441512D02*
Y445528D01*
X527992Y443520D02*
X532008D01*
X530000Y441512D02*
Y445528D01*
X537992Y453520D02*
X542008D01*
X540000Y451512D02*
Y455528D01*
X527992Y453520D02*
X532008D01*
X530000Y451512D02*
Y455528D01*
X537992Y559520D02*
X542008D01*
X540000Y557512D02*
Y561528D01*
X527992Y559520D02*
X532008D01*
X530000Y557512D02*
Y561528D01*
X357992Y303520D02*
X362008D01*
X360000Y301512D02*
Y305528D01*
X347992Y303520D02*
X352008D01*
X350000Y301512D02*
Y305528D01*
X357992Y313520D02*
X362008D01*
X360000Y311512D02*
Y315528D01*
X347992Y313520D02*
X352008D01*
X350000Y311512D02*
Y315528D01*
X357992Y323520D02*
X362008D01*
X360000Y321512D02*
Y325528D01*
X347992Y323520D02*
X352008D01*
X350000Y321512D02*
Y325528D01*
X357992Y333520D02*
X362008D01*
X360000Y331512D02*
Y335528D01*
X347992Y333520D02*
X352008D01*
X350000Y331512D02*
Y335528D01*
X357992Y343520D02*
X362008D01*
X360000Y341512D02*
Y345528D01*
X347992Y343520D02*
X352008D01*
X350000Y341512D02*
Y345528D01*
X357992Y353520D02*
X362008D01*
X360000Y351512D02*
Y355528D01*
X347992Y353520D02*
X352008D01*
X350000Y351512D02*
Y355528D01*
X357992Y363520D02*
X362008D01*
X360000Y361512D02*
Y365528D01*
X347992Y363520D02*
X352008D01*
X350000Y361512D02*
Y365528D01*
X357992Y373520D02*
X362008D01*
X360000Y371512D02*
Y375528D01*
X347992Y373520D02*
X352008D01*
X350000Y371512D02*
Y375528D01*
X357992Y383520D02*
X362008D01*
X360000Y381512D02*
Y385528D01*
X347992Y383520D02*
X352008D01*
X350000Y381512D02*
Y385528D01*
X357992Y393520D02*
X362008D01*
X360000Y391512D02*
Y395528D01*
X347992Y393520D02*
X352008D01*
X350000Y391512D02*
Y395528D01*
X357992Y403520D02*
X362008D01*
X360000Y401512D02*
Y405528D01*
X347992Y403520D02*
X352008D01*
X350000Y401512D02*
Y405528D01*
X357992Y413520D02*
X362008D01*
X360000Y411512D02*
Y415528D01*
X347992Y413520D02*
X352008D01*
X350000Y411512D02*
Y415528D01*
X357992Y423520D02*
X362008D01*
X360000Y421512D02*
Y425528D01*
X347992Y423520D02*
X352008D01*
X350000Y421512D02*
Y425528D01*
X357992Y433520D02*
X362008D01*
X360000Y431512D02*
Y435528D01*
X347992Y433520D02*
X352008D01*
X350000Y431512D02*
Y435528D01*
X357992Y453520D02*
X362008D01*
X360000Y451512D02*
Y455528D01*
X347992Y453520D02*
X352008D01*
X350000Y451512D02*
Y455528D01*
X357992Y463520D02*
X362008D01*
X360000Y461512D02*
Y465528D01*
X347992Y463520D02*
X352008D01*
X350000Y461512D02*
Y465528D01*
X357992Y473520D02*
X362008D01*
X360000Y471512D02*
Y475528D01*
X347992Y473520D02*
X352008D01*
X350000Y471512D02*
Y475528D01*
X357992Y483520D02*
X362008D01*
X360000Y481512D02*
Y485528D01*
X347992Y483520D02*
X352008D01*
X350000Y481512D02*
Y485528D01*
X357992Y493520D02*
X362008D01*
X360000Y491512D02*
Y495528D01*
X347992Y493520D02*
X352008D01*
X350000Y491512D02*
Y495528D01*
X357992Y503520D02*
X362008D01*
X360000Y501512D02*
Y505528D01*
X347992Y503520D02*
X352008D01*
X350000Y501512D02*
Y505528D01*
X357992Y513520D02*
X362008D01*
X360000Y511512D02*
Y515528D01*
X347992Y513520D02*
X352008D01*
X350000Y511512D02*
Y515528D01*
X357992Y523520D02*
X362008D01*
X360000Y521512D02*
Y525528D01*
X347992Y523520D02*
X352008D01*
X350000Y521512D02*
Y525528D01*
X430228Y696000D02*
X433772D01*
X432000Y694228D02*
Y697772D01*
X430228Y686000D02*
X433772D01*
X432000Y684228D02*
Y687772D01*
X430228Y676000D02*
X433772D01*
X432000Y674228D02*
Y677772D01*
X430228Y666000D02*
X433772D01*
X432000Y664228D02*
Y667772D01*
X473228Y687000D02*
X476772D01*
X475000Y685228D02*
Y688772D01*
X473228Y677000D02*
X476772D01*
X475000Y675228D02*
Y678772D01*
X454228Y600000D02*
X457772D01*
X456000Y598228D02*
Y601772D01*
X444228Y600000D02*
X447772D01*
X446000Y598228D02*
Y601772D01*
X434228Y600000D02*
X437772D01*
X436000Y598228D02*
Y601772D01*
X473600Y553000D02*
X476400D01*
X475000Y551600D02*
Y554400D01*
X344600Y564000D02*
X347400D01*
X346000Y562600D02*
Y565400D01*
X397600Y409000D02*
X400400D01*
X399000Y407600D02*
Y410400D01*
X393600Y433000D02*
X396400D01*
X395000Y431600D02*
Y434400D01*
X368600Y523000D02*
X371400D01*
X370000Y521600D02*
Y524400D01*
X376600Y523000D02*
X379400D01*
X378000Y521600D02*
Y524400D01*
X381600Y392000D02*
X384400D01*
X383000Y390600D02*
Y393400D01*
X385600Y523000D02*
X388400D01*
X387000Y521600D02*
Y524400D01*
X515600Y553000D02*
X518400D01*
X517000Y551600D02*
Y554400D01*
X505600Y553000D02*
X508400D01*
X507000Y551600D02*
Y554400D01*
X496600Y553000D02*
X499400D01*
X498000Y551600D02*
Y554400D01*
X491600Y548000D02*
X494400D01*
X493000Y546600D02*
Y549400D01*
X482600Y553000D02*
X485400D01*
X484000Y551600D02*
Y554400D01*
X482600Y465000D02*
X485400D01*
X484000Y463600D02*
Y466400D01*
X465600Y447000D02*
X468400D01*
X467000Y445600D02*
Y448400D01*
X486600Y442000D02*
X489400D01*
X488000Y440600D02*
Y443400D01*
X449600Y402000D02*
X452400D01*
X451000Y400600D02*
Y403400D01*
X457600Y402000D02*
X460400D01*
X459000Y400600D02*
Y403400D01*
X445600Y396000D02*
X448400D01*
X447000Y394600D02*
Y397400D01*
X513600Y379000D02*
X516400D01*
X515000Y377600D02*
Y380400D01*
X457600Y395000D02*
X460400D01*
X459000Y393600D02*
Y396400D01*
X461600Y441000D02*
X464400D01*
X463000Y439600D02*
Y442400D01*
X511600Y547000D02*
X514400D01*
X513000Y545600D02*
Y548400D01*
X381600Y517000D02*
X384400D01*
X383000Y515600D02*
Y518400D01*
X389600Y517000D02*
X392400D01*
X391000Y515600D02*
Y518400D01*
X372600Y517000D02*
X375400D01*
X374000Y515600D02*
Y518400D01*
M02*
