G04 Layer_Color=2752767*
%FSLAX25Y25*%
%MOIN*%
G70*
G01*
G75*
%ADD25C,0.00500*%
%ADD26C,0.00667*%
D25*
X389000Y598000D02*
Y602000D01*
X393000D01*
Y598000D01*
X389000D01*
X399000D02*
Y602000D01*
X403000D01*
Y598000D01*
X399000D01*
X409000D02*
Y602000D01*
X413000D01*
Y598000D01*
X409000D01*
X486000Y616000D02*
Y620000D01*
X490000D01*
Y616000D01*
X486000D01*
X476000D02*
Y620000D01*
X480000D01*
Y616000D01*
X476000D01*
X466000D02*
Y620000D01*
X470000D01*
Y616000D01*
X466000D01*
X456000D02*
Y620000D01*
X460000D01*
Y616000D01*
X456000D01*
X446000Y664000D02*
Y668000D01*
X450000D01*
Y664000D01*
X446000D01*
Y674000D02*
Y678000D01*
X450000D01*
Y674000D01*
X446000D01*
Y684000D02*
Y688000D01*
X450000D01*
Y684000D01*
X446000D01*
Y694000D02*
Y698000D01*
X450000D01*
Y694000D01*
X446000D01*
X409000Y616000D02*
Y620000D01*
X413000D01*
Y616000D01*
X409000D01*
X419000D02*
Y620000D01*
X423000D01*
Y616000D01*
X419000D01*
X429000D02*
Y620000D01*
X433000D01*
Y616000D01*
X429000D01*
X439000D02*
Y620000D01*
X443000D01*
Y616000D01*
X439000D01*
X409000Y631000D02*
Y635000D01*
X413000D01*
Y631000D01*
X409000D01*
X419000D02*
Y635000D01*
X423000D01*
Y631000D01*
X419000D01*
X429000D02*
Y635000D01*
X433000D01*
Y631000D01*
X429000D01*
X439000D02*
Y635000D01*
X443000D01*
Y631000D01*
X439000D01*
X409000Y645000D02*
Y649000D01*
X413000D01*
Y645000D01*
X409000D01*
X419000D02*
Y649000D01*
X423000D01*
Y645000D01*
X419000D01*
X429000D02*
Y649000D01*
X433000D01*
Y645000D01*
X429000D01*
X439000D02*
Y649000D01*
X443000D01*
Y645000D01*
X439000D01*
X486000D02*
Y649000D01*
X490000D01*
Y645000D01*
X486000D01*
X476000D02*
Y649000D01*
X480000D01*
Y645000D01*
X476000D01*
X466000D02*
Y649000D01*
X470000D01*
Y645000D01*
X466000D01*
X456000D02*
Y649000D01*
X460000D01*
Y645000D01*
X456000D01*
X486000Y631000D02*
Y635000D01*
X490000D01*
Y631000D01*
X486000D01*
X476000D02*
Y635000D01*
X480000D01*
Y631000D01*
X476000D01*
X466000D02*
Y635000D01*
X470000D01*
Y631000D01*
X466000D01*
X456000D02*
Y635000D01*
X460000D01*
Y631000D01*
X456000D01*
X415000Y664000D02*
Y668000D01*
X419000D01*
Y664000D01*
X415000D01*
Y674000D02*
Y678000D01*
X419000D01*
Y674000D01*
X415000D01*
Y684000D02*
Y688000D01*
X419000D01*
Y684000D01*
X415000D01*
Y694000D02*
Y698000D01*
X419000D01*
Y694000D01*
X415000D01*
X430000D02*
Y698000D01*
X434000D01*
Y694000D01*
X430000D01*
Y684000D02*
Y688000D01*
X434000D01*
Y684000D01*
X430000D01*
Y674000D02*
Y678000D01*
X434000D01*
Y674000D01*
X430000D01*
Y664000D02*
Y668000D01*
X434000D01*
Y664000D01*
X430000D01*
X473000Y685000D02*
Y689000D01*
X477000D01*
Y685000D01*
X473000D01*
Y675000D02*
Y679000D01*
X477000D01*
Y675000D01*
X473000D01*
X454000Y598000D02*
Y602000D01*
X458000D01*
Y598000D01*
X454000D01*
X444000D02*
Y602000D01*
X448000D01*
Y598000D01*
X444000D01*
X434000D02*
Y602000D01*
X438000D01*
Y598000D01*
X434000D01*
X475000Y551000D02*
X473000Y555000D01*
X477000D01*
X475000Y551000D01*
X346000Y562000D02*
X344000Y566000D01*
X348000D01*
X346000Y562000D01*
X399000Y407000D02*
X397000Y411000D01*
X401000D01*
X399000Y407000D01*
X395000Y431000D02*
X393000Y435000D01*
X397000D01*
X395000Y431000D01*
X370000Y521000D02*
X368000Y525000D01*
X372000D01*
X370000Y521000D01*
X378000D02*
X376000Y525000D01*
X380000D01*
X378000Y521000D01*
X383000Y390000D02*
X381000Y394000D01*
X385000D01*
X383000Y390000D01*
X387000Y521000D02*
X385000Y525000D01*
X389000D01*
X387000Y521000D01*
X517000Y551000D02*
X515000Y555000D01*
X519000D01*
X517000Y551000D01*
X507000D02*
X505000Y555000D01*
X509000D01*
X507000Y551000D01*
X498000D02*
X496000Y555000D01*
X500000D01*
X498000Y551000D01*
X493000Y546000D02*
X491000Y550000D01*
X495000D01*
X493000Y546000D01*
X484000Y551000D02*
X482000Y555000D01*
X486000D01*
X484000Y551000D01*
Y463000D02*
X482000Y467000D01*
X486000D01*
X484000Y463000D01*
X467000Y445000D02*
X465000Y449000D01*
X469000D01*
X467000Y445000D01*
X488000Y440000D02*
X486000Y444000D01*
X490000D01*
X488000Y440000D01*
X451000Y400000D02*
X449000Y404000D01*
X453000D01*
X451000Y400000D01*
X459000D02*
X457000Y404000D01*
X461000D01*
X459000Y400000D01*
X447000Y394000D02*
X445000Y398000D01*
X449000D01*
X447000Y394000D01*
X515000Y377000D02*
X513000Y381000D01*
X517000D01*
X515000Y377000D01*
X459000Y393000D02*
X457000Y397000D01*
X461000D01*
X459000Y393000D01*
X463000Y439000D02*
X461000Y443000D01*
X465000D01*
X463000Y439000D01*
X513000Y545000D02*
X511000Y549000D01*
X515000D01*
X513000Y545000D01*
X383000Y515000D02*
X381000Y519000D01*
X385000D01*
X383000Y515000D01*
X391000D02*
X389000Y519000D01*
X393000D01*
X391000Y515000D01*
X374000D02*
X372000Y519000D01*
X376000D01*
X374000Y515000D01*
D26*
X542000Y293520D02*
G03*
X542000Y293520I-2000J0D01*
G01*
X532000D02*
G03*
X532000Y293520I-2000J0D01*
G01*
X362000D02*
G03*
X362000Y293520I-2000J0D01*
G01*
X352000D02*
G03*
X352000Y293520I-2000J0D01*
G01*
X542000Y469520D02*
G03*
X542000Y469520I-2000J0D01*
G01*
X532000D02*
G03*
X532000Y469520I-2000J0D01*
G01*
X542000Y479520D02*
G03*
X542000Y479520I-2000J0D01*
G01*
X532000D02*
G03*
X532000Y479520I-2000J0D01*
G01*
X542000Y489520D02*
G03*
X542000Y489520I-2000J0D01*
G01*
X532000D02*
G03*
X532000Y489520I-2000J0D01*
G01*
X542000Y499520D02*
G03*
X542000Y499520I-2000J0D01*
G01*
X532000D02*
G03*
X532000Y499520I-2000J0D01*
G01*
X542000Y509520D02*
G03*
X542000Y509520I-2000J0D01*
G01*
X532000D02*
G03*
X532000Y509520I-2000J0D01*
G01*
X542000Y519520D02*
G03*
X542000Y519520I-2000J0D01*
G01*
X532000D02*
G03*
X532000Y519520I-2000J0D01*
G01*
X542000Y529520D02*
G03*
X542000Y529520I-2000J0D01*
G01*
X532000D02*
G03*
X532000Y529520I-2000J0D01*
G01*
X542000Y539520D02*
G03*
X542000Y539520I-2000J0D01*
G01*
X532000D02*
G03*
X532000Y539520I-2000J0D01*
G01*
X542000Y549520D02*
G03*
X542000Y549520I-2000J0D01*
G01*
X532000D02*
G03*
X532000Y549520I-2000J0D01*
G01*
X542000Y303520D02*
G03*
X542000Y303520I-2000J0D01*
G01*
X532000D02*
G03*
X532000Y303520I-2000J0D01*
G01*
X542000Y313520D02*
G03*
X542000Y313520I-2000J0D01*
G01*
X532000D02*
G03*
X532000Y313520I-2000J0D01*
G01*
X542000Y323520D02*
G03*
X542000Y323520I-2000J0D01*
G01*
X532000D02*
G03*
X532000Y323520I-2000J0D01*
G01*
X542000Y333520D02*
G03*
X542000Y333520I-2000J0D01*
G01*
X532000D02*
G03*
X532000Y333520I-2000J0D01*
G01*
X542000Y343520D02*
G03*
X542000Y343520I-2000J0D01*
G01*
X532000D02*
G03*
X532000Y343520I-2000J0D01*
G01*
X542000Y353520D02*
G03*
X542000Y353520I-2000J0D01*
G01*
X532000D02*
G03*
X532000Y353520I-2000J0D01*
G01*
X542000Y363520D02*
G03*
X542000Y363520I-2000J0D01*
G01*
X532000D02*
G03*
X532000Y363520I-2000J0D01*
G01*
X542000Y373520D02*
G03*
X542000Y373520I-2000J0D01*
G01*
X532000D02*
G03*
X532000Y373520I-2000J0D01*
G01*
X542000Y383520D02*
G03*
X542000Y383520I-2000J0D01*
G01*
X532000D02*
G03*
X532000Y383520I-2000J0D01*
G01*
X542000Y393520D02*
G03*
X542000Y393520I-2000J0D01*
G01*
X532000D02*
G03*
X532000Y393520I-2000J0D01*
G01*
X542000Y403520D02*
G03*
X542000Y403520I-2000J0D01*
G01*
X532000D02*
G03*
X532000Y403520I-2000J0D01*
G01*
X542000Y413520D02*
G03*
X542000Y413520I-2000J0D01*
G01*
X532000D02*
G03*
X532000Y413520I-2000J0D01*
G01*
X542000Y423520D02*
G03*
X542000Y423520I-2000J0D01*
G01*
X532000D02*
G03*
X532000Y423520I-2000J0D01*
G01*
X542000Y433520D02*
G03*
X542000Y433520I-2000J0D01*
G01*
X532000D02*
G03*
X532000Y433520I-2000J0D01*
G01*
X542000Y443520D02*
G03*
X542000Y443520I-2000J0D01*
G01*
X532000D02*
G03*
X532000Y443520I-2000J0D01*
G01*
X542000Y453520D02*
G03*
X542000Y453520I-2000J0D01*
G01*
X532000D02*
G03*
X532000Y453520I-2000J0D01*
G01*
X542000Y559520D02*
G03*
X542000Y559520I-2000J0D01*
G01*
X532000D02*
G03*
X532000Y559520I-2000J0D01*
G01*
X362000Y303520D02*
G03*
X362000Y303520I-2000J0D01*
G01*
X352000D02*
G03*
X352000Y303520I-2000J0D01*
G01*
X362000Y313520D02*
G03*
X362000Y313520I-2000J0D01*
G01*
X352000D02*
G03*
X352000Y313520I-2000J0D01*
G01*
X362000Y323520D02*
G03*
X362000Y323520I-2000J0D01*
G01*
X352000D02*
G03*
X352000Y323520I-2000J0D01*
G01*
X362000Y333520D02*
G03*
X362000Y333520I-2000J0D01*
G01*
X352000D02*
G03*
X352000Y333520I-2000J0D01*
G01*
X362000Y343520D02*
G03*
X362000Y343520I-2000J0D01*
G01*
X352000D02*
G03*
X352000Y343520I-2000J0D01*
G01*
X362000Y353520D02*
G03*
X362000Y353520I-2000J0D01*
G01*
X352000D02*
G03*
X352000Y353520I-2000J0D01*
G01*
X362000Y363520D02*
G03*
X362000Y363520I-2000J0D01*
G01*
X352000D02*
G03*
X352000Y363520I-2000J0D01*
G01*
X362000Y373520D02*
G03*
X362000Y373520I-2000J0D01*
G01*
X352000D02*
G03*
X352000Y373520I-2000J0D01*
G01*
X362000Y383520D02*
G03*
X362000Y383520I-2000J0D01*
G01*
X352000D02*
G03*
X352000Y383520I-2000J0D01*
G01*
X362000Y393520D02*
G03*
X362000Y393520I-2000J0D01*
G01*
X352000D02*
G03*
X352000Y393520I-2000J0D01*
G01*
X362000Y403520D02*
G03*
X362000Y403520I-2000J0D01*
G01*
X352000D02*
G03*
X352000Y403520I-2000J0D01*
G01*
X362000Y413520D02*
G03*
X362000Y413520I-2000J0D01*
G01*
X352000D02*
G03*
X352000Y413520I-2000J0D01*
G01*
X362000Y423520D02*
G03*
X362000Y423520I-2000J0D01*
G01*
X352000D02*
G03*
X352000Y423520I-2000J0D01*
G01*
X362000Y433520D02*
G03*
X362000Y433520I-2000J0D01*
G01*
X352000D02*
G03*
X352000Y433520I-2000J0D01*
G01*
X362000Y453520D02*
G03*
X362000Y453520I-2000J0D01*
G01*
X352000D02*
G03*
X352000Y453520I-2000J0D01*
G01*
X362000Y463520D02*
G03*
X362000Y463520I-2000J0D01*
G01*
X352000D02*
G03*
X352000Y463520I-2000J0D01*
G01*
X362000Y473520D02*
G03*
X362000Y473520I-2000J0D01*
G01*
X352000D02*
G03*
X352000Y473520I-2000J0D01*
G01*
X362000Y483520D02*
G03*
X362000Y483520I-2000J0D01*
G01*
X352000D02*
G03*
X352000Y483520I-2000J0D01*
G01*
X362000Y493520D02*
G03*
X362000Y493520I-2000J0D01*
G01*
X352000D02*
G03*
X352000Y493520I-2000J0D01*
G01*
X362000Y503520D02*
G03*
X362000Y503520I-2000J0D01*
G01*
X352000D02*
G03*
X352000Y503520I-2000J0D01*
G01*
X362000Y513520D02*
G03*
X362000Y513520I-2000J0D01*
G01*
X352000D02*
G03*
X352000Y513520I-2000J0D01*
G01*
X362000Y523520D02*
G03*
X362000Y523520I-2000J0D01*
G01*
X352000D02*
G03*
X352000Y523520I-2000J0D01*
G01*
M02*
