G04 Layer_Color=255*
%FSLAX25Y25*%
%MOIN*%
G70*
G01*
G75*
%ADD11R,0.05906X0.05906*%
%ADD12C,0.05906*%
%ADD13R,0.05906X0.05906*%
%ADD14C,0.06024*%
%ADD15R,0.06024X0.06024*%
D11*
X391000Y600000D02*
D03*
X488000Y618000D02*
D03*
X411000D02*
D03*
Y633000D02*
D03*
Y647000D02*
D03*
X488000D02*
D03*
Y633000D02*
D03*
X436000Y600000D02*
D03*
D12*
X401000D02*
D03*
X411000D02*
D03*
X478000Y618000D02*
D03*
X468000D02*
D03*
X458000D02*
D03*
X448000Y676000D02*
D03*
Y686000D02*
D03*
Y696000D02*
D03*
X421000Y618000D02*
D03*
X431000D02*
D03*
X441000D02*
D03*
X421000Y633000D02*
D03*
X431000D02*
D03*
X441000D02*
D03*
X421000Y647000D02*
D03*
X431000D02*
D03*
X441000D02*
D03*
X478000D02*
D03*
X468000D02*
D03*
X458000D02*
D03*
X478000Y633000D02*
D03*
X468000D02*
D03*
X458000D02*
D03*
X417000Y676000D02*
D03*
Y686000D02*
D03*
Y696000D02*
D03*
X432000Y686000D02*
D03*
Y676000D02*
D03*
Y666000D02*
D03*
X475000Y687000D02*
D03*
X456000Y600000D02*
D03*
X446000D02*
D03*
D13*
X448000Y666000D02*
D03*
X417000D02*
D03*
X432000Y696000D02*
D03*
X475000Y677000D02*
D03*
D14*
X540000Y293520D02*
D03*
X530000D02*
D03*
X360000D02*
D03*
X350000D02*
D03*
X540000Y469520D02*
D03*
X530000D02*
D03*
X540000Y479520D02*
D03*
X530000D02*
D03*
X540000Y489520D02*
D03*
X530000D02*
D03*
X540000Y499520D02*
D03*
X530000D02*
D03*
X540000Y509520D02*
D03*
X530000D02*
D03*
X540000Y519520D02*
D03*
X530000D02*
D03*
X540000Y529520D02*
D03*
X530000D02*
D03*
X540000Y539520D02*
D03*
X530000D02*
D03*
X540000Y549520D02*
D03*
X530000D02*
D03*
X540000Y303520D02*
D03*
X530000D02*
D03*
X540000Y313520D02*
D03*
X530000D02*
D03*
X540000Y323520D02*
D03*
X530000D02*
D03*
X540000Y333520D02*
D03*
X530000D02*
D03*
X540000Y343520D02*
D03*
X530000D02*
D03*
X540000Y353520D02*
D03*
X530000D02*
D03*
X540000Y363520D02*
D03*
X530000D02*
D03*
X540000Y373520D02*
D03*
X530000D02*
D03*
X540000Y383520D02*
D03*
X530000D02*
D03*
X540000Y393520D02*
D03*
X530000D02*
D03*
X540000Y403520D02*
D03*
X530000D02*
D03*
X540000Y413520D02*
D03*
X530000D02*
D03*
X540000Y423520D02*
D03*
X530000D02*
D03*
X540000Y433520D02*
D03*
X530000D02*
D03*
X540000Y443520D02*
D03*
X530000D02*
D03*
X540000Y453520D02*
D03*
Y559520D02*
D03*
X360000Y303520D02*
D03*
X350000D02*
D03*
X360000Y313520D02*
D03*
X350000D02*
D03*
X360000Y323520D02*
D03*
X350000D02*
D03*
X360000Y333520D02*
D03*
X350000D02*
D03*
X360000Y343520D02*
D03*
X350000D02*
D03*
X360000Y353520D02*
D03*
X350000D02*
D03*
X360000Y363520D02*
D03*
X350000D02*
D03*
X360000Y373520D02*
D03*
X350000D02*
D03*
X360000Y383520D02*
D03*
X350000D02*
D03*
X360000Y393520D02*
D03*
X350000D02*
D03*
X360000Y403520D02*
D03*
X350000D02*
D03*
X360000Y413520D02*
D03*
X350000D02*
D03*
X360000Y423520D02*
D03*
X350000D02*
D03*
X360000Y433520D02*
D03*
Y453520D02*
D03*
X350000D02*
D03*
X360000Y463520D02*
D03*
X350000D02*
D03*
X360000Y473520D02*
D03*
X350000D02*
D03*
X360000Y483520D02*
D03*
X350000D02*
D03*
X360000Y493520D02*
D03*
X350000D02*
D03*
X360000Y503520D02*
D03*
X350000D02*
D03*
X360000Y513520D02*
D03*
X350000D02*
D03*
X360000Y523520D02*
D03*
D15*
X530000Y453520D02*
D03*
Y559520D02*
D03*
X350000Y433520D02*
D03*
Y523520D02*
D03*
M02*
