G04 Layer_Color=16711935*
%FSLAX25Y25*%
%MOIN*%
G70*
G01*
G75*
%ADD17R,0.06706X0.06706*%
%ADD18C,0.06706*%
%ADD19R,0.06706X0.06706*%
%ADD20C,0.06824*%
%ADD21R,0.06824X0.06824*%
%ADD22C,0.05800*%
D17*
X391000Y600000D02*
D03*
X488000Y618000D02*
D03*
X411000D02*
D03*
Y633000D02*
D03*
Y647000D02*
D03*
X488000D02*
D03*
Y633000D02*
D03*
X436000Y600000D02*
D03*
D18*
X401000D02*
D03*
X411000D02*
D03*
X478000Y618000D02*
D03*
X468000D02*
D03*
X458000D02*
D03*
X448000Y676000D02*
D03*
Y686000D02*
D03*
Y696000D02*
D03*
X421000Y618000D02*
D03*
X431000D02*
D03*
X441000D02*
D03*
X421000Y633000D02*
D03*
X431000D02*
D03*
X441000D02*
D03*
X421000Y647000D02*
D03*
X431000D02*
D03*
X441000D02*
D03*
X478000D02*
D03*
X468000D02*
D03*
X458000D02*
D03*
X478000Y633000D02*
D03*
X468000D02*
D03*
X458000D02*
D03*
X417000Y676000D02*
D03*
Y686000D02*
D03*
Y696000D02*
D03*
X432000Y686000D02*
D03*
Y676000D02*
D03*
Y666000D02*
D03*
X475000Y687000D02*
D03*
X456000Y600000D02*
D03*
X446000D02*
D03*
D19*
X448000Y666000D02*
D03*
X417000D02*
D03*
X432000Y696000D02*
D03*
X475000Y677000D02*
D03*
D20*
X540000Y293520D02*
D03*
X530000D02*
D03*
X360000D02*
D03*
X350000D02*
D03*
X540000Y469520D02*
D03*
X530000D02*
D03*
X540000Y479520D02*
D03*
X530000D02*
D03*
X540000Y489520D02*
D03*
X530000D02*
D03*
X540000Y499520D02*
D03*
X530000D02*
D03*
X540000Y509520D02*
D03*
X530000D02*
D03*
X540000Y519520D02*
D03*
X530000D02*
D03*
X540000Y529520D02*
D03*
X530000D02*
D03*
X540000Y539520D02*
D03*
X530000D02*
D03*
X540000Y549520D02*
D03*
X530000D02*
D03*
X540000Y303520D02*
D03*
X530000D02*
D03*
X540000Y313520D02*
D03*
X530000D02*
D03*
X540000Y323520D02*
D03*
X530000D02*
D03*
X540000Y333520D02*
D03*
X530000D02*
D03*
X540000Y343520D02*
D03*
X530000D02*
D03*
X540000Y353520D02*
D03*
X530000D02*
D03*
X540000Y363520D02*
D03*
X530000D02*
D03*
X540000Y373520D02*
D03*
X530000D02*
D03*
X540000Y383520D02*
D03*
X530000D02*
D03*
X540000Y393520D02*
D03*
X530000D02*
D03*
X540000Y403520D02*
D03*
X530000D02*
D03*
X540000Y413520D02*
D03*
X530000D02*
D03*
X540000Y423520D02*
D03*
X530000D02*
D03*
X540000Y433520D02*
D03*
X530000D02*
D03*
X540000Y443520D02*
D03*
X530000D02*
D03*
X540000Y453520D02*
D03*
Y559520D02*
D03*
X360000Y303520D02*
D03*
X350000D02*
D03*
X360000Y313520D02*
D03*
X350000D02*
D03*
X360000Y323520D02*
D03*
X350000D02*
D03*
X360000Y333520D02*
D03*
X350000D02*
D03*
X360000Y343520D02*
D03*
X350000D02*
D03*
X360000Y353520D02*
D03*
X350000D02*
D03*
X360000Y363520D02*
D03*
X350000D02*
D03*
X360000Y373520D02*
D03*
X350000D02*
D03*
X360000Y383520D02*
D03*
X350000D02*
D03*
X360000Y393520D02*
D03*
X350000D02*
D03*
X360000Y403520D02*
D03*
X350000D02*
D03*
X360000Y413520D02*
D03*
X350000D02*
D03*
X360000Y423520D02*
D03*
X350000D02*
D03*
X360000Y433520D02*
D03*
Y453520D02*
D03*
X350000D02*
D03*
X360000Y463520D02*
D03*
X350000D02*
D03*
X360000Y473520D02*
D03*
X350000D02*
D03*
X360000Y483520D02*
D03*
X350000D02*
D03*
X360000Y493520D02*
D03*
X350000D02*
D03*
X360000Y503520D02*
D03*
X350000D02*
D03*
X360000Y513520D02*
D03*
X350000D02*
D03*
X360000Y523520D02*
D03*
D21*
X530000Y453520D02*
D03*
Y559520D02*
D03*
X350000Y433520D02*
D03*
Y523520D02*
D03*
D22*
X475000Y553000D02*
D03*
X346000Y564000D02*
D03*
X399000Y409000D02*
D03*
X395000Y433000D02*
D03*
X370000Y523000D02*
D03*
X378000D02*
D03*
X383000Y392000D02*
D03*
X387000Y523000D02*
D03*
X517000Y553000D02*
D03*
X507000D02*
D03*
X498000D02*
D03*
X493000Y548000D02*
D03*
X484000Y553000D02*
D03*
Y465000D02*
D03*
X467000Y447000D02*
D03*
X488000Y442000D02*
D03*
X451000Y402000D02*
D03*
X459000D02*
D03*
X447000Y396000D02*
D03*
X515000Y379000D02*
D03*
X459000Y395000D02*
D03*
X463000Y441000D02*
D03*
X513000Y547000D02*
D03*
X383000Y517000D02*
D03*
X391000D02*
D03*
X374000D02*
D03*
M02*
