G04 Layer_Physical_Order=1*
G04 Layer_Color=255*
%FSLAX25Y25*%
%MOIN*%
G70*
G01*
G75*
%ADD10C,0.01000*%
%ADD11R,0.05906X0.05906*%
%ADD12C,0.05906*%
%ADD13R,0.05906X0.05906*%
%ADD14C,0.06024*%
%ADD15R,0.06024X0.06024*%
%ADD16C,0.05000*%
G36*
X549000Y635837D02*
Y291000D01*
X549471Y290529D01*
Y289633D01*
X545366Y285529D01*
X522634D01*
X520000Y288163D01*
Y323000D01*
X510000Y333000D01*
X413000D01*
X412529Y332529D01*
X412000D01*
X411415Y332413D01*
X410919Y332081D01*
X368919Y290082D01*
X368919Y290081D01*
X365367Y286529D01*
X342634D01*
X340529Y288633D01*
Y527000D01*
Y646367D01*
X408634Y714471D01*
X470366D01*
X549000Y635837D01*
D02*
G37*
%LPC*%
G36*
X530000Y367566D02*
X528953Y367428D01*
X527977Y367024D01*
X527139Y366381D01*
X526496Y365543D01*
X526091Y364567D01*
X525954Y363520D01*
X526091Y362472D01*
X526496Y361496D01*
X527139Y360658D01*
X527977Y360015D01*
X528953Y359611D01*
X530000Y359473D01*
X531047Y359611D01*
X532023Y360015D01*
X532861Y360658D01*
X533504Y361496D01*
X533909Y362472D01*
X534046Y363520D01*
X533909Y364567D01*
X533504Y365543D01*
X532861Y366381D01*
X532023Y367024D01*
X531047Y367428D01*
X530000Y367566D01*
D02*
G37*
G36*
X360000D02*
X358953Y367428D01*
X357977Y367024D01*
X357139Y366381D01*
X356496Y365543D01*
X356091Y364567D01*
X355954Y363520D01*
X356091Y362472D01*
X356496Y361496D01*
X357139Y360658D01*
X357977Y360015D01*
X358953Y359611D01*
X360000Y359473D01*
X361047Y359611D01*
X362023Y360015D01*
X362861Y360658D01*
X363504Y361496D01*
X363909Y362472D01*
X364046Y363520D01*
X363909Y364567D01*
X363504Y365543D01*
X362861Y366381D01*
X362023Y367024D01*
X361047Y367428D01*
X360000Y367566D01*
D02*
G37*
G36*
X540000Y387566D02*
X538953Y387428D01*
X537977Y387024D01*
X537139Y386381D01*
X536496Y385543D01*
X536091Y384567D01*
X535954Y383520D01*
X536091Y382472D01*
X536496Y381497D01*
X537139Y380658D01*
X537977Y380015D01*
X538953Y379611D01*
X540000Y379473D01*
X541047Y379611D01*
X542023Y380015D01*
X542861Y380658D01*
X543504Y381497D01*
X543909Y382472D01*
X544046Y383520D01*
X543909Y384567D01*
X543504Y385543D01*
X542861Y386381D01*
X542023Y387024D01*
X541047Y387428D01*
X540000Y387566D01*
D02*
G37*
G36*
Y367566D02*
X538953Y367428D01*
X537977Y367024D01*
X537139Y366381D01*
X536496Y365543D01*
X536091Y364567D01*
X535954Y363520D01*
X536091Y362472D01*
X536496Y361496D01*
X537139Y360658D01*
X537977Y360015D01*
X538953Y359611D01*
X540000Y359473D01*
X541047Y359611D01*
X542023Y360015D01*
X542861Y360658D01*
X543504Y361496D01*
X543909Y362472D01*
X544046Y363520D01*
X543909Y364567D01*
X543504Y365543D01*
X542861Y366381D01*
X542023Y367024D01*
X541047Y367428D01*
X540000Y367566D01*
D02*
G37*
G36*
Y357566D02*
X538953Y357428D01*
X537977Y357024D01*
X537139Y356381D01*
X536496Y355543D01*
X536091Y354567D01*
X535954Y353520D01*
X536091Y352472D01*
X536496Y351497D01*
X537139Y350658D01*
X537977Y350015D01*
X538953Y349611D01*
X540000Y349473D01*
X541047Y349611D01*
X542023Y350015D01*
X542861Y350658D01*
X543504Y351497D01*
X543909Y352472D01*
X544046Y353520D01*
X543909Y354567D01*
X543504Y355543D01*
X542861Y356381D01*
X542023Y357024D01*
X541047Y357428D01*
X540000Y357566D01*
D02*
G37*
G36*
X350000Y347566D02*
X348953Y347428D01*
X347977Y347024D01*
X347139Y346381D01*
X346496Y345543D01*
X346091Y344567D01*
X345954Y343520D01*
X346091Y342472D01*
X346496Y341496D01*
X347139Y340658D01*
X347977Y340015D01*
X348953Y339611D01*
X350000Y339473D01*
X351047Y339611D01*
X352023Y340015D01*
X352861Y340658D01*
X353504Y341496D01*
X353909Y342472D01*
X354046Y343520D01*
X353909Y344567D01*
X353504Y345543D01*
X352861Y346381D01*
X352023Y347024D01*
X351047Y347428D01*
X350000Y347566D01*
D02*
G37*
G36*
X540000Y337566D02*
X538953Y337428D01*
X537977Y337024D01*
X537139Y336381D01*
X536496Y335543D01*
X536091Y334567D01*
X535954Y333520D01*
X536091Y332472D01*
X536496Y331497D01*
X537139Y330658D01*
X537977Y330015D01*
X538953Y329611D01*
X540000Y329473D01*
X541047Y329611D01*
X542023Y330015D01*
X542861Y330658D01*
X543504Y331497D01*
X543909Y332472D01*
X544046Y333520D01*
X543909Y334567D01*
X543504Y335543D01*
X542861Y336381D01*
X542023Y337024D01*
X541047Y337428D01*
X540000Y337566D01*
D02*
G37*
G36*
Y347566D02*
X538953Y347428D01*
X537977Y347024D01*
X537139Y346381D01*
X536496Y345543D01*
X536091Y344567D01*
X535954Y343520D01*
X536091Y342472D01*
X536496Y341496D01*
X537139Y340658D01*
X537977Y340015D01*
X538953Y339611D01*
X540000Y339473D01*
X541047Y339611D01*
X542023Y340015D01*
X542861Y340658D01*
X543504Y341496D01*
X543909Y342472D01*
X544046Y343520D01*
X543909Y344567D01*
X543504Y345543D01*
X542861Y346381D01*
X542023Y347024D01*
X541047Y347428D01*
X540000Y347566D01*
D02*
G37*
G36*
X360000D02*
X358953Y347428D01*
X357977Y347024D01*
X357139Y346381D01*
X356496Y345543D01*
X356091Y344567D01*
X355954Y343520D01*
X356091Y342472D01*
X356496Y341496D01*
X357139Y340658D01*
X357977Y340015D01*
X358953Y339611D01*
X360000Y339473D01*
X361047Y339611D01*
X362023Y340015D01*
X362861Y340658D01*
X363504Y341496D01*
X363909Y342472D01*
X364046Y343520D01*
X363909Y344567D01*
X363504Y345543D01*
X362861Y346381D01*
X362023Y347024D01*
X361047Y347428D01*
X360000Y347566D01*
D02*
G37*
G36*
X530000Y387566D02*
X528953Y387428D01*
X527977Y387024D01*
X527139Y386381D01*
X526496Y385543D01*
X526091Y384567D01*
X525954Y383520D01*
X526091Y382472D01*
X526496Y381497D01*
X526854Y381029D01*
X526608Y380529D01*
X518155D01*
X518057Y380765D01*
X517496Y381496D01*
X516765Y382057D01*
X515914Y382410D01*
X515000Y382530D01*
X514086Y382410D01*
X513235Y382057D01*
X512504Y381496D01*
X511943Y380765D01*
X511590Y379914D01*
X511470Y379000D01*
X511590Y378086D01*
X511943Y377235D01*
X512504Y376504D01*
X513235Y375943D01*
X514086Y375590D01*
X515000Y375470D01*
X515914Y375590D01*
X516765Y375943D01*
X517496Y376504D01*
X518057Y377235D01*
X518155Y377471D01*
X527770D01*
X527882Y377228D01*
X527907Y376971D01*
X527139Y376381D01*
X526496Y375543D01*
X526091Y374567D01*
X525954Y373520D01*
X526091Y372472D01*
X526496Y371497D01*
X527139Y370658D01*
X527977Y370015D01*
X528953Y369611D01*
X530000Y369473D01*
X531047Y369611D01*
X532023Y370015D01*
X532861Y370658D01*
X533504Y371497D01*
X533909Y372472D01*
X534046Y373520D01*
X533909Y374567D01*
X533504Y375543D01*
X532861Y376381D01*
X532093Y376971D01*
X532118Y377228D01*
X532230Y377471D01*
X533886D01*
X536296Y375061D01*
X536091Y374567D01*
X535954Y373520D01*
X536091Y372472D01*
X536496Y371497D01*
X537139Y370658D01*
X537977Y370015D01*
X538953Y369611D01*
X540000Y369473D01*
X541047Y369611D01*
X542023Y370015D01*
X542861Y370658D01*
X543504Y371497D01*
X543909Y372472D01*
X544046Y373520D01*
X543909Y374567D01*
X543504Y375543D01*
X542861Y376381D01*
X542023Y377024D01*
X541047Y377428D01*
X540000Y377566D01*
X538953Y377428D01*
X538459Y377224D01*
X535601Y380081D01*
X535105Y380413D01*
X534520Y380529D01*
X533392D01*
X533146Y381029D01*
X533504Y381497D01*
X533909Y382472D01*
X534046Y383520D01*
X533909Y384567D01*
X533504Y385543D01*
X532861Y386381D01*
X532023Y387024D01*
X531047Y387428D01*
X530000Y387566D01*
D02*
G37*
G36*
X360000Y467566D02*
X358953Y467428D01*
X357977Y467024D01*
X357139Y466381D01*
X356496Y465543D01*
X356091Y464567D01*
X355954Y463520D01*
X356091Y462472D01*
X356496Y461496D01*
X357139Y460658D01*
X357977Y460015D01*
X358953Y459611D01*
X360000Y459473D01*
X361047Y459611D01*
X362023Y460015D01*
X362861Y460658D01*
X363504Y461496D01*
X363909Y462472D01*
X364046Y463520D01*
X363909Y464567D01*
X363504Y465543D01*
X362861Y466381D01*
X362023Y467024D01*
X361047Y467428D01*
X360000Y467566D01*
D02*
G37*
G36*
Y457566D02*
X358953Y457428D01*
X357977Y457024D01*
X357139Y456381D01*
X356496Y455543D01*
X356091Y454567D01*
X355954Y453520D01*
X356091Y452472D01*
X356496Y451497D01*
X357139Y450658D01*
X357977Y450015D01*
X358953Y449611D01*
X360000Y449473D01*
X361047Y449611D01*
X362023Y450015D01*
X362861Y450658D01*
X363504Y451497D01*
X363909Y452472D01*
X364046Y453520D01*
X363909Y454567D01*
X363504Y455543D01*
X362861Y456381D01*
X362023Y457024D01*
X361047Y457428D01*
X360000Y457566D01*
D02*
G37*
G36*
X484000Y556530D02*
X483086Y556410D01*
X482235Y556057D01*
X481504Y555496D01*
X480943Y554765D01*
X480590Y553914D01*
X480470Y553000D01*
X480590Y552086D01*
X480943Y551235D01*
X481504Y550504D01*
X482235Y549943D01*
X482471Y549845D01*
Y468155D01*
X482235Y468057D01*
X481504Y467496D01*
X480943Y466765D01*
X480590Y465914D01*
X480470Y465000D01*
X480590Y464086D01*
X480943Y463235D01*
X481504Y462504D01*
X482235Y461943D01*
X483086Y461590D01*
X484000Y461470D01*
X484914Y461590D01*
X485765Y461943D01*
X486496Y462504D01*
X487057Y463235D01*
X487410Y464086D01*
X487530Y465000D01*
X487410Y465914D01*
X487057Y466765D01*
X486496Y467496D01*
X485765Y468057D01*
X485529Y468155D01*
Y549845D01*
X485765Y549943D01*
X486496Y550504D01*
X487057Y551235D01*
X487410Y552086D01*
X487530Y553000D01*
X487410Y553914D01*
X487057Y554765D01*
X486496Y555496D01*
X485765Y556057D01*
X484914Y556410D01*
X484000Y556530D01*
D02*
G37*
G36*
X353981Y463020D02*
X350500D01*
Y459539D01*
X351047Y459611D01*
X352023Y460015D01*
X352861Y460658D01*
X353504Y461496D01*
X353909Y462472D01*
X353981Y463020D01*
D02*
G37*
G36*
X530000Y437566D02*
X528953Y437428D01*
X527977Y437024D01*
X527139Y436381D01*
X526496Y435543D01*
X526091Y434567D01*
X525954Y433520D01*
X526091Y432472D01*
X526496Y431496D01*
X527139Y430658D01*
X527977Y430015D01*
X528953Y429611D01*
X530000Y429473D01*
X531047Y429611D01*
X532023Y430015D01*
X532861Y430658D01*
X533504Y431496D01*
X533909Y432472D01*
X534046Y433520D01*
X533909Y434567D01*
X533504Y435543D01*
X532861Y436381D01*
X532023Y437024D01*
X531047Y437428D01*
X530000Y437566D01*
D02*
G37*
G36*
X540000Y397566D02*
X538953Y397428D01*
X537977Y397024D01*
X537139Y396381D01*
X536496Y395543D01*
X536091Y394567D01*
X535954Y393520D01*
X536091Y392472D01*
X536496Y391496D01*
X537139Y390658D01*
X537977Y390015D01*
X538953Y389611D01*
X540000Y389473D01*
X541047Y389611D01*
X542023Y390015D01*
X542861Y390658D01*
X543504Y391496D01*
X543909Y392472D01*
X544046Y393520D01*
X543909Y394567D01*
X543504Y395543D01*
X542861Y396381D01*
X542023Y397024D01*
X541047Y397428D01*
X540000Y397566D01*
D02*
G37*
G36*
X530000D02*
X528953Y397428D01*
X527977Y397024D01*
X527139Y396381D01*
X526496Y395543D01*
X526091Y394567D01*
X525954Y393520D01*
X526091Y392472D01*
X526496Y391496D01*
X527139Y390658D01*
X527977Y390015D01*
X528953Y389611D01*
X530000Y389473D01*
X531047Y389611D01*
X532023Y390015D01*
X532861Y390658D01*
X533504Y391496D01*
X533909Y392472D01*
X534046Y393520D01*
X533909Y394567D01*
X533504Y395543D01*
X532861Y396381D01*
X532023Y397024D01*
X531047Y397428D01*
X530000Y397566D01*
D02*
G37*
G36*
Y427566D02*
X528953Y427428D01*
X527977Y427024D01*
X527139Y426381D01*
X526496Y425543D01*
X526091Y424567D01*
X525954Y423520D01*
X526091Y422472D01*
X526496Y421496D01*
X527139Y420658D01*
X527977Y420015D01*
X528953Y419611D01*
X530000Y419473D01*
X531047Y419611D01*
X532023Y420015D01*
X532861Y420658D01*
X533504Y421496D01*
X533909Y422472D01*
X534046Y423520D01*
X533909Y424567D01*
X533504Y425543D01*
X532861Y426381D01*
X532023Y427024D01*
X531047Y427428D01*
X530000Y427566D01*
D02*
G37*
G36*
X540000Y417566D02*
X538953Y417428D01*
X537977Y417024D01*
X537139Y416381D01*
X536496Y415543D01*
X536091Y414567D01*
X535954Y413520D01*
X536091Y412472D01*
X536496Y411496D01*
X537139Y410658D01*
X537977Y410015D01*
X538953Y409611D01*
X540000Y409473D01*
X541047Y409611D01*
X542023Y410015D01*
X542861Y410658D01*
X543504Y411496D01*
X543909Y412472D01*
X544046Y413520D01*
X543909Y414567D01*
X543504Y415543D01*
X542861Y416381D01*
X542023Y417024D01*
X541047Y417428D01*
X540000Y417566D01*
D02*
G37*
G36*
X530000Y307566D02*
X528953Y307428D01*
X527977Y307024D01*
X527139Y306381D01*
X526496Y305543D01*
X526091Y304567D01*
X525954Y303520D01*
X526091Y302472D01*
X526496Y301497D01*
X527139Y300658D01*
X527977Y300015D01*
X528953Y299611D01*
X530000Y299473D01*
X531047Y299611D01*
X532023Y300015D01*
X532861Y300658D01*
X533504Y301497D01*
X533909Y302472D01*
X534046Y303520D01*
X533909Y304567D01*
X533504Y305543D01*
X532861Y306381D01*
X532023Y307024D01*
X531047Y307428D01*
X530000Y307566D01*
D02*
G37*
G36*
X360000D02*
X358953Y307428D01*
X357977Y307024D01*
X357139Y306381D01*
X356496Y305543D01*
X356091Y304567D01*
X355954Y303520D01*
X356091Y302472D01*
X356496Y301497D01*
X357139Y300658D01*
X357977Y300015D01*
X358953Y299611D01*
X360000Y299473D01*
X361047Y299611D01*
X362023Y300015D01*
X362861Y300658D01*
X363504Y301497D01*
X363909Y302472D01*
X364046Y303520D01*
X363909Y304567D01*
X363504Y305543D01*
X362861Y306381D01*
X362023Y307024D01*
X361047Y307428D01*
X360000Y307566D01*
D02*
G37*
G36*
X350000Y317566D02*
X348953Y317428D01*
X347977Y317024D01*
X347139Y316381D01*
X346496Y315543D01*
X346091Y314567D01*
X345954Y313520D01*
X346091Y312472D01*
X346496Y311496D01*
X347139Y310658D01*
X347977Y310015D01*
X348953Y309611D01*
X350000Y309473D01*
X351047Y309611D01*
X352023Y310015D01*
X352861Y310658D01*
X353504Y311496D01*
X353909Y312472D01*
X354046Y313520D01*
X353909Y314567D01*
X353504Y315543D01*
X352861Y316381D01*
X352023Y317024D01*
X351047Y317428D01*
X350000Y317566D01*
D02*
G37*
G36*
X540000Y307566D02*
X538953Y307428D01*
X537977Y307024D01*
X537139Y306381D01*
X536496Y305543D01*
X536091Y304567D01*
X535954Y303520D01*
X536091Y302472D01*
X536496Y301497D01*
X537139Y300658D01*
X537977Y300015D01*
X538953Y299611D01*
X540000Y299473D01*
X541047Y299611D01*
X542023Y300015D01*
X542861Y300658D01*
X543504Y301497D01*
X543909Y302472D01*
X544046Y303520D01*
X543909Y304567D01*
X543504Y305543D01*
X542861Y306381D01*
X542023Y307024D01*
X541047Y307428D01*
X540000Y307566D01*
D02*
G37*
G36*
X350000D02*
X348953Y307428D01*
X347977Y307024D01*
X347139Y306381D01*
X346496Y305543D01*
X346091Y304567D01*
X345954Y303520D01*
X346091Y302472D01*
X346496Y301497D01*
X347139Y300658D01*
X347977Y300015D01*
X348953Y299611D01*
X350000Y299473D01*
X351047Y299611D01*
X352023Y300015D01*
X352861Y300658D01*
X353504Y301497D01*
X353909Y302472D01*
X354046Y303520D01*
X353909Y304567D01*
X353504Y305543D01*
X352861Y306381D01*
X352023Y307024D01*
X351047Y307428D01*
X350000Y307566D01*
D02*
G37*
G36*
X360000Y297566D02*
X358953Y297428D01*
X357977Y297024D01*
X357139Y296381D01*
X356496Y295543D01*
X356091Y294567D01*
X355954Y293520D01*
X356091Y292472D01*
X356496Y291496D01*
X357139Y290658D01*
X357977Y290015D01*
X358953Y289611D01*
X360000Y289473D01*
X361047Y289611D01*
X362023Y290015D01*
X362861Y290658D01*
X363504Y291496D01*
X363909Y292472D01*
X364046Y293520D01*
X363909Y294567D01*
X363504Y295543D01*
X362861Y296381D01*
X362023Y297024D01*
X361047Y297428D01*
X360000Y297566D01*
D02*
G37*
G36*
X350000D02*
X348953Y297428D01*
X347977Y297024D01*
X347139Y296381D01*
X346496Y295543D01*
X346091Y294567D01*
X345954Y293520D01*
X346091Y292472D01*
X346496Y291496D01*
X347139Y290658D01*
X347977Y290015D01*
X348953Y289611D01*
X350000Y289473D01*
X351047Y289611D01*
X352023Y290015D01*
X352861Y290658D01*
X353504Y291496D01*
X353909Y292472D01*
X354046Y293520D01*
X353909Y294567D01*
X353504Y295543D01*
X352861Y296381D01*
X352023Y297024D01*
X351047Y297428D01*
X350000Y297566D01*
D02*
G37*
G36*
X540000D02*
X538953Y297428D01*
X537977Y297024D01*
X537139Y296381D01*
X536496Y295543D01*
X536091Y294567D01*
X535954Y293520D01*
X536091Y292472D01*
X536496Y291496D01*
X537139Y290658D01*
X537977Y290015D01*
X538953Y289611D01*
X540000Y289473D01*
X541047Y289611D01*
X542023Y290015D01*
X542861Y290658D01*
X543504Y291496D01*
X543909Y292472D01*
X544046Y293520D01*
X543909Y294567D01*
X543504Y295543D01*
X542861Y296381D01*
X542023Y297024D01*
X541047Y297428D01*
X540000Y297566D01*
D02*
G37*
G36*
X530000D02*
X528953Y297428D01*
X527977Y297024D01*
X527139Y296381D01*
X526496Y295543D01*
X526091Y294567D01*
X525954Y293520D01*
X526091Y292472D01*
X526496Y291496D01*
X527139Y290658D01*
X527977Y290015D01*
X528953Y289611D01*
X530000Y289473D01*
X531047Y289611D01*
X532023Y290015D01*
X532861Y290658D01*
X533504Y291496D01*
X533909Y292472D01*
X534046Y293520D01*
X533909Y294567D01*
X533504Y295543D01*
X532861Y296381D01*
X532023Y297024D01*
X531047Y297428D01*
X530000Y297566D01*
D02*
G37*
G36*
X360000Y317566D02*
X358953Y317428D01*
X357977Y317024D01*
X357139Y316381D01*
X356496Y315543D01*
X356091Y314567D01*
X355954Y313520D01*
X356091Y312472D01*
X356496Y311496D01*
X357139Y310658D01*
X357977Y310015D01*
X358953Y309611D01*
X360000Y309473D01*
X361047Y309611D01*
X362023Y310015D01*
X362861Y310658D01*
X363504Y311496D01*
X363909Y312472D01*
X364046Y313520D01*
X363909Y314567D01*
X363504Y315543D01*
X362861Y316381D01*
X362023Y317024D01*
X361047Y317428D01*
X360000Y317566D01*
D02*
G37*
G36*
X350000Y337566D02*
X348953Y337428D01*
X347977Y337024D01*
X347139Y336381D01*
X346496Y335543D01*
X346091Y334567D01*
X345954Y333520D01*
X346091Y332472D01*
X346496Y331497D01*
X347139Y330658D01*
X347977Y330015D01*
X348953Y329611D01*
X350000Y329473D01*
X351047Y329611D01*
X352023Y330015D01*
X352861Y330658D01*
X353504Y331497D01*
X353909Y332472D01*
X354046Y333520D01*
X353909Y334567D01*
X353504Y335543D01*
X352861Y336381D01*
X352023Y337024D01*
X351047Y337428D01*
X350000Y337566D01*
D02*
G37*
G36*
X540000Y327566D02*
X538953Y327428D01*
X537977Y327024D01*
X537139Y326381D01*
X536496Y325543D01*
X536091Y324567D01*
X535954Y323520D01*
X536091Y322472D01*
X536496Y321497D01*
X537139Y320658D01*
X537977Y320015D01*
X538953Y319611D01*
X540000Y319473D01*
X541047Y319611D01*
X542023Y320015D01*
X542861Y320658D01*
X543504Y321497D01*
X543909Y322472D01*
X544046Y323520D01*
X543909Y324567D01*
X543504Y325543D01*
X542861Y326381D01*
X542023Y327024D01*
X541047Y327428D01*
X540000Y327566D01*
D02*
G37*
G36*
X530000Y337566D02*
X528953Y337428D01*
X527977Y337024D01*
X527139Y336381D01*
X526496Y335543D01*
X526091Y334567D01*
X525954Y333520D01*
X526091Y332472D01*
X526496Y331497D01*
X527139Y330658D01*
X527977Y330015D01*
X528953Y329611D01*
X530000Y329473D01*
X531047Y329611D01*
X532023Y330015D01*
X532861Y330658D01*
X533504Y331497D01*
X533909Y332472D01*
X534046Y333520D01*
X533909Y334567D01*
X533504Y335543D01*
X532861Y336381D01*
X532023Y337024D01*
X531047Y337428D01*
X530000Y337566D01*
D02*
G37*
G36*
X360000D02*
X358953Y337428D01*
X357977Y337024D01*
X357139Y336381D01*
X356496Y335543D01*
X356091Y334567D01*
X355954Y333520D01*
X356091Y332472D01*
X356496Y331497D01*
X357139Y330658D01*
X357977Y330015D01*
X358953Y329611D01*
X360000Y329473D01*
X361047Y329611D01*
X362023Y330015D01*
X362861Y330658D01*
X363504Y331497D01*
X363909Y332472D01*
X364046Y333520D01*
X363909Y334567D01*
X363504Y335543D01*
X362861Y336381D01*
X362023Y337024D01*
X361047Y337428D01*
X360000Y337566D01*
D02*
G37*
G36*
X530000Y327566D02*
X528953Y327428D01*
X527977Y327024D01*
X527139Y326381D01*
X526496Y325543D01*
X526091Y324567D01*
X525954Y323520D01*
X526091Y322472D01*
X526496Y321497D01*
X527139Y320658D01*
X527977Y320015D01*
X528953Y319611D01*
X530000Y319473D01*
X531047Y319611D01*
X532023Y320015D01*
X532861Y320658D01*
X533504Y321497D01*
X533909Y322472D01*
X534046Y323520D01*
X533909Y324567D01*
X533504Y325543D01*
X532861Y326381D01*
X532023Y327024D01*
X531047Y327428D01*
X530000Y327566D01*
D02*
G37*
G36*
X540000Y317566D02*
X538953Y317428D01*
X537977Y317024D01*
X537139Y316381D01*
X536496Y315543D01*
X536091Y314567D01*
X535954Y313520D01*
X536091Y312472D01*
X536496Y311496D01*
X537139Y310658D01*
X537977Y310015D01*
X538953Y309611D01*
X540000Y309473D01*
X541047Y309611D01*
X542023Y310015D01*
X542861Y310658D01*
X543504Y311496D01*
X543909Y312472D01*
X544046Y313520D01*
X543909Y314567D01*
X543504Y315543D01*
X542861Y316381D01*
X542023Y317024D01*
X541047Y317428D01*
X540000Y317566D01*
D02*
G37*
G36*
X530000D02*
X528953Y317428D01*
X527977Y317024D01*
X527139Y316381D01*
X526496Y315543D01*
X526091Y314567D01*
X525954Y313520D01*
X526091Y312472D01*
X526496Y311496D01*
X527139Y310658D01*
X527977Y310015D01*
X528953Y309611D01*
X530000Y309473D01*
X531047Y309611D01*
X532023Y310015D01*
X532861Y310658D01*
X533504Y311496D01*
X533909Y312472D01*
X534046Y313520D01*
X533909Y314567D01*
X533504Y315543D01*
X532861Y316381D01*
X532023Y317024D01*
X531047Y317428D01*
X530000Y317566D01*
D02*
G37*
G36*
X360000Y327566D02*
X358953Y327428D01*
X357977Y327024D01*
X357139Y326381D01*
X356496Y325543D01*
X356091Y324567D01*
X355954Y323520D01*
X356091Y322472D01*
X356496Y321497D01*
X357139Y320658D01*
X357977Y320015D01*
X358953Y319611D01*
X360000Y319473D01*
X361047Y319611D01*
X362023Y320015D01*
X362861Y320658D01*
X363504Y321497D01*
X363909Y322472D01*
X364046Y323520D01*
X363909Y324567D01*
X363504Y325543D01*
X362861Y326381D01*
X362023Y327024D01*
X361047Y327428D01*
X360000Y327566D01*
D02*
G37*
G36*
X350000D02*
X348953Y327428D01*
X347977Y327024D01*
X347139Y326381D01*
X346496Y325543D01*
X346091Y324567D01*
X345954Y323520D01*
X346091Y322472D01*
X346496Y321497D01*
X347139Y320658D01*
X347977Y320015D01*
X348953Y319611D01*
X350000Y319473D01*
X351047Y319611D01*
X352023Y320015D01*
X352861Y320658D01*
X353504Y321497D01*
X353909Y322472D01*
X354046Y323520D01*
X353909Y324567D01*
X353504Y325543D01*
X352861Y326381D01*
X352023Y327024D01*
X351047Y327428D01*
X350000Y327566D01*
D02*
G37*
G36*
X350500Y467500D02*
Y464020D01*
X353981D01*
X353909Y464567D01*
X353504Y465543D01*
X352861Y466381D01*
X352023Y467024D01*
X351047Y467428D01*
X350500Y467500D01*
D02*
G37*
G36*
X441000Y621987D02*
X439968Y621851D01*
X439007Y621453D01*
X438181Y620819D01*
X437547Y619993D01*
X437149Y619032D01*
X437013Y618000D01*
X437149Y616968D01*
X437547Y616007D01*
X438181Y615181D01*
X439007Y614547D01*
X439968Y614149D01*
X441000Y614013D01*
X442032Y614149D01*
X442993Y614547D01*
X443819Y615181D01*
X444453Y616007D01*
X444851Y616968D01*
X444987Y618000D01*
X444851Y619032D01*
X444453Y619993D01*
X443819Y620819D01*
X442993Y621453D01*
X442032Y621851D01*
X441000Y621987D01*
D02*
G37*
G36*
X421000Y650987D02*
X419968Y650851D01*
X419007Y650453D01*
X418181Y649819D01*
X417547Y648993D01*
X417149Y648032D01*
X417013Y647000D01*
X417149Y645968D01*
X417547Y645007D01*
X418181Y644181D01*
X419007Y643547D01*
X419471Y643355D01*
Y636645D01*
X419007Y636453D01*
X418181Y635819D01*
X417547Y634993D01*
X417149Y634032D01*
X417013Y633000D01*
X417149Y631968D01*
X417547Y631007D01*
X418181Y630181D01*
X419007Y629547D01*
X419471Y629355D01*
Y621645D01*
X419007Y621453D01*
X418181Y620819D01*
X417547Y619993D01*
X417149Y619032D01*
X417013Y618000D01*
X417149Y616968D01*
X417547Y616007D01*
X418181Y615181D01*
X419007Y614547D01*
X419968Y614149D01*
X421000Y614013D01*
X422032Y614149D01*
X422993Y614547D01*
X423819Y615181D01*
X424453Y616007D01*
X424851Y616968D01*
X424987Y618000D01*
X424851Y619032D01*
X424453Y619993D01*
X423819Y620819D01*
X422993Y621453D01*
X422529Y621645D01*
Y629355D01*
X422993Y629547D01*
X423819Y630181D01*
X424453Y631007D01*
X424851Y631968D01*
X424987Y633000D01*
X424851Y634032D01*
X424453Y634993D01*
X423819Y635819D01*
X422993Y636453D01*
X422529Y636645D01*
Y643355D01*
X422993Y643547D01*
X423819Y644181D01*
X424453Y645007D01*
X424851Y645968D01*
X424987Y647000D01*
X424851Y648032D01*
X424453Y648993D01*
X423819Y649819D01*
X422993Y650453D01*
X422032Y650851D01*
X421000Y650987D01*
D02*
G37*
G36*
X468000D02*
X466968Y650851D01*
X466007Y650453D01*
X465181Y649819D01*
X464547Y648993D01*
X464149Y648032D01*
X464013Y647000D01*
X464149Y645968D01*
X464547Y645007D01*
X465181Y644181D01*
X466007Y643547D01*
X466471Y643355D01*
Y636645D01*
X466007Y636453D01*
X465181Y635819D01*
X464547Y634993D01*
X464149Y634032D01*
X464013Y633000D01*
X464149Y631968D01*
X464547Y631007D01*
X465181Y630181D01*
X466007Y629547D01*
X466471Y629355D01*
Y621645D01*
X466007Y621453D01*
X465181Y620819D01*
X464547Y619993D01*
X464149Y619032D01*
X464013Y618000D01*
X464149Y616968D01*
X464547Y616007D01*
X465181Y615181D01*
X466007Y614547D01*
X466968Y614149D01*
X468000Y614013D01*
X469032Y614149D01*
X469993Y614547D01*
X470819Y615181D01*
X471453Y616007D01*
X471851Y616968D01*
X471987Y618000D01*
X471851Y619032D01*
X471453Y619993D01*
X470819Y620819D01*
X469993Y621453D01*
X469529Y621645D01*
Y629355D01*
X469993Y629547D01*
X470819Y630181D01*
X471453Y631007D01*
X471851Y631968D01*
X471987Y633000D01*
X471851Y634032D01*
X471453Y634993D01*
X470819Y635819D01*
X469993Y636453D01*
X469529Y636645D01*
Y643355D01*
X469993Y643547D01*
X470819Y644181D01*
X471453Y645007D01*
X471851Y645968D01*
X471987Y647000D01*
X471851Y648032D01*
X471453Y648993D01*
X470819Y649819D01*
X469993Y650453D01*
X469032Y650851D01*
X468000Y650987D01*
D02*
G37*
G36*
X458000D02*
X456968Y650851D01*
X456007Y650453D01*
X455181Y649819D01*
X454547Y648993D01*
X454149Y648032D01*
X454013Y647000D01*
X454149Y645968D01*
X454547Y645007D01*
X455181Y644181D01*
X456007Y643547D01*
X456471Y643355D01*
Y636645D01*
X456007Y636453D01*
X455181Y635819D01*
X454547Y634993D01*
X454149Y634032D01*
X454013Y633000D01*
X454149Y631968D01*
X454547Y631007D01*
X455181Y630181D01*
X456007Y629547D01*
X456471Y629355D01*
Y621645D01*
X456007Y621453D01*
X455181Y620819D01*
X454547Y619993D01*
X454149Y619032D01*
X454013Y618000D01*
X454149Y616968D01*
X454547Y616007D01*
X455181Y615181D01*
X456007Y614547D01*
X456968Y614149D01*
X458000Y614013D01*
X459032Y614149D01*
X459993Y614547D01*
X460819Y615181D01*
X461453Y616007D01*
X461851Y616968D01*
X461987Y618000D01*
X461851Y619032D01*
X461453Y619993D01*
X460819Y620819D01*
X459993Y621453D01*
X459529Y621645D01*
Y629355D01*
X459993Y629547D01*
X460819Y630181D01*
X461453Y631007D01*
X461851Y631968D01*
X461987Y633000D01*
X461851Y634032D01*
X461453Y634993D01*
X460819Y635819D01*
X459993Y636453D01*
X459529Y636645D01*
Y643355D01*
X459993Y643547D01*
X460819Y644181D01*
X461453Y645007D01*
X461851Y645968D01*
X461987Y647000D01*
X461851Y648032D01*
X461453Y648993D01*
X460819Y649819D01*
X459993Y650453D01*
X459032Y650851D01*
X458000Y650987D01*
D02*
G37*
G36*
X456500Y603921D02*
Y600500D01*
X459921D01*
X459851Y601032D01*
X459453Y601993D01*
X458819Y602819D01*
X457993Y603453D01*
X457032Y603851D01*
X456500Y603921D01*
D02*
G37*
G36*
X455500Y599500D02*
X452079D01*
X452149Y598968D01*
X452547Y598007D01*
X453181Y597181D01*
X454007Y596547D01*
X454968Y596149D01*
X455500Y596079D01*
Y599500D01*
D02*
G37*
G36*
X394953Y603953D02*
X387047D01*
Y596047D01*
X394953D01*
Y603953D01*
D02*
G37*
G36*
X455500Y603921D02*
X454968Y603851D01*
X454007Y603453D01*
X453181Y602819D01*
X452547Y601993D01*
X452149Y601032D01*
X452079Y600500D01*
X455500D01*
Y603921D01*
D02*
G37*
G36*
X459921Y599500D02*
X456500D01*
Y596079D01*
X457032Y596149D01*
X457993Y596547D01*
X458819Y597181D01*
X459453Y598007D01*
X459851Y598968D01*
X459921Y599500D01*
D02*
G37*
G36*
X414953Y650953D02*
X407047D01*
Y643047D01*
X409471D01*
Y636953D01*
X407047D01*
Y629047D01*
X409471D01*
Y621953D01*
X407047D01*
Y614047D01*
X414953D01*
Y621953D01*
X412529D01*
Y629047D01*
X414953D01*
Y636953D01*
X412529D01*
Y643047D01*
X414953D01*
Y650953D01*
D02*
G37*
G36*
X417000Y699987D02*
X415968Y699851D01*
X415007Y699453D01*
X414181Y698819D01*
X413547Y697993D01*
X413149Y697032D01*
X413013Y696000D01*
X413149Y694968D01*
X413341Y694504D01*
X368919Y650081D01*
X368587Y649585D01*
X368471Y649000D01*
Y526155D01*
X368235Y526057D01*
X367504Y525496D01*
X366943Y524765D01*
X366590Y523914D01*
X366470Y523000D01*
X366590Y522086D01*
X366943Y521235D01*
X367504Y520504D01*
X368235Y519943D01*
X369086Y519590D01*
X370000Y519470D01*
X370914Y519590D01*
X370960Y519609D01*
X371275Y519199D01*
X370943Y518765D01*
X370590Y517914D01*
X370470Y517000D01*
X370590Y516086D01*
X370943Y515235D01*
X371504Y514504D01*
X372235Y513943D01*
X373086Y513590D01*
X374000Y513470D01*
X374914Y513590D01*
X375765Y513943D01*
X376496Y514504D01*
X377057Y515235D01*
X377410Y516086D01*
X377530Y517000D01*
X377410Y517914D01*
X377057Y518765D01*
X376725Y519199D01*
X377040Y519609D01*
X377086Y519590D01*
X378000Y519470D01*
X378914Y519590D01*
X379765Y519943D01*
X380022Y520140D01*
X380471Y519919D01*
Y519453D01*
X379943Y518765D01*
X379590Y517914D01*
X379470Y517000D01*
X379590Y516086D01*
X379943Y515235D01*
X380504Y514504D01*
X381235Y513943D01*
X382086Y513590D01*
X383000Y513470D01*
X383914Y513590D01*
X384765Y513943D01*
X385496Y514504D01*
X386057Y515235D01*
X386410Y516086D01*
X386530Y517000D01*
X386410Y517914D01*
X386057Y518765D01*
X385724Y519199D01*
X386040Y519609D01*
X386086Y519590D01*
X387000Y519470D01*
X387914Y519590D01*
X387960Y519609D01*
X388276Y519199D01*
X387943Y518765D01*
X387590Y517914D01*
X387470Y517000D01*
X387590Y516086D01*
X387943Y515235D01*
X388504Y514504D01*
X389235Y513943D01*
X390086Y513590D01*
X391000Y513470D01*
X391914Y513590D01*
X392765Y513943D01*
X393022Y514140D01*
X393471Y513919D01*
Y503633D01*
X389398Y499561D01*
X362222D01*
X362095Y499852D01*
X362083Y500061D01*
X362861Y500658D01*
X363504Y501497D01*
X363909Y502472D01*
X364046Y503520D01*
X363909Y504567D01*
X363504Y505543D01*
X362861Y506381D01*
X362023Y507024D01*
X361047Y507428D01*
X360000Y507566D01*
X358953Y507428D01*
X357977Y507024D01*
X357139Y506381D01*
X356496Y505543D01*
X356091Y504567D01*
X355954Y503520D01*
X356091Y502472D01*
X356496Y501497D01*
X357139Y500658D01*
X357951Y500035D01*
X357956Y499983D01*
X357751Y499529D01*
X354480D01*
X353895Y499413D01*
X353399Y499082D01*
X351541Y497224D01*
X351047Y497428D01*
X350000Y497566D01*
X348953Y497428D01*
X347977Y497024D01*
X347518Y496672D01*
X347018Y496918D01*
Y500121D01*
X347518Y500368D01*
X347977Y500015D01*
X348953Y499611D01*
X350000Y499473D01*
X351047Y499611D01*
X352023Y500015D01*
X352861Y500658D01*
X353504Y501497D01*
X353909Y502472D01*
X354046Y503520D01*
X353909Y504567D01*
X353504Y505543D01*
X352861Y506381D01*
X352023Y507024D01*
X351047Y507428D01*
X350000Y507566D01*
X348953Y507428D01*
X347977Y507024D01*
X347518Y506672D01*
X347018Y506918D01*
Y510121D01*
X347518Y510368D01*
X347977Y510015D01*
X348953Y509611D01*
X350000Y509473D01*
X351047Y509611D01*
X352023Y510015D01*
X352861Y510658D01*
X353504Y511496D01*
X353909Y512472D01*
X354046Y513520D01*
X353909Y514567D01*
X353504Y515543D01*
X352861Y516381D01*
X352023Y517024D01*
X351047Y517428D01*
X350000Y517566D01*
X348953Y517428D01*
X347977Y517024D01*
X347518Y516672D01*
X347018Y516918D01*
Y519508D01*
X354012D01*
Y527531D01*
X347018D01*
Y560633D01*
X347765Y560943D01*
X348496Y561504D01*
X349057Y562235D01*
X349410Y563086D01*
X349530Y564000D01*
X349410Y564914D01*
X349057Y565765D01*
X348496Y566496D01*
X347765Y567057D01*
X346914Y567410D01*
X346000Y567530D01*
X345086Y567410D01*
X344235Y567057D01*
X343504Y566496D01*
X342943Y565765D01*
X342590Y564914D01*
X342470Y564000D01*
X342590Y563086D01*
X342943Y562235D01*
X343504Y561504D01*
X343959Y561155D01*
Y359512D01*
X344075Y358927D01*
X344407Y358430D01*
X345887Y356950D01*
X346383Y356618D01*
X346650Y356565D01*
X346858Y356014D01*
X346496Y355543D01*
X346091Y354567D01*
X345954Y353520D01*
X346091Y352472D01*
X346496Y351497D01*
X347139Y350658D01*
X347977Y350015D01*
X348953Y349611D01*
X350000Y349473D01*
X351047Y349611D01*
X352023Y350015D01*
X352861Y350658D01*
X353504Y351497D01*
X353909Y352472D01*
X353984Y353046D01*
X354512Y353225D01*
X355299Y352438D01*
X355795Y352107D01*
X356283Y352010D01*
X356496Y351497D01*
X357139Y350658D01*
X357977Y350015D01*
X358953Y349611D01*
X360000Y349473D01*
X361047Y349611D01*
X362023Y350015D01*
X362861Y350658D01*
X363504Y351497D01*
X363909Y352472D01*
X364046Y353520D01*
X363909Y354567D01*
X363504Y355543D01*
X362861Y356381D01*
X362023Y357024D01*
X361047Y357428D01*
X360000Y357566D01*
X358953Y357428D01*
X357977Y357024D01*
X357139Y356381D01*
X356737Y355858D01*
X356238Y355825D01*
X352950Y359113D01*
X352454Y359444D01*
X352115Y359512D01*
X352040Y359924D01*
X352049Y360035D01*
X352861Y360658D01*
X353504Y361496D01*
X353909Y362472D01*
X354046Y363520D01*
X353909Y364567D01*
X353504Y365543D01*
X352861Y366381D01*
X352023Y367024D01*
X351047Y367428D01*
X350000Y367566D01*
X348953Y367428D01*
X347977Y367024D01*
X347518Y366672D01*
X347018Y366918D01*
Y370121D01*
X347518Y370368D01*
X347977Y370015D01*
X348953Y369611D01*
X350000Y369473D01*
X351047Y369611D01*
X352023Y370015D01*
X352861Y370658D01*
X353504Y371497D01*
X353909Y372472D01*
X354046Y373520D01*
X353909Y374567D01*
X353704Y375061D01*
X355114Y376471D01*
X356577D01*
X356824Y375971D01*
X356496Y375543D01*
X356091Y374567D01*
X355954Y373520D01*
X356091Y372472D01*
X356496Y371497D01*
X357139Y370658D01*
X357977Y370015D01*
X358953Y369611D01*
X360000Y369473D01*
X361047Y369611D01*
X362023Y370015D01*
X362861Y370658D01*
X363504Y371497D01*
X363909Y372472D01*
X364046Y373520D01*
X363909Y374567D01*
X363504Y375543D01*
X363152Y376002D01*
X363399Y376502D01*
X379031D01*
X379617Y376619D01*
X380113Y376950D01*
X404081Y400919D01*
X404413Y401415D01*
X404529Y402000D01*
Y538367D01*
X417633Y551471D01*
X471845D01*
X471943Y551235D01*
X472504Y550504D01*
X473235Y549943D01*
X474086Y549590D01*
X475000Y549470D01*
X475914Y549590D01*
X476765Y549943D01*
X477496Y550504D01*
X478057Y551235D01*
X478410Y552086D01*
X478530Y553000D01*
X478410Y553914D01*
X478057Y554765D01*
X477496Y555496D01*
X476765Y556057D01*
X475914Y556410D01*
X475000Y556530D01*
X474086Y556410D01*
X473235Y556057D01*
X472504Y555496D01*
X471943Y554765D01*
X471845Y554529D01*
X417000D01*
X416415Y554413D01*
X415919Y554081D01*
X401919Y540081D01*
X401587Y539585D01*
X401471Y539000D01*
Y412081D01*
X401022Y411860D01*
X400765Y412057D01*
X399914Y412410D01*
X399000Y412530D01*
X398086Y412410D01*
X397235Y412057D01*
X396504Y411496D01*
X395943Y410765D01*
X395845Y410529D01*
X363392D01*
X363146Y411029D01*
X363504Y411496D01*
X363909Y412472D01*
X364046Y413520D01*
X363909Y414567D01*
X363504Y415543D01*
X362861Y416381D01*
X362023Y417024D01*
X361047Y417428D01*
X360000Y417566D01*
X358953Y417428D01*
X357977Y417024D01*
X357139Y416381D01*
X356496Y415543D01*
X356091Y414567D01*
X355954Y413520D01*
X356091Y412472D01*
X356496Y411496D01*
X357052Y410772D01*
X357054Y410343D01*
X356999Y410135D01*
X356919Y410081D01*
X353196Y406359D01*
X352861Y406381D01*
X352023Y407024D01*
X351047Y407428D01*
X350000Y407566D01*
X348953Y407428D01*
X347977Y407024D01*
X347518Y406672D01*
X347018Y406918D01*
Y410121D01*
X347518Y410368D01*
X347977Y410015D01*
X348953Y409611D01*
X350000Y409473D01*
X351047Y409611D01*
X352023Y410015D01*
X352861Y410658D01*
X353504Y411496D01*
X353909Y412472D01*
X354046Y413520D01*
X353909Y414567D01*
X353504Y415543D01*
X352861Y416381D01*
X352023Y417024D01*
X351047Y417428D01*
X350000Y417566D01*
X348953Y417428D01*
X347977Y417024D01*
X347518Y416672D01*
X347018Y416918D01*
Y420121D01*
X347518Y420368D01*
X347977Y420015D01*
X348953Y419611D01*
X350000Y419473D01*
X351047Y419611D01*
X352023Y420015D01*
X352861Y420658D01*
X353504Y421496D01*
X353717Y422010D01*
X354205Y422107D01*
X354701Y422438D01*
X355488Y423225D01*
X356016Y423046D01*
X356091Y422472D01*
X356496Y421496D01*
X357139Y420658D01*
X357977Y420015D01*
X358953Y419611D01*
X360000Y419473D01*
X361047Y419611D01*
X362023Y420015D01*
X362861Y420658D01*
X363504Y421496D01*
X363909Y422472D01*
X364046Y423520D01*
X363909Y424567D01*
X363504Y425543D01*
X363176Y425971D01*
X363423Y426471D01*
X390000D01*
X390585Y426587D01*
X391081Y426919D01*
X393851Y429688D01*
X394086Y429590D01*
X395000Y429470D01*
X395914Y429590D01*
X396765Y429943D01*
X397496Y430504D01*
X398057Y431235D01*
X398410Y432086D01*
X398530Y433000D01*
X398410Y433914D01*
X398057Y434765D01*
X397496Y435496D01*
X396765Y436057D01*
X395914Y436410D01*
X395000Y436530D01*
X394086Y436410D01*
X393235Y436057D01*
X392504Y435496D01*
X391943Y434765D01*
X391590Y433914D01*
X391470Y433000D01*
X391590Y432086D01*
X391688Y431851D01*
X389367Y429529D01*
X362248D01*
X362045Y429983D01*
X362049Y430035D01*
X362861Y430658D01*
X363504Y431496D01*
X363909Y432472D01*
X364046Y433520D01*
X363909Y434567D01*
X363504Y435543D01*
X362861Y436381D01*
X362023Y437024D01*
X361047Y437428D01*
X360000Y437566D01*
X358953Y437428D01*
X357977Y437024D01*
X357139Y436381D01*
X356496Y435543D01*
X356091Y434567D01*
X355954Y433520D01*
X356091Y432472D01*
X356496Y431496D01*
X357139Y430658D01*
X357951Y430035D01*
X357960Y429924D01*
X357885Y429512D01*
X357546Y429445D01*
X357050Y429113D01*
X353762Y425825D01*
X353263Y425858D01*
X352861Y426381D01*
X352023Y427024D01*
X351047Y427428D01*
X350000Y427566D01*
X348953Y427428D01*
X347977Y427024D01*
X347518Y426672D01*
X347018Y426918D01*
Y429508D01*
X354012D01*
Y437532D01*
X347018D01*
Y450121D01*
X347518Y450368D01*
X347977Y450015D01*
X348953Y449611D01*
X350000Y449473D01*
X351047Y449611D01*
X352023Y450015D01*
X352861Y450658D01*
X353504Y451497D01*
X353909Y452472D01*
X354046Y453520D01*
X353909Y454567D01*
X353504Y455543D01*
X352861Y456381D01*
X352023Y457024D01*
X351047Y457428D01*
X350000Y457566D01*
X348953Y457428D01*
X347977Y457024D01*
X347518Y456672D01*
X347018Y456918D01*
Y460121D01*
X347518Y460368D01*
X347977Y460015D01*
X348953Y459611D01*
X349500Y459539D01*
Y463520D01*
Y467500D01*
X348953Y467428D01*
X347977Y467024D01*
X347518Y466672D01*
X347018Y466918D01*
Y470121D01*
X347518Y470368D01*
X347977Y470015D01*
X348953Y469611D01*
X350000Y469473D01*
X351047Y469611D01*
X352023Y470015D01*
X352861Y470658D01*
X353504Y471496D01*
X353909Y472472D01*
X354046Y473520D01*
X353909Y474567D01*
X353504Y475543D01*
X352861Y476381D01*
X352023Y477024D01*
X351047Y477428D01*
X350000Y477566D01*
X348953Y477428D01*
X347977Y477024D01*
X347518Y476672D01*
X347018Y476918D01*
Y480121D01*
X347518Y480368D01*
X347977Y480015D01*
X348953Y479611D01*
X350000Y479473D01*
X351047Y479611D01*
X352023Y480015D01*
X352861Y480658D01*
X353504Y481496D01*
X353909Y482472D01*
X354046Y483520D01*
X353909Y484567D01*
X353504Y485543D01*
X352861Y486381D01*
X352023Y487024D01*
X351047Y487428D01*
X350000Y487566D01*
X348953Y487428D01*
X347977Y487024D01*
X347518Y486672D01*
X347018Y486918D01*
Y490121D01*
X347518Y490368D01*
X347977Y490015D01*
X348953Y489611D01*
X350000Y489473D01*
X351047Y489611D01*
X352023Y490015D01*
X352861Y490658D01*
X353504Y491497D01*
X353909Y492472D01*
X354046Y493520D01*
X353909Y494567D01*
X353704Y495061D01*
X355114Y496471D01*
X356577D01*
X356824Y495971D01*
X356496Y495543D01*
X356091Y494567D01*
X355954Y493520D01*
X356091Y492472D01*
X356496Y491497D01*
X357139Y490658D01*
X357977Y490015D01*
X358953Y489611D01*
X360000Y489473D01*
X361047Y489611D01*
X362023Y490015D01*
X362861Y490658D01*
X363504Y491497D01*
X363909Y492472D01*
X364046Y493520D01*
X363909Y494567D01*
X363504Y495543D01*
X363152Y496002D01*
X363399Y496502D01*
X390032D01*
X390617Y496619D01*
X391113Y496950D01*
X396081Y501919D01*
X396413Y502415D01*
X396529Y503000D01*
Y573366D01*
X421633Y598471D01*
X432047D01*
Y596047D01*
X439953D01*
Y603953D01*
X432047D01*
Y601529D01*
X421697D01*
X421489Y602029D01*
X428931Y609471D01*
X471000D01*
X471585Y609587D01*
X472081Y609919D01*
X476504Y614341D01*
X476968Y614149D01*
X478000Y614013D01*
X479032Y614149D01*
X479993Y614547D01*
X480819Y615181D01*
X481453Y616007D01*
X481851Y616968D01*
X481987Y618000D01*
X481851Y619032D01*
X481453Y619993D01*
X480819Y620819D01*
X479993Y621453D01*
X479529Y621645D01*
Y629355D01*
X479993Y629547D01*
X480819Y630181D01*
X481453Y631007D01*
X481851Y631968D01*
X481987Y633000D01*
X481851Y634032D01*
X481453Y634993D01*
X480819Y635819D01*
X479993Y636453D01*
X479529Y636645D01*
Y643355D01*
X479993Y643547D01*
X480819Y644181D01*
X481453Y645007D01*
X481851Y645968D01*
X481987Y647000D01*
X481851Y648032D01*
X481453Y648993D01*
X480819Y649819D01*
X479993Y650453D01*
X479032Y650851D01*
X478000Y650987D01*
X476968Y650851D01*
X476007Y650453D01*
X475181Y649819D01*
X474547Y648993D01*
X474149Y648032D01*
X474013Y647000D01*
X474149Y645968D01*
X474547Y645007D01*
X475181Y644181D01*
X476007Y643547D01*
X476471Y643355D01*
Y636645D01*
X476007Y636453D01*
X475181Y635819D01*
X474547Y634993D01*
X474149Y634032D01*
X474013Y633000D01*
X474149Y631968D01*
X474547Y631007D01*
X475181Y630181D01*
X476007Y629547D01*
X476471Y629355D01*
Y621645D01*
X476007Y621453D01*
X475181Y620819D01*
X474547Y619993D01*
X474149Y619032D01*
X474013Y618000D01*
X474149Y616968D01*
X474341Y616504D01*
X470366Y612529D01*
X428399D01*
X428192Y613029D01*
X429504Y614341D01*
X429968Y614149D01*
X431000Y614013D01*
X432032Y614149D01*
X432993Y614547D01*
X433819Y615181D01*
X434453Y616007D01*
X434851Y616968D01*
X434987Y618000D01*
X434851Y619032D01*
X434453Y619993D01*
X433819Y620819D01*
X432993Y621453D01*
X432529Y621645D01*
Y629355D01*
X432993Y629547D01*
X433819Y630181D01*
X434453Y631007D01*
X434851Y631968D01*
X434987Y633000D01*
X434851Y634032D01*
X434453Y634993D01*
X433819Y635819D01*
X432993Y636453D01*
X432529Y636645D01*
Y643355D01*
X432993Y643547D01*
X433819Y644181D01*
X434453Y645007D01*
X434851Y645968D01*
X434987Y647000D01*
X434851Y648032D01*
X434453Y648993D01*
X433819Y649819D01*
X432993Y650453D01*
X432032Y650851D01*
X431000Y650987D01*
X429968Y650851D01*
X429007Y650453D01*
X428181Y649819D01*
X427547Y648993D01*
X427149Y648032D01*
X427013Y647000D01*
X427149Y645968D01*
X427547Y645007D01*
X428181Y644181D01*
X429007Y643547D01*
X429471Y643355D01*
Y636645D01*
X429007Y636453D01*
X428181Y635819D01*
X427547Y634993D01*
X427149Y634032D01*
X427013Y633000D01*
X427149Y631968D01*
X427547Y631007D01*
X428181Y630181D01*
X429007Y629547D01*
X429471Y629355D01*
Y621645D01*
X429007Y621453D01*
X428181Y620819D01*
X427547Y619993D01*
X427149Y619032D01*
X427013Y618000D01*
X427149Y616968D01*
X427341Y616504D01*
X416819Y605982D01*
X409156D01*
X408570Y605866D01*
X408074Y605534D01*
X405466Y602926D01*
X405134Y602430D01*
X405118Y602348D01*
X404546Y601974D01*
X404453Y601993D01*
X403819Y602819D01*
X402993Y603453D01*
X402032Y603851D01*
X401000Y603987D01*
X399968Y603851D01*
X399007Y603453D01*
X398181Y602819D01*
X397547Y601993D01*
X397149Y601032D01*
X397013Y600000D01*
X397149Y598968D01*
X397547Y598007D01*
X398181Y597181D01*
X399007Y596547D01*
X399968Y596149D01*
X401000Y596013D01*
X402032Y596149D01*
X402993Y596547D01*
X403819Y597181D01*
X404453Y598007D01*
X404518Y598164D01*
X405018Y598064D01*
Y594181D01*
X385919Y575081D01*
X385587Y574585D01*
X385471Y574000D01*
Y526155D01*
X385235Y526057D01*
X384504Y525496D01*
X384029Y524878D01*
X383529Y525007D01*
Y645366D01*
X393634Y655471D01*
X436000D01*
X436585Y655587D01*
X437081Y655919D01*
X441081Y659918D01*
X441413Y660415D01*
X441529Y661000D01*
Y667367D01*
X443585Y669422D01*
X444047Y669231D01*
Y662047D01*
X451953D01*
Y669953D01*
X444769D01*
X444578Y670415D01*
X446504Y672341D01*
X446968Y672149D01*
X448000Y672013D01*
X449032Y672149D01*
X449993Y672547D01*
X450819Y673181D01*
X451453Y674007D01*
X451851Y674968D01*
X451987Y676000D01*
X451851Y677032D01*
X451453Y677993D01*
X450819Y678819D01*
X449993Y679453D01*
X449032Y679851D01*
X448000Y679987D01*
X446968Y679851D01*
X446007Y679453D01*
X445181Y678819D01*
X444547Y677993D01*
X444149Y677032D01*
X444013Y676000D01*
X444149Y674968D01*
X444341Y674504D01*
X438919Y669081D01*
X438587Y668585D01*
X438471Y668000D01*
Y661633D01*
X435366Y658529D01*
X393000D01*
X392415Y658413D01*
X392018Y658148D01*
X391699Y658536D01*
X402633Y669471D01*
X413047D01*
Y662047D01*
X420953D01*
Y669471D01*
X427000D01*
X427585Y669587D01*
X428081Y669919D01*
X430504Y672341D01*
X430968Y672149D01*
X432000Y672013D01*
X433032Y672149D01*
X433993Y672547D01*
X434819Y673181D01*
X435453Y674007D01*
X435851Y674968D01*
X435987Y676000D01*
X435851Y677032D01*
X435453Y677993D01*
X434819Y678819D01*
X434622Y678971D01*
X434792Y679471D01*
X443000D01*
X443585Y679587D01*
X444081Y679919D01*
X446504Y682341D01*
X446968Y682149D01*
X448000Y682013D01*
X449032Y682149D01*
X449993Y682547D01*
X450819Y683181D01*
X451453Y684007D01*
X451851Y684968D01*
X451987Y686000D01*
X451851Y687032D01*
X451453Y687993D01*
X450819Y688819D01*
X449993Y689453D01*
X449032Y689851D01*
X448000Y689987D01*
X446968Y689851D01*
X446007Y689453D01*
X445181Y688819D01*
X444547Y687993D01*
X444149Y687032D01*
X444013Y686000D01*
X444149Y684968D01*
X444341Y684504D01*
X442367Y682529D01*
X434792D01*
X434622Y683029D01*
X434819Y683181D01*
X435453Y684007D01*
X435851Y684968D01*
X435987Y686000D01*
X435851Y687032D01*
X435453Y687993D01*
X434819Y688819D01*
X433993Y689453D01*
X433032Y689851D01*
X432000Y689987D01*
X430968Y689851D01*
X430007Y689453D01*
X429181Y688819D01*
X428547Y687993D01*
X428149Y687032D01*
X428013Y686000D01*
X428149Y684968D01*
X428547Y684007D01*
X429181Y683181D01*
X429378Y683029D01*
X429209Y682529D01*
X419792D01*
X419622Y683029D01*
X419819Y683181D01*
X420453Y684007D01*
X420851Y684968D01*
X420987Y686000D01*
X420851Y687032D01*
X420453Y687993D01*
X419819Y688819D01*
X418993Y689453D01*
X418032Y689851D01*
X417000Y689987D01*
X415968Y689851D01*
X415007Y689453D01*
X414181Y688819D01*
X413547Y687993D01*
X413149Y687032D01*
X413013Y686000D01*
X413149Y684968D01*
X413547Y684007D01*
X414181Y683181D01*
X414378Y683029D01*
X414209Y682529D01*
X407000D01*
X406415Y682413D01*
X406018Y682148D01*
X405699Y682536D01*
X415504Y692341D01*
X415968Y692149D01*
X417000Y692013D01*
X418032Y692149D01*
X418993Y692547D01*
X419819Y693181D01*
X420453Y694007D01*
X420851Y694968D01*
X420987Y696000D01*
X420851Y697032D01*
X420453Y697993D01*
X419819Y698819D01*
X418993Y699453D01*
X418032Y699851D01*
X417000Y699987D01*
D02*
G37*
G36*
X475000Y690987D02*
X473968Y690851D01*
X473007Y690453D01*
X472181Y689819D01*
X471547Y688993D01*
X471149Y688032D01*
X471013Y687000D01*
X471149Y685968D01*
X471547Y685007D01*
X472181Y684181D01*
X473007Y683547D01*
X473968Y683149D01*
X475000Y683013D01*
X476032Y683149D01*
X476993Y683547D01*
X477819Y684181D01*
X478453Y685007D01*
X478851Y685968D01*
X478987Y687000D01*
X478851Y688032D01*
X478453Y688993D01*
X477819Y689819D01*
X476993Y690453D01*
X476032Y690851D01*
X475000Y690987D01*
D02*
G37*
G36*
X435953Y699953D02*
X428047D01*
Y692047D01*
X435953D01*
Y699953D01*
D02*
G37*
G36*
X448000Y699987D02*
X446968Y699851D01*
X446007Y699453D01*
X445181Y698819D01*
X444547Y697993D01*
X444149Y697032D01*
X444013Y696000D01*
X444149Y694968D01*
X444547Y694007D01*
X445181Y693181D01*
X446007Y692547D01*
X446968Y692149D01*
X448000Y692013D01*
X449032Y692149D01*
X449993Y692547D01*
X450819Y693181D01*
X451453Y694007D01*
X451851Y694968D01*
X451987Y696000D01*
X451851Y697032D01*
X451453Y697993D01*
X450819Y698819D01*
X449993Y699453D01*
X449032Y699851D01*
X448000Y699987D01*
D02*
G37*
G36*
X478953Y680953D02*
X471047D01*
Y673047D01*
X478953D01*
Y680953D01*
D02*
G37*
G36*
X441000Y636987D02*
X439968Y636851D01*
X439007Y636453D01*
X438181Y635819D01*
X437547Y634993D01*
X437149Y634032D01*
X437013Y633000D01*
X437149Y631968D01*
X437547Y631007D01*
X438181Y630181D01*
X439007Y629547D01*
X439968Y629149D01*
X441000Y629013D01*
X442032Y629149D01*
X442993Y629547D01*
X443819Y630181D01*
X444453Y631007D01*
X444851Y631968D01*
X444987Y633000D01*
X444851Y634032D01*
X444453Y634993D01*
X443819Y635819D01*
X442993Y636453D01*
X442032Y636851D01*
X441000Y636987D01*
D02*
G37*
G36*
X491953Y650953D02*
X484047D01*
Y643047D01*
X486471D01*
Y636953D01*
X484047D01*
Y629047D01*
X486471D01*
Y621953D01*
X484047D01*
Y614047D01*
X491953D01*
Y621953D01*
X489529D01*
Y629047D01*
X491953D01*
Y636953D01*
X489529D01*
Y643047D01*
X491953D01*
Y650953D01*
D02*
G37*
G36*
X432000Y669987D02*
X430968Y669851D01*
X430007Y669453D01*
X429181Y668819D01*
X428547Y667993D01*
X428149Y667032D01*
X428013Y666000D01*
X428149Y664968D01*
X428547Y664007D01*
X429181Y663181D01*
X430007Y662547D01*
X430968Y662149D01*
X432000Y662013D01*
X433032Y662149D01*
X433993Y662547D01*
X434819Y663181D01*
X435453Y664007D01*
X435851Y664968D01*
X435987Y666000D01*
X435851Y667032D01*
X435453Y667993D01*
X434819Y668819D01*
X433993Y669453D01*
X433032Y669851D01*
X432000Y669987D01*
D02*
G37*
G36*
X441000Y650987D02*
X439968Y650851D01*
X439007Y650453D01*
X438181Y649819D01*
X437547Y648993D01*
X437149Y648032D01*
X437013Y647000D01*
X437149Y645968D01*
X437547Y645007D01*
X438181Y644181D01*
X439007Y643547D01*
X439968Y643149D01*
X441000Y643013D01*
X442032Y643149D01*
X442993Y643547D01*
X443819Y644181D01*
X444453Y645007D01*
X444851Y645968D01*
X444987Y647000D01*
X444851Y648032D01*
X444453Y648993D01*
X443819Y649819D01*
X442993Y650453D01*
X442032Y650851D01*
X441000Y650987D01*
D02*
G37*
G36*
X446000Y603987D02*
X444968Y603851D01*
X444007Y603453D01*
X443181Y602819D01*
X442547Y601993D01*
X442149Y601032D01*
X442013Y600000D01*
X442149Y598968D01*
X442547Y598007D01*
X443181Y597181D01*
X444007Y596547D01*
X444968Y596149D01*
X446000Y596013D01*
X447032Y596149D01*
X447993Y596547D01*
X448819Y597181D01*
X449453Y598007D01*
X449851Y598968D01*
X449987Y600000D01*
X449851Y601032D01*
X449453Y601993D01*
X448819Y602819D01*
X447993Y603453D01*
X447032Y603851D01*
X446000Y603987D01*
D02*
G37*
G36*
X530000Y523566D02*
X528953Y523428D01*
X527977Y523024D01*
X527139Y522381D01*
X526496Y521543D01*
X526091Y520567D01*
X525954Y519520D01*
X526091Y518472D01*
X526496Y517496D01*
X527139Y516658D01*
X527977Y516015D01*
X528953Y515611D01*
X530000Y515473D01*
X531047Y515611D01*
X532023Y516015D01*
X532861Y516658D01*
X533504Y517496D01*
X533909Y518472D01*
X534046Y519520D01*
X533909Y520567D01*
X533504Y521543D01*
X532861Y522381D01*
X532023Y523024D01*
X531047Y523428D01*
X530000Y523566D01*
D02*
G37*
G36*
X360000Y517566D02*
X358953Y517428D01*
X357977Y517024D01*
X357139Y516381D01*
X356496Y515543D01*
X356091Y514567D01*
X355954Y513520D01*
X356091Y512472D01*
X356496Y511496D01*
X357139Y510658D01*
X357977Y510015D01*
X358953Y509611D01*
X360000Y509473D01*
X361047Y509611D01*
X362023Y510015D01*
X362861Y510658D01*
X363504Y511496D01*
X363909Y512472D01*
X364046Y513520D01*
X363909Y514567D01*
X363504Y515543D01*
X362861Y516381D01*
X362023Y517024D01*
X361047Y517428D01*
X360000Y517566D01*
D02*
G37*
G36*
Y527566D02*
X358953Y527428D01*
X357977Y527024D01*
X357139Y526381D01*
X356496Y525543D01*
X356091Y524567D01*
X355954Y523520D01*
X356091Y522472D01*
X356496Y521496D01*
X357139Y520658D01*
X357977Y520015D01*
X358953Y519611D01*
X360000Y519473D01*
X361047Y519611D01*
X362023Y520015D01*
X362861Y520658D01*
X363504Y521496D01*
X363909Y522472D01*
X364046Y523520D01*
X363909Y524567D01*
X363504Y525543D01*
X362861Y526381D01*
X362023Y527024D01*
X361047Y527428D01*
X360000Y527566D01*
D02*
G37*
G36*
X540000Y523566D02*
X538953Y523428D01*
X537977Y523024D01*
X537139Y522381D01*
X536496Y521543D01*
X536091Y520567D01*
X535954Y519520D01*
X536091Y518472D01*
X536496Y517496D01*
X537139Y516658D01*
X537977Y516015D01*
X538953Y515611D01*
X540000Y515473D01*
X541047Y515611D01*
X542023Y516015D01*
X542861Y516658D01*
X543504Y517496D01*
X543909Y518472D01*
X544046Y519520D01*
X543909Y520567D01*
X543504Y521543D01*
X542861Y522381D01*
X542023Y523024D01*
X541047Y523428D01*
X540000Y523566D01*
D02*
G37*
G36*
Y513566D02*
X538953Y513428D01*
X537977Y513024D01*
X537139Y512381D01*
X536496Y511543D01*
X536091Y510567D01*
X535954Y509520D01*
X536091Y508472D01*
X536496Y507497D01*
X537139Y506658D01*
X537977Y506015D01*
X538953Y505611D01*
X540000Y505473D01*
X541047Y505611D01*
X542023Y506015D01*
X542861Y506658D01*
X543504Y507497D01*
X543909Y508472D01*
X544046Y509520D01*
X543909Y510567D01*
X543504Y511543D01*
X542861Y512381D01*
X542023Y513024D01*
X541047Y513428D01*
X540000Y513566D01*
D02*
G37*
G36*
X360000Y487566D02*
X358953Y487428D01*
X357977Y487024D01*
X357139Y486381D01*
X356496Y485543D01*
X356091Y484567D01*
X355954Y483520D01*
X356091Y482472D01*
X356496Y481496D01*
X357139Y480658D01*
X357977Y480015D01*
X358953Y479611D01*
X360000Y479473D01*
X361047Y479611D01*
X362023Y480015D01*
X362861Y480658D01*
X363504Y481496D01*
X363909Y482472D01*
X364046Y483520D01*
X363909Y484567D01*
X363504Y485543D01*
X362861Y486381D01*
X362023Y487024D01*
X361047Y487428D01*
X360000Y487566D01*
D02*
G37*
G36*
Y477566D02*
X358953Y477428D01*
X357977Y477024D01*
X357139Y476381D01*
X356496Y475543D01*
X356091Y474567D01*
X355954Y473520D01*
X356091Y472472D01*
X356496Y471496D01*
X357139Y470658D01*
X357977Y470015D01*
X358953Y469611D01*
X360000Y469473D01*
X361047Y469611D01*
X362023Y470015D01*
X362861Y470658D01*
X363504Y471496D01*
X363909Y472472D01*
X364046Y473520D01*
X363909Y474567D01*
X363504Y475543D01*
X362861Y476381D01*
X362023Y477024D01*
X361047Y477428D01*
X360000Y477566D01*
D02*
G37*
G36*
X540000Y493566D02*
X538953Y493428D01*
X537977Y493024D01*
X537139Y492381D01*
X536496Y491543D01*
X536091Y490567D01*
X535954Y489520D01*
X536091Y488472D01*
X536496Y487497D01*
X537139Y486658D01*
X537977Y486015D01*
X538953Y485611D01*
X540000Y485473D01*
X541047Y485611D01*
X542023Y486015D01*
X542861Y486658D01*
X543504Y487497D01*
X543909Y488472D01*
X544046Y489520D01*
X543909Y490567D01*
X543504Y491543D01*
X542861Y492381D01*
X542023Y493024D01*
X541047Y493428D01*
X540000Y493566D01*
D02*
G37*
G36*
X530000D02*
X528953Y493428D01*
X527977Y493024D01*
X527139Y492381D01*
X526496Y491543D01*
X526091Y490567D01*
X525954Y489520D01*
X526091Y488472D01*
X526496Y487497D01*
X527139Y486658D01*
X527977Y486015D01*
X528953Y485611D01*
X530000Y485473D01*
X531047Y485611D01*
X532023Y486015D01*
X532861Y486658D01*
X533504Y487497D01*
X533909Y488472D01*
X534046Y489520D01*
X533909Y490567D01*
X533504Y491543D01*
X532861Y492381D01*
X532023Y493024D01*
X531047Y493428D01*
X530000Y493566D01*
D02*
G37*
G36*
Y533566D02*
X528953Y533428D01*
X527977Y533024D01*
X527139Y532381D01*
X526496Y531543D01*
X526091Y530567D01*
X525954Y529520D01*
X526091Y528472D01*
X526496Y527496D01*
X527139Y526658D01*
X527977Y526015D01*
X528953Y525611D01*
X530000Y525473D01*
X531047Y525611D01*
X532023Y526015D01*
X532861Y526658D01*
X533504Y527496D01*
X533909Y528472D01*
X534046Y529520D01*
X533909Y530567D01*
X533504Y531543D01*
X532861Y532381D01*
X532023Y533024D01*
X531047Y533428D01*
X530000Y533566D01*
D02*
G37*
G36*
X498000Y556530D02*
X497086Y556410D01*
X496235Y556057D01*
X495504Y555496D01*
X494943Y554765D01*
X494590Y553914D01*
X494470Y553000D01*
X494590Y552086D01*
X494798Y551585D01*
X494415Y551202D01*
X493914Y551410D01*
X493000Y551530D01*
X492086Y551410D01*
X491235Y551057D01*
X490504Y550496D01*
X489943Y549765D01*
X489590Y548914D01*
X489470Y548000D01*
X489590Y547086D01*
X489943Y546235D01*
X490504Y545504D01*
X491235Y544943D01*
X491471Y544845D01*
Y444007D01*
X490971Y443878D01*
X490496Y444496D01*
X489765Y445057D01*
X488914Y445410D01*
X488000Y445530D01*
X487086Y445410D01*
X486235Y445057D01*
X485504Y444496D01*
X484943Y443765D01*
X484845Y443529D01*
X472634D01*
X470312Y445851D01*
X470410Y446086D01*
X470530Y447000D01*
X470410Y447914D01*
X470057Y448765D01*
X469496Y449496D01*
X468765Y450057D01*
X467914Y450410D01*
X467000Y450530D01*
X466086Y450410D01*
X465235Y450057D01*
X464504Y449496D01*
X463943Y448765D01*
X463590Y447914D01*
X463470Y447000D01*
X463590Y446086D01*
X463943Y445235D01*
X464276Y444801D01*
X463960Y444391D01*
X463914Y444410D01*
X463000Y444530D01*
X462086Y444410D01*
X461235Y444057D01*
X460504Y443496D01*
X459943Y442765D01*
X459590Y441914D01*
X459470Y441000D01*
X459590Y440086D01*
X459943Y439235D01*
X460504Y438504D01*
X461235Y437943D01*
X461471Y437845D01*
Y405081D01*
X461022Y404860D01*
X460765Y405057D01*
X459914Y405410D01*
X459000Y405530D01*
X458086Y405410D01*
X457235Y405057D01*
X456504Y404496D01*
X455943Y403765D01*
X455845Y403529D01*
X454155D01*
X454057Y403765D01*
X453496Y404496D01*
X452765Y405057D01*
X451914Y405410D01*
X451000Y405530D01*
X450086Y405410D01*
X449235Y405057D01*
X448504Y404496D01*
X447943Y403765D01*
X447590Y402914D01*
X447470Y402000D01*
X447590Y401086D01*
X447943Y400235D01*
X448276Y399801D01*
X447960Y399391D01*
X447914Y399410D01*
X447000Y399530D01*
X446086Y399410D01*
X445235Y399057D01*
X444504Y398496D01*
X443943Y397765D01*
X443590Y396914D01*
X443470Y396000D01*
X443590Y395086D01*
X443943Y394235D01*
X444504Y393504D01*
X445235Y392943D01*
X446086Y392590D01*
X447000Y392470D01*
X447914Y392590D01*
X448765Y392943D01*
X449453Y393471D01*
X455845D01*
X455943Y393235D01*
X456504Y392504D01*
X457235Y391943D01*
X458086Y391590D01*
X459000Y391470D01*
X459914Y391590D01*
X460765Y391943D01*
X461022Y392140D01*
X461471Y391919D01*
Y364000D01*
X461587Y363415D01*
X461919Y362919D01*
X482399Y342438D01*
X482895Y342107D01*
X483480Y341990D01*
X526291D01*
X526496Y341496D01*
X527139Y340658D01*
X527977Y340015D01*
X528953Y339611D01*
X530000Y339473D01*
X531047Y339611D01*
X532023Y340015D01*
X532861Y340658D01*
X533504Y341496D01*
X533909Y342472D01*
X534046Y343520D01*
X533909Y344567D01*
X533504Y345543D01*
X532861Y346381D01*
X532023Y347024D01*
X531047Y347428D01*
X530000Y347566D01*
X528953Y347428D01*
X527977Y347024D01*
X527139Y346381D01*
X526496Y345543D01*
X526291Y345049D01*
X484114D01*
X464529Y364633D01*
Y437845D01*
X464765Y437943D01*
X465496Y438504D01*
X466057Y439235D01*
X466410Y440086D01*
X466530Y441000D01*
X466410Y441914D01*
X466057Y442765D01*
X465725Y443199D01*
X466040Y443609D01*
X466086Y443590D01*
X467000Y443470D01*
X467914Y443590D01*
X468149Y443688D01*
X470919Y440919D01*
X471415Y440587D01*
X472000Y440471D01*
X484845D01*
X484943Y440235D01*
X485504Y439504D01*
X486235Y438943D01*
X487086Y438590D01*
X488000Y438470D01*
X488914Y438590D01*
X489765Y438943D01*
X490496Y439504D01*
X490971Y440122D01*
X491471Y439993D01*
Y359000D01*
X491587Y358415D01*
X491919Y357919D01*
X497399Y352438D01*
X497895Y352107D01*
X498480Y351990D01*
X526291D01*
X526496Y351497D01*
X527139Y350658D01*
X527977Y350015D01*
X528953Y349611D01*
X530000Y349473D01*
X531047Y349611D01*
X532023Y350015D01*
X532861Y350658D01*
X533504Y351497D01*
X533909Y352472D01*
X534046Y353520D01*
X533909Y354567D01*
X533504Y355543D01*
X532861Y356381D01*
X532023Y357024D01*
X531047Y357428D01*
X530000Y357566D01*
X528953Y357428D01*
X527977Y357024D01*
X527139Y356381D01*
X526496Y355543D01*
X526291Y355049D01*
X499114D01*
X494529Y359633D01*
Y544845D01*
X494765Y544943D01*
X495496Y545504D01*
X495971Y546122D01*
X496471Y545993D01*
Y415000D01*
X496587Y414415D01*
X496919Y413919D01*
X503887Y406950D01*
X504383Y406618D01*
X504969Y406502D01*
X526602D01*
X526848Y406002D01*
X526496Y405543D01*
X526091Y404567D01*
X525954Y403520D01*
X526091Y402472D01*
X526496Y401497D01*
X527139Y400658D01*
X527977Y400015D01*
X528953Y399611D01*
X530000Y399473D01*
X531047Y399611D01*
X532023Y400015D01*
X532861Y400658D01*
X533504Y401497D01*
X533909Y402472D01*
X534046Y403520D01*
X533909Y404567D01*
X533504Y405543D01*
X533176Y405971D01*
X533423Y406471D01*
X534886D01*
X536296Y405061D01*
X536091Y404567D01*
X535954Y403520D01*
X536091Y402472D01*
X536496Y401497D01*
X537139Y400658D01*
X537977Y400015D01*
X538953Y399611D01*
X540000Y399473D01*
X541047Y399611D01*
X542023Y400015D01*
X542861Y400658D01*
X543504Y401497D01*
X543909Y402472D01*
X544046Y403520D01*
X543909Y404567D01*
X543504Y405543D01*
X542861Y406381D01*
X542023Y407024D01*
X541047Y407428D01*
X540000Y407566D01*
X538953Y407428D01*
X538459Y407224D01*
X536601Y409081D01*
X536105Y409413D01*
X535520Y409529D01*
X532248D01*
X532045Y409983D01*
X532049Y410035D01*
X532861Y410658D01*
X533504Y411496D01*
X533909Y412472D01*
X534046Y413520D01*
X533909Y414567D01*
X533504Y415543D01*
X532861Y416381D01*
X532023Y417024D01*
X531047Y417428D01*
X530000Y417566D01*
X528953Y417428D01*
X527977Y417024D01*
X527139Y416381D01*
X526496Y415543D01*
X526091Y414567D01*
X525954Y413520D01*
X526091Y412472D01*
X526496Y411496D01*
X527139Y410658D01*
X527917Y410061D01*
X527905Y409852D01*
X527778Y409561D01*
X505602D01*
X499529Y415633D01*
Y549845D01*
X499765Y549943D01*
X500496Y550504D01*
X501057Y551235D01*
X501410Y552086D01*
X501530Y553000D01*
X501410Y553914D01*
X501057Y554765D01*
X500496Y555496D01*
X499765Y556057D01*
X498914Y556410D01*
X498000Y556530D01*
D02*
G37*
G36*
X517000D02*
X516086Y556410D01*
X515235Y556057D01*
X514504Y555496D01*
X513943Y554765D01*
X513590Y553914D01*
X513470Y553000D01*
X513590Y552086D01*
X513943Y551235D01*
X514276Y550801D01*
X513960Y550391D01*
X513914Y550410D01*
X513000Y550530D01*
X512086Y550410D01*
X511235Y550057D01*
X510504Y549496D01*
X509943Y548765D01*
X509590Y547914D01*
X509470Y547000D01*
X509590Y546086D01*
X509943Y545235D01*
X510504Y544504D01*
X511235Y543943D01*
X511471Y543845D01*
Y479634D01*
X510919Y479081D01*
X510587Y478585D01*
X510471Y478000D01*
X510587Y477415D01*
X510919Y476919D01*
X513919Y473919D01*
X514415Y473587D01*
X515000Y473471D01*
X527770D01*
X527882Y473228D01*
X527907Y472971D01*
X527139Y472381D01*
X526496Y471543D01*
X526091Y470567D01*
X525954Y469520D01*
X526091Y468472D01*
X526496Y467496D01*
X527139Y466658D01*
X527977Y466015D01*
X528953Y465611D01*
X530000Y465473D01*
X531047Y465611D01*
X532023Y466015D01*
X532861Y466658D01*
X533504Y467496D01*
X533909Y468472D01*
X534046Y469520D01*
X533909Y470567D01*
X533504Y471543D01*
X532861Y472381D01*
X532093Y472971D01*
X532118Y473228D01*
X532230Y473471D01*
X537770D01*
X537882Y473228D01*
X537907Y472971D01*
X537139Y472381D01*
X536496Y471543D01*
X536091Y470567D01*
X535954Y469520D01*
X536091Y468472D01*
X536496Y467496D01*
X537139Y466658D01*
X537977Y466015D01*
X538953Y465611D01*
X540000Y465473D01*
X541047Y465611D01*
X542023Y466015D01*
X542861Y466658D01*
X543504Y467496D01*
X543909Y468472D01*
X543971Y468944D01*
X544471Y468911D01*
Y454128D01*
X543971Y454096D01*
X543909Y454567D01*
X543504Y455543D01*
X542861Y456381D01*
X542023Y457024D01*
X541047Y457428D01*
X540000Y457566D01*
X538953Y457428D01*
X537977Y457024D01*
X537139Y456381D01*
X536496Y455543D01*
X536091Y454567D01*
X535954Y453520D01*
X536091Y452472D01*
X536496Y451497D01*
X536651Y451294D01*
X534886Y449529D01*
X534012D01*
Y457531D01*
X525988D01*
Y449561D01*
X510602D01*
X508529Y451634D01*
Y549845D01*
X508765Y549943D01*
X509496Y550504D01*
X510057Y551235D01*
X510410Y552086D01*
X510530Y553000D01*
X510410Y553914D01*
X510057Y554765D01*
X509496Y555496D01*
X508765Y556057D01*
X507914Y556410D01*
X507000Y556530D01*
X506086Y556410D01*
X505235Y556057D01*
X504504Y555496D01*
X503943Y554765D01*
X503590Y553914D01*
X503470Y553000D01*
X503590Y552086D01*
X503943Y551235D01*
X504504Y550504D01*
X505235Y549943D01*
X505471Y549845D01*
Y451000D01*
X505587Y450415D01*
X505919Y449919D01*
X508887Y446950D01*
X509383Y446619D01*
X509969Y446502D01*
X526602D01*
X526848Y446002D01*
X526496Y445543D01*
X526091Y444567D01*
X525954Y443520D01*
X526091Y442472D01*
X526496Y441497D01*
X527139Y440658D01*
X527977Y440015D01*
X528953Y439611D01*
X530000Y439473D01*
X531047Y439611D01*
X532023Y440015D01*
X532861Y440658D01*
X533504Y441497D01*
X533909Y442472D01*
X534046Y443520D01*
X533909Y444567D01*
X533504Y445543D01*
X533176Y445971D01*
X533423Y446471D01*
X535520D01*
X536105Y446587D01*
X536601Y446919D01*
X539254Y449572D01*
X540000Y449473D01*
X541047Y449611D01*
X542023Y450015D01*
X542861Y450658D01*
X543504Y451497D01*
X543909Y452472D01*
X543971Y452944D01*
X544471Y452911D01*
Y444128D01*
X543971Y444096D01*
X543909Y444567D01*
X543504Y445543D01*
X542861Y446381D01*
X542023Y447024D01*
X541047Y447428D01*
X540000Y447566D01*
X538953Y447428D01*
X537977Y447024D01*
X537139Y446381D01*
X536496Y445543D01*
X536091Y444567D01*
X535954Y443520D01*
X536091Y442472D01*
X536496Y441497D01*
X537139Y440658D01*
X537977Y440015D01*
X538953Y439611D01*
X540000Y439473D01*
X541047Y439611D01*
X542023Y440015D01*
X542861Y440658D01*
X543504Y441497D01*
X543909Y442472D01*
X543971Y442944D01*
X544471Y442911D01*
Y434128D01*
X543971Y434096D01*
X543909Y434567D01*
X543504Y435543D01*
X542861Y436381D01*
X542023Y437024D01*
X541047Y437428D01*
X540000Y437566D01*
X538953Y437428D01*
X537977Y437024D01*
X537139Y436381D01*
X536496Y435543D01*
X536091Y434567D01*
X535954Y433520D01*
X536091Y432472D01*
X536496Y431496D01*
X537139Y430658D01*
X537977Y430015D01*
X538953Y429611D01*
X540000Y429473D01*
X541047Y429611D01*
X542023Y430015D01*
X542861Y430658D01*
X543504Y431496D01*
X543909Y432472D01*
X543971Y432944D01*
X544471Y432911D01*
Y430153D01*
X541541Y427224D01*
X541047Y427428D01*
X540000Y427566D01*
X538953Y427428D01*
X537977Y427024D01*
X537139Y426381D01*
X536496Y425543D01*
X536091Y424567D01*
X535954Y423520D01*
X536091Y422472D01*
X536496Y421496D01*
X537139Y420658D01*
X537977Y420015D01*
X538953Y419611D01*
X540000Y419473D01*
X541047Y419611D01*
X542023Y420015D01*
X542861Y420658D01*
X543504Y421496D01*
X543909Y422472D01*
X544046Y423520D01*
X543909Y424567D01*
X543704Y425061D01*
X547081Y428438D01*
X547413Y428934D01*
X547529Y429520D01*
Y472000D01*
X547413Y472585D01*
X547081Y473081D01*
X544081Y476081D01*
X543585Y476413D01*
X543340Y476462D01*
X543133Y477013D01*
X543504Y477496D01*
X543909Y478472D01*
X544046Y479520D01*
X543909Y480567D01*
X543504Y481543D01*
X542861Y482381D01*
X542023Y483024D01*
X541047Y483428D01*
X540000Y483566D01*
X538953Y483428D01*
X537977Y483024D01*
X537139Y482381D01*
X536496Y481543D01*
X536091Y480567D01*
X535954Y479520D01*
X536091Y478472D01*
X536496Y477496D01*
X536854Y477029D01*
X536608Y476529D01*
X533392D01*
X533146Y477029D01*
X533504Y477496D01*
X533909Y478472D01*
X534046Y479520D01*
X533909Y480567D01*
X533504Y481543D01*
X532861Y482381D01*
X532023Y483024D01*
X531047Y483428D01*
X530000Y483566D01*
X528953Y483428D01*
X527977Y483024D01*
X527139Y482381D01*
X526496Y481543D01*
X526091Y480567D01*
X525954Y479520D01*
X526091Y478472D01*
X526496Y477496D01*
X526854Y477029D01*
X526608Y476529D01*
X515633D01*
X514147Y478016D01*
X514413Y478415D01*
X514529Y479000D01*
Y543845D01*
X514765Y543943D01*
X515022Y544140D01*
X515471Y543919D01*
Y507000D01*
X515587Y506415D01*
X515919Y505919D01*
X518887Y502950D01*
X519383Y502619D01*
X519969Y502502D01*
X526602D01*
X526848Y502002D01*
X526496Y501543D01*
X526091Y500567D01*
X525954Y499520D01*
X526091Y498472D01*
X526496Y497497D01*
X527139Y496658D01*
X527977Y496015D01*
X528953Y495611D01*
X530000Y495473D01*
X531047Y495611D01*
X532023Y496015D01*
X532861Y496658D01*
X533504Y497497D01*
X533909Y498472D01*
X534046Y499520D01*
X533909Y500567D01*
X533504Y501543D01*
X533176Y501971D01*
X533423Y502471D01*
X534886D01*
X536296Y501061D01*
X536091Y500567D01*
X535954Y499520D01*
X536091Y498472D01*
X536496Y497497D01*
X537139Y496658D01*
X537977Y496015D01*
X538953Y495611D01*
X540000Y495473D01*
X541047Y495611D01*
X542023Y496015D01*
X542861Y496658D01*
X543504Y497497D01*
X543909Y498472D01*
X544046Y499520D01*
X543909Y500567D01*
X543504Y501543D01*
X542861Y502381D01*
X542023Y503024D01*
X541047Y503428D01*
X540000Y503566D01*
X538953Y503428D01*
X538459Y503224D01*
X536601Y505081D01*
X536105Y505413D01*
X535520Y505529D01*
X532248D01*
X532045Y505983D01*
X532049Y506035D01*
X532861Y506658D01*
X533504Y507497D01*
X533909Y508472D01*
X534046Y509520D01*
X533909Y510567D01*
X533504Y511543D01*
X532861Y512381D01*
X532023Y513024D01*
X531047Y513428D01*
X530000Y513566D01*
X528953Y513428D01*
X527977Y513024D01*
X527139Y512381D01*
X526496Y511543D01*
X526091Y510567D01*
X525954Y509520D01*
X526091Y508472D01*
X526496Y507497D01*
X527139Y506658D01*
X527917Y506061D01*
X527905Y505852D01*
X527778Y505561D01*
X520602D01*
X518529Y507633D01*
Y549845D01*
X518765Y549943D01*
X519496Y550504D01*
X520057Y551235D01*
X520410Y552086D01*
X520530Y553000D01*
X520410Y553914D01*
X520057Y554765D01*
X519496Y555496D01*
X518765Y556057D01*
X517914Y556410D01*
X517000Y556530D01*
D02*
G37*
G36*
X534012Y563531D02*
X525988D01*
Y555508D01*
X534012D01*
Y563531D01*
D02*
G37*
G36*
X540000Y563566D02*
X538953Y563428D01*
X537977Y563024D01*
X537139Y562381D01*
X536496Y561543D01*
X536091Y560567D01*
X535954Y559520D01*
X536091Y558472D01*
X536496Y557497D01*
X537139Y556658D01*
X537977Y556015D01*
X538953Y555611D01*
X540000Y555473D01*
X541047Y555611D01*
X542023Y556015D01*
X542861Y556658D01*
X543504Y557497D01*
X543909Y558472D01*
X544046Y559520D01*
X543909Y560567D01*
X543504Y561543D01*
X542861Y562381D01*
X542023Y563024D01*
X541047Y563428D01*
X540000Y563566D01*
D02*
G37*
G36*
Y553566D02*
X538953Y553428D01*
X537977Y553024D01*
X537139Y552381D01*
X536496Y551543D01*
X536091Y550567D01*
X535954Y549520D01*
X536091Y548472D01*
X536496Y547497D01*
X537139Y546658D01*
X537977Y546015D01*
X538953Y545611D01*
X540000Y545473D01*
X541047Y545611D01*
X542023Y546015D01*
X542861Y546658D01*
X543504Y547497D01*
X543909Y548472D01*
X544046Y549520D01*
X543909Y550567D01*
X543504Y551543D01*
X542861Y552381D01*
X542023Y553024D01*
X541047Y553428D01*
X540000Y553566D01*
D02*
G37*
G36*
X530000Y543566D02*
X528953Y543428D01*
X527977Y543024D01*
X527139Y542381D01*
X526496Y541543D01*
X526091Y540567D01*
X525954Y539520D01*
X526091Y538472D01*
X526496Y537497D01*
X527139Y536658D01*
X527977Y536015D01*
X528953Y535611D01*
X530000Y535473D01*
X531047Y535611D01*
X532023Y536015D01*
X532861Y536658D01*
X533504Y537497D01*
X533909Y538472D01*
X534046Y539520D01*
X533909Y540567D01*
X533504Y541543D01*
X532861Y542381D01*
X532023Y543024D01*
X531047Y543428D01*
X530000Y543566D01*
D02*
G37*
G36*
X540000Y533566D02*
X538953Y533428D01*
X537977Y533024D01*
X537139Y532381D01*
X536496Y531543D01*
X536091Y530567D01*
X535954Y529520D01*
X536091Y528472D01*
X536496Y527496D01*
X537139Y526658D01*
X537977Y526015D01*
X538953Y525611D01*
X540000Y525473D01*
X541047Y525611D01*
X542023Y526015D01*
X542861Y526658D01*
X543504Y527496D01*
X543909Y528472D01*
X544046Y529520D01*
X543909Y530567D01*
X543504Y531543D01*
X542861Y532381D01*
X542023Y533024D01*
X541047Y533428D01*
X540000Y533566D01*
D02*
G37*
G36*
X530000Y553566D02*
X528953Y553428D01*
X527977Y553024D01*
X527139Y552381D01*
X526496Y551543D01*
X526091Y550567D01*
X525954Y549520D01*
X526091Y548472D01*
X526496Y547497D01*
X527139Y546658D01*
X527977Y546015D01*
X528953Y545611D01*
X530000Y545473D01*
X531047Y545611D01*
X532023Y546015D01*
X532861Y546658D01*
X533504Y547497D01*
X533909Y548472D01*
X534046Y549520D01*
X533909Y550567D01*
X533504Y551543D01*
X532861Y552381D01*
X532023Y553024D01*
X531047Y553428D01*
X530000Y553566D01*
D02*
G37*
G36*
X540000Y543566D02*
X538953Y543428D01*
X537977Y543024D01*
X537139Y542381D01*
X536496Y541543D01*
X536091Y540567D01*
X535954Y539520D01*
X536091Y538472D01*
X536496Y537497D01*
X537139Y536658D01*
X537977Y536015D01*
X538953Y535611D01*
X540000Y535473D01*
X541047Y535611D01*
X542023Y536015D01*
X542861Y536658D01*
X543504Y537497D01*
X543909Y538472D01*
X544046Y539520D01*
X543909Y540567D01*
X543504Y541543D01*
X542861Y542381D01*
X542023Y543024D01*
X541047Y543428D01*
X540000Y543566D01*
D02*
G37*
%LPD*%
D10*
X420547Y595547D02*
X447844D01*
X350000Y373520D02*
X354480Y378000D01*
X358100D01*
X358131Y378031D01*
X379031D01*
X403000Y402000D01*
Y539000D01*
X417000Y553000D01*
X475000D01*
X476000Y552000D01*
X356381Y353520D02*
X360000D01*
X351869Y358032D02*
X356381Y353520D01*
X346969Y358032D02*
X351869D01*
X345488Y359512D02*
X346969Y358032D01*
X345488Y359512D02*
Y563488D01*
X346000Y564000D01*
X540000Y423520D02*
X546000Y429520D01*
Y472000D01*
X543000Y475000D02*
X546000Y472000D01*
X540000Y452480D02*
Y453520D01*
X535520Y448000D02*
X540000Y452480D01*
X358000Y409000D02*
X399000D01*
X352520Y403520D02*
X358000Y409000D01*
X350000Y403520D02*
X352520D01*
X390000Y428000D02*
X395000Y433000D01*
X361900Y428000D02*
X390000D01*
X361869Y428031D02*
X361900Y428000D01*
X358131Y428031D02*
X361869D01*
X353619Y423520D02*
X358131Y428031D01*
X350000Y423520D02*
X353619D01*
X387000Y574000D02*
X406547Y593547D01*
Y601844D01*
X409156Y604453D01*
X417453D01*
X431000Y618000D01*
X391000Y517000D02*
Y573703D01*
X428000Y610703D01*
Y611000D01*
X395000Y574000D02*
X421000Y600000D01*
X397000Y572000D02*
X420547Y595547D01*
X350000Y433520D02*
Y434000D01*
X411000Y633000D02*
Y647000D01*
Y618000D02*
Y633000D01*
X421000D02*
Y647000D01*
Y618000D02*
Y633000D01*
X431000Y618000D02*
Y633000D01*
Y647000D01*
X458000Y618000D02*
Y633000D01*
Y647000D01*
X468000Y633000D02*
Y647000D01*
Y618000D02*
Y633000D01*
X478000Y618000D02*
Y633000D01*
Y647000D01*
X488000Y633000D02*
Y647000D01*
Y618000D02*
Y633000D01*
X370000Y649000D02*
X417000Y696000D01*
X370000Y523000D02*
Y649000D01*
X443000Y681000D02*
X448000Y686000D01*
X407000Y681000D02*
X443000D01*
X374000Y648000D02*
X407000Y681000D01*
X427000Y671000D02*
X432000Y676000D01*
X402000Y671000D02*
X427000D01*
X378000Y647000D02*
X402000Y671000D01*
X378000Y523000D02*
Y647000D01*
X440000Y668000D02*
X448000Y676000D01*
X440000Y661000D02*
Y668000D01*
X436000Y657000D02*
X440000Y661000D01*
X393000Y657000D02*
X436000D01*
X382000Y646000D02*
X393000Y657000D01*
X382000Y519000D02*
Y646000D01*
X379031Y388032D02*
X383000Y392000D01*
X358131Y388032D02*
X379031D01*
X353619Y383520D02*
X358131Y388032D01*
X350000Y383520D02*
X353619D01*
X471000Y611000D02*
X478000Y618000D01*
X428000Y611000D02*
X471000D01*
X387000Y523000D02*
Y574000D01*
X421000Y600000D02*
X436000D01*
X395000Y503000D02*
Y574000D01*
X390032Y498032D02*
X395000Y503000D01*
X358131Y498032D02*
X390032D01*
X358100Y498000D02*
X358131Y498032D01*
X354480Y498000D02*
X358100D01*
X350000Y493520D02*
X354480Y498000D01*
X452297Y600000D02*
X456000D01*
X447844Y595547D02*
X452297Y600000D01*
X397000Y476000D02*
Y572000D01*
X390000Y469000D02*
X397000Y476000D01*
X355480Y469000D02*
X390000D01*
X350000Y463520D02*
X355480Y469000D01*
X517000Y507000D02*
Y553000D01*
Y507000D02*
X519969Y504032D01*
X531869D01*
X531900Y504000D01*
X535520D01*
X540000Y499520D01*
X512000Y478000D02*
X515000Y475000D01*
X543000D01*
X507000Y451000D02*
Y553000D01*
Y451000D02*
X509969Y448032D01*
X531869D01*
X531900Y448000D01*
X535520D01*
X498000Y415000D02*
Y553000D01*
Y415000D02*
X504969Y408032D01*
X531869D01*
X531900Y408000D01*
X535520D01*
X540000Y403520D01*
X493000Y359000D02*
Y548000D01*
Y359000D02*
X498480Y353520D01*
X530000D01*
X467000Y447000D02*
X472000Y442000D01*
X488000D01*
X463000Y364000D02*
X483480Y343520D01*
X530000D01*
X451000Y402000D02*
X459000D01*
X515000Y379000D02*
X534520D01*
X540000Y373520D01*
X447000Y396000D02*
X448000Y395000D01*
X459000D01*
X463000Y364000D02*
Y441000D01*
X512000Y478000D02*
X513000Y479000D01*
Y547000D01*
X484000Y465000D02*
Y553000D01*
X382000Y519000D02*
X383000Y518000D01*
Y517000D02*
Y518000D01*
X374000Y517000D02*
Y648000D01*
D11*
X391000Y600000D02*
D03*
X488000Y618000D02*
D03*
X411000D02*
D03*
Y633000D02*
D03*
Y647000D02*
D03*
X488000D02*
D03*
Y633000D02*
D03*
X436000Y600000D02*
D03*
D12*
X401000D02*
D03*
X411000D02*
D03*
X478000Y618000D02*
D03*
X468000D02*
D03*
X458000D02*
D03*
X448000Y676000D02*
D03*
Y686000D02*
D03*
Y696000D02*
D03*
X421000Y618000D02*
D03*
X431000D02*
D03*
X441000D02*
D03*
X421000Y633000D02*
D03*
X431000D02*
D03*
X441000D02*
D03*
X421000Y647000D02*
D03*
X431000D02*
D03*
X441000D02*
D03*
X478000D02*
D03*
X468000D02*
D03*
X458000D02*
D03*
X478000Y633000D02*
D03*
X468000D02*
D03*
X458000D02*
D03*
X417000Y676000D02*
D03*
Y686000D02*
D03*
Y696000D02*
D03*
X432000Y686000D02*
D03*
Y676000D02*
D03*
Y666000D02*
D03*
X475000Y687000D02*
D03*
X456000Y600000D02*
D03*
X446000D02*
D03*
D13*
X448000Y666000D02*
D03*
X417000D02*
D03*
X432000Y696000D02*
D03*
X475000Y677000D02*
D03*
D14*
X540000Y293520D02*
D03*
X530000D02*
D03*
X360000D02*
D03*
X350000D02*
D03*
X540000Y469520D02*
D03*
X530000D02*
D03*
X540000Y479520D02*
D03*
X530000D02*
D03*
X540000Y489520D02*
D03*
X530000D02*
D03*
X540000Y499520D02*
D03*
X530000D02*
D03*
X540000Y509520D02*
D03*
X530000D02*
D03*
X540000Y519520D02*
D03*
X530000D02*
D03*
X540000Y529520D02*
D03*
X530000D02*
D03*
X540000Y539520D02*
D03*
X530000D02*
D03*
X540000Y549520D02*
D03*
X530000D02*
D03*
X540000Y303520D02*
D03*
X530000D02*
D03*
X540000Y313520D02*
D03*
X530000D02*
D03*
X540000Y323520D02*
D03*
X530000D02*
D03*
X540000Y333520D02*
D03*
X530000D02*
D03*
X540000Y343520D02*
D03*
X530000D02*
D03*
X540000Y353520D02*
D03*
X530000D02*
D03*
X540000Y363520D02*
D03*
X530000D02*
D03*
X540000Y373520D02*
D03*
X530000D02*
D03*
X540000Y383520D02*
D03*
X530000D02*
D03*
X540000Y393520D02*
D03*
X530000D02*
D03*
X540000Y403520D02*
D03*
X530000D02*
D03*
X540000Y413520D02*
D03*
X530000D02*
D03*
X540000Y423520D02*
D03*
X530000D02*
D03*
X540000Y433520D02*
D03*
X530000D02*
D03*
X540000Y443520D02*
D03*
X530000D02*
D03*
X540000Y453520D02*
D03*
Y559520D02*
D03*
X360000Y303520D02*
D03*
X350000D02*
D03*
X360000Y313520D02*
D03*
X350000D02*
D03*
X360000Y323520D02*
D03*
X350000D02*
D03*
X360000Y333520D02*
D03*
X350000D02*
D03*
X360000Y343520D02*
D03*
X350000D02*
D03*
X360000Y353520D02*
D03*
X350000D02*
D03*
X360000Y363520D02*
D03*
X350000D02*
D03*
X360000Y373520D02*
D03*
X350000D02*
D03*
X360000Y383520D02*
D03*
X350000D02*
D03*
X360000Y393520D02*
D03*
X350000D02*
D03*
X360000Y403520D02*
D03*
X350000D02*
D03*
X360000Y413520D02*
D03*
X350000D02*
D03*
X360000Y423520D02*
D03*
X350000D02*
D03*
X360000Y433520D02*
D03*
Y453520D02*
D03*
X350000D02*
D03*
X360000Y463520D02*
D03*
X350000D02*
D03*
X360000Y473520D02*
D03*
X350000D02*
D03*
X360000Y483520D02*
D03*
X350000D02*
D03*
X360000Y493520D02*
D03*
X350000D02*
D03*
X360000Y503520D02*
D03*
X350000D02*
D03*
X360000Y513520D02*
D03*
X350000D02*
D03*
X360000Y523520D02*
D03*
D15*
X530000Y453520D02*
D03*
Y559520D02*
D03*
X350000Y433520D02*
D03*
Y523520D02*
D03*
D16*
X475000Y553000D02*
D03*
X346000Y564000D02*
D03*
X399000Y409000D02*
D03*
X395000Y433000D02*
D03*
X370000Y523000D02*
D03*
X378000D02*
D03*
X383000Y392000D02*
D03*
X387000Y523000D02*
D03*
X517000Y553000D02*
D03*
X507000D02*
D03*
X498000D02*
D03*
X493000Y548000D02*
D03*
X484000Y553000D02*
D03*
Y465000D02*
D03*
X467000Y447000D02*
D03*
X488000Y442000D02*
D03*
X451000Y402000D02*
D03*
X459000D02*
D03*
X447000Y396000D02*
D03*
X515000Y379000D02*
D03*
X459000Y395000D02*
D03*
X463000Y441000D02*
D03*
X513000Y547000D02*
D03*
X383000Y517000D02*
D03*
X391000D02*
D03*
X374000D02*
D03*
M02*
