G04 Layer_Color=32896*
%FSLAX25Y25*%
%MOIN*%
G70*
G01*
G75*
%ADD10C,0.01000*%
%ADD23C,0.00787*%
%ADD24C,0.00600*%
D10*
X416000Y587000D02*
Y590999D01*
X414001Y592998D01*
X412001Y590999D01*
Y587000D01*
Y589999D01*
X416000D01*
X410002Y592998D02*
Y587000D01*
X407003D01*
X406003Y588000D01*
Y591998D01*
X407003Y592998D01*
X410002D01*
X400005Y591998D02*
X401005Y592998D01*
X403004D01*
X404004Y591998D01*
Y588000D01*
X403004Y587000D01*
X401005D01*
X400005Y588000D01*
X532001Y648998D02*
X533001Y649998D01*
X535000D01*
X536000Y648998D01*
Y645000D01*
X535000Y644000D01*
X533001D01*
X532001Y645000D01*
X530002Y649998D02*
Y645000D01*
X529002Y644000D01*
X527003D01*
X526003Y645000D01*
Y649998D01*
X524004Y644000D02*
Y649998D01*
X521005D01*
X520005Y648998D01*
Y646999D01*
X521005Y645999D01*
X524004D01*
X522005D02*
X520005Y644000D01*
X518006Y649998D02*
Y644000D01*
X514007D01*
X508009Y649998D02*
X512008D01*
Y644000D01*
X508009D01*
X512008Y646999D02*
X510008D01*
X502011Y649998D02*
X506010D01*
Y646999D01*
X504010D01*
X506010D01*
Y644000D01*
X500012Y649998D02*
X496013D01*
X498012D01*
Y644000D01*
X403002Y696000D02*
Y694001D01*
Y695000D01*
X409000D01*
Y696000D01*
Y694001D01*
Y691002D02*
X403002D01*
X409000Y687003D01*
X403002D01*
Y685004D02*
X409000D01*
Y681005D01*
X403002Y675007D02*
Y679005D01*
X409000D01*
Y675007D01*
X406001Y679005D02*
Y677006D01*
X403002Y669009D02*
Y673007D01*
X406001D01*
Y671008D01*
Y673007D01*
X409000D01*
X403002Y667009D02*
Y663011D01*
Y665010D01*
X409000D01*
X401000Y650998D02*
X399001D01*
X400000D01*
Y645000D01*
X401000D01*
X399001D01*
X396002D02*
Y650998D01*
X392003Y645000D01*
Y650998D01*
X386005D02*
X390004D01*
Y647999D01*
X388004D01*
X390004D01*
Y645000D01*
X381007Y650998D02*
X383006D01*
X384005Y649998D01*
Y646000D01*
X383006Y645000D01*
X381007D01*
X380007Y646000D01*
Y649998D01*
X381007Y650998D01*
X378007D02*
Y645000D01*
X374009D01*
X368011Y650998D02*
X372009D01*
Y645000D01*
X368011D01*
X372009Y647999D02*
X370010D01*
X362013Y650998D02*
X366011D01*
Y647999D01*
X364012D01*
X366011D01*
Y645000D01*
X360013Y650998D02*
X356015D01*
X358014D01*
Y645000D01*
X487998Y674000D02*
Y675999D01*
Y675000D01*
X482000D01*
Y674000D01*
Y675999D01*
Y682997D02*
Y678998D01*
X485999Y682997D01*
X486998D01*
X487998Y681997D01*
Y679998D01*
X486998Y678998D01*
Y688995D02*
X487998Y687995D01*
Y685996D01*
X486998Y684996D01*
X483000D01*
X482000Y685996D01*
Y687995D01*
X483000Y688995D01*
X533001Y634998D02*
X534001Y635998D01*
X536000D01*
X537000Y634998D01*
Y631000D01*
X536000Y630000D01*
X534001D01*
X533001Y631000D01*
X531002Y635998D02*
Y631000D01*
X530002Y630000D01*
X528003D01*
X527003Y631000D01*
Y635998D01*
X525004Y630000D02*
Y635998D01*
X522005D01*
X521005Y634998D01*
Y632999D01*
X522005Y631999D01*
X525004D01*
X523004D02*
X521005Y630000D01*
X519006D02*
Y635998D01*
X516007D01*
X515007Y634998D01*
Y632999D01*
X516007Y631999D01*
X519006D01*
X513008Y630000D02*
Y635998D01*
X510009D01*
X509009Y634998D01*
Y632999D01*
X510009Y631999D01*
X513008D01*
X511008D02*
X509009Y630000D01*
X504011Y635998D02*
X506010D01*
X507010Y634998D01*
Y631000D01*
X506010Y630000D01*
X504011D01*
X503011Y631000D01*
Y634998D01*
X504011Y635998D01*
X501012Y630000D02*
Y635998D01*
X498013D01*
X497013Y634998D01*
Y632999D01*
X498013Y631999D01*
X501012D01*
X465000Y592998D02*
X463001D01*
X464000D01*
Y587000D01*
X465000D01*
X463001D01*
X460002D02*
Y592998D01*
X458002Y590999D01*
X456003Y592998D01*
Y587000D01*
X454004Y592998D02*
Y588000D01*
X453004Y587000D01*
X451005D01*
X450005Y588000D01*
Y592998D01*
X442007Y587000D02*
Y592998D01*
X439008D01*
X438009Y591998D01*
Y589999D01*
X439008Y588999D01*
X442007D01*
X436009Y592998D02*
Y587000D01*
X434010Y588999D01*
X432011Y587000D01*
Y592998D01*
X430011Y587000D02*
Y592998D01*
X427012D01*
X426013Y591998D01*
Y589999D01*
X427012Y588999D01*
X430011D01*
X428012D02*
X426013Y587000D01*
X448000Y709998D02*
X446001D01*
X447000D01*
Y704000D01*
X448000D01*
X446001D01*
X443002D02*
Y709998D01*
X439003Y704000D01*
Y709998D01*
X437004Y704000D02*
Y709998D01*
X434004D01*
X433005Y708998D01*
Y706999D01*
X434004Y705999D01*
X437004D01*
X431005Y704000D02*
Y709998D01*
X428007D01*
X427007Y708998D01*
Y706999D01*
X428007Y705999D01*
X431005D01*
X429006D02*
X427007Y704000D01*
X422008Y709998D02*
X424008D01*
X425007Y708998D01*
Y705000D01*
X424008Y704000D01*
X422008D01*
X421009Y705000D01*
Y708998D01*
X422008Y709998D01*
X419009Y704000D02*
Y709998D01*
X416010D01*
X415011Y708998D01*
Y706999D01*
X416010Y705999D01*
X419009D01*
X400000Y635998D02*
X398001D01*
X399000D01*
Y630000D01*
X400000D01*
X398001D01*
X395002D02*
Y635998D01*
X391003Y630000D01*
Y635998D01*
X385005D02*
X389004D01*
Y632999D01*
X387004D01*
X389004D01*
Y630000D01*
X380007Y635998D02*
X382006D01*
X383005Y634998D01*
Y631000D01*
X382006Y630000D01*
X380007D01*
X379007Y631000D01*
Y634998D01*
X380007Y635998D01*
X377007Y630000D02*
Y635998D01*
X374008D01*
X373009Y634998D01*
Y632999D01*
X374008Y631999D01*
X377007D01*
X371009Y630000D02*
Y635998D01*
X368010D01*
X367011Y634998D01*
Y632999D01*
X368010Y631999D01*
X371009D01*
X369010D02*
X367011Y630000D01*
X362012Y635998D02*
X364012D01*
X365011Y634998D01*
Y631000D01*
X364012Y630000D01*
X362012D01*
X361013Y631000D01*
Y634998D01*
X362012Y635998D01*
X359013Y630000D02*
Y635998D01*
X356014D01*
X355015Y634998D01*
Y632999D01*
X356014Y631999D01*
X359013D01*
X538001Y619998D02*
X539001Y620998D01*
X541000D01*
X542000Y619998D01*
Y616000D01*
X541000Y615000D01*
X539001D01*
X538001Y616000D01*
X536002Y620998D02*
Y616000D01*
X535002Y615000D01*
X533003D01*
X532003Y616000D01*
Y620998D01*
X530004Y615000D02*
Y620998D01*
X527005D01*
X526005Y619998D01*
Y617999D01*
X527005Y616999D01*
X530004D01*
X528005D02*
X526005Y615000D01*
X524006D02*
Y620998D01*
X521007D01*
X520007Y619998D01*
Y617999D01*
X521007Y616999D01*
X524006D01*
X522007D02*
X520007Y615000D01*
X518008Y620998D02*
X516008D01*
X517008D01*
Y615000D01*
X518008D01*
X516008D01*
X509011Y619998D02*
X510010Y620998D01*
X512010D01*
X513009Y619998D01*
Y616000D01*
X512010Y615000D01*
X510010D01*
X509011Y616000D01*
Y617999D01*
X511010D01*
X507011Y620998D02*
Y615000D01*
Y617999D01*
X503013D01*
Y620998D01*
Y615000D01*
X501013Y620998D02*
X497015D01*
X499014D01*
Y615000D01*
X457002Y700000D02*
Y698001D01*
Y699000D01*
X463000D01*
Y700000D01*
Y698001D01*
Y695002D02*
X457002D01*
X463000Y691003D01*
X457002D01*
X463000Y689004D02*
X457002D01*
Y686004D01*
X458002Y685005D01*
X460001D01*
X461001Y686004D01*
Y689004D01*
Y687004D02*
X463000Y685005D01*
X457002Y683006D02*
Y681006D01*
Y682006D01*
X463000D01*
Y683006D01*
Y681006D01*
X458002Y674008D02*
X457002Y675008D01*
Y677007D01*
X458002Y678007D01*
X462000D01*
X463000Y677007D01*
Y675008D01*
X462000Y674008D01*
X460001D01*
Y676008D01*
X457002Y672009D02*
X463000D01*
X460001D01*
Y668010D01*
X457002D01*
X463000D01*
X457002Y666011D02*
Y662012D01*
Y664012D01*
X463000D01*
X402000Y620998D02*
X400001D01*
X401000D01*
Y615000D01*
X402000D01*
X400001D01*
X397002D02*
Y620998D01*
X393003Y615000D01*
Y620998D01*
X387005D02*
X391004D01*
Y617999D01*
X389004D01*
X391004D01*
Y615000D01*
X382007Y620998D02*
X384006D01*
X385005Y619998D01*
Y616000D01*
X384006Y615000D01*
X382007D01*
X381007Y616000D01*
Y619998D01*
X382007Y620998D01*
X379007Y615000D02*
Y620998D01*
X376008D01*
X375009Y619998D01*
Y617999D01*
X376008Y616999D01*
X379007D01*
X377008D02*
X375009Y615000D01*
X373009Y620998D02*
X371010D01*
X372010D01*
Y615000D01*
X373009D01*
X371010D01*
X364012Y619998D02*
X365012Y620998D01*
X367011D01*
X368011Y619998D01*
Y616000D01*
X367011Y615000D01*
X365012D01*
X364012Y616000D01*
Y617999D01*
X366012D01*
X362013Y620998D02*
Y615000D01*
Y617999D01*
X358014D01*
Y620998D01*
Y615000D01*
X356015Y620998D02*
X352016D01*
X354015D01*
Y615000D01*
D23*
X386000Y605000D02*
X416000D01*
Y595000D02*
Y605000D01*
X386000Y595000D02*
X416000D01*
X386000D02*
Y605000D01*
X453000Y613000D02*
Y623000D01*
Y613000D02*
X493000D01*
X453000Y623000D02*
X493000D01*
Y613000D02*
Y623000D01*
X443000Y701000D02*
X453000D01*
X443000Y661000D02*
Y701000D01*
X453000Y661000D02*
Y701000D01*
X443000Y661000D02*
X453000D01*
X446000Y613000D02*
Y623000D01*
X406000D02*
X446000D01*
X406000Y613000D02*
X446000D01*
X406000D02*
Y623000D01*
X446000Y628000D02*
Y638000D01*
X406000D02*
X446000D01*
X406000Y628000D02*
X446000D01*
X406000D02*
Y638000D01*
X446000Y642000D02*
Y652000D01*
X406000D02*
X446000D01*
X406000Y642000D02*
X446000D01*
X406000D02*
Y652000D01*
X453000Y642000D02*
Y652000D01*
Y642000D02*
X493000D01*
X453000Y652000D02*
X493000D01*
Y642000D02*
Y652000D01*
X453000Y628000D02*
Y638000D01*
Y628000D02*
X493000D01*
X453000Y638000D02*
X493000D01*
Y628000D02*
Y638000D01*
X412000Y701000D02*
X422000D01*
X412000Y661000D02*
Y701000D01*
X422000Y661000D02*
Y701000D01*
X412000Y661000D02*
X422000D01*
X427000D02*
X437000D01*
Y701000D01*
X427000Y661000D02*
Y701000D01*
X437000D01*
X480000Y672000D02*
Y692000D01*
X470000Y672000D02*
X480000D01*
X470000D02*
Y692000D01*
X480000D01*
X431000Y595000D02*
Y605000D01*
Y595000D02*
X461000D01*
Y605000D01*
X431000D02*
X461000D01*
D24*
X419001Y544749D02*
X419751Y545499D01*
X421250D01*
X422000Y544749D01*
Y543999D01*
X421250Y543249D01*
X419751D01*
X419001Y542499D01*
Y541750D01*
X419751Y541000D01*
X421250D01*
X422000Y541750D01*
X417501Y543999D02*
Y541750D01*
X416752Y541000D01*
X414502D01*
Y543999D01*
X413003Y545499D02*
Y541000D01*
X410754D01*
X410004Y541750D01*
Y542499D01*
Y543249D01*
X410754Y543999D01*
X413003D01*
X408504Y541000D02*
Y543999D01*
X407755D01*
X407005Y543249D01*
Y541000D01*
Y543249D01*
X406255Y543999D01*
X405505Y543249D01*
Y541000D01*
X403256Y543999D02*
X401756D01*
X401007Y543249D01*
Y541000D01*
X403256D01*
X404006Y541750D01*
X403256Y542499D01*
X401007D01*
X399507Y543999D02*
Y541000D01*
Y542499D01*
X398758Y543249D01*
X398008Y543999D01*
X397258D01*
X395009Y541000D02*
X393509D01*
X394259D01*
Y543999D01*
X395009D01*
X391260Y541000D02*
Y543999D01*
X389011D01*
X388261Y543249D01*
Y541000D01*
X384512D02*
X386012D01*
X386761Y541750D01*
Y543249D01*
X386012Y543999D01*
X384512D01*
X383762Y543249D01*
Y542499D01*
X386761D01*
X374765Y544749D02*
X375515Y545499D01*
X377014D01*
X377764Y544749D01*
Y541750D01*
X377014Y541000D01*
X375515D01*
X374765Y541750D01*
X372516Y541000D02*
X371016D01*
X370267Y541750D01*
Y543249D01*
X371016Y543999D01*
X372516D01*
X373266Y543249D01*
Y541750D01*
X372516Y541000D01*
X368767D02*
Y543999D01*
X366518D01*
X365768Y543249D01*
Y541000D01*
X363519Y544749D02*
Y543999D01*
X364269D01*
X362769D01*
X363519D01*
Y541750D01*
X362769Y541000D01*
X360520Y543999D02*
Y541000D01*
Y542499D01*
X359770Y543249D01*
X359020Y543999D01*
X358271D01*
X355272Y541000D02*
X353772D01*
X353022Y541750D01*
Y543249D01*
X353772Y543999D01*
X355272D01*
X356021Y543249D01*
Y541750D01*
X355272Y541000D01*
X351523D02*
X350023D01*
X350773D01*
Y545499D01*
X351523D01*
X416000Y535999D02*
Y533000D01*
X414501D01*
X414001Y533500D01*
Y535499D01*
X414501Y535999D01*
X416000D01*
X411502Y533000D02*
X412501D01*
X413001Y533500D01*
Y534500D01*
X412501Y534999D01*
X411502D01*
X411002Y534500D01*
Y534000D01*
X413001D01*
X410002Y533000D02*
X408502D01*
X408003Y533500D01*
X408502Y534000D01*
X409502D01*
X410002Y534500D01*
X409502Y534999D01*
X408003D01*
X407003Y533000D02*
X406003D01*
X406503D01*
Y534999D01*
X407003D01*
X403504Y532000D02*
X403004D01*
X402504Y532500D01*
Y534999D01*
X404004D01*
X404504Y534500D01*
Y533500D01*
X404004Y533000D01*
X402504D01*
X401505D02*
Y534999D01*
X400005D01*
X399505Y534500D01*
Y533000D01*
X395507Y535999D02*
Y533000D01*
X394007D01*
X393507Y533500D01*
Y534000D01*
Y534500D01*
X394007Y534999D01*
X395507D01*
X392508D02*
Y533500D01*
X392008Y533000D01*
X390508D01*
Y532500D01*
X391008Y532000D01*
X391508D01*
X390508Y533000D02*
Y534999D01*
X386509Y535999D02*
Y533000D01*
X385010D01*
X384510Y533500D01*
Y535499D01*
X385010Y535999D01*
X386509D01*
X383510Y534999D02*
Y533500D01*
X383011Y533000D01*
X381511D01*
Y532500D01*
X382011Y532000D01*
X382511D01*
X381511Y533000D02*
Y534999D01*
X380511Y533000D02*
X379512D01*
X380012D01*
Y535999D01*
X380511D01*
X378012Y533000D02*
X377013D01*
X377512D01*
Y535999D01*
X378012D01*
X375013Y533000D02*
X374014D01*
X373514Y533500D01*
Y534500D01*
X374014Y534999D01*
X375013D01*
X375513Y534500D01*
Y533500D01*
X375013Y533000D01*
X372514D02*
Y534999D01*
X371015D01*
X370515Y534500D01*
Y533000D01*
X366516Y535999D02*
Y533000D01*
X365017D01*
X364517Y533500D01*
Y535499D01*
X365017Y535999D01*
X366516D01*
X363517Y534999D02*
Y533500D01*
X363017Y533000D01*
X361518D01*
Y534999D01*
X360518Y533000D02*
Y534999D01*
X359018D01*
X358519Y534500D01*
Y533000D01*
X357019Y535499D02*
Y534999D01*
X357519D01*
X356519D01*
X357019D01*
Y533500D01*
X356519Y533000D01*
X354520D02*
X353520D01*
X353020Y533500D01*
Y534500D01*
X353520Y534999D01*
X354520D01*
X355020Y534500D01*
Y533500D01*
X354520Y533000D01*
X352021D02*
Y534999D01*
X350521D01*
X350021Y534500D01*
Y533000D01*
M02*
