M48
;Layer_Color=9474304
;FILE_FORMAT=2:5
INCH,LZ
;TYPE=PLATED
T1F00S00C0.02800
T2F00S00C0.03543
T3F00S00C0.04016
%
T01
X0383Y0392
X0399Y0409
X0395Y0433
X0463Y0441
X0467Y0447
X0459Y0402
Y0395
X0447Y0396
X0451Y0402
X0488Y0442
X0484Y0465
X0515Y0379
X0513Y0547
X0517Y0553
X0507
X0498
X0493Y0548
X0484Y0553
X0475
X0387Y0523
X0378Y0523
X037
X0374Y0517
X0383
X0391
X0346Y0564
T02
X0478Y0618
X0488
X0468
X0458
X0441
X0431
X0421
X0411
Y06
X0401
X0391
X0436
X0446
X0456
X0458Y0633
X0468
Y0647
X0458
X0441
X0431
X0421
X0411
Y0633
X0421
X0431
X0441
X0448Y0666
Y0676
Y0686
Y0696
X0432
Y0686
Y0676
Y0666
X0417
Y0676
Y0686
Y0696
X0475Y0687
Y0677
X0478Y0647
X0488
Y0633
X0478
T03
X053Y029352
X054
Y030352
X053
X036
Y029352
X035
Y030352
Y031352
X036
Y032352
X035
Y033352
X036
Y034352
X035
Y035352
X036
Y036352
X035
Y037352
X036
Y038352
X035
Y039352
X036
Y040352
X035
Y041352
X036
Y042352
X035
Y043352
X036
Y045352
X035
Y046352
X036
X053Y045352
Y044352
Y043352
Y042352
Y041352
Y040352
Y039352
Y038352
Y037352
Y036352
Y035352
Y034352
Y033352
Y032352
Y031352
X054
Y032352
Y033352
Y034352
Y035352
Y036352
Y037352
Y038352
Y039352
Y040352
Y041352
Y042352
Y043352
Y044352
Y045352
Y046952
X053
Y047952
X054
Y048952
X053
Y049952
X054
Y050952
X053
Y051952
X054
Y052952
X053
Y053952
X054
Y054952
X053
Y055952
X054
X036Y052352
Y051352
Y050352
Y049352
Y048352
Y047352
X035
Y048352
Y049352
Y050352
Y051352
Y052352
M30
