G04 Layer_Color=255*
%FSLAX25Y25*%
%MOIN*%
G70*
G01*
G75*
%ADD11R,0.06024X0.06024*%
%ADD12C,0.06024*%
%ADD13R,0.06319X0.06319*%
%ADD14C,0.06319*%
%ADD15R,0.05906X0.05906*%
%ADD16C,0.05906*%
D11*
X215000Y313441D02*
D03*
X455000D02*
D03*
D12*
X215000Y133441D02*
D03*
X225000Y313441D02*
D03*
X215000Y303441D02*
D03*
X225000D02*
D03*
X215000Y293441D02*
D03*
X225000D02*
D03*
X215000Y283441D02*
D03*
X225000D02*
D03*
X215000Y273441D02*
D03*
X225000D02*
D03*
X215000Y263441D02*
D03*
X225000D02*
D03*
X215000Y253441D02*
D03*
X225000D02*
D03*
X215000Y243441D02*
D03*
X225000D02*
D03*
X215000Y233441D02*
D03*
X225000D02*
D03*
X215000Y223441D02*
D03*
X225000D02*
D03*
X215000Y213441D02*
D03*
X225000D02*
D03*
X215000Y203441D02*
D03*
X225000D02*
D03*
X215000Y193441D02*
D03*
X225000D02*
D03*
X215000Y183441D02*
D03*
X225000D02*
D03*
X215000Y173441D02*
D03*
X225000D02*
D03*
X215000Y163441D02*
D03*
X225000D02*
D03*
X215000Y153441D02*
D03*
X225000D02*
D03*
X215000Y143441D02*
D03*
X225000D02*
D03*
Y133441D02*
D03*
X455000D02*
D03*
X465000Y313441D02*
D03*
X455000Y303441D02*
D03*
X465000D02*
D03*
X455000Y293441D02*
D03*
X465000D02*
D03*
X455000Y283441D02*
D03*
X465000D02*
D03*
X455000Y273441D02*
D03*
X465000D02*
D03*
X455000Y263441D02*
D03*
X465000D02*
D03*
X455000Y253441D02*
D03*
X465000D02*
D03*
X455000Y243441D02*
D03*
X465000D02*
D03*
X455000Y233441D02*
D03*
X465000D02*
D03*
X455000Y223441D02*
D03*
X465000D02*
D03*
X455000Y213441D02*
D03*
X465000D02*
D03*
X455000Y203441D02*
D03*
X465000D02*
D03*
X455000Y193441D02*
D03*
X465000D02*
D03*
X455000Y183441D02*
D03*
X465000D02*
D03*
X455000Y173441D02*
D03*
X465000D02*
D03*
X455000Y163441D02*
D03*
X465000D02*
D03*
X455000Y153441D02*
D03*
X465000D02*
D03*
X455000Y143441D02*
D03*
X465000D02*
D03*
Y133441D02*
D03*
D13*
X245000Y273441D02*
D03*
X435000Y133441D02*
D03*
X245000Y183441D02*
D03*
X435000Y219425D02*
D03*
D14*
X245000Y263441D02*
D03*
Y253441D02*
D03*
Y243441D02*
D03*
Y233441D02*
D03*
Y223441D02*
D03*
Y213441D02*
D03*
Y203441D02*
D03*
X435000Y143441D02*
D03*
Y153441D02*
D03*
Y163441D02*
D03*
Y173441D02*
D03*
Y183441D02*
D03*
Y193441D02*
D03*
Y203441D02*
D03*
X245000Y173441D02*
D03*
Y163441D02*
D03*
Y153441D02*
D03*
Y143441D02*
D03*
Y133441D02*
D03*
X435000Y229425D02*
D03*
Y239425D02*
D03*
Y249425D02*
D03*
Y259425D02*
D03*
Y269425D02*
D03*
Y279425D02*
D03*
Y289425D02*
D03*
Y299425D02*
D03*
Y309425D02*
D03*
D15*
X281000Y264000D02*
D03*
X285000Y186500D02*
D03*
X401000Y186000D02*
D03*
X373000Y207500D02*
D03*
X400000Y261000D02*
D03*
X358500Y197500D02*
D03*
X344500D02*
D03*
X299500Y274000D02*
D03*
X314500Y198000D02*
D03*
D16*
X281000Y274000D02*
D03*
X285000Y216500D02*
D03*
Y206500D02*
D03*
Y196500D02*
D03*
X401000Y216000D02*
D03*
Y206000D02*
D03*
Y196000D02*
D03*
X373000Y197500D02*
D03*
X400000Y271000D02*
D03*
Y281000D02*
D03*
X358500Y207500D02*
D03*
X344500D02*
D03*
X299500Y264000D02*
D03*
X314500Y208000D02*
D03*
M02*
