G04 Layer_Physical_Order=1*
G04 Layer_Color=255*
%FSLAX25Y25*%
%MOIN*%
G70*
G01*
G75*
%ADD10C,0.01000*%
%ADD11R,0.06024X0.06024*%
%ADD12C,0.06024*%
%ADD13R,0.06319X0.06319*%
%ADD14C,0.06319*%
%ADD15R,0.05906X0.05906*%
%ADD16C,0.05906*%
G36*
X471971Y130633D02*
X466366Y125029D01*
X430633D01*
X425529Y130133D01*
Y142000D01*
X425413Y142585D01*
X425081Y143081D01*
X413081Y155081D01*
X412585Y155413D01*
X412000Y155529D01*
X283000D01*
X282415Y155413D01*
X281919Y155081D01*
X250867Y124029D01*
X210633D01*
X207029Y127634D01*
Y320971D01*
X471971D01*
Y130633D01*
D02*
G37*
%LPC*%
G36*
X358000Y211421D02*
X357468Y211351D01*
X356507Y210953D01*
X355681Y210319D01*
X355047Y209493D01*
X354649Y208532D01*
X354579Y208000D01*
X358000D01*
Y211421D01*
D02*
G37*
G36*
X345000D02*
Y208000D01*
X348421D01*
X348351Y208532D01*
X347953Y209493D01*
X347319Y210319D01*
X346493Y210953D01*
X345532Y211351D01*
X345000Y211421D01*
D02*
G37*
G36*
X344000D02*
X343468Y211351D01*
X342507Y210953D01*
X341681Y210319D01*
X341047Y209493D01*
X340649Y208532D01*
X340579Y208000D01*
X344000D01*
Y211421D01*
D02*
G37*
G36*
X376953Y211453D02*
X373500D01*
Y208000D01*
X376953D01*
Y211453D01*
D02*
G37*
G36*
X372500D02*
X369047D01*
Y208000D01*
X372500D01*
Y211453D01*
D02*
G37*
G36*
X359000Y211421D02*
Y208000D01*
X362421D01*
X362351Y208532D01*
X361953Y209493D01*
X361319Y210319D01*
X360493Y210953D01*
X359532Y211351D01*
X359000Y211421D01*
D02*
G37*
G36*
X318421Y207500D02*
X315000D01*
Y204079D01*
X315532Y204149D01*
X316493Y204547D01*
X317319Y205181D01*
X317953Y206007D01*
X318351Y206968D01*
X318421Y207500D01*
D02*
G37*
G36*
X348421Y207000D02*
X345000D01*
Y203579D01*
X345532Y203649D01*
X346493Y204047D01*
X347319Y204681D01*
X347953Y205507D01*
X348351Y206468D01*
X348421Y207000D01*
D02*
G37*
G36*
X344000D02*
X340579D01*
X340649Y206468D01*
X341047Y205507D01*
X341681Y204681D01*
X342507Y204047D01*
X343468Y203649D01*
X344000Y203579D01*
Y207000D01*
D02*
G37*
G36*
X372500D02*
X369047D01*
Y203547D01*
X372500D01*
Y207000D01*
D02*
G37*
G36*
X314000Y207500D02*
X310579D01*
X310649Y206968D01*
X311047Y206007D01*
X311681Y205181D01*
X312507Y204547D01*
X313468Y204149D01*
X314000Y204079D01*
Y207500D01*
D02*
G37*
G36*
X362421Y207000D02*
X359000D01*
Y203579D01*
X359532Y203649D01*
X360493Y204047D01*
X361319Y204681D01*
X361953Y205507D01*
X362351Y206468D01*
X362421Y207000D01*
D02*
G37*
G36*
X358000D02*
X354579D01*
X354649Y206468D01*
X355047Y205507D01*
X355681Y204681D01*
X356507Y204047D01*
X357468Y203649D01*
X358000Y203579D01*
Y207000D01*
D02*
G37*
G36*
X224500Y217422D02*
X223953Y217350D01*
X222977Y216945D01*
X222139Y216302D01*
X221496Y215464D01*
X221091Y214488D01*
X221019Y213941D01*
X224500D01*
Y217422D01*
D02*
G37*
G36*
X288921Y216000D02*
X285500D01*
Y212579D01*
X286032Y212649D01*
X286993Y213047D01*
X287819Y213681D01*
X288453Y214507D01*
X288851Y215468D01*
X288921Y216000D01*
D02*
G37*
G36*
X284500D02*
X281079D01*
X281149Y215468D01*
X281547Y214507D01*
X282181Y213681D01*
X283007Y213047D01*
X283968Y212649D01*
X284500Y212579D01*
Y216000D01*
D02*
G37*
G36*
X401500Y219921D02*
Y216500D01*
X404921D01*
X404851Y217032D01*
X404453Y217993D01*
X403819Y218819D01*
X402993Y219453D01*
X402032Y219851D01*
X401500Y219921D01*
D02*
G37*
G36*
X400500D02*
X399968Y219851D01*
X399007Y219453D01*
X398181Y218819D01*
X397547Y217993D01*
X397149Y217032D01*
X397079Y216500D01*
X400500D01*
Y219921D01*
D02*
G37*
G36*
X225500Y217422D02*
Y213941D01*
X228981D01*
X228909Y214488D01*
X228504Y215464D01*
X227861Y216302D01*
X227023Y216945D01*
X226047Y217350D01*
X225500Y217422D01*
D02*
G37*
G36*
X228981Y212941D02*
X225500D01*
Y209460D01*
X226047Y209532D01*
X227023Y209937D01*
X227861Y210580D01*
X228504Y211418D01*
X228909Y212394D01*
X228981Y212941D01*
D02*
G37*
G36*
X245000Y217636D02*
X243914Y217493D01*
X242902Y217074D01*
X242033Y216407D01*
X241367Y215539D01*
X240948Y214527D01*
X240805Y213441D01*
X240948Y212355D01*
X241367Y211343D01*
X242033Y210474D01*
X242902Y209808D01*
X243914Y209388D01*
X245000Y209246D01*
X246086Y209388D01*
X247098Y209808D01*
X247967Y210474D01*
X248633Y211343D01*
X249052Y212355D01*
X249195Y213441D01*
X249052Y214527D01*
X248633Y215539D01*
X247967Y216407D01*
X247098Y217074D01*
X246086Y217493D01*
X245000Y217636D01*
D02*
G37*
G36*
X315000Y211921D02*
Y208500D01*
X318421D01*
X318351Y209032D01*
X317953Y209993D01*
X317319Y210819D01*
X316493Y211453D01*
X315532Y211851D01*
X315000Y211921D01*
D02*
G37*
G36*
X314000D02*
X313468Y211851D01*
X312507Y211453D01*
X311681Y210819D01*
X311047Y209993D01*
X310649Y209032D01*
X310579Y208500D01*
X314000D01*
Y211921D01*
D02*
G37*
G36*
X224500Y212941D02*
X221019D01*
X221091Y212394D01*
X221496Y211418D01*
X222139Y210580D01*
X222977Y209937D01*
X223953Y209532D01*
X224500Y209460D01*
Y212941D01*
D02*
G37*
G36*
X465000Y217487D02*
X463953Y217350D01*
X462977Y216945D01*
X462139Y216302D01*
X461496Y215464D01*
X461091Y214488D01*
X460954Y213441D01*
X461091Y212394D01*
X461496Y211418D01*
X462139Y210580D01*
X462977Y209937D01*
X463953Y209532D01*
X465000Y209395D01*
X466047Y209532D01*
X467023Y209937D01*
X467861Y210580D01*
X468504Y211418D01*
X468909Y212394D01*
X469046Y213441D01*
X468909Y214488D01*
X468504Y215464D01*
X467861Y216302D01*
X467023Y216945D01*
X466047Y217350D01*
X465000Y217487D01*
D02*
G37*
G36*
X215000D02*
X213953Y217350D01*
X212977Y216945D01*
X212139Y216302D01*
X211496Y215464D01*
X211091Y214488D01*
X210954Y213441D01*
X211091Y212394D01*
X211496Y211418D01*
X212139Y210580D01*
X212977Y209937D01*
X213953Y209532D01*
X215000Y209395D01*
X216047Y209532D01*
X217023Y209937D01*
X217861Y210580D01*
X218504Y211418D01*
X218909Y212394D01*
X219046Y213441D01*
X218909Y214488D01*
X218504Y215464D01*
X217861Y216302D01*
X217023Y216945D01*
X216047Y217350D01*
X215000Y217487D01*
D02*
G37*
G36*
X465000Y207487D02*
X463953Y207349D01*
X462977Y206945D01*
X462139Y206302D01*
X461496Y205464D01*
X461091Y204488D01*
X460954Y203441D01*
X461091Y202394D01*
X461496Y201418D01*
X462139Y200580D01*
X462977Y199937D01*
X463953Y199532D01*
X465000Y199395D01*
X466047Y199532D01*
X467023Y199937D01*
X467861Y200580D01*
X468504Y201418D01*
X468909Y202394D01*
X469046Y203441D01*
X468909Y204488D01*
X468504Y205464D01*
X467861Y206302D01*
X467023Y206945D01*
X466047Y207349D01*
X465000Y207487D01*
D02*
G37*
G36*
X215000Y157487D02*
X213953Y157350D01*
X212977Y156945D01*
X212139Y156302D01*
X211496Y155464D01*
X211091Y154488D01*
X210954Y153441D01*
X211091Y152394D01*
X211496Y151418D01*
X212139Y150580D01*
X212977Y149937D01*
X213953Y149532D01*
X215000Y149395D01*
X216047Y149532D01*
X217023Y149937D01*
X217861Y150580D01*
X218504Y151418D01*
X218909Y152394D01*
X219046Y153441D01*
X218909Y154488D01*
X218504Y155464D01*
X217861Y156302D01*
X217023Y156945D01*
X216047Y157350D01*
X215000Y157487D01*
D02*
G37*
G36*
X435000Y157636D02*
X433914Y157493D01*
X432902Y157074D01*
X432033Y156407D01*
X431367Y155539D01*
X430948Y154527D01*
X430805Y153441D01*
X430948Y152355D01*
X431367Y151343D01*
X432033Y150474D01*
X432902Y149808D01*
X433914Y149389D01*
X435000Y149246D01*
X436086Y149389D01*
X437098Y149808D01*
X437967Y150474D01*
X438633Y151343D01*
X439052Y152355D01*
X439195Y153441D01*
X439052Y154527D01*
X438633Y155539D01*
X437967Y156407D01*
X437098Y157074D01*
X436086Y157493D01*
X435000Y157636D01*
D02*
G37*
G36*
X465000Y147487D02*
X463953Y147350D01*
X462977Y146945D01*
X462139Y146302D01*
X461496Y145464D01*
X461091Y144488D01*
X460954Y143441D01*
X461091Y142394D01*
X461496Y141418D01*
X462139Y140580D01*
X462977Y139937D01*
X463953Y139532D01*
X465000Y139394D01*
X466047Y139532D01*
X467023Y139937D01*
X467861Y140580D01*
X468504Y141418D01*
X468909Y142394D01*
X469046Y143441D01*
X468909Y144488D01*
X468504Y145464D01*
X467861Y146302D01*
X467023Y146945D01*
X466047Y147350D01*
X465000Y147487D01*
D02*
G37*
G36*
X215000Y167487D02*
X213953Y167350D01*
X212977Y166945D01*
X212139Y166302D01*
X211496Y165464D01*
X211091Y164488D01*
X210954Y163441D01*
X211091Y162394D01*
X211496Y161418D01*
X212139Y160580D01*
X212977Y159937D01*
X213953Y159532D01*
X215000Y159395D01*
X216047Y159532D01*
X217023Y159937D01*
X217861Y160580D01*
X218504Y161418D01*
X218909Y162394D01*
X219046Y163441D01*
X218909Y164488D01*
X218504Y165464D01*
X217861Y166302D01*
X217023Y166945D01*
X216047Y167350D01*
X215000Y167487D01*
D02*
G37*
G36*
X435000Y167636D02*
X433914Y167493D01*
X432902Y167074D01*
X432033Y166408D01*
X431367Y165539D01*
X430948Y164527D01*
X430805Y163441D01*
X430948Y162355D01*
X431367Y161343D01*
X432033Y160474D01*
X432902Y159808D01*
X433914Y159389D01*
X435000Y159246D01*
X436086Y159389D01*
X437098Y159808D01*
X437967Y160474D01*
X438633Y161343D01*
X439052Y162355D01*
X439195Y163441D01*
X439052Y164527D01*
X438633Y165539D01*
X437967Y166408D01*
X437098Y167074D01*
X436086Y167493D01*
X435000Y167636D01*
D02*
G37*
G36*
X465000Y157487D02*
X463953Y157350D01*
X462977Y156945D01*
X462139Y156302D01*
X461496Y155464D01*
X461091Y154488D01*
X460954Y153441D01*
X461091Y152394D01*
X461496Y151418D01*
X462139Y150580D01*
X462977Y149937D01*
X463953Y149532D01*
X465000Y149395D01*
X466047Y149532D01*
X467023Y149937D01*
X467861Y150580D01*
X468504Y151418D01*
X468909Y152394D01*
X469046Y153441D01*
X468909Y154488D01*
X468504Y155464D01*
X467861Y156302D01*
X467023Y156945D01*
X466047Y157350D01*
X465000Y157487D01*
D02*
G37*
G36*
X455000Y147487D02*
X453953Y147350D01*
X452977Y146945D01*
X452139Y146302D01*
X451496Y145464D01*
X451091Y144488D01*
X450954Y143441D01*
X451091Y142394D01*
X451496Y141418D01*
X452139Y140580D01*
X452977Y139937D01*
X453953Y139532D01*
X455000Y139394D01*
X456047Y139532D01*
X457023Y139937D01*
X457861Y140580D01*
X458504Y141418D01*
X458909Y142394D01*
X459046Y143441D01*
X458909Y144488D01*
X458504Y145464D01*
X457861Y146302D01*
X457023Y146945D01*
X456047Y147350D01*
X455000Y147487D01*
D02*
G37*
G36*
Y137487D02*
X453953Y137349D01*
X452977Y136945D01*
X452139Y136302D01*
X451496Y135464D01*
X451091Y134488D01*
X450954Y133441D01*
X451091Y132394D01*
X451496Y131418D01*
X452139Y130580D01*
X452977Y129937D01*
X453953Y129532D01*
X455000Y129394D01*
X456047Y129532D01*
X457023Y129937D01*
X457861Y130580D01*
X458504Y131418D01*
X458909Y132394D01*
X459046Y133441D01*
X458909Y134488D01*
X458504Y135464D01*
X457861Y136302D01*
X457023Y136945D01*
X456047Y137349D01*
X455000Y137487D01*
D02*
G37*
G36*
X215000D02*
X213953Y137349D01*
X212977Y136945D01*
X212139Y136302D01*
X211496Y135464D01*
X211091Y134488D01*
X210954Y133441D01*
X211091Y132394D01*
X211496Y131418D01*
X212139Y130580D01*
X212977Y129937D01*
X213953Y129532D01*
X215000Y129394D01*
X216047Y129532D01*
X217023Y129937D01*
X217861Y130580D01*
X218504Y131418D01*
X218909Y132394D01*
X219046Y133441D01*
X218909Y134488D01*
X218504Y135464D01*
X217861Y136302D01*
X217023Y136945D01*
X216047Y137349D01*
X215000Y137487D01*
D02*
G37*
G36*
X439159Y137600D02*
X430840D01*
Y129281D01*
X439159D01*
Y137600D01*
D02*
G37*
G36*
X215000Y147487D02*
X213953Y147350D01*
X212977Y146945D01*
X212139Y146302D01*
X211496Y145464D01*
X211091Y144488D01*
X210954Y143441D01*
X211091Y142394D01*
X211496Y141418D01*
X212139Y140580D01*
X212977Y139937D01*
X213953Y139532D01*
X215000Y139394D01*
X216047Y139532D01*
X217023Y139937D01*
X217861Y140580D01*
X218504Y141418D01*
X218909Y142394D01*
X219046Y143441D01*
X218909Y144488D01*
X218504Y145464D01*
X217861Y146302D01*
X217023Y146945D01*
X216047Y147350D01*
X215000Y147487D01*
D02*
G37*
G36*
X435000Y147636D02*
X433914Y147493D01*
X432902Y147074D01*
X432033Y146407D01*
X431367Y145539D01*
X430948Y144527D01*
X430805Y143441D01*
X430948Y142355D01*
X431367Y141343D01*
X432033Y140474D01*
X432902Y139808D01*
X433914Y139389D01*
X435000Y139246D01*
X436086Y139389D01*
X437098Y139808D01*
X437967Y140474D01*
X438633Y141343D01*
X439052Y142355D01*
X439195Y143441D01*
X439052Y144527D01*
X438633Y145539D01*
X437967Y146407D01*
X437098Y147074D01*
X436086Y147493D01*
X435000Y147636D01*
D02*
G37*
G36*
X465000Y137487D02*
X463953Y137349D01*
X462977Y136945D01*
X462139Y136302D01*
X461496Y135464D01*
X461091Y134488D01*
X460954Y133441D01*
X461091Y132394D01*
X461496Y131418D01*
X462139Y130580D01*
X462977Y129937D01*
X463953Y129532D01*
X465000Y129394D01*
X466047Y129532D01*
X467023Y129937D01*
X467861Y130580D01*
X468504Y131418D01*
X468909Y132394D01*
X469046Y133441D01*
X468909Y134488D01*
X468504Y135464D01*
X467861Y136302D01*
X467023Y136945D01*
X466047Y137349D01*
X465000Y137487D01*
D02*
G37*
G36*
X245000Y207636D02*
X243914Y207493D01*
X242902Y207074D01*
X242033Y206407D01*
X241367Y205539D01*
X240948Y204527D01*
X240805Y203441D01*
X240948Y202355D01*
X241367Y201343D01*
X242033Y200474D01*
X242902Y199808D01*
X243914Y199389D01*
X245000Y199246D01*
X246086Y199389D01*
X247098Y199808D01*
X247967Y200474D01*
X248633Y201343D01*
X249052Y202355D01*
X249195Y203441D01*
X249052Y204527D01*
X248633Y205539D01*
X247967Y206407D01*
X247098Y207074D01*
X246086Y207493D01*
X245000Y207636D01*
D02*
G37*
G36*
X285000Y200487D02*
X283968Y200351D01*
X283007Y199953D01*
X282181Y199319D01*
X281547Y198493D01*
X281355Y198029D01*
X274000D01*
X273415Y197913D01*
X272919Y197581D01*
X254967Y179630D01*
X249160D01*
Y187600D01*
X240841D01*
Y179281D01*
X241381D01*
X241588Y178781D01*
X228671Y165864D01*
X228172Y165897D01*
X227861Y166302D01*
X227023Y166945D01*
X226047Y167350D01*
X225000Y167487D01*
X223953Y167350D01*
X222977Y166945D01*
X222139Y166302D01*
X221496Y165464D01*
X221091Y164488D01*
X220954Y163441D01*
X221091Y162394D01*
X221496Y161418D01*
X222139Y160580D01*
X222977Y159937D01*
X223953Y159532D01*
X225000Y159395D01*
X226047Y159532D01*
X227023Y159937D01*
X227861Y160580D01*
X228504Y161418D01*
X228736Y161976D01*
X228996Y162028D01*
X229492Y162359D01*
X240332Y173200D01*
X240860Y173020D01*
X240948Y172355D01*
X241367Y171343D01*
X242033Y170474D01*
X242593Y170045D01*
X242485Y169513D01*
X241989Y169182D01*
X241336Y168529D01*
X238559D01*
X237974Y168413D01*
X237478Y168081D01*
X226541Y157145D01*
X226047Y157350D01*
X225000Y157487D01*
X223953Y157350D01*
X222977Y156945D01*
X222139Y156302D01*
X221496Y155464D01*
X221091Y154488D01*
X220954Y153441D01*
X221091Y152394D01*
X221496Y151418D01*
X222139Y150580D01*
X222977Y149937D01*
X223953Y149532D01*
X225000Y149395D01*
X226047Y149532D01*
X227023Y149937D01*
X227861Y150580D01*
X228504Y151418D01*
X228909Y152394D01*
X229046Y153441D01*
X228909Y154488D01*
X228704Y154982D01*
X239193Y165471D01*
X240889D01*
X241166Y165055D01*
X240948Y164527D01*
X240805Y163441D01*
X240948Y162355D01*
X241367Y161343D01*
X242033Y160474D01*
X242902Y159808D01*
X243914Y159389D01*
X245000Y159246D01*
X246086Y159389D01*
X247098Y159808D01*
X247967Y160474D01*
X248633Y161343D01*
X249052Y162355D01*
X249195Y163441D01*
X249052Y164527D01*
X248633Y165539D01*
X248225Y166071D01*
X248471Y166571D01*
X254600D01*
X255186Y166687D01*
X255682Y167019D01*
X273634Y184971D01*
X281047D01*
Y182547D01*
X288953D01*
Y190453D01*
X281047D01*
Y188029D01*
X273000D01*
X272415Y187913D01*
X271919Y187581D01*
X253967Y169630D01*
X247687D01*
X247517Y170130D01*
X247967Y170474D01*
X248633Y171343D01*
X249052Y172355D01*
X249195Y173441D01*
X249052Y174527D01*
X248633Y175539D01*
X248225Y176071D01*
X248471Y176571D01*
X255600D01*
X256186Y176687D01*
X256682Y177019D01*
X274634Y194971D01*
X281355D01*
X281547Y194507D01*
X282181Y193681D01*
X283007Y193047D01*
X283968Y192649D01*
X285000Y192513D01*
X286032Y192649D01*
X286993Y193047D01*
X287819Y193681D01*
X288453Y194507D01*
X288851Y195468D01*
X288987Y196500D01*
X288851Y197532D01*
X288453Y198493D01*
X287819Y199319D01*
X286993Y199953D01*
X286032Y200351D01*
X285000Y200487D01*
D02*
G37*
G36*
X465000Y197487D02*
X463953Y197350D01*
X462977Y196945D01*
X462139Y196302D01*
X461496Y195464D01*
X461091Y194488D01*
X460954Y193441D01*
X461091Y192394D01*
X461496Y191418D01*
X462139Y190580D01*
X462977Y189937D01*
X463953Y189532D01*
X465000Y189394D01*
X466047Y189532D01*
X467023Y189937D01*
X467861Y190580D01*
X468504Y191418D01*
X468909Y192394D01*
X469046Y193441D01*
X468909Y194488D01*
X468504Y195464D01*
X467861Y196302D01*
X467023Y196945D01*
X466047Y197350D01*
X465000Y197487D01*
D02*
G37*
G36*
X455000Y207487D02*
X453953Y207349D01*
X452977Y206945D01*
X452139Y206302D01*
X451496Y205464D01*
X451091Y204488D01*
X450954Y203441D01*
X451091Y202394D01*
X451496Y201418D01*
X452139Y200580D01*
X452977Y199937D01*
X453953Y199532D01*
X455000Y199395D01*
X456047Y199532D01*
X457023Y199937D01*
X457861Y200580D01*
X458504Y201418D01*
X458909Y202394D01*
X459046Y203441D01*
X458909Y204488D01*
X458504Y205464D01*
X457861Y206302D01*
X457023Y206945D01*
X456047Y207349D01*
X455000Y207487D01*
D02*
G37*
G36*
X225000D02*
X223953Y207349D01*
X222977Y206945D01*
X222139Y206302D01*
X221496Y205464D01*
X221091Y204488D01*
X220954Y203441D01*
X221091Y202394D01*
X221496Y201418D01*
X222139Y200580D01*
X222977Y199937D01*
X223953Y199532D01*
X225000Y199395D01*
X226047Y199532D01*
X227023Y199937D01*
X227861Y200580D01*
X228504Y201418D01*
X228909Y202394D01*
X229046Y203441D01*
X228909Y204488D01*
X228504Y205464D01*
X227861Y206302D01*
X227023Y206945D01*
X226047Y207349D01*
X225000Y207487D01*
D02*
G37*
G36*
X215000D02*
X213953Y207349D01*
X212977Y206945D01*
X212139Y206302D01*
X211496Y205464D01*
X211091Y204488D01*
X210954Y203441D01*
X211091Y202394D01*
X211496Y201418D01*
X212139Y200580D01*
X212977Y199937D01*
X213953Y199532D01*
X215000Y199395D01*
X216047Y199532D01*
X217023Y199937D01*
X217861Y200580D01*
X218504Y201418D01*
X218909Y202394D01*
X219046Y203441D01*
X218909Y204488D01*
X218504Y205464D01*
X217861Y206302D01*
X217023Y206945D01*
X216047Y207349D01*
X215000Y207487D01*
D02*
G37*
G36*
X225000Y197487D02*
X223953Y197350D01*
X222977Y196945D01*
X222139Y196302D01*
X221496Y195464D01*
X221091Y194488D01*
X220954Y193441D01*
X221091Y192394D01*
X221496Y191418D01*
X222139Y190580D01*
X222977Y189937D01*
X223953Y189532D01*
X225000Y189394D01*
X226047Y189532D01*
X227023Y189937D01*
X227861Y190580D01*
X228504Y191418D01*
X228909Y192394D01*
X229046Y193441D01*
X228909Y194488D01*
X228504Y195464D01*
X227861Y196302D01*
X227023Y196945D01*
X226047Y197350D01*
X225000Y197487D01*
D02*
G37*
G36*
Y177487D02*
X223953Y177349D01*
X222977Y176945D01*
X222139Y176302D01*
X221496Y175464D01*
X221091Y174488D01*
X220954Y173441D01*
X221091Y172394D01*
X221496Y171418D01*
X222139Y170580D01*
X222977Y169937D01*
X223953Y169532D01*
X225000Y169395D01*
X226047Y169532D01*
X227023Y169937D01*
X227861Y170580D01*
X228504Y171418D01*
X228909Y172394D01*
X229046Y173441D01*
X228909Y174488D01*
X228504Y175464D01*
X227861Y176302D01*
X227023Y176945D01*
X226047Y177349D01*
X225000Y177487D01*
D02*
G37*
G36*
X215000D02*
X213953Y177349D01*
X212977Y176945D01*
X212139Y176302D01*
X211496Y175464D01*
X211091Y174488D01*
X210954Y173441D01*
X211091Y172394D01*
X211496Y171418D01*
X212139Y170580D01*
X212977Y169937D01*
X213953Y169532D01*
X215000Y169395D01*
X216047Y169532D01*
X217023Y169937D01*
X217861Y170580D01*
X218504Y171418D01*
X218909Y172394D01*
X219046Y173441D01*
X218909Y174488D01*
X218504Y175464D01*
X217861Y176302D01*
X217023Y176945D01*
X216047Y177349D01*
X215000Y177487D01*
D02*
G37*
G36*
X435000Y177636D02*
X433914Y177493D01*
X432902Y177074D01*
X432033Y176408D01*
X431367Y175539D01*
X430948Y174527D01*
X430805Y173441D01*
X430948Y172355D01*
X431367Y171343D01*
X432033Y170474D01*
X432902Y169808D01*
X433914Y169389D01*
X435000Y169246D01*
X436086Y169389D01*
X437098Y169808D01*
X437967Y170474D01*
X438633Y171343D01*
X439052Y172355D01*
X439195Y173441D01*
X439052Y174527D01*
X438633Y175539D01*
X437967Y176408D01*
X437098Y177074D01*
X436086Y177493D01*
X435000Y177636D01*
D02*
G37*
G36*
X215000Y197487D02*
X213953Y197350D01*
X212977Y196945D01*
X212139Y196302D01*
X211496Y195464D01*
X211091Y194488D01*
X210954Y193441D01*
X211091Y192394D01*
X211496Y191418D01*
X212139Y190580D01*
X212977Y189937D01*
X213953Y189532D01*
X215000Y189394D01*
X216047Y189532D01*
X217023Y189937D01*
X217861Y190580D01*
X218504Y191418D01*
X218909Y192394D01*
X219046Y193441D01*
X218909Y194488D01*
X218504Y195464D01*
X217861Y196302D01*
X217023Y196945D01*
X216047Y197350D01*
X215000Y197487D01*
D02*
G37*
G36*
X225000Y187487D02*
X223953Y187349D01*
X222977Y186945D01*
X222139Y186302D01*
X221496Y185464D01*
X221091Y184488D01*
X220954Y183441D01*
X221091Y182394D01*
X221496Y181418D01*
X222139Y180580D01*
X222977Y179937D01*
X223953Y179532D01*
X225000Y179394D01*
X226047Y179532D01*
X227023Y179937D01*
X227861Y180580D01*
X228504Y181418D01*
X228909Y182394D01*
X229046Y183441D01*
X228909Y184488D01*
X228504Y185464D01*
X227861Y186302D01*
X227023Y186945D01*
X226047Y187349D01*
X225000Y187487D01*
D02*
G37*
G36*
X215000D02*
X213953Y187349D01*
X212977Y186945D01*
X212139Y186302D01*
X211496Y185464D01*
X211091Y184488D01*
X210954Y183441D01*
X211091Y182394D01*
X211496Y181418D01*
X212139Y180580D01*
X212977Y179937D01*
X213953Y179532D01*
X215000Y179394D01*
X216047Y179532D01*
X217023Y179937D01*
X217861Y180580D01*
X218504Y181418D01*
X218909Y182394D01*
X219046Y183441D01*
X218909Y184488D01*
X218504Y185464D01*
X217861Y186302D01*
X217023Y186945D01*
X216047Y187349D01*
X215000Y187487D01*
D02*
G37*
G36*
X284500Y220421D02*
X283968Y220351D01*
X283007Y219953D01*
X282181Y219319D01*
X281547Y218493D01*
X281149Y217532D01*
X281079Y217000D01*
X284500D01*
Y220421D01*
D02*
G37*
G36*
X400000Y284987D02*
X398968Y284851D01*
X398007Y284453D01*
X397181Y283819D01*
X396547Y282993D01*
X396149Y282032D01*
X396013Y281000D01*
X396149Y279968D01*
X396341Y279504D01*
X363419Y246581D01*
X363087Y246085D01*
X362971Y245500D01*
Y207656D01*
X362925Y207653D01*
Y207347D01*
X362971Y207344D01*
Y204134D01*
X360290Y201453D01*
X354547D01*
Y193547D01*
X360290D01*
X362419Y191419D01*
X362915Y191087D01*
X363500Y190971D01*
X389500D01*
X390085Y191087D01*
X390581Y191419D01*
X396900Y197737D01*
X397324Y197454D01*
X397149Y197032D01*
X397013Y196000D01*
X397149Y194968D01*
X397341Y194504D01*
X374867Y172029D01*
X274500D01*
X273915Y171913D01*
X273419Y171581D01*
X251867Y150029D01*
X248120D01*
X248009Y150529D01*
X248633Y151343D01*
X249052Y152355D01*
X249195Y153441D01*
X249052Y154527D01*
X248633Y155539D01*
X247967Y156407D01*
X247098Y157074D01*
X246086Y157493D01*
X245000Y157636D01*
X243914Y157493D01*
X242902Y157074D01*
X242033Y156407D01*
X241367Y155539D01*
X240948Y154527D01*
X240805Y153441D01*
X240948Y152355D01*
X241367Y151343D01*
X241991Y150529D01*
X241880Y150029D01*
X230059D01*
X229474Y149913D01*
X228978Y149581D01*
X226541Y147145D01*
X226047Y147350D01*
X225000Y147487D01*
X223953Y147350D01*
X222977Y146945D01*
X222139Y146302D01*
X221496Y145464D01*
X221091Y144488D01*
X220954Y143441D01*
X221091Y142394D01*
X221496Y141418D01*
X222139Y140580D01*
X222977Y139937D01*
X223953Y139532D01*
X225000Y139394D01*
X226047Y139532D01*
X227023Y139937D01*
X227861Y140580D01*
X228504Y141418D01*
X228909Y142394D01*
X229046Y143441D01*
X228909Y144488D01*
X228704Y144982D01*
X230693Y146971D01*
X241990D01*
X242150Y146497D01*
X242033Y146407D01*
X241367Y145539D01*
X240948Y144527D01*
X240805Y143441D01*
X240948Y142355D01*
X241367Y141343D01*
X242033Y140474D01*
X242593Y140045D01*
X242580Y139805D01*
X242444Y139529D01*
X229559D01*
X228974Y139413D01*
X228478Y139081D01*
X226541Y137145D01*
X226047Y137349D01*
X225000Y137487D01*
X223953Y137349D01*
X222977Y136945D01*
X222139Y136302D01*
X221496Y135464D01*
X221091Y134488D01*
X220954Y133441D01*
X221091Y132394D01*
X221496Y131418D01*
X222139Y130580D01*
X222977Y129937D01*
X223953Y129532D01*
X225000Y129394D01*
X226047Y129532D01*
X227023Y129937D01*
X227861Y130580D01*
X228504Y131418D01*
X228909Y132394D01*
X229046Y133441D01*
X228909Y134488D01*
X228704Y134982D01*
X230193Y136471D01*
X241452D01*
X241698Y135971D01*
X241367Y135539D01*
X240948Y134527D01*
X240805Y133441D01*
X240948Y132355D01*
X241367Y131343D01*
X242033Y130474D01*
X242902Y129808D01*
X243914Y129389D01*
X245000Y129246D01*
X246086Y129389D01*
X247098Y129808D01*
X247967Y130474D01*
X248633Y131343D01*
X249052Y132355D01*
X249195Y133441D01*
X249052Y134527D01*
X248633Y135539D01*
X248225Y136071D01*
X248471Y136571D01*
X253100D01*
X253686Y136687D01*
X254182Y137019D01*
X278633Y161471D01*
X378000D01*
X378585Y161587D01*
X379081Y161919D01*
X399210Y182047D01*
X404953D01*
Y189953D01*
X397769D01*
X397578Y190415D01*
X399504Y192341D01*
X399968Y192149D01*
X401000Y192013D01*
X402032Y192149D01*
X402993Y192547D01*
X403819Y193181D01*
X404453Y194007D01*
X404851Y194968D01*
X404987Y196000D01*
X404851Y197032D01*
X404453Y197993D01*
X403819Y198819D01*
X402993Y199453D01*
X402950Y199471D01*
X403050Y199971D01*
X418366D01*
X431318Y187019D01*
X431704Y186761D01*
X431714Y186751D01*
X431840Y186328D01*
X431851Y186170D01*
X431367Y185539D01*
X430948Y184527D01*
X430805Y183441D01*
X430948Y182355D01*
X431367Y181343D01*
X432033Y180474D01*
X432902Y179808D01*
X433914Y179389D01*
X435000Y179246D01*
X436086Y179389D01*
X437098Y179808D01*
X437967Y180474D01*
X438633Y181343D01*
X438852Y181872D01*
X439342Y181969D01*
X448952Y172360D01*
X449448Y172028D01*
X450034Y171912D01*
X451291D01*
X451496Y171418D01*
X452139Y170580D01*
X452977Y169937D01*
X453953Y169532D01*
X455000Y169395D01*
X456047Y169532D01*
X457023Y169937D01*
X457861Y170580D01*
X457997Y170757D01*
X458471Y170596D01*
Y166286D01*
X457997Y166125D01*
X457861Y166302D01*
X457023Y166945D01*
X456047Y167350D01*
X455000Y167487D01*
X453953Y167350D01*
X452977Y166945D01*
X452139Y166302D01*
X451496Y165464D01*
X451091Y164488D01*
X450954Y163441D01*
X451091Y162394D01*
X451496Y161418D01*
X452139Y160580D01*
X452977Y159937D01*
X453953Y159532D01*
X455000Y159395D01*
X456047Y159532D01*
X457023Y159937D01*
X457861Y160580D01*
X457997Y160757D01*
X458471Y160596D01*
Y159074D01*
X456541Y157145D01*
X456047Y157350D01*
X455000Y157487D01*
X453953Y157350D01*
X452977Y156945D01*
X452139Y156302D01*
X451496Y155464D01*
X451091Y154488D01*
X450954Y153441D01*
X451091Y152394D01*
X451496Y151418D01*
X452139Y150580D01*
X452977Y149937D01*
X453953Y149532D01*
X455000Y149395D01*
X456047Y149532D01*
X457023Y149937D01*
X457861Y150580D01*
X458504Y151418D01*
X458909Y152394D01*
X459046Y153441D01*
X458909Y154488D01*
X458704Y154982D01*
X461081Y157360D01*
X461413Y157856D01*
X461529Y158441D01*
Y160596D01*
X462003Y160757D01*
X462139Y160580D01*
X462977Y159937D01*
X463953Y159532D01*
X465000Y159395D01*
X466047Y159532D01*
X467023Y159937D01*
X467861Y160580D01*
X468504Y161418D01*
X468909Y162394D01*
X469046Y163441D01*
X468909Y164488D01*
X468504Y165464D01*
X467861Y166302D01*
X467023Y166945D01*
X466047Y167350D01*
X465000Y167487D01*
X463953Y167350D01*
X462977Y166945D01*
X462139Y166302D01*
X462003Y166125D01*
X461529Y166286D01*
Y170596D01*
X462003Y170757D01*
X462139Y170580D01*
X462977Y169937D01*
X463953Y169532D01*
X465000Y169395D01*
X466047Y169532D01*
X467023Y169937D01*
X467861Y170580D01*
X468504Y171418D01*
X468909Y172394D01*
X469046Y173441D01*
X468909Y174488D01*
X468504Y175464D01*
X467861Y176302D01*
X467023Y176945D01*
X466047Y177349D01*
X465000Y177487D01*
X463953Y177349D01*
X462977Y176945D01*
X462139Y176302D01*
X462003Y176125D01*
X461529Y176286D01*
Y180596D01*
X462003Y180757D01*
X462139Y180580D01*
X462977Y179937D01*
X463953Y179532D01*
X465000Y179394D01*
X466047Y179532D01*
X467023Y179937D01*
X467861Y180580D01*
X468504Y181418D01*
X468909Y182394D01*
X469046Y183441D01*
X468909Y184488D01*
X468504Y185464D01*
X467861Y186302D01*
X467023Y186945D01*
X466047Y187349D01*
X465000Y187487D01*
X463953Y187349D01*
X462977Y186945D01*
X462139Y186302D01*
X462003Y186125D01*
X461529Y186286D01*
Y186500D01*
X461413Y187085D01*
X461081Y187581D01*
X459081Y189581D01*
X458585Y189913D01*
X458000Y190029D01*
X457922D01*
X457761Y190503D01*
X457861Y190580D01*
X458504Y191418D01*
X458909Y192394D01*
X459046Y193441D01*
X458909Y194488D01*
X458504Y195464D01*
X457861Y196302D01*
X457023Y196945D01*
X456047Y197350D01*
X455000Y197487D01*
X453953Y197350D01*
X452977Y196945D01*
X452139Y196302D01*
X451496Y195464D01*
X451091Y194488D01*
X450954Y193441D01*
X451091Y192394D01*
X451496Y191418D01*
X452139Y190580D01*
X452239Y190503D01*
X452078Y190029D01*
X447164D01*
X438011Y199182D01*
X437515Y199513D01*
X437407Y200045D01*
X437967Y200474D01*
X438633Y201343D01*
X439052Y202355D01*
X439195Y203441D01*
X439052Y204527D01*
X438633Y205539D01*
X437967Y206407D01*
X437098Y207074D01*
X436086Y207493D01*
X435000Y207636D01*
X433914Y207493D01*
X432902Y207074D01*
X432033Y206407D01*
X431367Y205539D01*
X430948Y204527D01*
X430805Y203441D01*
X430948Y202355D01*
X431367Y201343D01*
X432033Y200474D01*
X432482Y200130D01*
X432313Y199630D01*
X431033D01*
X419129Y211534D01*
X418633Y211866D01*
X418047Y211982D01*
X402936D01*
X402836Y212482D01*
X402993Y212547D01*
X403819Y213181D01*
X404453Y214007D01*
X404851Y214968D01*
X404921Y215500D01*
X397079D01*
X397149Y214968D01*
X397547Y214007D01*
X398181Y213181D01*
X399007Y212547D01*
X399026Y212454D01*
X398652Y211882D01*
X398570Y211866D01*
X398074Y211534D01*
X393569Y207029D01*
X382529D01*
Y241367D01*
X398210Y257047D01*
X403953D01*
Y264953D01*
X396047D01*
Y259210D01*
X379919Y243081D01*
X379587Y242585D01*
X379471Y242000D01*
Y206134D01*
X377415Y204078D01*
X376953Y204269D01*
Y207000D01*
X373500D01*
Y203547D01*
X376231D01*
X376422Y203085D01*
X374496Y201159D01*
X374032Y201351D01*
X373000Y201487D01*
X371968Y201351D01*
X371007Y200953D01*
X370181Y200319D01*
X369547Y199493D01*
X369149Y198532D01*
X369013Y197500D01*
X369149Y196468D01*
X369547Y195507D01*
X370181Y194681D01*
X370378Y194529D01*
X370209Y194029D01*
X364134D01*
X362453Y195710D01*
Y199290D01*
X365581Y202419D01*
X365913Y202915D01*
X366029Y203500D01*
Y244866D01*
X398504Y277341D01*
X398968Y277149D01*
X400000Y277013D01*
X401032Y277149D01*
X401993Y277547D01*
X402819Y278181D01*
X403453Y279007D01*
X403851Y279968D01*
X403987Y281000D01*
X403851Y282032D01*
X403453Y282993D01*
X402819Y283819D01*
X401993Y284453D01*
X401032Y284851D01*
X400000Y284987D01*
D02*
G37*
G36*
X435000Y283621D02*
X433914Y283478D01*
X432902Y283059D01*
X432033Y282392D01*
X431367Y281523D01*
X430948Y280511D01*
X430805Y279425D01*
X430948Y278339D01*
X431367Y277327D01*
X432033Y276459D01*
X432902Y275792D01*
X433914Y275373D01*
X435000Y275230D01*
X436086Y275373D01*
X437098Y275792D01*
X437967Y276459D01*
X438633Y277327D01*
X439052Y278339D01*
X439195Y279425D01*
X439052Y280511D01*
X438633Y281523D01*
X437967Y282392D01*
X437098Y283059D01*
X436086Y283478D01*
X435000Y283621D01*
D02*
G37*
G36*
X281000Y277987D02*
X279968Y277851D01*
X279007Y277453D01*
X278181Y276819D01*
X277547Y275993D01*
X277355Y275529D01*
X269000D01*
X268415Y275413D01*
X267919Y275081D01*
X252867Y260029D01*
X248120D01*
X248009Y260529D01*
X248633Y261343D01*
X249052Y262355D01*
X249195Y263441D01*
X249052Y264527D01*
X248633Y265539D01*
X247967Y266407D01*
X247098Y267074D01*
X246086Y267493D01*
X245000Y267636D01*
X243914Y267493D01*
X242902Y267074D01*
X242033Y266407D01*
X241367Y265539D01*
X240948Y264527D01*
X240805Y263441D01*
X240948Y262355D01*
X241367Y261343D01*
X241991Y260529D01*
X241880Y260029D01*
X240059D01*
X239474Y259913D01*
X238978Y259581D01*
X226541Y247145D01*
X226047Y247350D01*
X225000Y247487D01*
X223953Y247350D01*
X222977Y246945D01*
X222139Y246302D01*
X221496Y245464D01*
X221091Y244488D01*
X220954Y243441D01*
X221091Y242394D01*
X221496Y241418D01*
X222139Y240580D01*
X222977Y239937D01*
X223953Y239532D01*
X225000Y239394D01*
X226047Y239532D01*
X227023Y239937D01*
X227861Y240580D01*
X228504Y241418D01*
X228909Y242394D01*
X229046Y243441D01*
X228909Y244488D01*
X228704Y244982D01*
X240692Y256971D01*
X241990D01*
X242150Y256497D01*
X242033Y256407D01*
X241367Y255539D01*
X240948Y254527D01*
X240805Y253441D01*
X240948Y252355D01*
X241367Y251343D01*
X242033Y250474D01*
X242902Y249808D01*
X243914Y249389D01*
X245000Y249246D01*
X246086Y249389D01*
X247098Y249808D01*
X247967Y250474D01*
X248633Y251343D01*
X249052Y252355D01*
X249195Y253441D01*
X249052Y254527D01*
X248633Y255539D01*
X247967Y256407D01*
X247850Y256497D01*
X248010Y256971D01*
X253500D01*
X254085Y257087D01*
X254581Y257419D01*
X267009Y269846D01*
X267471Y269654D01*
Y222500D01*
X267587Y221915D01*
X267919Y221419D01*
X281341Y207996D01*
X281149Y207532D01*
X281013Y206500D01*
X281149Y205468D01*
X281547Y204507D01*
X282181Y203681D01*
X283007Y203047D01*
X283968Y202649D01*
X285000Y202513D01*
X286032Y202649D01*
X286993Y203047D01*
X287819Y203681D01*
X288453Y204507D01*
X288851Y205468D01*
X288987Y206500D01*
X288851Y207532D01*
X288453Y208493D01*
X287819Y209319D01*
X286993Y209953D01*
X286032Y210351D01*
X285000Y210487D01*
X283968Y210351D01*
X283504Y210159D01*
X270529Y223133D01*
Y272471D01*
X277355D01*
X277547Y272007D01*
X278181Y271181D01*
X279007Y270547D01*
X279968Y270149D01*
X281000Y270013D01*
X282032Y270149D01*
X282993Y270547D01*
X283819Y271181D01*
X284453Y272007D01*
X284851Y272968D01*
X284987Y274000D01*
X284851Y275032D01*
X284453Y275993D01*
X283819Y276819D01*
X282993Y277453D01*
X282032Y277851D01*
X281000Y277987D01*
D02*
G37*
G36*
X455000Y287487D02*
X453953Y287350D01*
X452977Y286945D01*
X452139Y286302D01*
X451496Y285464D01*
X451091Y284488D01*
X450954Y283441D01*
X451091Y282394D01*
X451496Y281418D01*
X452139Y280580D01*
X452977Y279937D01*
X453953Y279532D01*
X455000Y279395D01*
X456047Y279532D01*
X457023Y279937D01*
X457861Y280580D01*
X458504Y281418D01*
X458909Y282394D01*
X459046Y283441D01*
X458909Y284488D01*
X458504Y285464D01*
X457861Y286302D01*
X457023Y286945D01*
X456047Y287350D01*
X455000Y287487D01*
D02*
G37*
G36*
X225000D02*
X223953Y287350D01*
X222977Y286945D01*
X222139Y286302D01*
X221496Y285464D01*
X221091Y284488D01*
X220954Y283441D01*
X221091Y282394D01*
X221496Y281418D01*
X222139Y280580D01*
X222977Y279937D01*
X223953Y279532D01*
X225000Y279395D01*
X226047Y279532D01*
X227023Y279937D01*
X227861Y280580D01*
X228504Y281418D01*
X228909Y282394D01*
X229046Y283441D01*
X228909Y284488D01*
X228504Y285464D01*
X227861Y286302D01*
X227023Y286945D01*
X226047Y287350D01*
X225000Y287487D01*
D02*
G37*
G36*
X215000D02*
X213953Y287350D01*
X212977Y286945D01*
X212139Y286302D01*
X211496Y285464D01*
X211091Y284488D01*
X210954Y283441D01*
X211091Y282394D01*
X211496Y281418D01*
X212139Y280580D01*
X212977Y279937D01*
X213953Y279532D01*
X215000Y279395D01*
X216047Y279532D01*
X217023Y279937D01*
X217861Y280580D01*
X218504Y281418D01*
X218909Y282394D01*
X219046Y283441D01*
X218909Y284488D01*
X218504Y285464D01*
X217861Y286302D01*
X217023Y286945D01*
X216047Y287350D01*
X215000Y287487D01*
D02*
G37*
G36*
X465000Y277487D02*
X463953Y277349D01*
X462977Y276945D01*
X462139Y276302D01*
X461496Y275464D01*
X461091Y274488D01*
X460954Y273441D01*
X461091Y272394D01*
X461496Y271418D01*
X462139Y270580D01*
X462977Y269937D01*
X463953Y269532D01*
X465000Y269394D01*
X466047Y269532D01*
X467023Y269937D01*
X467861Y270580D01*
X468504Y271418D01*
X468909Y272394D01*
X469046Y273441D01*
X468909Y274488D01*
X468504Y275464D01*
X467861Y276302D01*
X467023Y276945D01*
X466047Y277349D01*
X465000Y277487D01*
D02*
G37*
G36*
X249160Y277600D02*
X240841D01*
Y269282D01*
X249160D01*
Y277600D01*
D02*
G37*
G36*
X400000Y274987D02*
X398968Y274851D01*
X398007Y274453D01*
X397181Y273819D01*
X396547Y272993D01*
X396149Y272032D01*
X396013Y271000D01*
X396149Y269968D01*
X396547Y269007D01*
X397181Y268181D01*
X398007Y267547D01*
X398968Y267149D01*
X400000Y267013D01*
X401032Y267149D01*
X401993Y267547D01*
X402819Y268181D01*
X403453Y269007D01*
X403851Y269968D01*
X403987Y271000D01*
X403851Y272032D01*
X403453Y272993D01*
X402819Y273819D01*
X401993Y274453D01*
X401032Y274851D01*
X400000Y274987D01*
D02*
G37*
G36*
X435000Y273621D02*
X433914Y273478D01*
X432902Y273059D01*
X432033Y272392D01*
X431367Y271523D01*
X430948Y270511D01*
X430805Y269425D01*
X430948Y268339D01*
X431367Y267327D01*
X432033Y266459D01*
X432902Y265792D01*
X433914Y265373D01*
X435000Y265230D01*
X436086Y265373D01*
X437098Y265792D01*
X437967Y266459D01*
X438633Y267327D01*
X439052Y268339D01*
X439195Y269425D01*
X439052Y270511D01*
X438633Y271523D01*
X437967Y272392D01*
X437098Y273059D01*
X436086Y273478D01*
X435000Y273621D01*
D02*
G37*
G36*
X455000Y277487D02*
X453953Y277349D01*
X452977Y276945D01*
X452139Y276302D01*
X451496Y275464D01*
X451091Y274488D01*
X450954Y273441D01*
X451091Y272394D01*
X451496Y271418D01*
X452139Y270580D01*
X452977Y269937D01*
X453953Y269532D01*
X455000Y269394D01*
X456047Y269532D01*
X457023Y269937D01*
X457861Y270580D01*
X458504Y271418D01*
X458909Y272394D01*
X459046Y273441D01*
X458909Y274488D01*
X458504Y275464D01*
X457861Y276302D01*
X457023Y276945D01*
X456047Y277349D01*
X455000Y277487D01*
D02*
G37*
G36*
X225000D02*
X223953Y277349D01*
X222977Y276945D01*
X222139Y276302D01*
X221496Y275464D01*
X221091Y274488D01*
X220954Y273441D01*
X221091Y272394D01*
X221496Y271418D01*
X222139Y270580D01*
X222977Y269937D01*
X223953Y269532D01*
X225000Y269394D01*
X226047Y269532D01*
X227023Y269937D01*
X227861Y270580D01*
X228504Y271418D01*
X228909Y272394D01*
X229046Y273441D01*
X228909Y274488D01*
X228504Y275464D01*
X227861Y276302D01*
X227023Y276945D01*
X226047Y277349D01*
X225000Y277487D01*
D02*
G37*
G36*
X215000D02*
X213953Y277349D01*
X212977Y276945D01*
X212139Y276302D01*
X211496Y275464D01*
X211091Y274488D01*
X210954Y273441D01*
X211091Y272394D01*
X211496Y271418D01*
X212139Y270580D01*
X212977Y269937D01*
X213953Y269532D01*
X215000Y269394D01*
X216047Y269532D01*
X217023Y269937D01*
X217861Y270580D01*
X218504Y271418D01*
X218909Y272394D01*
X219046Y273441D01*
X218909Y274488D01*
X218504Y275464D01*
X217861Y276302D01*
X217023Y276945D01*
X216047Y277349D01*
X215000Y277487D01*
D02*
G37*
G36*
X465000Y287487D02*
X463953Y287350D01*
X462977Y286945D01*
X462139Y286302D01*
X461496Y285464D01*
X461091Y284488D01*
X460954Y283441D01*
X461091Y282394D01*
X461496Y281418D01*
X462139Y280580D01*
X462977Y279937D01*
X463953Y279532D01*
X465000Y279395D01*
X466047Y279532D01*
X467023Y279937D01*
X467861Y280580D01*
X468504Y281418D01*
X468909Y282394D01*
X469046Y283441D01*
X468909Y284488D01*
X468504Y285464D01*
X467861Y286302D01*
X467023Y286945D01*
X466047Y287350D01*
X465000Y287487D01*
D02*
G37*
G36*
X225000Y317487D02*
X223953Y317350D01*
X222977Y316945D01*
X222139Y316302D01*
X221496Y315464D01*
X221091Y314488D01*
X220954Y313441D01*
X221091Y312394D01*
X221496Y311418D01*
X222139Y310580D01*
X222977Y309937D01*
X223953Y309532D01*
X225000Y309395D01*
X226047Y309532D01*
X227023Y309937D01*
X227861Y310580D01*
X228504Y311418D01*
X228909Y312394D01*
X229046Y313441D01*
X228909Y314488D01*
X228504Y315464D01*
X227861Y316302D01*
X227023Y316945D01*
X226047Y317350D01*
X225000Y317487D01*
D02*
G37*
G36*
X435000Y313620D02*
X433914Y313478D01*
X432902Y313058D01*
X432033Y312392D01*
X431367Y311523D01*
X430948Y310511D01*
X430805Y309425D01*
X430948Y308339D01*
X431367Y307328D01*
X432033Y306459D01*
X432902Y305792D01*
X433914Y305373D01*
X435000Y305230D01*
X436086Y305373D01*
X437098Y305792D01*
X437967Y306459D01*
X438633Y307328D01*
X439052Y308339D01*
X439195Y309425D01*
X439052Y310511D01*
X438633Y311523D01*
X437967Y312392D01*
X437098Y313058D01*
X436086Y313478D01*
X435000Y313620D01*
D02*
G37*
G36*
X465000Y307487D02*
X463953Y307349D01*
X462977Y306945D01*
X462139Y306302D01*
X461496Y305464D01*
X461091Y304488D01*
X460954Y303441D01*
X461091Y302394D01*
X461496Y301418D01*
X462139Y300580D01*
X462977Y299937D01*
X463953Y299532D01*
X465000Y299394D01*
X466047Y299532D01*
X467023Y299937D01*
X467861Y300580D01*
X468504Y301418D01*
X468909Y302394D01*
X469046Y303441D01*
X468909Y304488D01*
X468504Y305464D01*
X467861Y306302D01*
X467023Y306945D01*
X466047Y307349D01*
X465000Y307487D01*
D02*
G37*
G36*
X459012Y317453D02*
X450988D01*
Y309429D01*
X459012D01*
Y317453D01*
D02*
G37*
G36*
X219012D02*
X210988D01*
Y309429D01*
X219012D01*
Y317453D01*
D02*
G37*
G36*
X465000Y317487D02*
X463953Y317350D01*
X462977Y316945D01*
X462139Y316302D01*
X461496Y315464D01*
X461091Y314488D01*
X460954Y313441D01*
X461091Y312394D01*
X461496Y311418D01*
X462139Y310580D01*
X462977Y309937D01*
X463953Y309532D01*
X465000Y309395D01*
X466047Y309532D01*
X467023Y309937D01*
X467861Y310580D01*
X468504Y311418D01*
X468909Y312394D01*
X469046Y313441D01*
X468909Y314488D01*
X468504Y315464D01*
X467861Y316302D01*
X467023Y316945D01*
X466047Y317350D01*
X465000Y317487D01*
D02*
G37*
G36*
X455000Y307487D02*
X453953Y307349D01*
X452977Y306945D01*
X452139Y306302D01*
X451496Y305464D01*
X451091Y304488D01*
X450954Y303441D01*
X451091Y302394D01*
X451496Y301418D01*
X452139Y300580D01*
X452977Y299937D01*
X453953Y299532D01*
X455000Y299394D01*
X456047Y299532D01*
X457023Y299937D01*
X457861Y300580D01*
X458504Y301418D01*
X458909Y302394D01*
X459046Y303441D01*
X458909Y304488D01*
X458504Y305464D01*
X457861Y306302D01*
X457023Y306945D01*
X456047Y307349D01*
X455000Y307487D01*
D02*
G37*
G36*
X435000Y303621D02*
X433914Y303478D01*
X432902Y303059D01*
X432033Y302392D01*
X431367Y301523D01*
X430948Y300511D01*
X430805Y299425D01*
X430948Y298339D01*
X431367Y297327D01*
X432033Y296459D01*
X432482Y296114D01*
X432313Y295614D01*
X311085D01*
X310499Y295498D01*
X310003Y295166D01*
X282790Y267953D01*
X277047D01*
Y260047D01*
X279471D01*
Y252500D01*
X279587Y251915D01*
X279919Y251419D01*
X295471Y235866D01*
Y202000D01*
X295587Y201415D01*
X295919Y200919D01*
X309919Y186919D01*
X310415Y186587D01*
X311000Y186471D01*
X335000D01*
X335585Y186587D01*
X336081Y186919D01*
X342710Y193547D01*
X348453D01*
Y201453D01*
X340547D01*
Y195710D01*
X334366Y189529D01*
X311633D01*
X298529Y202634D01*
Y211154D01*
X298991Y211346D01*
X310547Y199790D01*
Y194047D01*
X318453D01*
Y201953D01*
X312710D01*
X301029Y213633D01*
Y260355D01*
X301493Y260547D01*
X302319Y261181D01*
X302953Y262007D01*
X303351Y262968D01*
X303487Y264000D01*
X303351Y265032D01*
X302953Y265993D01*
X302319Y266819D01*
X301493Y267453D01*
X300532Y267851D01*
X299500Y267987D01*
X298468Y267851D01*
X297507Y267453D01*
X296681Y266819D01*
X296047Y265993D01*
X295649Y265032D01*
X295513Y264000D01*
X295649Y262968D01*
X296047Y262007D01*
X296681Y261181D01*
X297507Y260547D01*
X297971Y260355D01*
Y238346D01*
X297509Y238154D01*
X282529Y253134D01*
Y260047D01*
X284953D01*
Y265790D01*
X295085Y275922D01*
X295547Y275731D01*
Y270047D01*
X303453D01*
Y272471D01*
X370500D01*
X371085Y272587D01*
X371581Y272919D01*
X385134Y286471D01*
X407367D01*
X421471Y272366D01*
Y217000D01*
X421587Y216415D01*
X421919Y215919D01*
X425478Y212359D01*
X425974Y212028D01*
X426559Y211912D01*
X451291D01*
X451496Y211418D01*
X452139Y210580D01*
X452977Y209937D01*
X453953Y209532D01*
X455000Y209395D01*
X456047Y209532D01*
X457023Y209937D01*
X457861Y210580D01*
X458504Y211418D01*
X458909Y212394D01*
X459046Y213441D01*
X458909Y214488D01*
X458504Y215464D01*
X457861Y216302D01*
X457023Y216945D01*
X456047Y217350D01*
X455000Y217487D01*
X453953Y217350D01*
X452977Y216945D01*
X452139Y216302D01*
X451496Y215464D01*
X451291Y214970D01*
X439537D01*
X439159Y215266D01*
X439159Y215470D01*
Y223585D01*
X430840D01*
Y215470D01*
X430840Y215266D01*
X430463Y214970D01*
X427193D01*
X424529Y217634D01*
Y273000D01*
X424413Y273585D01*
X424081Y274081D01*
X409081Y289081D01*
X408585Y289413D01*
X408000Y289529D01*
X384500D01*
X383915Y289413D01*
X383419Y289081D01*
X369866Y275529D01*
X303453D01*
Y277953D01*
X297769D01*
X297578Y278415D01*
X311718Y292555D01*
X431529D01*
X431775Y292055D01*
X431367Y291523D01*
X430948Y290511D01*
X430805Y289425D01*
X430948Y288339D01*
X431367Y287328D01*
X432033Y286459D01*
X432902Y285792D01*
X433914Y285373D01*
X435000Y285230D01*
X436086Y285373D01*
X437098Y285792D01*
X437967Y286459D01*
X438633Y287328D01*
X439052Y288339D01*
X439195Y289425D01*
X439052Y290511D01*
X438633Y291523D01*
X438225Y292055D01*
X438471Y292555D01*
X451070D01*
X451091Y292394D01*
X451496Y291418D01*
X452139Y290580D01*
X452977Y289937D01*
X453953Y289532D01*
X455000Y289394D01*
X456047Y289532D01*
X457023Y289937D01*
X457861Y290580D01*
X458504Y291418D01*
X458909Y292394D01*
X459046Y293441D01*
X458909Y294488D01*
X458504Y295464D01*
X457861Y296302D01*
X457023Y296945D01*
X456047Y297350D01*
X455000Y297487D01*
X453953Y297350D01*
X452977Y296945D01*
X452139Y296302D01*
X451611Y295614D01*
X437687D01*
X437517Y296114D01*
X437967Y296459D01*
X438633Y297327D01*
X439052Y298339D01*
X439195Y299425D01*
X439052Y300511D01*
X438633Y301523D01*
X437967Y302392D01*
X437098Y303059D01*
X436086Y303478D01*
X435000Y303621D01*
D02*
G37*
G36*
X225000Y297487D02*
X223953Y297350D01*
X222977Y296945D01*
X222139Y296302D01*
X221496Y295464D01*
X221091Y294488D01*
X220954Y293441D01*
X221091Y292394D01*
X221496Y291418D01*
X222139Y290580D01*
X222977Y289937D01*
X223953Y289532D01*
X225000Y289394D01*
X226047Y289532D01*
X227023Y289937D01*
X227861Y290580D01*
X228504Y291418D01*
X228909Y292394D01*
X229046Y293441D01*
X228909Y294488D01*
X228504Y295464D01*
X227861Y296302D01*
X227023Y296945D01*
X226047Y297350D01*
X225000Y297487D01*
D02*
G37*
G36*
X215000D02*
X213953Y297350D01*
X212977Y296945D01*
X212139Y296302D01*
X211496Y295464D01*
X211091Y294488D01*
X210954Y293441D01*
X211091Y292394D01*
X211496Y291418D01*
X212139Y290580D01*
X212977Y289937D01*
X213953Y289532D01*
X215000Y289394D01*
X216047Y289532D01*
X217023Y289937D01*
X217861Y290580D01*
X218504Y291418D01*
X218909Y292394D01*
X219046Y293441D01*
X218909Y294488D01*
X218504Y295464D01*
X217861Y296302D01*
X217023Y296945D01*
X216047Y297350D01*
X215000Y297487D01*
D02*
G37*
G36*
X225000Y307487D02*
X223953Y307349D01*
X222977Y306945D01*
X222139Y306302D01*
X221496Y305464D01*
X221091Y304488D01*
X220954Y303441D01*
X221091Y302394D01*
X221496Y301418D01*
X222139Y300580D01*
X222977Y299937D01*
X223953Y299532D01*
X225000Y299394D01*
X226047Y299532D01*
X227023Y299937D01*
X227861Y300580D01*
X228504Y301418D01*
X228909Y302394D01*
X229046Y303441D01*
X228909Y304488D01*
X228504Y305464D01*
X227861Y306302D01*
X227023Y306945D01*
X226047Y307349D01*
X225000Y307487D01*
D02*
G37*
G36*
X215000D02*
X213953Y307349D01*
X212977Y306945D01*
X212139Y306302D01*
X211496Y305464D01*
X211091Y304488D01*
X210954Y303441D01*
X211091Y302394D01*
X211496Y301418D01*
X212139Y300580D01*
X212977Y299937D01*
X213953Y299532D01*
X215000Y299394D01*
X216047Y299532D01*
X217023Y299937D01*
X217861Y300580D01*
X218504Y301418D01*
X218909Y302394D01*
X219046Y303441D01*
X218909Y304488D01*
X218504Y305464D01*
X217861Y306302D01*
X217023Y306945D01*
X216047Y307349D01*
X215000Y307487D01*
D02*
G37*
G36*
X465000Y297487D02*
X463953Y297350D01*
X462977Y296945D01*
X462139Y296302D01*
X461496Y295464D01*
X461091Y294488D01*
X460954Y293441D01*
X461091Y292394D01*
X461496Y291418D01*
X462139Y290580D01*
X462977Y289937D01*
X463953Y289532D01*
X465000Y289394D01*
X466047Y289532D01*
X467023Y289937D01*
X467861Y290580D01*
X468504Y291418D01*
X468909Y292394D01*
X469046Y293441D01*
X468909Y294488D01*
X468504Y295464D01*
X467861Y296302D01*
X467023Y296945D01*
X466047Y297350D01*
X465000Y297487D01*
D02*
G37*
G36*
X225000Y237487D02*
X223953Y237350D01*
X222977Y236945D01*
X222139Y236302D01*
X221496Y235464D01*
X221091Y234488D01*
X220954Y233441D01*
X221091Y232394D01*
X221496Y231418D01*
X222139Y230580D01*
X222977Y229937D01*
X223953Y229532D01*
X225000Y229395D01*
X226047Y229532D01*
X227023Y229937D01*
X227861Y230580D01*
X228504Y231418D01*
X228909Y232394D01*
X229046Y233441D01*
X228909Y234488D01*
X228504Y235464D01*
X227861Y236302D01*
X227023Y236945D01*
X226047Y237350D01*
X225000Y237487D01*
D02*
G37*
G36*
X215000D02*
X213953Y237350D01*
X212977Y236945D01*
X212139Y236302D01*
X211496Y235464D01*
X211091Y234488D01*
X210954Y233441D01*
X211091Y232394D01*
X211496Y231418D01*
X212139Y230580D01*
X212977Y229937D01*
X213953Y229532D01*
X215000Y229395D01*
X216047Y229532D01*
X217023Y229937D01*
X217861Y230580D01*
X218504Y231418D01*
X218909Y232394D01*
X219046Y233441D01*
X218909Y234488D01*
X218504Y235464D01*
X217861Y236302D01*
X217023Y236945D01*
X216047Y237350D01*
X215000Y237487D01*
D02*
G37*
G36*
X245000Y237636D02*
X243914Y237493D01*
X242902Y237074D01*
X242033Y236407D01*
X241367Y235539D01*
X240948Y234527D01*
X240805Y233441D01*
X240948Y232355D01*
X241367Y231343D01*
X242033Y230474D01*
X242902Y229808D01*
X243914Y229388D01*
X245000Y229246D01*
X246086Y229388D01*
X247098Y229808D01*
X247967Y230474D01*
X248633Y231343D01*
X249052Y232355D01*
X249195Y233441D01*
X249052Y234527D01*
X248633Y235539D01*
X247967Y236407D01*
X247098Y237074D01*
X246086Y237493D01*
X245000Y237636D01*
D02*
G37*
G36*
X435000Y243620D02*
X433914Y243478D01*
X432902Y243058D01*
X432033Y242392D01*
X431367Y241523D01*
X430948Y240511D01*
X430805Y239425D01*
X430948Y238339D01*
X431367Y237328D01*
X432033Y236459D01*
X432902Y235792D01*
X433914Y235373D01*
X435000Y235230D01*
X436086Y235373D01*
X437098Y235792D01*
X437967Y236459D01*
X438633Y237328D01*
X439052Y238339D01*
X439195Y239425D01*
X439052Y240511D01*
X438633Y241523D01*
X437967Y242392D01*
X437098Y243058D01*
X436086Y243478D01*
X435000Y243620D01*
D02*
G37*
G36*
X465000Y237487D02*
X463953Y237350D01*
X462977Y236945D01*
X462139Y236302D01*
X461496Y235464D01*
X461091Y234488D01*
X460954Y233441D01*
X461091Y232394D01*
X461496Y231418D01*
X462139Y230580D01*
X462977Y229937D01*
X463953Y229532D01*
X465000Y229395D01*
X466047Y229532D01*
X467023Y229937D01*
X467861Y230580D01*
X468504Y231418D01*
X468909Y232394D01*
X469046Y233441D01*
X468909Y234488D01*
X468504Y235464D01*
X467861Y236302D01*
X467023Y236945D01*
X466047Y237350D01*
X465000Y237487D01*
D02*
G37*
G36*
X455000D02*
X453953Y237350D01*
X452977Y236945D01*
X452139Y236302D01*
X451496Y235464D01*
X451091Y234488D01*
X450954Y233441D01*
X451091Y232394D01*
X451496Y231418D01*
X452139Y230580D01*
X452977Y229937D01*
X453953Y229532D01*
X455000Y229395D01*
X456047Y229532D01*
X457023Y229937D01*
X457861Y230580D01*
X458504Y231418D01*
X458909Y232394D01*
X459046Y233441D01*
X458909Y234488D01*
X458504Y235464D01*
X457861Y236302D01*
X457023Y236945D01*
X456047Y237350D01*
X455000Y237487D01*
D02*
G37*
G36*
X435000Y233621D02*
X433914Y233478D01*
X432902Y233059D01*
X432033Y232392D01*
X431367Y231523D01*
X430948Y230511D01*
X430805Y229425D01*
X430948Y228339D01*
X431367Y227327D01*
X432033Y226459D01*
X432902Y225792D01*
X433914Y225373D01*
X435000Y225230D01*
X436086Y225373D01*
X437098Y225792D01*
X437967Y226459D01*
X438633Y227327D01*
X439052Y228339D01*
X439195Y229425D01*
X439052Y230511D01*
X438633Y231523D01*
X437967Y232392D01*
X437098Y233059D01*
X436086Y233478D01*
X435000Y233621D01*
D02*
G37*
G36*
X215000Y227487D02*
X213953Y227349D01*
X212977Y226945D01*
X212139Y226302D01*
X211496Y225464D01*
X211091Y224488D01*
X210954Y223441D01*
X211091Y222394D01*
X211496Y221418D01*
X212139Y220580D01*
X212977Y219937D01*
X213953Y219532D01*
X215000Y219394D01*
X216047Y219532D01*
X217023Y219937D01*
X217861Y220580D01*
X218504Y221418D01*
X218909Y222394D01*
X219046Y223441D01*
X218909Y224488D01*
X218504Y225464D01*
X217861Y226302D01*
X217023Y226945D01*
X216047Y227349D01*
X215000Y227487D01*
D02*
G37*
G36*
X245000Y227636D02*
X243914Y227493D01*
X242902Y227074D01*
X242033Y226408D01*
X241367Y225539D01*
X240948Y224527D01*
X240805Y223441D01*
X240948Y222355D01*
X241367Y221343D01*
X242033Y220474D01*
X242902Y219808D01*
X243914Y219389D01*
X245000Y219246D01*
X246086Y219389D01*
X247098Y219808D01*
X247967Y220474D01*
X248633Y221343D01*
X249052Y222355D01*
X249195Y223441D01*
X249052Y224527D01*
X248633Y225539D01*
X247967Y226408D01*
X247098Y227074D01*
X246086Y227493D01*
X245000Y227636D01*
D02*
G37*
G36*
X285500Y220421D02*
Y217000D01*
X288921D01*
X288851Y217532D01*
X288453Y218493D01*
X287819Y219319D01*
X286993Y219953D01*
X286032Y220351D01*
X285500Y220421D01*
D02*
G37*
G36*
X465000Y227487D02*
X463953Y227349D01*
X462977Y226945D01*
X462139Y226302D01*
X461496Y225464D01*
X461091Y224488D01*
X460954Y223441D01*
X461091Y222394D01*
X461496Y221418D01*
X462139Y220580D01*
X462977Y219937D01*
X463953Y219532D01*
X465000Y219394D01*
X466047Y219532D01*
X467023Y219937D01*
X467861Y220580D01*
X468504Y221418D01*
X468909Y222394D01*
X469046Y223441D01*
X468909Y224488D01*
X468504Y225464D01*
X467861Y226302D01*
X467023Y226945D01*
X466047Y227349D01*
X465000Y227487D01*
D02*
G37*
G36*
X455000D02*
X453953Y227349D01*
X452977Y226945D01*
X452139Y226302D01*
X451496Y225464D01*
X451091Y224488D01*
X450954Y223441D01*
X451091Y222394D01*
X451496Y221418D01*
X452139Y220580D01*
X452977Y219937D01*
X453953Y219532D01*
X455000Y219394D01*
X456047Y219532D01*
X457023Y219937D01*
X457861Y220580D01*
X458504Y221418D01*
X458909Y222394D01*
X459046Y223441D01*
X458909Y224488D01*
X458504Y225464D01*
X457861Y226302D01*
X457023Y226945D01*
X456047Y227349D01*
X455000Y227487D01*
D02*
G37*
G36*
X225000D02*
X223953Y227349D01*
X222977Y226945D01*
X222139Y226302D01*
X221496Y225464D01*
X221091Y224488D01*
X220954Y223441D01*
X221091Y222394D01*
X221496Y221418D01*
X222139Y220580D01*
X222977Y219937D01*
X223953Y219532D01*
X225000Y219394D01*
X226047Y219532D01*
X227023Y219937D01*
X227861Y220580D01*
X228504Y221418D01*
X228909Y222394D01*
X229046Y223441D01*
X228909Y224488D01*
X228504Y225464D01*
X227861Y226302D01*
X227023Y226945D01*
X226047Y227349D01*
X225000Y227487D01*
D02*
G37*
G36*
X245000Y247636D02*
X243914Y247493D01*
X242902Y247074D01*
X242033Y246408D01*
X241367Y245539D01*
X240948Y244527D01*
X240805Y243441D01*
X240948Y242355D01*
X241367Y241343D01*
X242033Y240474D01*
X242902Y239808D01*
X243914Y239388D01*
X245000Y239246D01*
X246086Y239388D01*
X247098Y239808D01*
X247967Y240474D01*
X248633Y241343D01*
X249052Y242355D01*
X249195Y243441D01*
X249052Y244527D01*
X248633Y245539D01*
X247967Y246408D01*
X247098Y247074D01*
X246086Y247493D01*
X245000Y247636D01*
D02*
G37*
G36*
X215000Y267487D02*
X213953Y267350D01*
X212977Y266945D01*
X212139Y266302D01*
X211496Y265464D01*
X211091Y264488D01*
X210954Y263441D01*
X211091Y262394D01*
X211496Y261418D01*
X212139Y260580D01*
X212977Y259937D01*
X213953Y259532D01*
X215000Y259395D01*
X216047Y259532D01*
X217023Y259937D01*
X217861Y260580D01*
X218504Y261418D01*
X218909Y262394D01*
X219046Y263441D01*
X218909Y264488D01*
X218504Y265464D01*
X217861Y266302D01*
X217023Y266945D01*
X216047Y267350D01*
X215000Y267487D01*
D02*
G37*
G36*
X435000Y263620D02*
X433914Y263478D01*
X432902Y263058D01*
X432033Y262392D01*
X431367Y261523D01*
X430948Y260511D01*
X430805Y259425D01*
X430948Y258339D01*
X431367Y257328D01*
X432033Y256459D01*
X432902Y255792D01*
X433914Y255373D01*
X435000Y255230D01*
X436086Y255373D01*
X437098Y255792D01*
X437967Y256459D01*
X438633Y257328D01*
X439052Y258339D01*
X439195Y259425D01*
X439052Y260511D01*
X438633Y261523D01*
X437967Y262392D01*
X437098Y263058D01*
X436086Y263478D01*
X435000Y263620D01*
D02*
G37*
G36*
X465000Y257487D02*
X463953Y257349D01*
X462977Y256945D01*
X462139Y256302D01*
X461496Y255464D01*
X461091Y254488D01*
X460954Y253441D01*
X461091Y252394D01*
X461496Y251418D01*
X462139Y250580D01*
X462977Y249937D01*
X463953Y249532D01*
X465000Y249394D01*
X466047Y249532D01*
X467023Y249937D01*
X467861Y250580D01*
X468504Y251418D01*
X468909Y252394D01*
X469046Y253441D01*
X468909Y254488D01*
X468504Y255464D01*
X467861Y256302D01*
X467023Y256945D01*
X466047Y257349D01*
X465000Y257487D01*
D02*
G37*
G36*
Y267487D02*
X463953Y267350D01*
X462977Y266945D01*
X462139Y266302D01*
X461496Y265464D01*
X461091Y264488D01*
X460954Y263441D01*
X461091Y262394D01*
X461496Y261418D01*
X462139Y260580D01*
X462977Y259937D01*
X463953Y259532D01*
X465000Y259395D01*
X466047Y259532D01*
X467023Y259937D01*
X467861Y260580D01*
X468504Y261418D01*
X468909Y262394D01*
X469046Y263441D01*
X468909Y264488D01*
X468504Y265464D01*
X467861Y266302D01*
X467023Y266945D01*
X466047Y267350D01*
X465000Y267487D01*
D02*
G37*
G36*
X455000D02*
X453953Y267350D01*
X452977Y266945D01*
X452139Y266302D01*
X451496Y265464D01*
X451091Y264488D01*
X450954Y263441D01*
X451091Y262394D01*
X451496Y261418D01*
X452139Y260580D01*
X452977Y259937D01*
X453953Y259532D01*
X455000Y259395D01*
X456047Y259532D01*
X457023Y259937D01*
X457861Y260580D01*
X458504Y261418D01*
X458909Y262394D01*
X459046Y263441D01*
X458909Y264488D01*
X458504Y265464D01*
X457861Y266302D01*
X457023Y266945D01*
X456047Y267350D01*
X455000Y267487D01*
D02*
G37*
G36*
X225000D02*
X223953Y267350D01*
X222977Y266945D01*
X222139Y266302D01*
X221496Y265464D01*
X221091Y264488D01*
X220954Y263441D01*
X221091Y262394D01*
X221496Y261418D01*
X222139Y260580D01*
X222977Y259937D01*
X223953Y259532D01*
X225000Y259395D01*
X226047Y259532D01*
X227023Y259937D01*
X227861Y260580D01*
X228504Y261418D01*
X228909Y262394D01*
X229046Y263441D01*
X228909Y264488D01*
X228504Y265464D01*
X227861Y266302D01*
X227023Y266945D01*
X226047Y267350D01*
X225000Y267487D01*
D02*
G37*
G36*
X455000Y257487D02*
X453953Y257349D01*
X452977Y256945D01*
X452139Y256302D01*
X451496Y255464D01*
X451091Y254488D01*
X450954Y253441D01*
X451091Y252394D01*
X451496Y251418D01*
X452139Y250580D01*
X452977Y249937D01*
X453953Y249532D01*
X455000Y249394D01*
X456047Y249532D01*
X457023Y249937D01*
X457861Y250580D01*
X458504Y251418D01*
X458909Y252394D01*
X459046Y253441D01*
X458909Y254488D01*
X458504Y255464D01*
X457861Y256302D01*
X457023Y256945D01*
X456047Y257349D01*
X455000Y257487D01*
D02*
G37*
G36*
X465000Y247487D02*
X463953Y247350D01*
X462977Y246945D01*
X462139Y246302D01*
X461496Y245464D01*
X461091Y244488D01*
X460954Y243441D01*
X461091Y242394D01*
X461496Y241418D01*
X462139Y240580D01*
X462977Y239937D01*
X463953Y239532D01*
X465000Y239394D01*
X466047Y239532D01*
X467023Y239937D01*
X467861Y240580D01*
X468504Y241418D01*
X468909Y242394D01*
X469046Y243441D01*
X468909Y244488D01*
X468504Y245464D01*
X467861Y246302D01*
X467023Y246945D01*
X466047Y247350D01*
X465000Y247487D01*
D02*
G37*
G36*
X455000D02*
X453953Y247350D01*
X452977Y246945D01*
X452139Y246302D01*
X451496Y245464D01*
X451091Y244488D01*
X450954Y243441D01*
X451091Y242394D01*
X451496Y241418D01*
X452139Y240580D01*
X452977Y239937D01*
X453953Y239532D01*
X455000Y239394D01*
X456047Y239532D01*
X457023Y239937D01*
X457861Y240580D01*
X458504Y241418D01*
X458909Y242394D01*
X459046Y243441D01*
X458909Y244488D01*
X458504Y245464D01*
X457861Y246302D01*
X457023Y246945D01*
X456047Y247350D01*
X455000Y247487D01*
D02*
G37*
G36*
X215000D02*
X213953Y247350D01*
X212977Y246945D01*
X212139Y246302D01*
X211496Y245464D01*
X211091Y244488D01*
X210954Y243441D01*
X211091Y242394D01*
X211496Y241418D01*
X212139Y240580D01*
X212977Y239937D01*
X213953Y239532D01*
X215000Y239394D01*
X216047Y239532D01*
X217023Y239937D01*
X217861Y240580D01*
X218504Y241418D01*
X218909Y242394D01*
X219046Y243441D01*
X218909Y244488D01*
X218504Y245464D01*
X217861Y246302D01*
X217023Y246945D01*
X216047Y247350D01*
X215000Y247487D01*
D02*
G37*
G36*
X225000Y257487D02*
X223953Y257349D01*
X222977Y256945D01*
X222139Y256302D01*
X221496Y255464D01*
X221091Y254488D01*
X220954Y253441D01*
X221091Y252394D01*
X221496Y251418D01*
X222139Y250580D01*
X222977Y249937D01*
X223953Y249532D01*
X225000Y249394D01*
X226047Y249532D01*
X227023Y249937D01*
X227861Y250580D01*
X228504Y251418D01*
X228909Y252394D01*
X229046Y253441D01*
X228909Y254488D01*
X228504Y255464D01*
X227861Y256302D01*
X227023Y256945D01*
X226047Y257349D01*
X225000Y257487D01*
D02*
G37*
G36*
X215000D02*
X213953Y257349D01*
X212977Y256945D01*
X212139Y256302D01*
X211496Y255464D01*
X211091Y254488D01*
X210954Y253441D01*
X211091Y252394D01*
X211496Y251418D01*
X212139Y250580D01*
X212977Y249937D01*
X213953Y249532D01*
X215000Y249394D01*
X216047Y249532D01*
X217023Y249937D01*
X217861Y250580D01*
X218504Y251418D01*
X218909Y252394D01*
X219046Y253441D01*
X218909Y254488D01*
X218504Y255464D01*
X217861Y256302D01*
X217023Y256945D01*
X216047Y257349D01*
X215000Y257487D01*
D02*
G37*
G36*
X435000Y253621D02*
X433914Y253478D01*
X432902Y253059D01*
X432033Y252392D01*
X431367Y251523D01*
X430948Y250511D01*
X430805Y249425D01*
X430948Y248339D01*
X431367Y247327D01*
X432033Y246459D01*
X432902Y245792D01*
X433914Y245373D01*
X435000Y245230D01*
X436086Y245373D01*
X437098Y245792D01*
X437967Y246459D01*
X438633Y247327D01*
X439052Y248339D01*
X439195Y249425D01*
X439052Y250511D01*
X438633Y251523D01*
X437967Y252392D01*
X437098Y253059D01*
X436086Y253478D01*
X435000Y253621D01*
D02*
G37*
%LPD*%
D10*
X269000Y222500D02*
X285000Y206500D01*
X269000Y222500D02*
Y274000D01*
X450034Y173441D02*
X455000D01*
X439660Y183815D02*
X450034Y173441D01*
X439660Y183815D02*
Y185371D01*
X436930Y188100D02*
X439660Y185371D01*
X432400Y188100D02*
X436930D01*
X419000Y201500D02*
X432400Y188100D01*
X398500Y201500D02*
X419000D01*
X389500Y192500D02*
X398500Y201500D01*
X363500Y192500D02*
X389500D01*
X358500Y197500D02*
X363500Y192500D01*
X455000Y153441D02*
X460000Y158441D01*
Y186500D01*
X458000Y188500D02*
X460000Y186500D01*
X446530Y188500D02*
X458000D01*
X436930Y198100D02*
X446530Y188500D01*
X430400Y198100D02*
X436930D01*
X418047Y210453D02*
X430400Y198100D01*
X399156Y210453D02*
X418047D01*
X394203Y205500D02*
X399156Y210453D01*
X381000Y205500D02*
X394203D01*
X373000Y197500D02*
X381000Y205500D01*
Y242000D01*
X400000Y261000D01*
X358500Y197500D02*
X364500Y203500D01*
Y245500D01*
X400000Y281000D01*
X311085Y294085D02*
X454356D01*
X281000Y264000D02*
X311085Y294085D01*
X225000Y133441D02*
X229559Y138000D01*
X242970D01*
X243070Y138100D01*
X253100D01*
X278000Y163000D01*
X378000D01*
X401000Y186000D01*
X225000Y143441D02*
X230059Y148500D01*
X252500D01*
X274500Y170500D01*
X375500D01*
X401000Y196000D01*
X225000Y153441D02*
X238559Y167000D01*
X241970D01*
X243070Y168100D01*
X254600D01*
X273000Y186500D01*
X285000D01*
X225000Y163441D02*
X228411D01*
X243070Y178100D01*
X255600D01*
X274000Y196500D01*
X285000D01*
X335000Y188000D02*
X344500Y197500D01*
X311000Y188000D02*
X335000D01*
X297000Y202000D02*
X311000Y188000D01*
X297000Y202000D02*
Y236500D01*
X281000Y252500D02*
X297000Y236500D01*
X281000Y252500D02*
Y264000D01*
X299500Y213000D02*
X314500Y198000D01*
X299500Y213000D02*
Y264000D01*
X426559Y213441D02*
X455000D01*
X423000Y217000D02*
X426559Y213441D01*
X423000Y217000D02*
Y273000D01*
X408000Y288000D02*
X423000Y273000D01*
X384500Y288000D02*
X408000D01*
X370500Y274000D02*
X384500Y288000D01*
X299500Y274000D02*
X370500D01*
X225000Y243441D02*
X240059Y258500D01*
X253500D01*
X269000Y274000D01*
X281000D01*
D11*
X215000Y313441D02*
D03*
X455000D02*
D03*
D12*
X215000Y133441D02*
D03*
X225000Y313441D02*
D03*
X215000Y303441D02*
D03*
X225000D02*
D03*
X215000Y293441D02*
D03*
X225000D02*
D03*
X215000Y283441D02*
D03*
X225000D02*
D03*
X215000Y273441D02*
D03*
X225000D02*
D03*
X215000Y263441D02*
D03*
X225000D02*
D03*
X215000Y253441D02*
D03*
X225000D02*
D03*
X215000Y243441D02*
D03*
X225000D02*
D03*
X215000Y233441D02*
D03*
X225000D02*
D03*
X215000Y223441D02*
D03*
X225000D02*
D03*
X215000Y213441D02*
D03*
X225000D02*
D03*
X215000Y203441D02*
D03*
X225000D02*
D03*
X215000Y193441D02*
D03*
X225000D02*
D03*
X215000Y183441D02*
D03*
X225000D02*
D03*
X215000Y173441D02*
D03*
X225000D02*
D03*
X215000Y163441D02*
D03*
X225000D02*
D03*
X215000Y153441D02*
D03*
X225000D02*
D03*
X215000Y143441D02*
D03*
X225000D02*
D03*
Y133441D02*
D03*
X455000D02*
D03*
X465000Y313441D02*
D03*
X455000Y303441D02*
D03*
X465000D02*
D03*
X455000Y293441D02*
D03*
X465000D02*
D03*
X455000Y283441D02*
D03*
X465000D02*
D03*
X455000Y273441D02*
D03*
X465000D02*
D03*
X455000Y263441D02*
D03*
X465000D02*
D03*
X455000Y253441D02*
D03*
X465000D02*
D03*
X455000Y243441D02*
D03*
X465000D02*
D03*
X455000Y233441D02*
D03*
X465000D02*
D03*
X455000Y223441D02*
D03*
X465000D02*
D03*
X455000Y213441D02*
D03*
X465000D02*
D03*
X455000Y203441D02*
D03*
X465000D02*
D03*
X455000Y193441D02*
D03*
X465000D02*
D03*
X455000Y183441D02*
D03*
X465000D02*
D03*
X455000Y173441D02*
D03*
X465000D02*
D03*
X455000Y163441D02*
D03*
X465000D02*
D03*
X455000Y153441D02*
D03*
X465000D02*
D03*
X455000Y143441D02*
D03*
X465000D02*
D03*
Y133441D02*
D03*
D13*
X245000Y273441D02*
D03*
X435000Y133441D02*
D03*
X245000Y183441D02*
D03*
X435000Y219425D02*
D03*
D14*
X245000Y263441D02*
D03*
Y253441D02*
D03*
Y243441D02*
D03*
Y233441D02*
D03*
Y223441D02*
D03*
Y213441D02*
D03*
Y203441D02*
D03*
X435000Y143441D02*
D03*
Y153441D02*
D03*
Y163441D02*
D03*
Y173441D02*
D03*
Y183441D02*
D03*
Y193441D02*
D03*
Y203441D02*
D03*
X245000Y173441D02*
D03*
Y163441D02*
D03*
Y153441D02*
D03*
Y143441D02*
D03*
Y133441D02*
D03*
X435000Y229425D02*
D03*
Y239425D02*
D03*
Y249425D02*
D03*
Y259425D02*
D03*
Y269425D02*
D03*
Y279425D02*
D03*
Y289425D02*
D03*
Y299425D02*
D03*
Y309425D02*
D03*
D15*
X281000Y264000D02*
D03*
X285000Y186500D02*
D03*
X401000Y186000D02*
D03*
X373000Y207500D02*
D03*
X400000Y261000D02*
D03*
X358500Y197500D02*
D03*
X344500D02*
D03*
X299500Y274000D02*
D03*
X314500Y198000D02*
D03*
D16*
X281000Y274000D02*
D03*
X285000Y216500D02*
D03*
Y206500D02*
D03*
Y196500D02*
D03*
X401000Y216000D02*
D03*
Y206000D02*
D03*
Y196000D02*
D03*
X373000Y197500D02*
D03*
X400000Y271000D02*
D03*
Y281000D02*
D03*
X358500Y207500D02*
D03*
X344500D02*
D03*
X299500Y264000D02*
D03*
X314500Y208000D02*
D03*
M02*
