G04 Layer_Color=2752767*
%FSLAX25Y25*%
%MOIN*%
G70*
G01*
G75*
%ADD18C,0.00500*%
%ADD26C,0.00667*%
D18*
X213000Y311441D02*
Y315441D01*
X217000D01*
Y311441D01*
X213000D01*
Y131441D02*
Y135441D01*
X217000D01*
Y131441D01*
X213000D01*
X223000Y311441D02*
Y315441D01*
X227000D01*
Y311441D01*
X223000D01*
X213000Y301441D02*
Y305441D01*
X217000D01*
Y301441D01*
X213000D01*
X223000D02*
Y305441D01*
X227000D01*
Y301441D01*
X223000D01*
X213000Y291441D02*
Y295441D01*
X217000D01*
Y291441D01*
X213000D01*
X223000D02*
Y295441D01*
X227000D01*
Y291441D01*
X223000D01*
X213000Y281441D02*
Y285441D01*
X217000D01*
Y281441D01*
X213000D01*
X223000D02*
Y285441D01*
X227000D01*
Y281441D01*
X223000D01*
X213000Y271441D02*
Y275441D01*
X217000D01*
Y271441D01*
X213000D01*
X223000D02*
Y275441D01*
X227000D01*
Y271441D01*
X223000D01*
X213000Y261441D02*
Y265441D01*
X217000D01*
Y261441D01*
X213000D01*
X223000D02*
Y265441D01*
X227000D01*
Y261441D01*
X223000D01*
X213000Y251441D02*
Y255441D01*
X217000D01*
Y251441D01*
X213000D01*
X223000D02*
Y255441D01*
X227000D01*
Y251441D01*
X223000D01*
X213000Y241441D02*
Y245441D01*
X217000D01*
Y241441D01*
X213000D01*
X223000D02*
Y245441D01*
X227000D01*
Y241441D01*
X223000D01*
X213000Y231441D02*
Y235441D01*
X217000D01*
Y231441D01*
X213000D01*
X223000D02*
Y235441D01*
X227000D01*
Y231441D01*
X223000D01*
X213000Y221441D02*
Y225441D01*
X217000D01*
Y221441D01*
X213000D01*
X223000D02*
Y225441D01*
X227000D01*
Y221441D01*
X223000D01*
X213000Y211441D02*
Y215441D01*
X217000D01*
Y211441D01*
X213000D01*
X223000D02*
Y215441D01*
X227000D01*
Y211441D01*
X223000D01*
X213000Y201441D02*
Y205441D01*
X217000D01*
Y201441D01*
X213000D01*
X223000D02*
Y205441D01*
X227000D01*
Y201441D01*
X223000D01*
X213000Y191441D02*
Y195441D01*
X217000D01*
Y191441D01*
X213000D01*
X223000D02*
Y195441D01*
X227000D01*
Y191441D01*
X223000D01*
X213000Y181441D02*
Y185441D01*
X217000D01*
Y181441D01*
X213000D01*
X223000D02*
Y185441D01*
X227000D01*
Y181441D01*
X223000D01*
X213000Y171441D02*
Y175441D01*
X217000D01*
Y171441D01*
X213000D01*
X223000D02*
Y175441D01*
X227000D01*
Y171441D01*
X223000D01*
X213000Y161441D02*
Y165441D01*
X217000D01*
Y161441D01*
X213000D01*
X223000D02*
Y165441D01*
X227000D01*
Y161441D01*
X223000D01*
X213000Y151441D02*
Y155441D01*
X217000D01*
Y151441D01*
X213000D01*
X223000D02*
Y155441D01*
X227000D01*
Y151441D01*
X223000D01*
X213000Y141441D02*
Y145441D01*
X217000D01*
Y141441D01*
X213000D01*
X223000D02*
Y145441D01*
X227000D01*
Y141441D01*
X223000D01*
Y131441D02*
Y135441D01*
X227000D01*
Y131441D01*
X223000D01*
X453000Y311441D02*
Y315441D01*
X457000D01*
Y311441D01*
X453000D01*
Y131441D02*
Y135441D01*
X457000D01*
Y131441D01*
X453000D01*
X463000Y311441D02*
Y315441D01*
X467000D01*
Y311441D01*
X463000D01*
X453000Y301441D02*
Y305441D01*
X457000D01*
Y301441D01*
X453000D01*
X463000D02*
Y305441D01*
X467000D01*
Y301441D01*
X463000D01*
X453000Y291441D02*
Y295441D01*
X457000D01*
Y291441D01*
X453000D01*
X463000D02*
Y295441D01*
X467000D01*
Y291441D01*
X463000D01*
X453000Y281441D02*
Y285441D01*
X457000D01*
Y281441D01*
X453000D01*
X463000D02*
Y285441D01*
X467000D01*
Y281441D01*
X463000D01*
X453000Y271441D02*
Y275441D01*
X457000D01*
Y271441D01*
X453000D01*
X463000D02*
Y275441D01*
X467000D01*
Y271441D01*
X463000D01*
X453000Y261441D02*
Y265441D01*
X457000D01*
Y261441D01*
X453000D01*
X463000D02*
Y265441D01*
X467000D01*
Y261441D01*
X463000D01*
X453000Y251441D02*
Y255441D01*
X457000D01*
Y251441D01*
X453000D01*
X463000D02*
Y255441D01*
X467000D01*
Y251441D01*
X463000D01*
X453000Y241441D02*
Y245441D01*
X457000D01*
Y241441D01*
X453000D01*
X463000D02*
Y245441D01*
X467000D01*
Y241441D01*
X463000D01*
X453000Y231441D02*
Y235441D01*
X457000D01*
Y231441D01*
X453000D01*
X463000D02*
Y235441D01*
X467000D01*
Y231441D01*
X463000D01*
X453000Y221441D02*
Y225441D01*
X457000D01*
Y221441D01*
X453000D01*
X463000D02*
Y225441D01*
X467000D01*
Y221441D01*
X463000D01*
X453000Y211441D02*
Y215441D01*
X457000D01*
Y211441D01*
X453000D01*
X463000D02*
Y215441D01*
X467000D01*
Y211441D01*
X463000D01*
X453000Y201441D02*
Y205441D01*
X457000D01*
Y201441D01*
X453000D01*
X463000D02*
Y205441D01*
X467000D01*
Y201441D01*
X463000D01*
X453000Y191441D02*
Y195441D01*
X457000D01*
Y191441D01*
X453000D01*
X463000D02*
Y195441D01*
X467000D01*
Y191441D01*
X463000D01*
X453000Y181441D02*
Y185441D01*
X457000D01*
Y181441D01*
X453000D01*
X463000D02*
Y185441D01*
X467000D01*
Y181441D01*
X463000D01*
X453000Y171441D02*
Y175441D01*
X457000D01*
Y171441D01*
X453000D01*
X463000D02*
Y175441D01*
X467000D01*
Y171441D01*
X463000D01*
X453000Y161441D02*
Y165441D01*
X457000D01*
Y161441D01*
X453000D01*
X463000D02*
Y165441D01*
X467000D01*
Y161441D01*
X463000D01*
X453000Y151441D02*
Y155441D01*
X457000D01*
Y151441D01*
X453000D01*
X463000D02*
Y155441D01*
X467000D01*
Y151441D01*
X463000D01*
X453000Y141441D02*
Y145441D01*
X457000D01*
Y141441D01*
X453000D01*
X463000D02*
Y145441D01*
X467000D01*
Y141441D01*
X463000D01*
Y131441D02*
Y135441D01*
X467000D01*
Y131441D01*
X463000D01*
X281000Y262000D02*
X279000Y266000D01*
X283000D01*
X281000Y262000D01*
Y272000D02*
X279000Y276000D01*
X283000D01*
X281000Y272000D01*
X285000Y214500D02*
X283000Y218500D01*
X287000D01*
X285000Y214500D01*
Y204500D02*
X283000Y208500D01*
X287000D01*
X285000Y204500D01*
Y194500D02*
X283000Y198500D01*
X287000D01*
X285000Y194500D01*
Y184500D02*
X283000Y188500D01*
X287000D01*
X285000Y184500D01*
X401000Y214000D02*
X399000Y218000D01*
X403000D01*
X401000Y214000D01*
Y204000D02*
X399000Y208000D01*
X403000D01*
X401000Y204000D01*
Y194000D02*
X399000Y198000D01*
X403000D01*
X401000Y194000D01*
Y184000D02*
X399000Y188000D01*
X403000D01*
X401000Y184000D01*
X373000Y205500D02*
X371000Y209500D01*
X375000D01*
X373000Y205500D01*
Y195500D02*
X371000Y199500D01*
X375000D01*
X373000Y195500D01*
X400000Y259000D02*
X398000Y263000D01*
X402000D01*
X400000Y259000D01*
Y269000D02*
X398000Y273000D01*
X402000D01*
X400000Y269000D01*
Y279000D02*
X398000Y283000D01*
X402000D01*
X400000Y279000D01*
X358500Y195500D02*
X356500Y199500D01*
X360500D01*
X358500Y195500D01*
Y205500D02*
X356500Y209500D01*
X360500D01*
X358500Y205500D01*
X344500Y195500D02*
X342500Y199500D01*
X346500D01*
X344500Y195500D01*
Y205500D02*
X342500Y209500D01*
X346500D01*
X344500Y205500D01*
X299500Y272000D02*
X297500Y276000D01*
X301500D01*
X299500Y272000D01*
Y262000D02*
X297500Y266000D01*
X301500D01*
X299500Y262000D01*
X314500Y196000D02*
X312500Y200000D01*
X316500D01*
X314500Y196000D01*
Y206000D02*
X312500Y210000D01*
X316500D01*
X314500Y206000D01*
D26*
X247000Y273441D02*
G03*
X247000Y273441I-2000J0D01*
G01*
Y263441D02*
G03*
X247000Y263441I-2000J0D01*
G01*
Y253441D02*
G03*
X247000Y253441I-2000J0D01*
G01*
Y243441D02*
G03*
X247000Y243441I-2000J0D01*
G01*
Y233441D02*
G03*
X247000Y233441I-2000J0D01*
G01*
Y223441D02*
G03*
X247000Y223441I-2000J0D01*
G01*
Y213441D02*
G03*
X247000Y213441I-2000J0D01*
G01*
Y203441D02*
G03*
X247000Y203441I-2000J0D01*
G01*
X437000Y133441D02*
G03*
X437000Y133441I-2000J0D01*
G01*
Y143441D02*
G03*
X437000Y143441I-2000J0D01*
G01*
Y153441D02*
G03*
X437000Y153441I-2000J0D01*
G01*
Y163441D02*
G03*
X437000Y163441I-2000J0D01*
G01*
Y173441D02*
G03*
X437000Y173441I-2000J0D01*
G01*
Y183441D02*
G03*
X437000Y183441I-2000J0D01*
G01*
Y193441D02*
G03*
X437000Y193441I-2000J0D01*
G01*
Y203441D02*
G03*
X437000Y203441I-2000J0D01*
G01*
X247000Y183441D02*
G03*
X247000Y183441I-2000J0D01*
G01*
Y173441D02*
G03*
X247000Y173441I-2000J0D01*
G01*
Y163441D02*
G03*
X247000Y163441I-2000J0D01*
G01*
Y153441D02*
G03*
X247000Y153441I-2000J0D01*
G01*
Y143441D02*
G03*
X247000Y143441I-2000J0D01*
G01*
Y133441D02*
G03*
X247000Y133441I-2000J0D01*
G01*
X437000Y219425D02*
G03*
X437000Y219425I-2000J0D01*
G01*
Y229425D02*
G03*
X437000Y229425I-2000J0D01*
G01*
Y239425D02*
G03*
X437000Y239425I-2000J0D01*
G01*
Y249425D02*
G03*
X437000Y249425I-2000J0D01*
G01*
Y259425D02*
G03*
X437000Y259425I-2000J0D01*
G01*
Y269425D02*
G03*
X437000Y269425I-2000J0D01*
G01*
Y279425D02*
G03*
X437000Y279425I-2000J0D01*
G01*
Y289425D02*
G03*
X437000Y289425I-2000J0D01*
G01*
Y299425D02*
G03*
X437000Y299425I-2000J0D01*
G01*
Y309425D02*
G03*
X437000Y309425I-2000J0D01*
G01*
M02*
