G04 Layer_Color=32896*
%FSLAX25Y25*%
%MOIN*%
G70*
G01*
G75*
%ADD10C,0.01000*%
%ADD17C,0.00787*%
%ADD25C,0.00600*%
D10*
X315001Y252998D02*
X316001Y253998D01*
X318000D01*
X319000Y252998D01*
Y251999D01*
X318000Y250999D01*
X316001D01*
X315001Y249999D01*
Y249000D01*
X316001Y248000D01*
X318000D01*
X319000Y249000D01*
X309003Y252998D02*
X310003Y253998D01*
X312002D01*
X313002Y252998D01*
Y249000D01*
X312002Y248000D01*
X310003D01*
X309003Y249000D01*
X307004Y248000D02*
Y253998D01*
X304005D01*
X303005Y252998D01*
Y250999D01*
X304005Y249999D01*
X307004D01*
X305005D02*
X303005Y248000D01*
X297007Y253998D02*
X301006D01*
Y248000D01*
X297007D01*
X301006Y250999D02*
X299007D01*
X291009Y253998D02*
X295008D01*
Y248000D01*
X291009D01*
X295008Y250999D02*
X293008D01*
X289010Y248000D02*
Y253998D01*
X285011Y248000D01*
Y253998D01*
X279013Y252998D02*
X280013Y253998D01*
X282012D01*
X283012Y252998D01*
Y251999D01*
X282012Y250999D01*
X280013D01*
X279013Y249999D01*
Y249000D01*
X280013Y248000D01*
X282012D01*
X283012Y249000D01*
X277014Y253998D02*
Y248000D01*
Y250999D01*
X273015D01*
Y253998D01*
Y248000D01*
X268017Y253998D02*
X270016D01*
X271016Y252998D01*
Y249000D01*
X270016Y248000D01*
X268017D01*
X267017Y249000D01*
Y252998D01*
X268017Y253998D01*
X265018D02*
X261019D01*
X263018D01*
Y248000D01*
X322500Y167500D02*
Y173498D01*
X319501D01*
X318501Y172498D01*
Y170499D01*
X319501Y169499D01*
X322500D01*
X320501D02*
X318501Y167500D01*
X316502Y173498D02*
X314503D01*
X315502D01*
Y167500D01*
X316502D01*
X314503D01*
X307505Y172498D02*
X308505Y173498D01*
X310504D01*
X311504Y172498D01*
Y168500D01*
X310504Y167500D01*
X308505D01*
X307505Y168500D01*
Y170499D01*
X309504D01*
X305505Y173498D02*
Y167500D01*
Y170499D01*
X301507D01*
Y173498D01*
Y167500D01*
X299507Y173498D02*
X295509D01*
X297508D01*
Y167500D01*
X283513Y173498D02*
X285512D01*
X284512D01*
Y168500D01*
X285512Y167500D01*
X286512D01*
X287511Y168500D01*
X278514Y173498D02*
X280514D01*
X281513Y172498D01*
Y168500D01*
X280514Y167500D01*
X278514D01*
X277515Y168500D01*
Y172498D01*
X278514Y173498D01*
X275515D02*
Y172498D01*
X273516Y170499D01*
X271516Y172498D01*
Y173498D01*
X273516Y170499D02*
Y167500D01*
X411500Y173998D02*
Y168000D01*
X407501D01*
X401503Y173998D02*
X405502D01*
Y168000D01*
X401503D01*
X405502Y170999D02*
X403503D01*
X395505Y173998D02*
X399504D01*
Y170999D01*
X397504D01*
X399504D01*
Y168000D01*
X393506Y173998D02*
X389507D01*
X391507D01*
Y168000D01*
X377511Y173998D02*
X379510D01*
X378511D01*
Y169000D01*
X379510Y168000D01*
X380510D01*
X381510Y169000D01*
X372513Y173998D02*
X374512D01*
X375512Y172998D01*
Y169000D01*
X374512Y168000D01*
X372513D01*
X371513Y169000D01*
Y172998D01*
X372513Y173998D01*
X369514D02*
Y172998D01*
X367514Y170999D01*
X365515Y172998D01*
Y173998D01*
X367514Y170999D02*
Y168000D01*
X377400Y215900D02*
Y221898D01*
X374401D01*
X373401Y220898D01*
Y218899D01*
X374401Y217899D01*
X377400D01*
X371402Y220898D02*
X370402Y221898D01*
X368403D01*
X367403Y220898D01*
Y219899D01*
X368403Y218899D01*
X369403D01*
X368403D01*
X367403Y217899D01*
Y216900D01*
X368403Y215900D01*
X370402D01*
X371402Y216900D01*
X400401Y294398D02*
X401401Y295398D01*
X403400D01*
X404400Y294398D01*
Y293399D01*
X403400Y292399D01*
X401401D01*
X400401Y291399D01*
Y290400D01*
X401401Y289400D01*
X403400D01*
X404400Y290400D01*
X398402Y295398D02*
Y289400D01*
X396403Y291399D01*
X394403Y289400D01*
Y295398D01*
X392404D02*
X390405D01*
X391404D01*
Y289400D01*
X392404D01*
X390405D01*
X387405Y295398D02*
X383407D01*
X385406D01*
Y289400D01*
X377409Y294398D02*
X378408Y295398D01*
X380408D01*
X381407Y294398D01*
Y290400D01*
X380408Y289400D01*
X378408D01*
X377409Y290400D01*
X375409Y295398D02*
Y289400D01*
Y292399D01*
X371411D01*
Y295398D01*
Y289400D01*
X362900Y215900D02*
Y221898D01*
X359901D01*
X358901Y220898D01*
Y218899D01*
X359901Y217899D01*
X362900D01*
X352903Y221898D02*
X356902D01*
Y218899D01*
X354903Y219899D01*
X353903D01*
X352903Y218899D01*
Y216900D01*
X353903Y215900D01*
X355902D01*
X356902Y216900D01*
X348900Y215900D02*
Y221898D01*
X345901D01*
X344901Y220898D01*
Y218899D01*
X345901Y217899D01*
X348900D01*
X342902Y221898D02*
X338903D01*
Y220898D01*
X342902Y216900D01*
Y215900D01*
X303900Y288398D02*
Y282400D01*
X299901D01*
X293903Y288398D02*
X297902D01*
Y282400D01*
X293903D01*
X297902Y285399D02*
X295903D01*
X291904Y288398D02*
Y282400D01*
X288905D01*
X287905Y283400D01*
Y287398D01*
X288905Y288398D01*
X291904D01*
X318900Y222398D02*
Y216400D01*
X314901D01*
X308903Y222398D02*
X312902D01*
Y216400D01*
X308903D01*
X312902Y219399D02*
X310903D01*
X306904Y222398D02*
Y216400D01*
X303905D01*
X302905Y217400D01*
Y221398D01*
X303905Y222398D01*
X306904D01*
D17*
X276000Y279000D02*
X286000D01*
X276000Y259000D02*
Y279000D01*
Y259000D02*
X286000D01*
Y279000D01*
X280000Y181500D02*
X290000D01*
Y221500D01*
X280000Y181500D02*
Y221500D01*
X290000D01*
X396000Y181000D02*
X406000D01*
Y221000D01*
X396000Y181000D02*
Y221000D01*
X406000D01*
X368000Y192500D02*
X378000D01*
Y212500D01*
X368000D02*
X378000D01*
X368000Y192500D02*
Y212500D01*
X395000Y256000D02*
Y286000D01*
X405000D01*
Y256000D02*
Y286000D01*
X395000Y256000D02*
X405000D01*
X353500Y212500D02*
X363500D01*
X353500Y192500D02*
Y212500D01*
Y192500D02*
X363500D01*
Y212500D01*
X339500D02*
X349500D01*
X339500Y192500D02*
Y212500D01*
Y192500D02*
X349500D01*
Y212500D01*
X294500Y259000D02*
X304500D01*
Y279000D01*
X294500D02*
X304500D01*
X294500Y259000D02*
Y279000D01*
X309500Y213000D02*
X319500D01*
X309500Y193000D02*
Y213000D01*
Y193000D02*
X319500D01*
Y213000D01*
D25*
X424000Y305999D02*
Y303000D01*
X422501D01*
X422001Y303500D01*
Y305499D01*
X422501Y305999D01*
X424000D01*
X419501Y303000D02*
X420501D01*
X421001Y303500D01*
Y304500D01*
X420501Y304999D01*
X419501D01*
X419002Y304500D01*
Y304000D01*
X421001D01*
X418002Y303000D02*
X416502D01*
X416003Y303500D01*
X416502Y304000D01*
X417502D01*
X418002Y304500D01*
X417502Y304999D01*
X416003D01*
X415003Y303000D02*
X414003D01*
X414503D01*
Y304999D01*
X415003D01*
X411504Y302000D02*
X411004D01*
X410504Y302500D01*
Y304999D01*
X412004D01*
X412504Y304500D01*
Y303500D01*
X412004Y303000D01*
X410504D01*
X409505D02*
Y304999D01*
X408005D01*
X407505Y304500D01*
Y303000D01*
X403507Y305999D02*
Y303000D01*
X402007D01*
X401507Y303500D01*
Y304000D01*
Y304500D01*
X402007Y304999D01*
X403507D01*
X400508D02*
Y303500D01*
X400008Y303000D01*
X398508D01*
Y302500D01*
X399008Y302000D01*
X399508D01*
X398508Y303000D02*
Y304999D01*
X394510Y305999D02*
Y303000D01*
X393010D01*
X392510Y303500D01*
Y305499D01*
X393010Y305999D01*
X394510D01*
X391511Y304999D02*
Y303500D01*
X391011Y303000D01*
X389511D01*
Y302500D01*
X390011Y302000D01*
X390511D01*
X389511Y303000D02*
Y304999D01*
X388511Y303000D02*
X387512D01*
X388012D01*
Y305999D01*
X388511D01*
X386012Y303000D02*
X385013D01*
X385512D01*
Y305999D01*
X386012D01*
X383013Y303000D02*
X382014D01*
X381514Y303500D01*
Y304500D01*
X382014Y304999D01*
X383013D01*
X383513Y304500D01*
Y303500D01*
X383013Y303000D01*
X380514D02*
Y304999D01*
X379015D01*
X378515Y304500D01*
Y303000D01*
X374516Y305999D02*
Y303000D01*
X373017D01*
X372517Y303500D01*
Y305499D01*
X373017Y305999D01*
X374516D01*
X371517Y304999D02*
Y303500D01*
X371017Y303000D01*
X369518D01*
Y304999D01*
X368518Y303000D02*
Y304999D01*
X367018D01*
X366519Y304500D01*
Y303000D01*
X365019Y305499D02*
Y304999D01*
X365519D01*
X364519D01*
X365019D01*
Y303500D01*
X364519Y303000D01*
X362520D02*
X361520D01*
X361020Y303500D01*
Y304500D01*
X361520Y304999D01*
X362520D01*
X363020Y304500D01*
Y303500D01*
X362520Y303000D01*
X360021D02*
Y304999D01*
X358521D01*
X358021Y304500D01*
Y303000D01*
X353523Y304999D02*
X352523D01*
X352023Y304500D01*
Y303000D01*
X353523D01*
X354023Y303500D01*
X353523Y304000D01*
X352023D01*
X351024Y303000D02*
Y304999D01*
X349524D01*
X349024Y304500D01*
Y303000D01*
X346025Y305999D02*
Y303000D01*
X347525D01*
X348025Y303500D01*
Y304500D01*
X347525Y304999D01*
X346025D01*
X340027Y305999D02*
X341027D01*
X340527D01*
Y303500D01*
X341027Y303000D01*
X341527D01*
X342026Y303500D01*
X338528Y304999D02*
X337528D01*
X337028Y304500D01*
Y303000D01*
X338528D01*
X339028Y303500D01*
X338528Y304000D01*
X337028D01*
X334029Y304999D02*
X335529D01*
X336029Y304500D01*
Y303500D01*
X335529Y303000D01*
X334029D01*
X332530D02*
X331530D01*
X331030Y303500D01*
Y304500D01*
X331530Y304999D01*
X332530D01*
X333029Y304500D01*
Y303500D01*
X332530Y303000D01*
X330030Y305999D02*
Y303000D01*
X328531D01*
X328031Y303500D01*
Y304000D01*
Y304500D01*
X328531Y304999D01*
X330030D01*
X324032Y305999D02*
Y303000D01*
X323033Y304000D01*
X322033Y303000D01*
Y305999D01*
X321033Y303000D02*
X320034D01*
X320533D01*
Y304999D01*
X321033D01*
X318534Y303000D02*
X317534D01*
X318034D01*
Y305999D01*
X318534D01*
X314036D02*
Y303000D01*
X315535D01*
X316035Y303500D01*
Y304500D01*
X315535Y304999D01*
X314036D01*
X311536Y303000D02*
X312536D01*
X313036Y303500D01*
Y304500D01*
X312536Y304999D01*
X311536D01*
X311036Y304500D01*
Y304000D01*
X313036D01*
X310037Y303000D02*
X308537D01*
X308037Y303500D01*
X308537Y304000D01*
X309537D01*
X310037Y304500D01*
X309537Y304999D01*
X308037D01*
X423500Y309500D02*
Y313999D01*
X421251D01*
X420501Y313249D01*
Y311749D01*
X421251Y310999D01*
X423500D01*
X422001D02*
X420501Y309500D01*
X416752D02*
X418252D01*
X419001Y310250D01*
Y311749D01*
X418252Y312499D01*
X416752D01*
X416002Y311749D01*
Y310999D01*
X419001D01*
X414503Y309500D02*
Y312499D01*
X413753D01*
X413003Y311749D01*
Y309500D01*
Y311749D01*
X412254Y312499D01*
X411504Y311749D01*
Y309500D01*
X409255D02*
X407755D01*
X407005Y310250D01*
Y311749D01*
X407755Y312499D01*
X409255D01*
X410004Y311749D01*
Y310250D01*
X409255Y309500D01*
X404756Y313249D02*
Y312499D01*
X405506D01*
X404006D01*
X404756D01*
Y310250D01*
X404006Y309500D01*
X399508D02*
X401007D01*
X401757Y310250D01*
Y311749D01*
X401007Y312499D01*
X399508D01*
X398758Y311749D01*
Y310999D01*
X401757D01*
X389761Y313249D02*
X390511Y313999D01*
X392010D01*
X392760Y313249D01*
Y310250D01*
X392010Y309500D01*
X390511D01*
X389761Y310250D01*
X387512Y309500D02*
X386012D01*
X385262Y310250D01*
Y311749D01*
X386012Y312499D01*
X387512D01*
X388261Y311749D01*
Y310250D01*
X387512Y309500D01*
X383763D02*
Y312499D01*
X381514D01*
X380764Y311749D01*
Y309500D01*
X378515Y313249D02*
Y312499D01*
X379264D01*
X377765D01*
X378515D01*
Y310250D01*
X377765Y309500D01*
X375516Y312499D02*
Y309500D01*
Y310999D01*
X374766Y311749D01*
X374016Y312499D01*
X373266D01*
X370267Y309500D02*
X368768D01*
X368018Y310250D01*
Y311749D01*
X368768Y312499D01*
X370267D01*
X371017Y311749D01*
Y310250D01*
X370267Y309500D01*
X366518D02*
X365019D01*
X365769D01*
Y313999D01*
X366518D01*
X398000Y311500D02*
X398533D01*
X398267D01*
Y313100D01*
X398000Y312833D01*
M02*
