M48
;Layer_Color=9474304
;FILE_FORMAT=2:5
INCH,LZ
;TYPE=PLATED
T1F00S00C0.03543
T2F00S00C0.04016
T3F00S00C0.04213
%
T01
X03145Y0198
Y0208
X03445Y02075
Y01975
X03585
Y02075
X0373
Y01975
X0401Y0196
Y0206
Y0216
Y0186
X04Y0261
Y0271
Y0281
X02995Y0274
Y0264
X0281
Y0274
X0285Y02165
Y02065
Y01965
Y01865
T02
X0215Y0133441
Y0143441
Y0153441
X0225
Y0143441
Y0133441
X0455
Y0143441
Y0153441
X0465
Y0143441
Y0133441
Y0163441
Y0173441
Y0183441
Y0193441
Y0203441
Y0213441
Y0223441
Y0233441
Y0243441
Y0253441
Y0263441
Y0273441
Y0283441
Y0293441
Y0303441
X0455
Y0293441
Y0283441
Y0273441
Y0263441
Y0253441
Y0243441
Y0233441
Y0223441
Y0213441
Y0203441
Y0193441
Y0183441
Y0173441
Y0163441
X0225
Y0173441
Y0183441
Y0193441
Y0203441
Y0213441
Y0223441
Y0233441
Y0243441
Y0253441
Y0263441
Y0273441
Y0283441
Y0293441
Y0303441
X0215
Y0293441
Y0283441
Y0273441
Y0263441
Y0253441
Y0243441
Y0233441
Y0223441
Y0213441
Y0203441
Y0193441
Y0183441
Y0173441
Y0163441
Y0313441
X0225
X0455
X0465
T03
X0245Y0133441
Y0143441
Y0153441
X0435
Y0143441
Y0133441
Y0163441
Y0173441
Y0183441
Y0193441
Y0203441
Y0219425
Y0229425
Y0239425
Y0249425
Y0259425
Y0269425
Y0279425
Y0289425
Y0299425
Y0309425
X0245Y0273441
Y0263441
Y0253441
Y0243441
Y0233441
Y0223441
Y0213441
Y0203441
Y0183441
Y0173441
Y0163441
M30
