M48
;Layer_Color=9474304
;FILE_FORMAT=2:5
INCH,LZ
;TYPE=PLATED
T1F00S00C0.00800
T2F00S00C0.01181
T3F00S00C0.03543
T4F00S00C0.05118
%
T01
X04077Y01417
X04374
X0440743Y0156143
X0440702Y0158702
X0440739Y0161261
X0440779Y0163821
Y0166379
X0440761Y0168939
X04095Y01663
X040682Y0166379
Y0163821
X0408779
X04093Y0158702
X0407Y015875
X0406902Y0171498
X04094Y01716
X03765Y01679
Y01655
Y01631
Y01607
X0373Y01608
Y01632
Y01655
Y01679
X03695Y01644
X03588Y01643
X03634Y02545
X03723Y02546
X03781Y02556
Y02531
X03782Y02505
X03815
X03814Y02531
Y02556
Y02582
X03781
X040692Y0256179
X040882
X040892Y0253621
X040708
X04065Y02485
X0408998Y0248502
X0408802Y0261298
X0406998
X04081Y02321
X0436Y02301
X0440843Y0245943
X0440798Y0248502
X0440861Y0251061
X044092Y0253621
X0440979Y0256179
X0440939Y0258739
X04365Y03215
X0441343Y0336043
X0441298Y0338602
X0441261Y0341161
X044128Y0343721
X0441379Y034628
X0441439Y0348839
X0409802Y0351398
X0407602
X0407721Y034628
X040978
X040932Y0343721
X0406779
X0406802Y0338602
X0409802
X04097Y03215
X0382Y03409
Y03435
X03819Y0346
X03818Y03485
X03784
Y0346
X03783Y03435
Y03409
X03732Y03446
X03625
T02
X0419882Y0149746
Y0154864
X0425
X0430118
Y0149746
X0425
Y0159982
X0430118
Y01651
Y0170218
Y0175336
Y0180454
X0425
X0419882
Y0175336
Y0170218
Y01651
Y0159982
X0425Y01651
Y0170218
Y0175336
Y0239546
X0430118
Y0244664
Y0249782
Y02549
Y0260018
Y0265136
Y0270254
X0425
X0419882
Y0265136
Y0260018
Y02549
Y0249782
Y0244664
Y0239546
X0425Y0244664
Y0249782
Y02549
Y0260018
Y0265136
X04256Y0329646
X0430718
Y0334764
Y0339882
Y0345
Y0350118
Y0355236
Y0360354
X04256
X0420482
Y0355236
Y0350118
Y0345
Y0339882
Y0334764
Y0329646
X04256Y0334764
Y0339882
Y0345
Y0350118
Y0355236
T03
X04712Y01691
Y01791
Y01891
Y01991
X04967Y02195
Y02295
Y02395
X05086
Y02295
Y02195
X05087Y02638
Y02738
Y02838
X04968
Y02738
Y02638
X04719Y02589
Y02689
Y02789
Y02889
X046Y02888
Y02788
Y02688
Y02588
X04481
Y02688
Y02788
Y02888
X04475Y01991
Y01891
Y01791
Y01691
X04593
Y01791
Y01891
Y01991
X04603Y03496
Y03596
Y03696
Y03796
X04485
Y03696
Y03596
Y03496
X04721
Y03596
Y03696
Y03796
T04
X04816Y0129058
Y0148742
Y0173958
Y0193642
X04817Y0218957
Y0238643
X04815Y0264158
Y0283842
X04816Y0309558
X03308Y0265642
Y0245957
X04816Y0329242
Y0354658
Y0374342
M30
