G04 Layer_Color=8388736*
%FSLAX25Y25*%
%MOIN*%
G70*
G01*
G75*
%ADD31C,0.02400*%
%ADD37R,0.06850X0.01732*%
%ADD38R,0.05721X0.09855*%
%ADD39R,0.11706X0.05013*%
%ADD40R,0.04973X0.11509*%
%ADD41R,0.05131X0.11036*%
%ADD42R,0.11036X0.05131*%
%ADD43C,0.06706*%
%ADD44R,0.06706X0.06706*%
%ADD45R,0.07296X0.07296*%
%ADD46C,0.07296*%
%ADD47C,0.10800*%
G36*
X429724Y152383D02*
X420276D01*
Y177816D01*
X429724D01*
Y152383D01*
D02*
G37*
G36*
Y242183D02*
X420276D01*
Y267617D01*
X429724D01*
Y242183D01*
D02*
G37*
G36*
X430324Y332283D02*
X420876D01*
Y357716D01*
X430324D01*
Y332283D01*
D02*
G37*
D31*
X440761Y168939D02*
D03*
X440779Y166379D02*
D03*
Y163821D02*
D03*
X440739Y161261D02*
D03*
X440702Y158702D02*
D03*
X440743Y156143D02*
D03*
X407700Y141700D02*
D03*
X437400D02*
D03*
X369500Y164400D02*
D03*
X440939Y258739D02*
D03*
X440979Y256179D02*
D03*
X440920Y253621D02*
D03*
X440861Y251061D02*
D03*
X440798Y248502D02*
D03*
X440843Y245943D02*
D03*
X408100Y232100D02*
D03*
X436000Y230100D02*
D03*
X408820Y256179D02*
D03*
X372300Y254600D02*
D03*
X358800Y164300D02*
D03*
X363400Y254500D02*
D03*
X441439Y348839D02*
D03*
X441379Y346280D02*
D03*
X441280Y343721D02*
D03*
X441261Y341161D02*
D03*
X441298Y338602D02*
D03*
X441343Y336043D02*
D03*
X409700Y321500D02*
D03*
X436500D02*
D03*
X373200Y344600D02*
D03*
X362500D02*
D03*
X409802Y351398D02*
D03*
X409780Y346280D02*
D03*
X409802Y338602D02*
D03*
X409320Y343721D02*
D03*
X378100Y258200D02*
D03*
X381400D02*
D03*
Y255600D02*
D03*
X378100D02*
D03*
X381400Y253100D02*
D03*
X378100D02*
D03*
X381500Y250500D02*
D03*
X378200D02*
D03*
X381800Y348500D02*
D03*
X381900Y346000D02*
D03*
X382000Y343500D02*
D03*
Y340900D02*
D03*
X378400Y348500D02*
D03*
Y346000D02*
D03*
X378300Y343500D02*
D03*
Y340900D02*
D03*
X376500Y167900D02*
D03*
Y165500D02*
D03*
Y163100D02*
D03*
Y160700D02*
D03*
X373000Y167900D02*
D03*
Y165500D02*
D03*
Y163200D02*
D03*
Y160800D02*
D03*
X406902Y171498D02*
D03*
X406820Y166379D02*
D03*
Y163821D02*
D03*
X407602Y351398D02*
D03*
X407721Y346280D02*
D03*
X406802Y338602D02*
D03*
X406779Y343721D02*
D03*
X407000Y158750D02*
D03*
X409300Y158702D02*
D03*
X408920Y253621D02*
D03*
X407080D02*
D03*
X406920Y256179D02*
D03*
X408802Y261298D02*
D03*
X406998D02*
D03*
X408998Y248502D02*
D03*
X409400Y171600D02*
D03*
X409500Y166300D02*
D03*
X408779Y163821D02*
D03*
X406500Y248500D02*
D03*
D37*
X413976Y271534D02*
D03*
Y268975D02*
D03*
Y266416D02*
D03*
Y263857D02*
D03*
Y261298D02*
D03*
Y258739D02*
D03*
Y256179D02*
D03*
Y253621D02*
D03*
Y251061D02*
D03*
Y248502D02*
D03*
Y245943D02*
D03*
Y243384D02*
D03*
Y240825D02*
D03*
Y238266D02*
D03*
X436024D02*
D03*
Y240825D02*
D03*
Y243384D02*
D03*
Y245943D02*
D03*
Y248502D02*
D03*
Y251061D02*
D03*
Y253621D02*
D03*
Y256179D02*
D03*
Y258739D02*
D03*
Y261298D02*
D03*
Y263857D02*
D03*
Y266416D02*
D03*
Y268975D02*
D03*
Y271534D02*
D03*
X414576Y361634D02*
D03*
Y359075D02*
D03*
Y356516D02*
D03*
Y353957D02*
D03*
Y351398D02*
D03*
Y348839D02*
D03*
Y346280D02*
D03*
Y343721D02*
D03*
Y341161D02*
D03*
Y338602D02*
D03*
Y336043D02*
D03*
Y333484D02*
D03*
Y330925D02*
D03*
Y328366D02*
D03*
X436624D02*
D03*
Y330925D02*
D03*
Y333484D02*
D03*
Y336043D02*
D03*
Y338602D02*
D03*
Y341161D02*
D03*
Y343721D02*
D03*
Y346280D02*
D03*
Y348839D02*
D03*
Y351398D02*
D03*
Y353957D02*
D03*
Y356516D02*
D03*
Y359075D02*
D03*
Y361634D02*
D03*
X413976Y181734D02*
D03*
Y179175D02*
D03*
Y176616D02*
D03*
Y174057D02*
D03*
Y171498D02*
D03*
Y168939D02*
D03*
Y166379D02*
D03*
Y163821D02*
D03*
Y161261D02*
D03*
Y158702D02*
D03*
Y156143D02*
D03*
Y153584D02*
D03*
Y151025D02*
D03*
Y148466D02*
D03*
X436024D02*
D03*
Y151025D02*
D03*
Y153584D02*
D03*
Y156143D02*
D03*
Y158702D02*
D03*
Y161261D02*
D03*
Y163821D02*
D03*
Y166379D02*
D03*
Y168939D02*
D03*
Y171498D02*
D03*
Y174057D02*
D03*
Y176616D02*
D03*
Y179175D02*
D03*
Y181734D02*
D03*
D38*
X386109Y261400D02*
D03*
X399691D02*
D03*
X386209Y248800D02*
D03*
X399791D02*
D03*
X386317Y351500D02*
D03*
X399900D02*
D03*
X386417Y338700D02*
D03*
X400000D02*
D03*
D39*
X399700Y274070D02*
D03*
Y285330D02*
D03*
X449700Y237470D02*
D03*
Y248730D02*
D03*
X399900Y362170D02*
D03*
Y373430D02*
D03*
X449800Y327770D02*
D03*
Y339030D02*
D03*
X399000Y183270D02*
D03*
Y194530D02*
D03*
X448300Y147570D02*
D03*
Y158830D02*
D03*
D40*
X380582Y171300D02*
D03*
X399700D02*
D03*
X380441Y157400D02*
D03*
X399559D02*
D03*
D41*
X423015Y281900D02*
D03*
X412385D02*
D03*
X430615Y228000D02*
D03*
X419985D02*
D03*
X423815Y372000D02*
D03*
X413185D02*
D03*
X430615Y318400D02*
D03*
X419985D02*
D03*
X423115Y192200D02*
D03*
X412485D02*
D03*
X430115Y138000D02*
D03*
X419485D02*
D03*
D42*
X396000Y226685D02*
D03*
Y237315D02*
D03*
X384200D02*
D03*
Y226685D02*
D03*
X386300Y273985D02*
D03*
Y284615D02*
D03*
X384900Y316785D02*
D03*
Y327415D02*
D03*
X397100D02*
D03*
Y316785D02*
D03*
X386600Y362285D02*
D03*
Y372915D02*
D03*
X393200Y136185D02*
D03*
Y146815D02*
D03*
X381100D02*
D03*
Y136185D02*
D03*
X385800Y182985D02*
D03*
Y193615D02*
D03*
D43*
X471200Y199100D02*
D03*
Y189100D02*
D03*
Y179100D02*
D03*
X459300Y199100D02*
D03*
Y189100D02*
D03*
Y179100D02*
D03*
X447500Y199100D02*
D03*
Y189100D02*
D03*
Y179100D02*
D03*
X471900Y288900D02*
D03*
Y278900D02*
D03*
Y268900D02*
D03*
X496800Y273800D02*
D03*
Y263800D02*
D03*
X508700Y273800D02*
D03*
Y263800D02*
D03*
X496700Y229500D02*
D03*
Y219500D02*
D03*
X508600Y229500D02*
D03*
Y219500D02*
D03*
X460000Y288800D02*
D03*
Y278800D02*
D03*
Y268800D02*
D03*
X448100Y288800D02*
D03*
Y278800D02*
D03*
Y268800D02*
D03*
X472100Y379600D02*
D03*
Y369600D02*
D03*
Y359600D02*
D03*
X460300Y379600D02*
D03*
Y369600D02*
D03*
Y359600D02*
D03*
X448500Y379600D02*
D03*
Y369600D02*
D03*
Y359600D02*
D03*
D44*
X471200Y169100D02*
D03*
X459300D02*
D03*
X447500D02*
D03*
X471900Y258900D02*
D03*
X496800Y283800D02*
D03*
X508700D02*
D03*
X496700Y239500D02*
D03*
X508600D02*
D03*
X460000Y258800D02*
D03*
X448100D02*
D03*
X472100Y349600D02*
D03*
X460300D02*
D03*
X448500D02*
D03*
D45*
X330800Y245957D02*
D03*
X481600Y148742D02*
D03*
Y193642D02*
D03*
X481500Y283842D02*
D03*
X481700Y238643D02*
D03*
X481600Y329242D02*
D03*
Y374342D02*
D03*
D46*
X330800Y265642D02*
D03*
X481600Y129058D02*
D03*
Y173958D02*
D03*
X481500Y264158D02*
D03*
X481700Y218957D02*
D03*
X481600Y309558D02*
D03*
Y354658D02*
D03*
D47*
X449100Y126500D02*
D03*
X362700Y386300D02*
D03*
M02*
