G04 Layer_Color=255*
%FSLAX25Y25*%
%MOIN*%
G70*
G01*
G75*
%ADD19C,0.01969*%
%ADD20C,0.05906*%
%ADD21R,0.05906X0.05906*%
%ADD22R,0.06496X0.06496*%
%ADD23C,0.06496*%
%ADD24C,0.10000*%
D19*
X425000Y254900D02*
D03*
Y260018D02*
D03*
Y265136D02*
D03*
Y270254D02*
D03*
Y249782D02*
D03*
Y244664D02*
D03*
Y239546D02*
D03*
X419882Y270254D02*
D03*
X430118D02*
D03*
X419882Y265136D02*
D03*
X430118D02*
D03*
Y260018D02*
D03*
X419882D02*
D03*
Y254900D02*
D03*
X430118D02*
D03*
X419882Y249782D02*
D03*
X430118D02*
D03*
X419882Y244664D02*
D03*
X430118D02*
D03*
X419882Y239546D02*
D03*
X430118D02*
D03*
X425600Y345000D02*
D03*
Y350118D02*
D03*
Y355236D02*
D03*
Y360354D02*
D03*
Y339882D02*
D03*
Y334764D02*
D03*
Y329646D02*
D03*
X420482Y360354D02*
D03*
X430718D02*
D03*
X420482Y355236D02*
D03*
X430718D02*
D03*
Y350118D02*
D03*
X420482D02*
D03*
Y345000D02*
D03*
X430718D02*
D03*
X420482Y339882D02*
D03*
X430718D02*
D03*
X420482Y334764D02*
D03*
X430718D02*
D03*
X420482Y329646D02*
D03*
X430718D02*
D03*
X425000Y165100D02*
D03*
Y170218D02*
D03*
Y175336D02*
D03*
Y180454D02*
D03*
Y159982D02*
D03*
Y154864D02*
D03*
Y149746D02*
D03*
X419882Y180454D02*
D03*
X430118D02*
D03*
X419882Y175336D02*
D03*
X430118D02*
D03*
Y170218D02*
D03*
X419882D02*
D03*
Y165100D02*
D03*
X430118D02*
D03*
X419882Y159982D02*
D03*
X430118D02*
D03*
X419882Y154864D02*
D03*
X430118D02*
D03*
X419882Y149746D02*
D03*
X430118D02*
D03*
D20*
X471200Y199100D02*
D03*
Y189100D02*
D03*
Y179100D02*
D03*
X459300Y199100D02*
D03*
Y189100D02*
D03*
Y179100D02*
D03*
X447500Y199100D02*
D03*
Y189100D02*
D03*
Y179100D02*
D03*
X471900Y288900D02*
D03*
Y278900D02*
D03*
Y268900D02*
D03*
X496800Y273800D02*
D03*
Y263800D02*
D03*
X508700Y273800D02*
D03*
Y263800D02*
D03*
X496700Y229500D02*
D03*
Y219500D02*
D03*
X508600Y229500D02*
D03*
Y219500D02*
D03*
X460000Y288800D02*
D03*
Y278800D02*
D03*
Y268800D02*
D03*
X448100Y288800D02*
D03*
Y278800D02*
D03*
Y268800D02*
D03*
X472100Y379600D02*
D03*
Y369600D02*
D03*
Y359600D02*
D03*
X460300Y379600D02*
D03*
Y369600D02*
D03*
Y359600D02*
D03*
X448500Y379600D02*
D03*
Y369600D02*
D03*
Y359600D02*
D03*
D21*
X471200Y169100D02*
D03*
X459300D02*
D03*
X447500D02*
D03*
X471900Y258900D02*
D03*
X496800Y283800D02*
D03*
X508700D02*
D03*
X496700Y239500D02*
D03*
X508600D02*
D03*
X460000Y258800D02*
D03*
X448100D02*
D03*
X472100Y349600D02*
D03*
X460300D02*
D03*
X448500D02*
D03*
D22*
X330800Y245957D02*
D03*
X481600Y148742D02*
D03*
Y193642D02*
D03*
X481500Y283842D02*
D03*
X481700Y238643D02*
D03*
X481600Y329242D02*
D03*
Y374342D02*
D03*
D23*
X330800Y265642D02*
D03*
X481600Y129058D02*
D03*
Y173958D02*
D03*
X481500Y264158D02*
D03*
X481700Y218957D02*
D03*
X481600Y309558D02*
D03*
Y354658D02*
D03*
D24*
X449100Y126500D02*
D03*
X362700Y386300D02*
D03*
M02*
