G04 Layer_Color=16711935*
%FSLAX25Y25*%
%MOIN*%
G70*
G01*
G75*
%ADD31C,0.02400*%
%ADD43C,0.06706*%
%ADD44R,0.06706X0.06706*%
%ADD45R,0.07296X0.07296*%
%ADD46C,0.07296*%
%ADD47C,0.10800*%
D31*
X440761Y168939D02*
D03*
X440779Y166379D02*
D03*
Y163821D02*
D03*
X440739Y161261D02*
D03*
X440702Y158702D02*
D03*
X440743Y156143D02*
D03*
X407700Y141700D02*
D03*
X437400D02*
D03*
X369500Y164400D02*
D03*
X440939Y258739D02*
D03*
X440979Y256179D02*
D03*
X440920Y253621D02*
D03*
X440861Y251061D02*
D03*
X440798Y248502D02*
D03*
X440843Y245943D02*
D03*
X408100Y232100D02*
D03*
X436000Y230100D02*
D03*
X408820Y256179D02*
D03*
X372300Y254600D02*
D03*
X358800Y164300D02*
D03*
X363400Y254500D02*
D03*
X441439Y348839D02*
D03*
X441379Y346280D02*
D03*
X441280Y343721D02*
D03*
X441261Y341161D02*
D03*
X441298Y338602D02*
D03*
X441343Y336043D02*
D03*
X409700Y321500D02*
D03*
X436500D02*
D03*
X373200Y344600D02*
D03*
X362500D02*
D03*
X409802Y351398D02*
D03*
X409780Y346280D02*
D03*
X409802Y338602D02*
D03*
X409320Y343721D02*
D03*
X378100Y258200D02*
D03*
X381400D02*
D03*
Y255600D02*
D03*
X378100D02*
D03*
X381400Y253100D02*
D03*
X378100D02*
D03*
X381500Y250500D02*
D03*
X378200D02*
D03*
X381800Y348500D02*
D03*
X381900Y346000D02*
D03*
X382000Y343500D02*
D03*
Y340900D02*
D03*
X378400Y348500D02*
D03*
Y346000D02*
D03*
X378300Y343500D02*
D03*
Y340900D02*
D03*
X376500Y167900D02*
D03*
Y165500D02*
D03*
Y163100D02*
D03*
Y160700D02*
D03*
X373000Y167900D02*
D03*
Y165500D02*
D03*
Y163200D02*
D03*
Y160800D02*
D03*
X406902Y171498D02*
D03*
X406820Y166379D02*
D03*
Y163821D02*
D03*
X407602Y351398D02*
D03*
X407721Y346280D02*
D03*
X406802Y338602D02*
D03*
X406779Y343721D02*
D03*
X407000Y158750D02*
D03*
X409300Y158702D02*
D03*
X408920Y253621D02*
D03*
X407080D02*
D03*
X406920Y256179D02*
D03*
X408802Y261298D02*
D03*
X406998D02*
D03*
X408998Y248502D02*
D03*
X409400Y171600D02*
D03*
X409500Y166300D02*
D03*
X408779Y163821D02*
D03*
X406500Y248500D02*
D03*
D43*
X471200Y199100D02*
D03*
Y189100D02*
D03*
Y179100D02*
D03*
X459300Y199100D02*
D03*
Y189100D02*
D03*
Y179100D02*
D03*
X447500Y199100D02*
D03*
Y189100D02*
D03*
Y179100D02*
D03*
X471900Y288900D02*
D03*
Y278900D02*
D03*
Y268900D02*
D03*
X496800Y273800D02*
D03*
Y263800D02*
D03*
X508700Y273800D02*
D03*
Y263800D02*
D03*
X496700Y229500D02*
D03*
Y219500D02*
D03*
X508600Y229500D02*
D03*
Y219500D02*
D03*
X460000Y288800D02*
D03*
Y278800D02*
D03*
Y268800D02*
D03*
X448100Y288800D02*
D03*
Y278800D02*
D03*
Y268800D02*
D03*
X472100Y379600D02*
D03*
Y369600D02*
D03*
Y359600D02*
D03*
X460300Y379600D02*
D03*
Y369600D02*
D03*
Y359600D02*
D03*
X448500Y379600D02*
D03*
Y369600D02*
D03*
Y359600D02*
D03*
D44*
X471200Y169100D02*
D03*
X459300D02*
D03*
X447500D02*
D03*
X471900Y258900D02*
D03*
X496800Y283800D02*
D03*
X508700D02*
D03*
X496700Y239500D02*
D03*
X508600D02*
D03*
X460000Y258800D02*
D03*
X448100D02*
D03*
X472100Y349600D02*
D03*
X460300D02*
D03*
X448500D02*
D03*
D45*
X330800Y245957D02*
D03*
X481600Y148742D02*
D03*
Y193642D02*
D03*
X481500Y283842D02*
D03*
X481700Y238643D02*
D03*
X481600Y329242D02*
D03*
Y374342D02*
D03*
D46*
X330800Y265642D02*
D03*
X481600Y129058D02*
D03*
Y173958D02*
D03*
X481500Y264158D02*
D03*
X481700Y218957D02*
D03*
X481600Y309558D02*
D03*
Y354658D02*
D03*
D47*
X449100Y126500D02*
D03*
X362700Y386300D02*
D03*
M02*
