G04 Layer_Color=32896*
%FSLAX25Y25*%
%MOIN*%
G70*
G01*
G75*
%ADD32C,0.00787*%
%ADD33C,0.01000*%
%ADD34C,0.00500*%
D32*
X481994Y161144D02*
X481206D01*
X481994D01*
Y206044D02*
X481206D01*
X481994D01*
X481894Y296244D02*
X481106D01*
X481894D01*
X482094Y251044D02*
X481306D01*
X482094D01*
X481994Y341644D02*
X481206D01*
X481994D01*
Y386744D02*
X481206D01*
X481994D01*
D33*
X495698Y137799D02*
Y135799D01*
Y136799D01*
X490700D01*
X489700Y135799D01*
Y134800D01*
X490700Y133800D01*
X495698Y139798D02*
Y143797D01*
X494698D01*
X490700Y139798D01*
X489700D01*
X493498Y182799D02*
Y180799D01*
Y181799D01*
X488500D01*
X487500Y180799D01*
Y179800D01*
X488500Y178800D01*
X493498Y188797D02*
X492498Y186797D01*
X490499Y184798D01*
X488500D01*
X487500Y185798D01*
Y187797D01*
X488500Y188797D01*
X489499D01*
X490499Y187797D01*
Y184798D01*
X485598Y227299D02*
Y225299D01*
Y226299D01*
X480600D01*
X479600Y225299D01*
Y224300D01*
X480600Y223300D01*
X485598Y233297D02*
Y229298D01*
X482599D01*
X483599Y231297D01*
Y232297D01*
X482599Y233297D01*
X480600D01*
X479600Y232297D01*
Y230298D01*
X480600Y229298D01*
X484198Y272599D02*
Y270599D01*
Y271599D01*
X479200D01*
X478200Y270599D01*
Y269600D01*
X479200Y268600D01*
X478200Y277597D02*
X484198D01*
X481199Y274598D01*
Y278597D01*
X482501Y322398D02*
X484501D01*
X483501D01*
Y317400D01*
X484501Y316400D01*
X485500D01*
X486500Y317400D01*
X480502Y321398D02*
X479502Y322398D01*
X477503D01*
X476503Y321398D01*
Y320399D01*
X477503Y319399D01*
X478503D01*
X477503D01*
X476503Y318399D01*
Y317400D01*
X477503Y316400D01*
X479502D01*
X480502Y317400D01*
X482001Y367298D02*
X484001D01*
X483001D01*
Y362300D01*
X484001Y361300D01*
X485000D01*
X486000Y362300D01*
X480002Y361300D02*
X478003D01*
X479002D01*
Y367298D01*
X480002Y366298D01*
D34*
X463883Y119215D02*
X499317D01*
X463883Y158585D02*
X499317D01*
Y119215D02*
Y158585D01*
X463883Y119215D02*
Y158585D01*
Y164115D02*
X499317D01*
X463883Y203485D02*
X499317D01*
Y164115D02*
Y203485D01*
X463883Y164115D02*
Y203485D01*
X463784Y254315D02*
X499217D01*
X463784Y293685D02*
X499217D01*
Y254315D02*
Y293685D01*
X463784Y254315D02*
Y293685D01*
X463983Y209115D02*
X499416D01*
X463983Y248485D02*
X499416D01*
Y209115D02*
Y248485D01*
X463983Y209115D02*
Y248485D01*
X463883Y299715D02*
X499317D01*
X463883Y339085D02*
X499317D01*
Y299715D02*
Y339085D01*
X463883Y299715D02*
Y339085D01*
Y344815D02*
X499317D01*
X463883Y384185D02*
X499317D01*
Y344815D02*
Y384185D01*
X463883Y344815D02*
Y384185D01*
M02*
