G04 Layer_Color=255*
%FSLAX25Y25*%
%MOIN*%
G70*
G01*
G75*
%ADD10R,0.06299X0.01181*%
%ADD11R,0.13386X0.38189*%
%ADD12R,0.04921X0.09055*%
%ADD13R,0.10906X0.04213*%
%ADD14R,0.04173X0.10709*%
%ADD15R,0.04331X0.10236*%
%ADD16R,0.10236X0.04331*%
%ADD19C,0.01969*%
%ADD20C,0.05906*%
%ADD21R,0.05906X0.05906*%
%ADD22R,0.06496X0.06496*%
%ADD23C,0.06496*%
%ADD24C,0.10000*%
D10*
X413976Y271534D02*
D03*
Y268975D02*
D03*
Y266416D02*
D03*
Y263857D02*
D03*
Y261298D02*
D03*
Y258739D02*
D03*
Y256179D02*
D03*
Y253621D02*
D03*
Y251061D02*
D03*
Y248502D02*
D03*
Y245943D02*
D03*
Y243384D02*
D03*
Y240825D02*
D03*
Y238266D02*
D03*
X436024D02*
D03*
Y240825D02*
D03*
Y243384D02*
D03*
Y245943D02*
D03*
Y248502D02*
D03*
Y251061D02*
D03*
Y253621D02*
D03*
Y256179D02*
D03*
Y258739D02*
D03*
Y261298D02*
D03*
Y263857D02*
D03*
Y266416D02*
D03*
Y268975D02*
D03*
Y271534D02*
D03*
X414576Y361634D02*
D03*
Y359075D02*
D03*
Y356516D02*
D03*
Y353957D02*
D03*
Y351398D02*
D03*
Y348839D02*
D03*
Y346280D02*
D03*
Y343721D02*
D03*
Y341161D02*
D03*
Y338602D02*
D03*
Y336043D02*
D03*
Y333484D02*
D03*
Y330925D02*
D03*
Y328366D02*
D03*
X436624D02*
D03*
Y330925D02*
D03*
Y333484D02*
D03*
Y336043D02*
D03*
Y338602D02*
D03*
Y341161D02*
D03*
Y343721D02*
D03*
Y346280D02*
D03*
Y348839D02*
D03*
Y351398D02*
D03*
Y353957D02*
D03*
Y356516D02*
D03*
Y359075D02*
D03*
Y361634D02*
D03*
X413976Y181734D02*
D03*
Y179175D02*
D03*
Y176616D02*
D03*
Y174057D02*
D03*
Y171498D02*
D03*
Y168939D02*
D03*
Y166379D02*
D03*
Y163821D02*
D03*
Y161261D02*
D03*
Y158702D02*
D03*
Y156143D02*
D03*
Y153584D02*
D03*
Y151025D02*
D03*
Y148466D02*
D03*
X436024D02*
D03*
Y151025D02*
D03*
Y153584D02*
D03*
Y156143D02*
D03*
Y158702D02*
D03*
Y161261D02*
D03*
Y163821D02*
D03*
Y166379D02*
D03*
Y168939D02*
D03*
Y171498D02*
D03*
Y174057D02*
D03*
Y176616D02*
D03*
Y179175D02*
D03*
Y181734D02*
D03*
D11*
X425000Y254900D02*
D03*
X425600Y345000D02*
D03*
X425000Y165100D02*
D03*
D12*
X386109Y261400D02*
D03*
X399691D02*
D03*
X386209Y248800D02*
D03*
X399791D02*
D03*
X386317Y351500D02*
D03*
X399900D02*
D03*
X386417Y338700D02*
D03*
X400000D02*
D03*
D13*
X399700Y274070D02*
D03*
Y285330D02*
D03*
X449700Y237470D02*
D03*
Y248730D02*
D03*
X399900Y362170D02*
D03*
Y373430D02*
D03*
X449800Y327770D02*
D03*
Y339030D02*
D03*
X399000Y183270D02*
D03*
Y194530D02*
D03*
X448300Y147570D02*
D03*
Y158830D02*
D03*
D14*
X380582Y171300D02*
D03*
X399700D02*
D03*
X380441Y157400D02*
D03*
X399559D02*
D03*
D15*
X423015Y281900D02*
D03*
X412385D02*
D03*
X430615Y228000D02*
D03*
X419985D02*
D03*
X423815Y372000D02*
D03*
X413185D02*
D03*
X430615Y318400D02*
D03*
X419985D02*
D03*
X423115Y192200D02*
D03*
X412485D02*
D03*
X430115Y138000D02*
D03*
X419485D02*
D03*
D16*
X396000Y226685D02*
D03*
Y237315D02*
D03*
X384200D02*
D03*
Y226685D02*
D03*
X386300Y273985D02*
D03*
Y284615D02*
D03*
X384900Y316785D02*
D03*
Y327415D02*
D03*
X397100D02*
D03*
Y316785D02*
D03*
X386600Y362285D02*
D03*
Y372915D02*
D03*
X393200Y136185D02*
D03*
Y146815D02*
D03*
X381100D02*
D03*
Y136185D02*
D03*
X385800Y182985D02*
D03*
Y193615D02*
D03*
D19*
X425000Y254900D02*
D03*
Y260018D02*
D03*
Y265136D02*
D03*
Y270254D02*
D03*
Y249782D02*
D03*
Y244664D02*
D03*
Y239546D02*
D03*
X419882Y270254D02*
D03*
X430118D02*
D03*
X419882Y265136D02*
D03*
X430118D02*
D03*
Y260018D02*
D03*
X419882D02*
D03*
Y254900D02*
D03*
X430118D02*
D03*
X419882Y249782D02*
D03*
X430118D02*
D03*
X419882Y244664D02*
D03*
X430118D02*
D03*
X419882Y239546D02*
D03*
X430118D02*
D03*
X425600Y345000D02*
D03*
Y350118D02*
D03*
Y355236D02*
D03*
Y360354D02*
D03*
Y339882D02*
D03*
Y334764D02*
D03*
Y329646D02*
D03*
X420482Y360354D02*
D03*
X430718D02*
D03*
X420482Y355236D02*
D03*
X430718D02*
D03*
Y350118D02*
D03*
X420482D02*
D03*
Y345000D02*
D03*
X430718D02*
D03*
X420482Y339882D02*
D03*
X430718D02*
D03*
X420482Y334764D02*
D03*
X430718D02*
D03*
X420482Y329646D02*
D03*
X430718D02*
D03*
X425000Y165100D02*
D03*
Y170218D02*
D03*
Y175336D02*
D03*
Y180454D02*
D03*
Y159982D02*
D03*
Y154864D02*
D03*
Y149746D02*
D03*
X419882Y180454D02*
D03*
X430118D02*
D03*
X419882Y175336D02*
D03*
X430118D02*
D03*
Y170218D02*
D03*
X419882D02*
D03*
Y165100D02*
D03*
X430118D02*
D03*
X419882Y159982D02*
D03*
X430118D02*
D03*
X419882Y154864D02*
D03*
X430118D02*
D03*
X419882Y149746D02*
D03*
X430118D02*
D03*
D20*
X471200Y199100D02*
D03*
Y189100D02*
D03*
Y179100D02*
D03*
X459300Y199100D02*
D03*
Y189100D02*
D03*
Y179100D02*
D03*
X447500Y199100D02*
D03*
Y189100D02*
D03*
Y179100D02*
D03*
X471900Y288900D02*
D03*
Y278900D02*
D03*
Y268900D02*
D03*
X496800Y273800D02*
D03*
Y263800D02*
D03*
X508700Y273800D02*
D03*
Y263800D02*
D03*
X496700Y229500D02*
D03*
Y219500D02*
D03*
X508600Y229500D02*
D03*
Y219500D02*
D03*
X460000Y288800D02*
D03*
Y278800D02*
D03*
Y268800D02*
D03*
X448100Y288800D02*
D03*
Y278800D02*
D03*
Y268800D02*
D03*
X472100Y379600D02*
D03*
Y369600D02*
D03*
Y359600D02*
D03*
X460300Y379600D02*
D03*
Y369600D02*
D03*
Y359600D02*
D03*
X448500Y379600D02*
D03*
Y369600D02*
D03*
Y359600D02*
D03*
D21*
X471200Y169100D02*
D03*
X459300D02*
D03*
X447500D02*
D03*
X471900Y258900D02*
D03*
X496800Y283800D02*
D03*
X508700D02*
D03*
X496700Y239500D02*
D03*
X508600D02*
D03*
X460000Y258800D02*
D03*
X448100D02*
D03*
X472100Y349600D02*
D03*
X460300D02*
D03*
X448500D02*
D03*
D22*
X330800Y245957D02*
D03*
X481600Y148742D02*
D03*
Y193642D02*
D03*
X481500Y283842D02*
D03*
X481700Y238643D02*
D03*
X481600Y329242D02*
D03*
Y374342D02*
D03*
D23*
X330800Y265642D02*
D03*
X481600Y129058D02*
D03*
Y173958D02*
D03*
X481500Y264158D02*
D03*
X481700Y218957D02*
D03*
X481600Y309558D02*
D03*
Y354658D02*
D03*
D24*
X449100Y126500D02*
D03*
X362700Y386300D02*
D03*
M02*
