G04 Layer_Color=65535*
%FSLAX25Y25*%
%MOIN*%
G70*
G01*
G75*
%ADD32C,0.00787*%
%ADD33C,0.01000*%
%ADD34C,0.00500*%
%ADD35C,0.00600*%
D32*
X408701Y272754D02*
X407913D01*
X408701D01*
X409301Y362854D02*
X408513D01*
X409301D01*
X408701Y182954D02*
X407913D01*
X408701D01*
X331194Y233556D02*
X330406D01*
X331194D01*
X466200Y164100D02*
X476200D01*
X466200D02*
Y204100D01*
X476200Y164100D02*
Y204100D01*
X466200D02*
X476200D01*
X454300Y164100D02*
X464300D01*
X454300D02*
Y204100D01*
X464300Y164100D02*
Y204100D01*
X454300D02*
X464300D01*
X442500Y164100D02*
X452500D01*
X442500D02*
Y204100D01*
X452500Y164100D02*
Y204100D01*
X442500D02*
X452500D01*
X466900Y253900D02*
X476900D01*
X466900D02*
Y293900D01*
X476900Y253900D02*
Y293900D01*
X466900D02*
X476900D01*
X491800Y258800D02*
Y288800D01*
Y258800D02*
X501800D01*
Y288800D01*
X491800D02*
X501800D01*
X503700Y258800D02*
Y288800D01*
Y258800D02*
X513700D01*
Y288800D01*
X503700D02*
X513700D01*
X491700Y214500D02*
Y244500D01*
Y214500D02*
X501700D01*
Y244500D01*
X491700D02*
X501700D01*
X503600Y214500D02*
Y244500D01*
Y214500D02*
X513600D01*
Y244500D01*
X503600D02*
X513600D01*
X455000Y253800D02*
X465000D01*
X455000D02*
Y293800D01*
X465000Y253800D02*
Y293800D01*
X455000D02*
X465000D01*
X443100Y253800D02*
X453100D01*
X443100D02*
Y293800D01*
X453100Y253800D02*
Y293800D01*
X443100D02*
X453100D01*
X467100Y344600D02*
X477100D01*
X467100D02*
Y384600D01*
X477100Y344600D02*
Y384600D01*
X467100D02*
X477100D01*
X455300Y344600D02*
X465300D01*
X455300D02*
Y384600D01*
X465300Y344600D02*
Y384600D01*
X455300D02*
X465300D01*
X443500Y344600D02*
X453500D01*
X443500D02*
Y384600D01*
X453500Y344600D02*
Y384600D01*
X443500D02*
X453500D01*
X416125Y277176D02*
X419275D01*
X416125Y286624D02*
X419275D01*
X423725Y223276D02*
X426875D01*
X423725Y232724D02*
X426875D01*
X391276Y230425D02*
Y233575D01*
X400724Y230425D02*
Y233575D01*
X388924Y230425D02*
Y233575D01*
X379476Y230425D02*
Y233575D01*
X381576Y277725D02*
Y280875D01*
X391024Y277725D02*
Y280875D01*
X416925Y367276D02*
X420075D01*
X416925Y376724D02*
X420075D01*
X423725Y313676D02*
X426875D01*
X423725Y323124D02*
X426875D01*
X380176Y320525D02*
Y323675D01*
X389624Y320525D02*
Y323675D01*
X401824Y320525D02*
Y323675D01*
X392376Y320525D02*
Y323675D01*
X381876Y366025D02*
Y369175D01*
X391324Y366025D02*
Y369175D01*
X416225Y187476D02*
X419375D01*
X416225Y196924D02*
X419375D01*
X423225Y133276D02*
X426375D01*
X423225Y142724D02*
X426375D01*
X388476Y139925D02*
Y143075D01*
X397924Y139925D02*
Y143075D01*
X385824Y139925D02*
Y143075D01*
X376376Y139925D02*
Y143075D01*
X381076Y186725D02*
Y189875D01*
X390524Y186725D02*
Y189875D01*
D33*
X458100Y126500D02*
X458045Y127490D01*
X457882Y128468D01*
X457612Y129422D01*
X457239Y130341D01*
X456767Y131213D01*
X456202Y132028D01*
X455551Y132776D01*
X454821Y133447D01*
X454023Y134035D01*
X453164Y134530D01*
X452256Y134929D01*
X451309Y135225D01*
X450336Y135415D01*
X449348Y135497D01*
X448357Y135469D01*
X447375Y135333D01*
X446413Y135090D01*
X445485Y134742D01*
X444600Y134294D01*
X443770Y133752D01*
X443005Y133122D01*
X442313Y132411D01*
X441704Y131628D01*
X441185Y130783D01*
X440762Y129887D01*
X440440Y128949D01*
X440223Y127981D01*
X440114Y126996D01*
Y126004D01*
X440223Y125019D01*
X440440Y124051D01*
X440762Y123113D01*
X441185Y122216D01*
X441704Y121372D01*
X442313Y120589D01*
X443005Y119878D01*
X443770Y119248D01*
X444600Y118706D01*
X445485Y118258D01*
X446413Y117910D01*
X447375Y117667D01*
X448357Y117531D01*
X449348Y117503D01*
X450336Y117585D01*
X451309Y117775D01*
X452256Y118071D01*
X453164Y118470D01*
X454023Y118965D01*
X454821Y119553D01*
X455551Y120224D01*
X456202Y120972D01*
X456767Y121787D01*
X457239Y122659D01*
X457612Y123578D01*
X457882Y124532D01*
X458045Y125510D01*
X458100Y126500D01*
X371700Y386300D02*
X371645Y387290D01*
X371482Y388268D01*
X371212Y389222D01*
X370839Y390141D01*
X370367Y391013D01*
X369802Y391828D01*
X369151Y392576D01*
X368422Y393247D01*
X367622Y393834D01*
X366764Y394330D01*
X365856Y394729D01*
X364909Y395025D01*
X363936Y395215D01*
X362948Y395297D01*
X361957Y395269D01*
X360975Y395133D01*
X360013Y394890D01*
X359085Y394542D01*
X358200Y394094D01*
X357370Y393552D01*
X356605Y392921D01*
X355913Y392211D01*
X355304Y391428D01*
X354785Y390583D01*
X354362Y389687D01*
X354040Y388749D01*
X353823Y387781D01*
X353714Y386796D01*
Y385804D01*
X353823Y384819D01*
X354040Y383851D01*
X354362Y382913D01*
X354785Y382016D01*
X355304Y381172D01*
X355913Y380389D01*
X356605Y379679D01*
X357370Y379048D01*
X358200Y378506D01*
X359085Y378058D01*
X360013Y377710D01*
X360975Y377467D01*
X361957Y377331D01*
X362948Y377303D01*
X363936Y377385D01*
X364909Y377575D01*
X365856Y377871D01*
X366764Y378270D01*
X367623Y378766D01*
X368422Y379353D01*
X369151Y380024D01*
X369802Y380772D01*
X370367Y381587D01*
X370839Y382459D01*
X371212Y383378D01*
X371482Y384332D01*
X371645Y385310D01*
X371700Y386300D01*
X379700Y390898D02*
Y384900D01*
X383699D01*
X388697D02*
X386698D01*
X385698Y385900D01*
Y387899D01*
X386698Y388899D01*
X388697D01*
X389697Y387899D01*
Y386899D01*
X385698D01*
X392696Y384900D02*
Y389898D01*
Y387899D01*
X391696D01*
X393695D01*
X392696D01*
Y389898D01*
X393695Y390898D01*
X397694Y389898D02*
Y388899D01*
X396694D01*
X398694D01*
X397694D01*
Y385900D01*
X398694Y384900D01*
X407691Y390898D02*
Y384900D01*
X410690D01*
X411690Y385900D01*
Y386899D01*
X410690Y387899D01*
X407691D01*
X410690D01*
X411690Y388899D01*
Y389898D01*
X410690Y390898D01*
X407691D01*
X414689Y388899D02*
X416688D01*
X417688Y387899D01*
Y384900D01*
X414689D01*
X413689Y385900D01*
X414689Y386899D01*
X417688D01*
X419687Y384900D02*
X421686D01*
X420687D01*
Y390898D01*
X419687D01*
X424685Y384900D02*
X426685D01*
X425685D01*
Y390898D01*
X424685D01*
X430684Y388899D02*
X432683D01*
X433682Y387899D01*
Y384900D01*
X430684D01*
X429684Y385900D01*
X430684Y386899D01*
X433682D01*
X435682Y384900D02*
X438681D01*
X439681Y385900D01*
X438681Y386899D01*
X436682D01*
X435682Y387899D01*
X436682Y388899D01*
X439681D01*
X442680Y389898D02*
Y388899D01*
X441680D01*
X443679D01*
X442680D01*
Y385900D01*
X443679Y384900D01*
X366900Y204300D02*
Y210298D01*
X369899D01*
X370899Y209298D01*
Y207299D01*
X369899Y206299D01*
X366900D01*
X368899D02*
X370899Y204300D01*
X372898D02*
X374897D01*
X373898D01*
Y208299D01*
X372898D01*
X379896Y202301D02*
X380895D01*
X381895Y203300D01*
Y208299D01*
X378896D01*
X377896Y207299D01*
Y205300D01*
X378896Y204300D01*
X381895D01*
X383894Y210298D02*
Y204300D01*
Y207299D01*
X384894Y208299D01*
X386894D01*
X387893Y207299D01*
Y204300D01*
X390892Y209298D02*
Y208299D01*
X389893D01*
X391892D01*
X390892D01*
Y205300D01*
X391892Y204300D01*
X400889Y210298D02*
Y204300D01*
X403888D01*
X404888Y205300D01*
Y206299D01*
X403888Y207299D01*
X400889D01*
X403888D01*
X404888Y208299D01*
Y209298D01*
X403888Y210298D01*
X400889D01*
X407887Y208299D02*
X409886D01*
X410886Y207299D01*
Y204300D01*
X407887D01*
X406887Y205300D01*
X407887Y206299D01*
X410886D01*
X412885Y204300D02*
X414885D01*
X413885D01*
Y210298D01*
X412885D01*
X417883Y204300D02*
X419883D01*
X418883D01*
Y210298D01*
X417883D01*
X423882Y208299D02*
X425881D01*
X426881Y207299D01*
Y204300D01*
X423882D01*
X422882Y205300D01*
X423882Y206299D01*
X426881D01*
X428880Y204300D02*
X431879D01*
X432879Y205300D01*
X431879Y206299D01*
X429880D01*
X428880Y207299D01*
X429880Y208299D01*
X432879D01*
X435878Y209298D02*
Y208299D01*
X434878D01*
X436877D01*
X435878D01*
Y205300D01*
X436877Y204300D01*
X369000Y294400D02*
Y300398D01*
X371999D01*
X372999Y299398D01*
Y297399D01*
X371999Y296399D01*
X369000D01*
X374998Y298399D02*
Y294400D01*
Y296399D01*
X375998Y297399D01*
X376997Y298399D01*
X377997D01*
X381996Y294400D02*
X383995D01*
X384995Y295400D01*
Y297399D01*
X383995Y298399D01*
X381996D01*
X380996Y297399D01*
Y295400D01*
X381996Y294400D01*
X386994Y292401D02*
Y298399D01*
X389993D01*
X390993Y297399D01*
Y295400D01*
X389993Y294400D01*
X386994D01*
X395991D02*
X393992D01*
X392992Y295400D01*
Y297399D01*
X393992Y298399D01*
X395991D01*
X396991Y297399D01*
Y296399D01*
X392992D01*
X398990Y294400D02*
X400990D01*
X399990D01*
Y300398D01*
X398990D01*
X403989Y294400D02*
X405988D01*
X404988D01*
Y300398D01*
X403989D01*
X411986Y294400D02*
X409987D01*
X408987Y295400D01*
Y297399D01*
X409987Y298399D01*
X411986D01*
X412986Y297399D01*
Y296399D01*
X408987D01*
X414985Y298399D02*
Y294400D01*
Y296399D01*
X415985Y297399D01*
X416985Y298399D01*
X417984D01*
X420983Y294400D02*
X423982D01*
X424982Y295400D01*
X423982Y296399D01*
X421983D01*
X420983Y297399D01*
X421983Y298399D01*
X424982D01*
D34*
X416339Y275254D02*
X433661D01*
X416339Y234546D02*
X433661D01*
X416939Y365354D02*
X434261D01*
X416939Y324646D02*
X434261D01*
X416339Y185454D02*
X433661D01*
X416339Y144746D02*
X433661D01*
X389829Y266321D02*
X395971D01*
X389829Y256479D02*
X395971D01*
X389929Y253721D02*
X396071D01*
X389929Y243879D02*
X396071D01*
X394267Y277456D02*
Y281944D01*
X405133Y277456D02*
Y281944D01*
X444267Y240856D02*
Y245344D01*
X455133Y240856D02*
Y245344D01*
X390038Y356421D02*
X396180D01*
X390038Y346579D02*
X396180D01*
X390138Y343621D02*
X396280D01*
X390138Y333779D02*
X396280D01*
X394467Y365556D02*
Y370044D01*
X405333Y365556D02*
Y370044D01*
X444367Y331156D02*
Y335644D01*
X455233Y331156D02*
Y335644D01*
X383921Y176615D02*
X396361D01*
X383921Y165985D02*
X396361D01*
X383780Y162715D02*
X396220D01*
X383780Y152085D02*
X396220D01*
X393567Y186656D02*
Y191144D01*
X404433Y186656D02*
Y191144D01*
X442867Y150956D02*
Y155444D01*
X453733Y150956D02*
Y155444D01*
X313084Y275485D02*
X348517D01*
X313084Y236115D02*
X348517D01*
Y275485D01*
X313084Y236115D02*
Y275485D01*
X432500Y280999D02*
Y278500D01*
X433000Y278000D01*
X433999D01*
X434499Y278500D01*
Y280999D01*
X435499Y280499D02*
X435999Y280999D01*
X436999D01*
X437498Y280499D01*
Y279999D01*
X436999Y279500D01*
X436499D01*
X436999D01*
X437498Y279000D01*
Y278500D01*
X436999Y278000D01*
X435999D01*
X435499Y278500D01*
X432700Y371799D02*
Y369300D01*
X433200Y368800D01*
X434199D01*
X434699Y369300D01*
Y371799D01*
X437698Y368800D02*
X435699D01*
X437698Y370799D01*
Y371299D01*
X437198Y371799D01*
X436199D01*
X435699Y371299D01*
X432500Y191299D02*
Y188800D01*
X433000Y188300D01*
X433999D01*
X434499Y188800D01*
Y191299D01*
X435499Y188300D02*
X436499D01*
X435999D01*
Y191299D01*
X435499Y190799D01*
X389200Y259600D02*
Y262599D01*
X390700D01*
X391199Y262099D01*
Y261100D01*
X390700Y260600D01*
X389200D01*
X390200D02*
X391199Y259600D01*
X392199D02*
X393199D01*
X392699D01*
Y262599D01*
X392199Y262099D01*
X396698Y259600D02*
X394698D01*
X396698Y261599D01*
Y262099D01*
X396198Y262599D01*
X395198D01*
X394698Y262099D01*
X389500Y246700D02*
Y249699D01*
X391000D01*
X391499Y249199D01*
Y248200D01*
X391000Y247700D01*
X389500D01*
X390500D02*
X391499Y246700D01*
X392499D02*
X393499D01*
X392999D01*
Y249699D01*
X392499Y249199D01*
X394998Y246700D02*
X395998D01*
X395498D01*
Y249699D01*
X394998Y249199D01*
X396200Y278100D02*
Y281099D01*
X397699D01*
X398199Y280599D01*
Y279599D01*
X397699Y279100D01*
X396200D01*
X397200D02*
X398199Y278100D01*
X399199D02*
X400199D01*
X399699D01*
Y281099D01*
X399199Y280599D01*
X401698D02*
X402198Y281099D01*
X403198D01*
X403698Y280599D01*
Y278600D01*
X403198Y278100D01*
X402198D01*
X401698Y278600D01*
Y280599D01*
X448200Y241500D02*
Y244499D01*
X449699D01*
X450199Y243999D01*
Y243000D01*
X449699Y242500D01*
X448200D01*
X449200D02*
X450199Y241500D01*
X451199Y242000D02*
X451699Y241500D01*
X452699D01*
X453198Y242000D01*
Y243999D01*
X452699Y244499D01*
X451699D01*
X451199Y243999D01*
Y243499D01*
X451699Y243000D01*
X453198D01*
X390200Y349500D02*
Y352499D01*
X391700D01*
X392199Y351999D01*
Y350999D01*
X391700Y350500D01*
X390200D01*
X391200D02*
X392199Y349500D01*
X393199Y351999D02*
X393699Y352499D01*
X394699D01*
X395198Y351999D01*
Y351499D01*
X394699Y350999D01*
X395198Y350500D01*
Y350000D01*
X394699Y349500D01*
X393699D01*
X393199Y350000D01*
Y350500D01*
X393699Y350999D01*
X393199Y351499D01*
Y351999D01*
X393699Y350999D02*
X394699D01*
X391000Y336100D02*
Y339099D01*
X392499D01*
X392999Y338599D01*
Y337599D01*
X392499Y337100D01*
X391000D01*
X392000D02*
X392999Y336100D01*
X393999Y339099D02*
X395998D01*
Y338599D01*
X393999Y336600D01*
Y336100D01*
X398600Y366500D02*
Y369499D01*
X400100D01*
X400599Y368999D01*
Y368000D01*
X400100Y367500D01*
X398600D01*
X399600D02*
X400599Y366500D01*
X403598Y369499D02*
X402599Y368999D01*
X401599Y368000D01*
Y367000D01*
X402099Y366500D01*
X403098D01*
X403598Y367000D01*
Y367500D01*
X403098Y368000D01*
X401599D01*
X448000Y331700D02*
Y334699D01*
X449500D01*
X449999Y334199D01*
Y333200D01*
X449500Y332700D01*
X448000D01*
X449000D02*
X449999Y331700D01*
X452998Y334699D02*
X450999D01*
Y333200D01*
X451999Y333699D01*
X452498D01*
X452998Y333200D01*
Y332200D01*
X452498Y331700D01*
X451499D01*
X450999Y332200D01*
X388641Y169300D02*
Y172299D01*
X390141D01*
X390640Y171799D01*
Y170800D01*
X390141Y170300D01*
X388641D01*
X389641D02*
X390640Y169300D01*
X393140D02*
Y172299D01*
X391640Y170800D01*
X393639D01*
X388100Y155300D02*
Y158299D01*
X389599D01*
X390099Y157799D01*
Y156799D01*
X389599Y156300D01*
X388100D01*
X389100D02*
X390099Y155300D01*
X391099Y157799D02*
X391599Y158299D01*
X392599D01*
X393098Y157799D01*
Y157299D01*
X392599Y156799D01*
X392099D01*
X392599D01*
X393098Y156300D01*
Y155800D01*
X392599Y155300D01*
X391599D01*
X391099Y155800D01*
X397300Y186900D02*
Y189899D01*
X398799D01*
X399299Y189399D01*
Y188400D01*
X398799Y187900D01*
X397300D01*
X398300D02*
X399299Y186900D01*
X402298D02*
X400299D01*
X402298Y188899D01*
Y189399D01*
X401798Y189899D01*
X400799D01*
X400299Y189399D01*
X454300Y156900D02*
Y153901D01*
X452801D01*
X452301Y154401D01*
Y155401D01*
X452801Y155900D01*
X454300D01*
X453300D02*
X452301Y156900D01*
X451301D02*
X450301D01*
X450801D01*
Y153901D01*
X451301Y154401D01*
X472300Y207300D02*
Y210299D01*
X473800D01*
X474299Y209799D01*
Y208800D01*
X473800Y208300D01*
X472300D01*
X475299Y207300D02*
X476299D01*
X475799D01*
Y210299D01*
X475299Y209799D01*
X477798D02*
X478298Y210299D01*
X479298D01*
X479798Y209799D01*
Y209299D01*
X479298Y208800D01*
X478798D01*
X479298D01*
X479798Y208300D01*
Y207800D01*
X479298Y207300D01*
X478298D01*
X477798Y207800D01*
X455700Y207300D02*
Y210299D01*
X457199D01*
X457699Y209799D01*
Y208800D01*
X457199Y208300D01*
X455700D01*
X458699Y207300D02*
X459699D01*
X459199D01*
Y210299D01*
X458699Y209799D01*
X463198Y207300D02*
X461198D01*
X463198Y209299D01*
Y209799D01*
X462698Y210299D01*
X461698D01*
X461198Y209799D01*
X441000Y207300D02*
Y210299D01*
X442499D01*
X442999Y209799D01*
Y208800D01*
X442499Y208300D01*
X441000D01*
X443999Y207300D02*
X444999D01*
X444499D01*
Y210299D01*
X443999Y209799D01*
X446498Y207300D02*
X447498D01*
X446998D01*
Y210299D01*
X446498Y209799D01*
X471200Y297100D02*
Y300099D01*
X472699D01*
X473199Y299599D01*
Y298600D01*
X472699Y298100D01*
X471200D01*
X474199Y297100D02*
X475199D01*
X474699D01*
Y300099D01*
X474199Y299599D01*
X476698D02*
X477198Y300099D01*
X478198D01*
X478698Y299599D01*
Y297600D01*
X478198Y297100D01*
X477198D01*
X476698Y297600D01*
Y299599D01*
X493500Y292400D02*
Y295399D01*
X495000D01*
X495499Y294899D01*
Y293899D01*
X495000Y293400D01*
X493500D01*
X496499Y292900D02*
X496999Y292400D01*
X497999D01*
X498498Y292900D01*
Y294899D01*
X497999Y295399D01*
X496999D01*
X496499Y294899D01*
Y294399D01*
X496999Y293899D01*
X498498D01*
X507900Y292300D02*
Y295299D01*
X509400D01*
X509899Y294799D01*
Y293799D01*
X509400Y293300D01*
X507900D01*
X510899Y294799D02*
X511399Y295299D01*
X512398D01*
X512898Y294799D01*
Y294299D01*
X512398Y293799D01*
X512898Y293300D01*
Y292800D01*
X512398Y292300D01*
X511399D01*
X510899Y292800D01*
Y293300D01*
X511399Y293799D01*
X510899Y294299D01*
Y294799D01*
X511399Y293799D02*
X512398D01*
X495700Y247800D02*
Y250799D01*
X497199D01*
X497699Y250299D01*
Y249300D01*
X497199Y248800D01*
X495700D01*
X498699Y250799D02*
X500698D01*
Y250299D01*
X498699Y248300D01*
Y247800D01*
X508100D02*
Y250799D01*
X509599D01*
X510099Y250299D01*
Y249300D01*
X509599Y248800D01*
X508100D01*
X513098Y250799D02*
X512099Y250299D01*
X511099Y249300D01*
Y248300D01*
X511599Y247800D01*
X512599D01*
X513098Y248300D01*
Y248800D01*
X512599Y249300D01*
X511099D01*
X458600Y297200D02*
Y300199D01*
X460100D01*
X460599Y299699D01*
Y298699D01*
X460100Y298200D01*
X458600D01*
X463598Y300199D02*
X461599D01*
Y298699D01*
X462599Y299199D01*
X463098D01*
X463598Y298699D01*
Y297700D01*
X463098Y297200D01*
X462099D01*
X461599Y297700D01*
X447000Y297400D02*
Y300399D01*
X448499D01*
X448999Y299899D01*
Y298900D01*
X448499Y298400D01*
X447000D01*
X451499Y297400D02*
Y300399D01*
X449999Y298900D01*
X451998D01*
X470800Y389000D02*
Y391999D01*
X472299D01*
X472799Y391499D01*
Y390499D01*
X472299Y390000D01*
X470800D01*
X473799Y391499D02*
X474299Y391999D01*
X475299D01*
X475798Y391499D01*
Y390999D01*
X475299Y390499D01*
X474799D01*
X475299D01*
X475798Y390000D01*
Y389500D01*
X475299Y389000D01*
X474299D01*
X473799Y389500D01*
X458700Y389000D02*
Y391999D01*
X460199D01*
X460699Y391499D01*
Y390499D01*
X460199Y390000D01*
X458700D01*
X463698Y389000D02*
X461699D01*
X463698Y390999D01*
Y391499D01*
X463199Y391999D01*
X462199D01*
X461699Y391499D01*
X447100Y389000D02*
Y391999D01*
X448599D01*
X449099Y391499D01*
Y390499D01*
X448599Y390000D01*
X447100D01*
X450099Y389000D02*
X451099D01*
X450599D01*
Y391999D01*
X450099Y391499D01*
X330899Y257199D02*
X329900D01*
X330399D01*
Y254700D01*
X329900Y254200D01*
X329400D01*
X328900Y254700D01*
X333898Y254200D02*
X331899D01*
X333898Y256199D01*
Y256699D01*
X333399Y257199D01*
X332399D01*
X331899Y256699D01*
X415699Y282699D02*
X415200Y283199D01*
X414200D01*
X413700Y282699D01*
Y280700D01*
X414200Y280200D01*
X415200D01*
X415699Y280700D01*
X416699Y280200D02*
X417699D01*
X417199D01*
Y283199D01*
X416699Y282699D01*
X421198Y283199D02*
X419198D01*
Y281699D01*
X420198Y282199D01*
X420698D01*
X421198Y281699D01*
Y280700D01*
X420698Y280200D01*
X419698D01*
X419198Y280700D01*
X423199Y228999D02*
X422699Y229499D01*
X421700D01*
X421200Y228999D01*
Y227000D01*
X421700Y226500D01*
X422699D01*
X423199Y227000D01*
X424199Y226500D02*
X425199D01*
X424699D01*
Y229499D01*
X424199Y228999D01*
X428198Y226500D02*
Y229499D01*
X426698Y227999D01*
X428698D01*
X393999Y232999D02*
X393499Y233499D01*
X392500D01*
X392000Y232999D01*
Y231000D01*
X392500Y230500D01*
X393499D01*
X393999Y231000D01*
X394999Y230500D02*
X395999D01*
X395499D01*
Y233499D01*
X394999Y232999D01*
X397498D02*
X397998Y233499D01*
X398998D01*
X399498Y232999D01*
Y232499D01*
X398998Y231999D01*
X398498D01*
X398998D01*
X399498Y231500D01*
Y231000D01*
X398998Y230500D01*
X397998D01*
X397498Y231000D01*
X381999Y232999D02*
X381500Y233499D01*
X380500D01*
X380000Y232999D01*
Y231000D01*
X380500Y230500D01*
X381500D01*
X381999Y231000D01*
X382999Y230500D02*
X383999D01*
X383499D01*
Y233499D01*
X382999Y232999D01*
X387498Y230500D02*
X385498D01*
X387498Y232499D01*
Y232999D01*
X386998Y233499D01*
X385998D01*
X385498Y232999D01*
X385399Y280099D02*
X384899Y280599D01*
X383900D01*
X383400Y280099D01*
Y278100D01*
X383900Y277600D01*
X384899D01*
X385399Y278100D01*
X386399Y277600D02*
X387399D01*
X386899D01*
Y280599D01*
X386399Y280099D01*
X388898Y277600D02*
X389898D01*
X389398D01*
Y280599D01*
X388898Y280099D01*
X416199Y373399D02*
X415699Y373899D01*
X414700D01*
X414200Y373399D01*
Y371400D01*
X414700Y370900D01*
X415699D01*
X416199Y371400D01*
X417199Y370900D02*
X418199D01*
X417699D01*
Y373899D01*
X417199Y373399D01*
X419698D02*
X420198Y373899D01*
X421198D01*
X421698Y373399D01*
Y371400D01*
X421198Y370900D01*
X420198D01*
X419698Y371400D01*
Y373399D01*
X425299Y319299D02*
X424799Y319799D01*
X423800D01*
X423300Y319299D01*
Y317300D01*
X423800Y316800D01*
X424799D01*
X425299Y317300D01*
X426299D02*
X426799Y316800D01*
X427799D01*
X428298Y317300D01*
Y319299D01*
X427799Y319799D01*
X426799D01*
X426299Y319299D01*
Y318799D01*
X426799Y318300D01*
X428298D01*
X385199Y323099D02*
X384700Y323599D01*
X383700D01*
X383200Y323099D01*
Y321100D01*
X383700Y320600D01*
X384700D01*
X385199Y321100D01*
X386199Y323099D02*
X386699Y323599D01*
X387699D01*
X388198Y323099D01*
Y322599D01*
X387699Y322099D01*
X388198Y321600D01*
Y321100D01*
X387699Y320600D01*
X386699D01*
X386199Y321100D01*
Y321600D01*
X386699Y322099D01*
X386199Y322599D01*
Y323099D01*
X386699Y322099D02*
X387699D01*
X398299Y322999D02*
X397799Y323499D01*
X396800D01*
X396300Y322999D01*
Y321000D01*
X396800Y320500D01*
X397799D01*
X398299Y321000D01*
X399299Y323499D02*
X401298D01*
Y322999D01*
X399299Y321000D01*
Y320500D01*
X387099Y369199D02*
X386599Y369699D01*
X385600D01*
X385100Y369199D01*
Y367200D01*
X385600Y366700D01*
X386599D01*
X387099Y367200D01*
X390098Y369699D02*
X389099Y369199D01*
X388099Y368199D01*
Y367200D01*
X388599Y366700D01*
X389598D01*
X390098Y367200D01*
Y367700D01*
X389598Y368199D01*
X388099D01*
X420599Y196101D02*
X421099Y196600D01*
Y197600D01*
X420599Y198100D01*
X418600D01*
X418100Y197600D01*
Y196600D01*
X418600Y196101D01*
X421099Y193102D02*
Y195101D01*
X419599D01*
X420099Y194101D01*
Y193601D01*
X419599Y193102D01*
X418600D01*
X418100Y193601D01*
Y194601D01*
X418600Y195101D01*
X425099Y138899D02*
X424600Y139399D01*
X423600D01*
X423100Y138899D01*
Y136900D01*
X423600Y136400D01*
X424600D01*
X425099Y136900D01*
X427598Y136400D02*
Y139399D01*
X426099Y137899D01*
X428098D01*
X399501Y142501D02*
X400000Y142001D01*
X401000D01*
X401500Y142501D01*
Y144500D01*
X401000Y145000D01*
X400000D01*
X399501Y144500D01*
X398501Y142501D02*
X398001Y142001D01*
X397002D01*
X396502Y142501D01*
Y143001D01*
X397002Y143500D01*
X397501D01*
X397002D01*
X396502Y144000D01*
Y144500D01*
X397002Y145000D01*
X398001D01*
X398501Y144500D01*
X387401Y142301D02*
X387900Y141801D01*
X388900D01*
X389400Y142301D01*
Y144300D01*
X388900Y144800D01*
X387900D01*
X387401Y144300D01*
X384402Y144800D02*
X386401D01*
X384402Y142801D01*
Y142301D01*
X384901Y141801D01*
X385901D01*
X386401Y142301D01*
X387499Y189399D02*
X387000Y189899D01*
X386000D01*
X385500Y189399D01*
Y187400D01*
X386000Y186900D01*
X387000D01*
X387499Y187400D01*
X388499Y186900D02*
X389499D01*
X388999D01*
Y189899D01*
X388499Y189399D01*
D35*
X354500Y123499D02*
Y119900D01*
X356299D01*
X356899Y120500D01*
Y122899D01*
X356299Y123499D01*
X354500D01*
X359898Y119900D02*
X358699D01*
X358099Y120500D01*
Y121699D01*
X358699Y122299D01*
X359898D01*
X360498Y121699D01*
Y121100D01*
X358099D01*
X361698Y119900D02*
X363497D01*
X364097Y120500D01*
X363497Y121100D01*
X362298D01*
X361698Y121699D01*
X362298Y122299D01*
X364097D01*
X365297Y119900D02*
X366496D01*
X365896D01*
Y122299D01*
X365297D01*
X369495Y118700D02*
X370095D01*
X370695Y119300D01*
Y122299D01*
X368895D01*
X368296Y121699D01*
Y120500D01*
X368895Y119900D01*
X370695D01*
X371894D02*
Y122299D01*
X373694D01*
X374294Y121699D01*
Y119900D01*
X377293D02*
X376093D01*
X375493Y120500D01*
Y121699D01*
X376093Y122299D01*
X377293D01*
X377892Y121699D01*
Y121100D01*
X375493D01*
X381491Y123499D02*
Y119900D01*
X379692D01*
X379092Y120500D01*
Y121699D01*
X379692Y122299D01*
X381491D01*
X386290Y123499D02*
Y119900D01*
X388089D01*
X388689Y120500D01*
Y121100D01*
Y121699D01*
X388089Y122299D01*
X386290D01*
X389889D02*
Y120500D01*
X390488Y119900D01*
X392288D01*
Y119300D01*
X391688Y118700D01*
X391088D01*
X392288Y119900D02*
Y122299D01*
X397086Y123499D02*
Y119900D01*
X398886D01*
X399485Y120500D01*
Y122899D01*
X398886Y123499D01*
X397086D01*
X400685Y122299D02*
Y120500D01*
X401285Y119900D01*
X403084D01*
Y119300D01*
X402485Y118700D01*
X401885D01*
X403084Y119900D02*
Y122299D01*
X404284Y119900D02*
X405484D01*
X404884D01*
Y123499D01*
X404284D01*
X407283Y119900D02*
X408483D01*
X407883D01*
Y123499D01*
X407283D01*
X410882Y119900D02*
X412081D01*
X412681Y120500D01*
Y121699D01*
X412081Y122299D01*
X410882D01*
X410282Y121699D01*
Y120500D01*
X410882Y119900D01*
X413881D02*
Y122299D01*
X415680D01*
X416280Y121699D01*
Y119900D01*
X421078Y123499D02*
Y119900D01*
X422878D01*
X423478Y120500D01*
Y122899D01*
X422878Y123499D01*
X421078D01*
X424677Y122299D02*
Y120500D01*
X425277Y119900D01*
X427077D01*
Y122299D01*
X428276Y119900D02*
Y122299D01*
X430076D01*
X430675Y121699D01*
Y119900D01*
X432475Y122899D02*
Y122299D01*
X431875D01*
X433075D01*
X432475D01*
Y120500D01*
X433075Y119900D01*
X435474D02*
X436673D01*
X437273Y120500D01*
Y121699D01*
X436673Y122299D01*
X435474D01*
X434874Y121699D01*
Y120500D01*
X435474Y119900D01*
X438473D02*
Y122299D01*
X440272D01*
X440872Y121699D01*
Y119900D01*
X412700Y363000D02*
X413233D01*
X412967D01*
Y364599D01*
X412700Y364333D01*
X412000Y272600D02*
X412533D01*
X412267D01*
Y274200D01*
X412000Y273933D01*
X412300Y182800D02*
X412833D01*
X412567D01*
Y184399D01*
X412300Y184133D01*
M02*
