G04 Layer_Color=16711935*
%FSLAX25Y25*%
%MOIN*%
G70*
G01*
G75*
%ADD32C,0.00787*%
%ADD34C,0.00500*%
%ADD48C,0.00394*%
D32*
X408701Y272754D02*
X407913D01*
X408701D01*
X409301Y362854D02*
X408513D01*
X409301D01*
X408701Y182954D02*
X407913D01*
X408701D01*
X331194Y233556D02*
X330406D01*
X331194D01*
X481994Y161144D02*
X481206D01*
X481994D01*
Y206044D02*
X481206D01*
X481994D01*
X481894Y296244D02*
X481106D01*
X481894D01*
X482094Y251044D02*
X481306D01*
X482094D01*
X481994Y341644D02*
X481206D01*
X481994D01*
Y386744D02*
X481206D01*
X481994D01*
D34*
X416339Y273994D02*
X433661D01*
X416339Y235806D02*
X433661D01*
X416339D02*
Y273994D01*
X433661Y235806D02*
Y273994D01*
X416939Y364094D02*
X434261D01*
X416939Y325905D02*
X434261D01*
X416939D02*
Y364094D01*
X434261Y325905D02*
Y364094D01*
X416339Y184195D02*
X433661D01*
X416339Y146005D02*
X433661D01*
X416339D02*
Y184195D01*
X433661Y146005D02*
Y184195D01*
X386601Y256479D02*
Y266321D01*
X399199Y256479D02*
Y266321D01*
X386601D02*
X399199D01*
X386601Y256479D02*
X399199D01*
X386701Y243879D02*
Y253721D01*
X399299Y243879D02*
Y253721D01*
X386701D02*
X399299D01*
X386701Y243879D02*
X399299D01*
X405133Y273401D02*
Y285999D01*
X394267Y273401D02*
Y285999D01*
X405133D01*
X394267Y273401D02*
X405133D01*
X455133Y236801D02*
Y249399D01*
X444267Y236801D02*
Y249399D01*
X455133D01*
X444267Y236801D02*
X455133D01*
X386809Y346579D02*
Y356421D01*
X399408Y346579D02*
Y356421D01*
X386809D02*
X399408D01*
X386809Y346579D02*
X399408D01*
X386910Y333779D02*
Y343621D01*
X399508Y333779D02*
Y343621D01*
X386910D02*
X399508D01*
X386910Y333779D02*
X399508D01*
X405333Y361501D02*
Y374099D01*
X394467Y361501D02*
Y374099D01*
X405333D01*
X394467Y361501D02*
X405333D01*
X455233Y327101D02*
Y339699D01*
X444367Y327101D02*
Y339699D01*
X455233D01*
X444367Y327101D02*
X455233D01*
X379905Y165985D02*
X400377D01*
X379905Y176615D02*
X400377D01*
Y165985D02*
Y176615D01*
X379905Y165985D02*
Y176615D01*
X379764Y152085D02*
X400236D01*
X379764Y162715D02*
X400236D01*
Y152085D02*
Y162715D01*
X379764Y152085D02*
Y162715D01*
X404433Y182601D02*
Y195199D01*
X393567Y182601D02*
Y195199D01*
X404433D01*
X393567Y182601D02*
X404433D01*
X453733Y146901D02*
Y159499D01*
X442867Y146901D02*
Y159499D01*
X453733D01*
X442867Y146901D02*
X453733D01*
X313084Y275485D02*
X348517D01*
Y236115D02*
Y275485D01*
X313084Y236115D02*
X348517D01*
X313084D02*
Y275485D01*
X463883Y119215D02*
X499317D01*
Y158585D01*
X463883D02*
X499317D01*
X463883Y119215D02*
Y158585D01*
Y164115D02*
X499317D01*
Y203485D01*
X463883D02*
X499317D01*
X463883Y164115D02*
Y203485D01*
X463784Y254315D02*
X499217D01*
Y293685D01*
X463784D02*
X499217D01*
X463784Y254315D02*
Y293685D01*
X463983Y209115D02*
X499416D01*
Y248485D01*
X463983D02*
X499416D01*
X463983Y209115D02*
Y248485D01*
X463883Y299715D02*
X499317D01*
Y339085D01*
X463883D02*
X499317D01*
X463883Y299715D02*
Y339085D01*
Y344815D02*
X499317D01*
Y384185D01*
X463883D02*
X499317D01*
X463883Y344815D02*
Y384185D01*
D48*
X411007Y276585D02*
X424393D01*
X411007Y287215D02*
X424393D01*
Y276585D02*
Y287215D01*
X411007Y276585D02*
Y287215D01*
X418607Y222685D02*
X431993D01*
X418607Y233315D02*
X431993D01*
Y222685D02*
Y233315D01*
X418607Y222685D02*
Y233315D01*
X390685Y225307D02*
Y238693D01*
X401315Y225307D02*
Y238693D01*
X390685Y225307D02*
X401315D01*
X390685Y238693D02*
X401315D01*
X389515Y225307D02*
Y238693D01*
X378885Y225307D02*
Y238693D01*
X389515D01*
X378885Y225307D02*
X389515D01*
X380985Y272607D02*
Y285993D01*
X391615Y272607D02*
Y285993D01*
X380985Y272607D02*
X391615D01*
X380985Y285993D02*
X391615D01*
X411807Y366685D02*
X425193D01*
X411807Y377315D02*
X425193D01*
Y366685D02*
Y377315D01*
X411807Y366685D02*
Y377315D01*
X418607Y313085D02*
X431993D01*
X418607Y323715D02*
X431993D01*
Y313085D02*
Y323715D01*
X418607Y313085D02*
Y323715D01*
X379585Y315407D02*
Y328793D01*
X390215Y315407D02*
Y328793D01*
X379585Y315407D02*
X390215D01*
X379585Y328793D02*
X390215D01*
X402415Y315407D02*
Y328793D01*
X391785Y315407D02*
Y328793D01*
X402415D01*
X391785Y315407D02*
X402415D01*
X381285Y360907D02*
Y374293D01*
X391915Y360907D02*
Y374293D01*
X381285Y360907D02*
X391915D01*
X381285Y374293D02*
X391915D01*
X411107Y186885D02*
X424493D01*
X411107Y197515D02*
X424493D01*
Y186885D02*
Y197515D01*
X411107Y186885D02*
Y197515D01*
X418107Y132685D02*
X431493D01*
X418107Y143315D02*
X431493D01*
Y132685D02*
Y143315D01*
X418107Y132685D02*
Y143315D01*
X387885Y134807D02*
Y148193D01*
X398515Y134807D02*
Y148193D01*
X387885Y134807D02*
X398515D01*
X387885Y148193D02*
X398515D01*
X386415Y134807D02*
Y148193D01*
X375785Y134807D02*
Y148193D01*
X386415D01*
X375785Y134807D02*
X386415D01*
X380485Y181607D02*
Y194993D01*
X391115Y181607D02*
Y194993D01*
X380485Y181607D02*
X391115D01*
X380485Y194993D02*
X391115D01*
M02*
