G04 Layer_Color=2752767*
%FSLAX25Y25*%
%MOIN*%
G70*
G01*
G75*
%ADD34C,0.00500*%
%ADD50C,0.00667*%
D34*
X423000Y252900D02*
Y256900D01*
X427000D01*
Y252900D01*
X423000D01*
Y258018D02*
Y262018D01*
X427000D01*
Y258018D01*
X423000D01*
Y263136D02*
Y267136D01*
X427000D01*
Y263136D01*
X423000D01*
Y268254D02*
Y272254D01*
X427000D01*
Y268254D01*
X423000D01*
Y247782D02*
Y251782D01*
X427000D01*
Y247782D01*
X423000D01*
Y242664D02*
Y246664D01*
X427000D01*
Y242664D01*
X423000D01*
Y237546D02*
Y241546D01*
X427000D01*
Y237546D01*
X423000D01*
X417882Y268254D02*
Y272254D01*
X421882D01*
Y268254D01*
X417882D01*
X428118D02*
Y272254D01*
X432118D01*
Y268254D01*
X428118D01*
X417882Y263136D02*
Y267136D01*
X421882D01*
Y263136D01*
X417882D01*
X428118D02*
Y267136D01*
X432118D01*
Y263136D01*
X428118D01*
Y258018D02*
Y262018D01*
X432118D01*
Y258018D01*
X428118D01*
X417882D02*
Y262018D01*
X421882D01*
Y258018D01*
X417882D01*
Y252900D02*
Y256900D01*
X421882D01*
Y252900D01*
X417882D01*
X428118D02*
Y256900D01*
X432118D01*
Y252900D01*
X428118D01*
X417882Y247782D02*
Y251782D01*
X421882D01*
Y247782D01*
X417882D01*
X428118D02*
Y251782D01*
X432118D01*
Y247782D01*
X428118D01*
X417882Y242664D02*
Y246664D01*
X421882D01*
Y242664D01*
X417882D01*
X428118D02*
Y246664D01*
X432118D01*
Y242664D01*
X428118D01*
X417882Y237546D02*
Y241546D01*
X421882D01*
Y237546D01*
X417882D01*
X428118D02*
Y241546D01*
X432118D01*
Y237546D01*
X428118D01*
X423600Y343000D02*
Y347000D01*
X427600D01*
Y343000D01*
X423600D01*
Y348118D02*
Y352118D01*
X427600D01*
Y348118D01*
X423600D01*
Y353236D02*
Y357236D01*
X427600D01*
Y353236D01*
X423600D01*
Y358354D02*
Y362354D01*
X427600D01*
Y358354D01*
X423600D01*
Y337882D02*
Y341882D01*
X427600D01*
Y337882D01*
X423600D01*
Y332764D02*
Y336764D01*
X427600D01*
Y332764D01*
X423600D01*
Y327646D02*
Y331646D01*
X427600D01*
Y327646D01*
X423600D01*
X418482Y358354D02*
Y362354D01*
X422482D01*
Y358354D01*
X418482D01*
X428718D02*
Y362354D01*
X432718D01*
Y358354D01*
X428718D01*
X418482Y353236D02*
Y357236D01*
X422482D01*
Y353236D01*
X418482D01*
X428718D02*
Y357236D01*
X432718D01*
Y353236D01*
X428718D01*
Y348118D02*
Y352118D01*
X432718D01*
Y348118D01*
X428718D01*
X418482D02*
Y352118D01*
X422482D01*
Y348118D01*
X418482D01*
Y343000D02*
Y347000D01*
X422482D01*
Y343000D01*
X418482D01*
X428718D02*
Y347000D01*
X432718D01*
Y343000D01*
X428718D01*
X418482Y337882D02*
Y341882D01*
X422482D01*
Y337882D01*
X418482D01*
X428718D02*
Y341882D01*
X432718D01*
Y337882D01*
X428718D01*
X418482Y332764D02*
Y336764D01*
X422482D01*
Y332764D01*
X418482D01*
X428718D02*
Y336764D01*
X432718D01*
Y332764D01*
X428718D01*
X418482Y327646D02*
Y331646D01*
X422482D01*
Y327646D01*
X418482D01*
X428718D02*
Y331646D01*
X432718D01*
Y327646D01*
X428718D01*
X423000Y163100D02*
Y167100D01*
X427000D01*
Y163100D01*
X423000D01*
Y168218D02*
Y172218D01*
X427000D01*
Y168218D01*
X423000D01*
Y173336D02*
Y177336D01*
X427000D01*
Y173336D01*
X423000D01*
Y178454D02*
Y182454D01*
X427000D01*
Y178454D01*
X423000D01*
Y157982D02*
Y161982D01*
X427000D01*
Y157982D01*
X423000D01*
Y152864D02*
Y156864D01*
X427000D01*
Y152864D01*
X423000D01*
Y147746D02*
Y151746D01*
X427000D01*
Y147746D01*
X423000D01*
X417882Y178454D02*
Y182454D01*
X421882D01*
Y178454D01*
X417882D01*
X428118D02*
Y182454D01*
X432118D01*
Y178454D01*
X428118D01*
X417882Y173336D02*
Y177336D01*
X421882D01*
Y173336D01*
X417882D01*
X428118D02*
Y177336D01*
X432118D01*
Y173336D01*
X428118D01*
Y168218D02*
Y172218D01*
X432118D01*
Y168218D01*
X428118D01*
X417882D02*
Y172218D01*
X421882D01*
Y168218D01*
X417882D01*
Y163100D02*
Y167100D01*
X421882D01*
Y163100D01*
X417882D01*
X428118D02*
Y167100D01*
X432118D01*
Y163100D01*
X428118D01*
X417882Y157982D02*
Y161982D01*
X421882D01*
Y157982D01*
X417882D01*
X428118D02*
Y161982D01*
X432118D01*
Y157982D01*
X428118D01*
X417882Y152864D02*
Y156864D01*
X421882D01*
Y152864D01*
X417882D01*
X428118D02*
Y156864D01*
X432118D01*
Y152864D01*
X428118D01*
X417882Y147746D02*
Y151746D01*
X421882D01*
Y147746D01*
X417882D01*
X428118D02*
Y151746D01*
X432118D01*
Y147746D01*
X428118D01*
X330800Y243957D02*
X328800Y247957D01*
X332800D01*
X330800Y243957D01*
Y263643D02*
X328800Y267642D01*
X332800D01*
X330800Y263643D01*
X449100Y124500D02*
X450100Y125500D01*
X451100D01*
X450100Y126500D01*
X451100Y127500D01*
X450100D01*
X449100Y128500D01*
X448100Y127500D01*
X447100D01*
X448100Y126500D01*
X447100Y125500D01*
X448100D01*
X449100Y124500D01*
X362700Y384300D02*
X363700Y385300D01*
X364700D01*
X363700Y386300D01*
X364700Y387300D01*
X363700D01*
X362700Y388300D01*
X361700Y387300D01*
X360700D01*
X361700Y386300D01*
X360700Y385300D01*
X361700D01*
X362700Y384300D01*
X481600Y146742D02*
X479600Y150742D01*
X483600D01*
X481600Y146742D01*
Y127058D02*
X479600Y131058D01*
X483600D01*
X481600Y127058D01*
Y191642D02*
X479600Y195642D01*
X483600D01*
X481600Y191642D01*
Y171958D02*
X479600Y175958D01*
X483600D01*
X481600Y171958D01*
X481500Y281842D02*
X479500Y285842D01*
X483500D01*
X481500Y281842D01*
Y262158D02*
X479500Y266158D01*
X483500D01*
X481500Y262158D01*
X481700Y236643D02*
X479700Y240642D01*
X483700D01*
X481700Y236643D01*
Y216957D02*
X479700Y220957D01*
X483700D01*
X481700Y216957D01*
X481600Y327242D02*
X479600Y331242D01*
X483600D01*
X481600Y327242D01*
Y307558D02*
X479600Y311558D01*
X483600D01*
X481600Y307558D01*
Y372342D02*
X479600Y376343D01*
X483600D01*
X481600Y372342D01*
Y352658D02*
X479600Y356658D01*
X483600D01*
X481600Y352658D01*
X438761Y166939D02*
X439761Y168939D01*
X438761Y170939D01*
X440761Y169939D01*
X442761Y170939D01*
X441761Y168939D01*
X442761Y166939D01*
X440761Y167939D01*
X438761Y166939D01*
X438779Y164380D02*
X439780Y166379D01*
X438779Y168379D01*
X440779Y167379D01*
X442779Y168379D01*
X441780Y166379D01*
X442779Y164380D01*
X440779Y165380D01*
X438779Y164380D01*
Y161820D02*
X439780Y163821D01*
X438779Y165821D01*
X440779Y164821D01*
X442779Y165821D01*
X441780Y163821D01*
X442779Y161820D01*
X440779Y162820D01*
X438779Y161820D01*
X438739Y159261D02*
X439739Y161261D01*
X438739Y163261D01*
X440739Y162261D01*
X442739Y163261D01*
X441739Y161261D01*
X442739Y159261D01*
X440739Y160261D01*
X438739Y159261D01*
X438702Y156702D02*
X439702Y158702D01*
X438702Y160702D01*
X440702Y159702D01*
X442702Y160702D01*
X441702Y158702D01*
X442702Y156702D01*
X440702Y157702D01*
X438702Y156702D01*
X438743Y154143D02*
X439743Y156143D01*
X438743Y158143D01*
X440743Y157143D01*
X442743Y158143D01*
X441743Y156143D01*
X442743Y154143D01*
X440743Y155143D01*
X438743Y154143D01*
X405700Y139700D02*
X406700Y141700D01*
X405700Y143700D01*
X407700Y142700D01*
X409700Y143700D01*
X408700Y141700D01*
X409700Y139700D01*
X407700Y140700D01*
X405700Y139700D01*
X435400D02*
X436400Y141700D01*
X435400Y143700D01*
X437400Y142700D01*
X439400Y143700D01*
X438400Y141700D01*
X439400Y139700D01*
X437400Y140700D01*
X435400Y139700D01*
X367500Y162400D02*
X368500Y164400D01*
X367500Y166400D01*
X369500Y165400D01*
X371500Y166400D01*
X370500Y164400D01*
X371500Y162400D01*
X369500Y163400D01*
X367500Y162400D01*
X438939Y256739D02*
X439939Y258739D01*
X438939Y260739D01*
X440939Y259739D01*
X442939Y260739D01*
X441939Y258739D01*
X442939Y256739D01*
X440939Y257739D01*
X438939Y256739D01*
X438979Y254180D02*
X439980Y256179D01*
X438979Y258179D01*
X440979Y257179D01*
X442979Y258179D01*
X441980Y256179D01*
X442979Y254180D01*
X440979Y255180D01*
X438979Y254180D01*
X438920Y251621D02*
X439921Y253621D01*
X438920Y255621D01*
X440920Y254621D01*
X442920Y255621D01*
X441921Y253621D01*
X442920Y251621D01*
X440920Y252621D01*
X438920Y251621D01*
X438861Y249061D02*
X439861Y251061D01*
X438861Y253061D01*
X440861Y252061D01*
X442861Y253061D01*
X441861Y251061D01*
X442861Y249061D01*
X440861Y250061D01*
X438861Y249061D01*
X438798Y246502D02*
X439798Y248502D01*
X438798Y250502D01*
X440798Y249502D01*
X442798Y250502D01*
X441798Y248502D01*
X442798Y246502D01*
X440798Y247502D01*
X438798Y246502D01*
X438843Y243943D02*
X439843Y245943D01*
X438843Y247943D01*
X440843Y246943D01*
X442843Y247943D01*
X441843Y245943D01*
X442843Y243943D01*
X440843Y244943D01*
X438843Y243943D01*
X406100Y230100D02*
X407100Y232100D01*
X406100Y234100D01*
X408100Y233100D01*
X410100Y234100D01*
X409100Y232100D01*
X410100Y230100D01*
X408100Y231100D01*
X406100Y230100D01*
X434000Y228100D02*
X435000Y230100D01*
X434000Y232100D01*
X436000Y231100D01*
X438000Y232100D01*
X437000Y230100D01*
X438000Y228100D01*
X436000Y229100D01*
X434000Y228100D01*
X406820Y254180D02*
X407821Y256179D01*
X406820Y258179D01*
X408820Y257179D01*
X410820Y258179D01*
X409821Y256179D01*
X410820Y254180D01*
X408820Y255180D01*
X406820Y254180D01*
X370300Y252600D02*
X371300Y254600D01*
X370300Y256600D01*
X372300Y255600D01*
X374300Y256600D01*
X373300Y254600D01*
X374300Y252600D01*
X372300Y253600D01*
X370300Y252600D01*
X356800Y162300D02*
X357800Y164300D01*
X356800Y166300D01*
X358800Y165300D01*
X360800Y166300D01*
X359800Y164300D01*
X360800Y162300D01*
X358800Y163300D01*
X356800Y162300D01*
X361400Y252500D02*
X362400Y254500D01*
X361400Y256500D01*
X363400Y255500D01*
X365400Y256500D01*
X364400Y254500D01*
X365400Y252500D01*
X363400Y253500D01*
X361400Y252500D01*
X439439Y346839D02*
X440439Y348839D01*
X439439Y350839D01*
X441439Y349839D01*
X443439Y350839D01*
X442439Y348839D01*
X443439Y346839D01*
X441439Y347839D01*
X439439Y346839D01*
X439380Y344280D02*
X440379Y346280D01*
X439380Y348280D01*
X441379Y347280D01*
X443379Y348280D01*
X442380Y346280D01*
X443379Y344280D01*
X441379Y345280D01*
X439380Y344280D01*
X439280Y341721D02*
X440279Y343721D01*
X439280Y345721D01*
X441280Y344721D01*
X443280Y345721D01*
X442279Y343721D01*
X443280Y341721D01*
X441280Y342721D01*
X439280Y341721D01*
X439261Y339161D02*
X440261Y341161D01*
X439261Y343161D01*
X441261Y342161D01*
X443261Y343161D01*
X442261Y341161D01*
X443261Y339161D01*
X441261Y340161D01*
X439261Y339161D01*
X439298Y336602D02*
X440298Y338602D01*
X439298Y340602D01*
X441298Y339602D01*
X443298Y340602D01*
X442298Y338602D01*
X443298Y336602D01*
X441298Y337602D01*
X439298Y336602D01*
X439343Y334043D02*
X440343Y336043D01*
X439343Y338043D01*
X441343Y337043D01*
X443343Y338043D01*
X442343Y336043D01*
X443343Y334043D01*
X441343Y335043D01*
X439343Y334043D01*
X407700Y319500D02*
X408700Y321500D01*
X407700Y323500D01*
X409700Y322500D01*
X411700Y323500D01*
X410700Y321500D01*
X411700Y319500D01*
X409700Y320500D01*
X407700Y319500D01*
X434500D02*
X435500Y321500D01*
X434500Y323500D01*
X436500Y322500D01*
X438500Y323500D01*
X437500Y321500D01*
X438500Y319500D01*
X436500Y320500D01*
X434500Y319500D01*
X371200Y342600D02*
X372200Y344600D01*
X371200Y346600D01*
X373200Y345600D01*
X375200Y346600D01*
X374200Y344600D01*
X375200Y342600D01*
X373200Y343600D01*
X371200Y342600D01*
X360500D02*
X361500Y344600D01*
X360500Y346600D01*
X362500Y345600D01*
X364500Y346600D01*
X363500Y344600D01*
X364500Y342600D01*
X362500Y343600D01*
X360500Y342600D01*
X407802Y349398D02*
X408802Y351398D01*
X407802Y353398D01*
X409802Y352398D01*
X411802Y353398D01*
X410802Y351398D01*
X411802Y349398D01*
X409802Y350398D01*
X407802Y349398D01*
X407780Y344280D02*
X408779Y346280D01*
X407780Y348280D01*
X409780Y347280D01*
X411779Y348280D01*
X410779Y346280D01*
X411779Y344280D01*
X409780Y345280D01*
X407780Y344280D01*
X407802Y336602D02*
X408802Y338602D01*
X407802Y340602D01*
X409802Y339602D01*
X411802Y340602D01*
X410802Y338602D01*
X411802Y336602D01*
X409802Y337602D01*
X407802Y336602D01*
X407320Y341721D02*
X408321Y343721D01*
X407320Y345721D01*
X409320Y344721D01*
X411320Y345721D01*
X410321Y343721D01*
X411320Y341721D01*
X409320Y342721D01*
X407320Y341721D01*
X376100Y256200D02*
X377100Y258200D01*
X376100Y260200D01*
X378100Y259200D01*
X380100Y260200D01*
X379100Y258200D01*
X380100Y256200D01*
X378100Y257200D01*
X376100Y256200D01*
X379400D02*
X380400Y258200D01*
X379400Y260200D01*
X381400Y259200D01*
X383400Y260200D01*
X382400Y258200D01*
X383400Y256200D01*
X381400Y257200D01*
X379400Y256200D01*
Y253600D02*
X380400Y255600D01*
X379400Y257600D01*
X381400Y256600D01*
X383400Y257600D01*
X382400Y255600D01*
X383400Y253600D01*
X381400Y254600D01*
X379400Y253600D01*
X376100D02*
X377100Y255600D01*
X376100Y257600D01*
X378100Y256600D01*
X380100Y257600D01*
X379100Y255600D01*
X380100Y253600D01*
X378100Y254600D01*
X376100Y253600D01*
X379400Y251100D02*
X380400Y253100D01*
X379400Y255100D01*
X381400Y254100D01*
X383400Y255100D01*
X382400Y253100D01*
X383400Y251100D01*
X381400Y252100D01*
X379400Y251100D01*
X376100D02*
X377100Y253100D01*
X376100Y255100D01*
X378100Y254100D01*
X380100Y255100D01*
X379100Y253100D01*
X380100Y251100D01*
X378100Y252100D01*
X376100Y251100D01*
X379500Y248500D02*
X380500Y250500D01*
X379500Y252500D01*
X381500Y251500D01*
X383500Y252500D01*
X382500Y250500D01*
X383500Y248500D01*
X381500Y249500D01*
X379500Y248500D01*
X376200D02*
X377200Y250500D01*
X376200Y252500D01*
X378200Y251500D01*
X380200Y252500D01*
X379200Y250500D01*
X380200Y248500D01*
X378200Y249500D01*
X376200Y248500D01*
X379800Y346500D02*
X380800Y348500D01*
X379800Y350500D01*
X381800Y349500D01*
X383800Y350500D01*
X382800Y348500D01*
X383800Y346500D01*
X381800Y347500D01*
X379800Y346500D01*
X379900Y344000D02*
X380900Y346000D01*
X379900Y348000D01*
X381900Y347000D01*
X383900Y348000D01*
X382900Y346000D01*
X383900Y344000D01*
X381900Y345000D01*
X379900Y344000D01*
X380000Y341500D02*
X381000Y343500D01*
X380000Y345500D01*
X382000Y344500D01*
X384000Y345500D01*
X383000Y343500D01*
X384000Y341500D01*
X382000Y342500D01*
X380000Y341500D01*
Y338900D02*
X381000Y340900D01*
X380000Y342900D01*
X382000Y341900D01*
X384000Y342900D01*
X383000Y340900D01*
X384000Y338900D01*
X382000Y339900D01*
X380000Y338900D01*
X376400Y346500D02*
X377400Y348500D01*
X376400Y350500D01*
X378400Y349500D01*
X380400Y350500D01*
X379400Y348500D01*
X380400Y346500D01*
X378400Y347500D01*
X376400Y346500D01*
Y344000D02*
X377400Y346000D01*
X376400Y348000D01*
X378400Y347000D01*
X380400Y348000D01*
X379400Y346000D01*
X380400Y344000D01*
X378400Y345000D01*
X376400Y344000D01*
X376300Y341500D02*
X377300Y343500D01*
X376300Y345500D01*
X378300Y344500D01*
X380300Y345500D01*
X379300Y343500D01*
X380300Y341500D01*
X378300Y342500D01*
X376300Y341500D01*
Y338900D02*
X377300Y340900D01*
X376300Y342900D01*
X378300Y341900D01*
X380300Y342900D01*
X379300Y340900D01*
X380300Y338900D01*
X378300Y339900D01*
X376300Y338900D01*
X374500Y165900D02*
X375500Y167900D01*
X374500Y169900D01*
X376500Y168900D01*
X378500Y169900D01*
X377500Y167900D01*
X378500Y165900D01*
X376500Y166900D01*
X374500Y165900D01*
Y163500D02*
X375500Y165500D01*
X374500Y167500D01*
X376500Y166500D01*
X378500Y167500D01*
X377500Y165500D01*
X378500Y163500D01*
X376500Y164500D01*
X374500Y163500D01*
Y161100D02*
X375500Y163100D01*
X374500Y165100D01*
X376500Y164100D01*
X378500Y165100D01*
X377500Y163100D01*
X378500Y161100D01*
X376500Y162100D01*
X374500Y161100D01*
Y158700D02*
X375500Y160700D01*
X374500Y162700D01*
X376500Y161700D01*
X378500Y162700D01*
X377500Y160700D01*
X378500Y158700D01*
X376500Y159700D01*
X374500Y158700D01*
X371000Y165900D02*
X372000Y167900D01*
X371000Y169900D01*
X373000Y168900D01*
X375000Y169900D01*
X374000Y167900D01*
X375000Y165900D01*
X373000Y166900D01*
X371000Y165900D01*
Y163500D02*
X372000Y165500D01*
X371000Y167500D01*
X373000Y166500D01*
X375000Y167500D01*
X374000Y165500D01*
X375000Y163500D01*
X373000Y164500D01*
X371000Y163500D01*
Y161200D02*
X372000Y163200D01*
X371000Y165200D01*
X373000Y164200D01*
X375000Y165200D01*
X374000Y163200D01*
X375000Y161200D01*
X373000Y162200D01*
X371000Y161200D01*
Y158800D02*
X372000Y160800D01*
X371000Y162800D01*
X373000Y161800D01*
X375000Y162800D01*
X374000Y160800D01*
X375000Y158800D01*
X373000Y159800D01*
X371000Y158800D01*
X404902Y169498D02*
X405902Y171498D01*
X404902Y173498D01*
X406902Y172498D01*
X408902Y173498D01*
X407902Y171498D01*
X408902Y169498D01*
X406902Y170498D01*
X404902Y169498D01*
X404820Y164380D02*
X405821Y166379D01*
X404820Y168379D01*
X406820Y167379D01*
X408820Y168379D01*
X407821Y166379D01*
X408820Y164380D01*
X406820Y165380D01*
X404820Y164380D01*
Y161820D02*
X405821Y163821D01*
X404820Y165821D01*
X406820Y164821D01*
X408820Y165821D01*
X407821Y163821D01*
X408820Y161820D01*
X406820Y162820D01*
X404820Y161820D01*
X405602Y349398D02*
X406602Y351398D01*
X405602Y353398D01*
X407602Y352398D01*
X409602Y353398D01*
X408602Y351398D01*
X409602Y349398D01*
X407602Y350398D01*
X405602Y349398D01*
X405721Y344280D02*
X406720Y346280D01*
X405721Y348280D01*
X407721Y347280D01*
X409721Y348280D01*
X408720Y346280D01*
X409721Y344280D01*
X407721Y345280D01*
X405721Y344280D01*
X404802Y336602D02*
X405802Y338602D01*
X404802Y340602D01*
X406802Y339602D01*
X408802Y340602D01*
X407802Y338602D01*
X408802Y336602D01*
X406802Y337602D01*
X404802Y336602D01*
X404779Y341721D02*
X405780Y343721D01*
X404779Y345721D01*
X406779Y344721D01*
X408779Y345721D01*
X407780Y343721D01*
X408779Y341721D01*
X406779Y342721D01*
X404779Y341721D01*
X405000Y156750D02*
X406000Y158750D01*
X405000Y160750D01*
X407000Y159750D01*
X409000Y160750D01*
X408000Y158750D01*
X409000Y156750D01*
X407000Y157750D01*
X405000Y156750D01*
X407300Y156702D02*
X408300Y158702D01*
X407300Y160702D01*
X409300Y159702D01*
X411300Y160702D01*
X410300Y158702D01*
X411300Y156702D01*
X409300Y157702D01*
X407300Y156702D01*
X406920Y251621D02*
X407921Y253621D01*
X406920Y255621D01*
X408920Y254621D01*
X410920Y255621D01*
X409921Y253621D01*
X410920Y251621D01*
X408920Y252621D01*
X406920Y251621D01*
X405080D02*
X406079Y253621D01*
X405080Y255621D01*
X407080Y254621D01*
X409080Y255621D01*
X408079Y253621D01*
X409080Y251621D01*
X407080Y252621D01*
X405080Y251621D01*
X404920Y254180D02*
X405921Y256179D01*
X404920Y258179D01*
X406920Y257179D01*
X408920Y258179D01*
X407921Y256179D01*
X408920Y254180D01*
X406920Y255180D01*
X404920Y254180D01*
X406802Y259298D02*
X407802Y261298D01*
X406802Y263298D01*
X408802Y262298D01*
X410802Y263298D01*
X409802Y261298D01*
X410802Y259298D01*
X408802Y260298D01*
X406802Y259298D01*
X404998D02*
X405998Y261298D01*
X404998Y263298D01*
X406998Y262298D01*
X408998Y263298D01*
X407998Y261298D01*
X408998Y259298D01*
X406998Y260298D01*
X404998Y259298D01*
X406998Y246502D02*
X407998Y248502D01*
X406998Y250502D01*
X408998Y249502D01*
X410998Y250502D01*
X409998Y248502D01*
X410998Y246502D01*
X408998Y247502D01*
X406998Y246502D01*
X407400Y169600D02*
X408400Y171600D01*
X407400Y173600D01*
X409400Y172600D01*
X411400Y173600D01*
X410400Y171600D01*
X411400Y169600D01*
X409400Y170600D01*
X407400Y169600D01*
X407500Y164300D02*
X408500Y166300D01*
X407500Y168300D01*
X409500Y167300D01*
X411500Y168300D01*
X410500Y166300D01*
X411500Y164300D01*
X409500Y165300D01*
X407500Y164300D01*
X406779Y161820D02*
X407780Y163821D01*
X406779Y165821D01*
X408779Y164821D01*
X410779Y165821D01*
X409780Y163821D01*
X410779Y161820D01*
X408779Y162820D01*
X406779Y161820D01*
X404500Y246500D02*
X405500Y248500D01*
X404500Y250500D01*
X406500Y249500D01*
X408500Y250500D01*
X407500Y248500D01*
X408500Y246500D01*
X406500Y247500D01*
X404500Y246500D01*
D50*
X473200Y199100D02*
X472971Y200029D01*
X472336Y200746D01*
X471441Y201085D01*
X470491Y200970D01*
X469703Y200426D01*
X469258Y199579D01*
Y198621D01*
X469703Y197774D01*
X470491Y197230D01*
X471441Y197115D01*
X472336Y197454D01*
X472971Y198171D01*
X473200Y199100D01*
Y189100D02*
X472971Y190029D01*
X472336Y190746D01*
X471441Y191085D01*
X470491Y190970D01*
X469703Y190426D01*
X469258Y189579D01*
Y188621D01*
X469703Y187774D01*
X470491Y187230D01*
X471441Y187115D01*
X472336Y187454D01*
X472971Y188171D01*
X473200Y189100D01*
Y179100D02*
X472971Y180029D01*
X472336Y180746D01*
X471441Y181085D01*
X470491Y180970D01*
X469703Y180426D01*
X469258Y179579D01*
Y178621D01*
X469703Y177774D01*
X470491Y177230D01*
X471441Y177115D01*
X472336Y177454D01*
X472971Y178171D01*
X473200Y179100D01*
Y169100D02*
X472971Y170029D01*
X472336Y170746D01*
X471441Y171085D01*
X470491Y170970D01*
X469703Y170426D01*
X469258Y169579D01*
Y168621D01*
X469703Y167774D01*
X470491Y167230D01*
X471441Y167115D01*
X472336Y167454D01*
X472971Y168171D01*
X473200Y169100D01*
X461300Y199100D02*
X461071Y200029D01*
X460436Y200746D01*
X459541Y201085D01*
X458591Y200970D01*
X457803Y200426D01*
X457358Y199579D01*
Y198621D01*
X457803Y197774D01*
X458591Y197230D01*
X459541Y197115D01*
X460436Y197454D01*
X461071Y198171D01*
X461300Y199100D01*
Y189100D02*
X461071Y190029D01*
X460436Y190746D01*
X459541Y191085D01*
X458591Y190970D01*
X457803Y190426D01*
X457358Y189579D01*
Y188621D01*
X457803Y187774D01*
X458591Y187230D01*
X459541Y187115D01*
X460436Y187454D01*
X461071Y188171D01*
X461300Y189100D01*
Y179100D02*
X461071Y180029D01*
X460436Y180746D01*
X459541Y181085D01*
X458591Y180970D01*
X457803Y180426D01*
X457358Y179579D01*
Y178621D01*
X457803Y177774D01*
X458591Y177230D01*
X459541Y177115D01*
X460436Y177454D01*
X461071Y178171D01*
X461300Y179100D01*
Y169100D02*
X461071Y170029D01*
X460436Y170746D01*
X459541Y171085D01*
X458591Y170970D01*
X457803Y170426D01*
X457358Y169579D01*
Y168621D01*
X457803Y167774D01*
X458591Y167230D01*
X459541Y167115D01*
X460436Y167454D01*
X461071Y168171D01*
X461300Y169100D01*
X449500Y199100D02*
X449271Y200029D01*
X448636Y200746D01*
X447741Y201085D01*
X446791Y200970D01*
X446003Y200426D01*
X445558Y199579D01*
Y198621D01*
X446003Y197774D01*
X446791Y197230D01*
X447741Y197115D01*
X448636Y197454D01*
X449271Y198171D01*
X449500Y199100D01*
Y189100D02*
X449271Y190029D01*
X448636Y190746D01*
X447741Y191085D01*
X446791Y190970D01*
X446003Y190426D01*
X445558Y189579D01*
Y188621D01*
X446003Y187774D01*
X446791Y187230D01*
X447741Y187115D01*
X448636Y187454D01*
X449271Y188171D01*
X449500Y189100D01*
Y179100D02*
X449271Y180029D01*
X448636Y180746D01*
X447741Y181085D01*
X446791Y180970D01*
X446003Y180426D01*
X445558Y179579D01*
Y178621D01*
X446003Y177774D01*
X446791Y177230D01*
X447741Y177115D01*
X448636Y177454D01*
X449271Y178171D01*
X449500Y179100D01*
Y169100D02*
X449271Y170029D01*
X448636Y170746D01*
X447741Y171085D01*
X446791Y170970D01*
X446003Y170426D01*
X445558Y169579D01*
Y168621D01*
X446003Y167774D01*
X446791Y167230D01*
X447741Y167115D01*
X448636Y167454D01*
X449271Y168171D01*
X449500Y169100D01*
X473900Y288900D02*
X473671Y289829D01*
X473036Y290546D01*
X472141Y290885D01*
X471191Y290770D01*
X470403Y290226D01*
X469958Y289379D01*
Y288421D01*
X470403Y287574D01*
X471191Y287030D01*
X472141Y286915D01*
X473036Y287254D01*
X473671Y287971D01*
X473900Y288900D01*
Y278900D02*
X473671Y279829D01*
X473036Y280546D01*
X472141Y280885D01*
X471191Y280770D01*
X470403Y280226D01*
X469958Y279379D01*
Y278421D01*
X470403Y277574D01*
X471191Y277030D01*
X472141Y276915D01*
X473036Y277254D01*
X473671Y277971D01*
X473900Y278900D01*
Y268900D02*
X473671Y269829D01*
X473036Y270546D01*
X472141Y270885D01*
X471191Y270770D01*
X470403Y270226D01*
X469958Y269379D01*
Y268421D01*
X470403Y267574D01*
X471191Y267030D01*
X472141Y266915D01*
X473036Y267254D01*
X473671Y267971D01*
X473900Y268900D01*
Y258900D02*
X473671Y259829D01*
X473036Y260546D01*
X472141Y260885D01*
X471191Y260770D01*
X470403Y260226D01*
X469958Y259379D01*
Y258421D01*
X470403Y257574D01*
X471191Y257030D01*
X472141Y256915D01*
X473036Y257254D01*
X473671Y257971D01*
X473900Y258900D01*
X498800Y283800D02*
X498571Y284729D01*
X497936Y285446D01*
X497041Y285785D01*
X496091Y285670D01*
X495303Y285126D01*
X494858Y284279D01*
Y283321D01*
X495303Y282474D01*
X496091Y281930D01*
X497041Y281815D01*
X497936Y282154D01*
X498571Y282871D01*
X498800Y283800D01*
Y273800D02*
X498571Y274729D01*
X497936Y275446D01*
X497041Y275785D01*
X496091Y275670D01*
X495303Y275126D01*
X494858Y274279D01*
Y273321D01*
X495303Y272474D01*
X496091Y271930D01*
X497041Y271815D01*
X497936Y272154D01*
X498571Y272871D01*
X498800Y273800D01*
Y263800D02*
X498571Y264729D01*
X497936Y265446D01*
X497041Y265785D01*
X496091Y265670D01*
X495303Y265126D01*
X494858Y264279D01*
Y263321D01*
X495303Y262474D01*
X496091Y261930D01*
X497041Y261815D01*
X497936Y262154D01*
X498571Y262871D01*
X498800Y263800D01*
X510700Y283800D02*
X510471Y284729D01*
X509836Y285446D01*
X508941Y285785D01*
X507991Y285670D01*
X507203Y285126D01*
X506758Y284279D01*
Y283321D01*
X507203Y282474D01*
X507991Y281930D01*
X508941Y281815D01*
X509836Y282154D01*
X510471Y282871D01*
X510700Y283800D01*
Y273800D02*
X510471Y274729D01*
X509836Y275446D01*
X508941Y275785D01*
X507991Y275670D01*
X507203Y275126D01*
X506758Y274279D01*
Y273321D01*
X507203Y272474D01*
X507991Y271930D01*
X508941Y271815D01*
X509836Y272154D01*
X510471Y272871D01*
X510700Y273800D01*
Y263800D02*
X510471Y264729D01*
X509836Y265446D01*
X508941Y265785D01*
X507991Y265670D01*
X507203Y265126D01*
X506758Y264279D01*
Y263321D01*
X507203Y262474D01*
X507991Y261930D01*
X508941Y261815D01*
X509836Y262154D01*
X510471Y262871D01*
X510700Y263800D01*
X498700Y239500D02*
X498471Y240429D01*
X497836Y241146D01*
X496941Y241485D01*
X495991Y241370D01*
X495203Y240826D01*
X494758Y239979D01*
Y239021D01*
X495203Y238174D01*
X495991Y237630D01*
X496941Y237515D01*
X497836Y237854D01*
X498471Y238571D01*
X498700Y239500D01*
Y229500D02*
X498471Y230429D01*
X497836Y231146D01*
X496941Y231485D01*
X495991Y231370D01*
X495203Y230826D01*
X494758Y229979D01*
Y229021D01*
X495203Y228174D01*
X495991Y227630D01*
X496941Y227515D01*
X497836Y227854D01*
X498471Y228571D01*
X498700Y229500D01*
Y219500D02*
X498471Y220429D01*
X497836Y221146D01*
X496941Y221485D01*
X495991Y221370D01*
X495203Y220826D01*
X494758Y219979D01*
Y219021D01*
X495203Y218174D01*
X495991Y217630D01*
X496941Y217515D01*
X497836Y217854D01*
X498471Y218571D01*
X498700Y219500D01*
X510600Y239500D02*
X510371Y240429D01*
X509736Y241146D01*
X508841Y241485D01*
X507891Y241370D01*
X507103Y240826D01*
X506658Y239979D01*
Y239021D01*
X507103Y238174D01*
X507891Y237630D01*
X508841Y237515D01*
X509736Y237854D01*
X510371Y238571D01*
X510600Y239500D01*
Y229500D02*
X510371Y230429D01*
X509736Y231146D01*
X508841Y231485D01*
X507891Y231370D01*
X507103Y230826D01*
X506658Y229979D01*
Y229021D01*
X507103Y228174D01*
X507891Y227630D01*
X508841Y227515D01*
X509736Y227854D01*
X510371Y228571D01*
X510600Y229500D01*
Y219500D02*
X510371Y220429D01*
X509736Y221146D01*
X508841Y221485D01*
X507891Y221370D01*
X507103Y220826D01*
X506658Y219979D01*
Y219021D01*
X507103Y218174D01*
X507891Y217630D01*
X508841Y217515D01*
X509736Y217854D01*
X510371Y218571D01*
X510600Y219500D01*
X462000Y288800D02*
X461771Y289729D01*
X461136Y290446D01*
X460241Y290785D01*
X459291Y290670D01*
X458503Y290126D01*
X458058Y289279D01*
Y288321D01*
X458503Y287474D01*
X459291Y286930D01*
X460241Y286815D01*
X461136Y287154D01*
X461771Y287871D01*
X462000Y288800D01*
Y278800D02*
X461771Y279729D01*
X461136Y280446D01*
X460241Y280785D01*
X459291Y280670D01*
X458503Y280126D01*
X458058Y279279D01*
Y278321D01*
X458503Y277474D01*
X459291Y276930D01*
X460241Y276815D01*
X461136Y277154D01*
X461771Y277871D01*
X462000Y278800D01*
Y268800D02*
X461771Y269729D01*
X461136Y270446D01*
X460241Y270785D01*
X459291Y270670D01*
X458503Y270126D01*
X458058Y269279D01*
Y268321D01*
X458503Y267474D01*
X459291Y266930D01*
X460241Y266815D01*
X461136Y267154D01*
X461771Y267871D01*
X462000Y268800D01*
Y258800D02*
X461771Y259729D01*
X461136Y260446D01*
X460241Y260785D01*
X459291Y260670D01*
X458503Y260126D01*
X458058Y259279D01*
Y258321D01*
X458503Y257474D01*
X459291Y256930D01*
X460241Y256815D01*
X461136Y257154D01*
X461771Y257871D01*
X462000Y258800D01*
X450100Y288800D02*
X449871Y289729D01*
X449236Y290446D01*
X448341Y290785D01*
X447391Y290670D01*
X446603Y290126D01*
X446158Y289279D01*
Y288321D01*
X446603Y287474D01*
X447391Y286930D01*
X448341Y286815D01*
X449236Y287154D01*
X449871Y287871D01*
X450100Y288800D01*
Y278800D02*
X449871Y279729D01*
X449236Y280446D01*
X448341Y280785D01*
X447391Y280670D01*
X446603Y280126D01*
X446158Y279279D01*
Y278321D01*
X446603Y277474D01*
X447391Y276930D01*
X448341Y276815D01*
X449236Y277154D01*
X449871Y277871D01*
X450100Y278800D01*
Y268800D02*
X449871Y269729D01*
X449236Y270446D01*
X448341Y270785D01*
X447391Y270670D01*
X446603Y270126D01*
X446158Y269279D01*
Y268321D01*
X446603Y267474D01*
X447391Y266930D01*
X448341Y266815D01*
X449236Y267154D01*
X449871Y267871D01*
X450100Y268800D01*
Y258800D02*
X449871Y259729D01*
X449236Y260446D01*
X448341Y260785D01*
X447391Y260670D01*
X446603Y260126D01*
X446158Y259279D01*
Y258321D01*
X446603Y257474D01*
X447391Y256930D01*
X448341Y256815D01*
X449236Y257154D01*
X449871Y257871D01*
X450100Y258800D01*
X474100Y379600D02*
X473871Y380529D01*
X473236Y381246D01*
X472341Y381585D01*
X471391Y381470D01*
X470603Y380926D01*
X470158Y380079D01*
Y379121D01*
X470603Y378274D01*
X471391Y377730D01*
X472341Y377615D01*
X473236Y377954D01*
X473871Y378671D01*
X474100Y379600D01*
Y369600D02*
X473871Y370529D01*
X473236Y371246D01*
X472341Y371585D01*
X471391Y371470D01*
X470603Y370926D01*
X470158Y370079D01*
Y369121D01*
X470603Y368274D01*
X471391Y367730D01*
X472341Y367615D01*
X473236Y367954D01*
X473871Y368671D01*
X474100Y369600D01*
Y359600D02*
X473871Y360529D01*
X473236Y361246D01*
X472341Y361585D01*
X471391Y361470D01*
X470603Y360926D01*
X470158Y360079D01*
Y359121D01*
X470603Y358274D01*
X471391Y357730D01*
X472341Y357615D01*
X473236Y357954D01*
X473871Y358671D01*
X474100Y359600D01*
Y349600D02*
X473871Y350529D01*
X473236Y351246D01*
X472341Y351585D01*
X471391Y351470D01*
X470603Y350926D01*
X470158Y350079D01*
Y349121D01*
X470603Y348274D01*
X471391Y347730D01*
X472341Y347615D01*
X473236Y347954D01*
X473871Y348671D01*
X474100Y349600D01*
X462300Y379600D02*
X462071Y380529D01*
X461436Y381246D01*
X460541Y381585D01*
X459591Y381470D01*
X458803Y380926D01*
X458358Y380079D01*
Y379121D01*
X458803Y378274D01*
X459591Y377730D01*
X460541Y377615D01*
X461436Y377954D01*
X462071Y378671D01*
X462300Y379600D01*
Y369600D02*
X462071Y370529D01*
X461436Y371246D01*
X460541Y371585D01*
X459591Y371470D01*
X458803Y370926D01*
X458358Y370079D01*
Y369121D01*
X458803Y368274D01*
X459591Y367730D01*
X460541Y367615D01*
X461436Y367954D01*
X462071Y368671D01*
X462300Y369600D01*
Y359600D02*
X462071Y360529D01*
X461436Y361246D01*
X460541Y361585D01*
X459591Y361470D01*
X458803Y360926D01*
X458358Y360079D01*
Y359121D01*
X458803Y358274D01*
X459591Y357730D01*
X460541Y357615D01*
X461436Y357954D01*
X462071Y358671D01*
X462300Y359600D01*
Y349600D02*
X462071Y350529D01*
X461436Y351246D01*
X460541Y351585D01*
X459591Y351470D01*
X458803Y350926D01*
X458358Y350079D01*
Y349121D01*
X458803Y348274D01*
X459591Y347730D01*
X460541Y347615D01*
X461436Y347954D01*
X462071Y348671D01*
X462300Y349600D01*
X450500Y379600D02*
X450271Y380529D01*
X449636Y381246D01*
X448741Y381585D01*
X447791Y381470D01*
X447003Y380926D01*
X446558Y380079D01*
Y379121D01*
X447003Y378274D01*
X447791Y377730D01*
X448741Y377615D01*
X449636Y377954D01*
X450271Y378671D01*
X450500Y379600D01*
Y369600D02*
X450271Y370529D01*
X449636Y371246D01*
X448741Y371585D01*
X447791Y371470D01*
X447003Y370926D01*
X446558Y370079D01*
Y369121D01*
X447003Y368274D01*
X447791Y367730D01*
X448741Y367615D01*
X449636Y367954D01*
X450271Y368671D01*
X450500Y369600D01*
Y359600D02*
X450271Y360529D01*
X449636Y361246D01*
X448741Y361585D01*
X447791Y361470D01*
X447003Y360926D01*
X446558Y360079D01*
Y359121D01*
X447003Y358274D01*
X447791Y357730D01*
X448741Y357615D01*
X449636Y357954D01*
X450271Y358671D01*
X450500Y359600D01*
Y349600D02*
X450271Y350529D01*
X449636Y351246D01*
X448741Y351585D01*
X447791Y351470D01*
X447003Y350926D01*
X446558Y350079D01*
Y349121D01*
X447003Y348274D01*
X447791Y347730D01*
X448741Y347615D01*
X449636Y347954D01*
X450271Y348671D01*
X450500Y349600D01*
M02*
