G04 Layer_Color=32768*
%FSLAX25Y25*%
%MOIN*%
G70*
G01*
G75*
%ADD48C,0.00394*%
%ADD49C,0.00197*%
D48*
X417700Y279931D02*
Y283869D01*
X415731Y281900D02*
X419668D01*
X409826Y276388D02*
X425574D01*
X409826Y287412D02*
X425574D01*
Y276388D02*
Y287412D01*
X409826Y276388D02*
Y287412D01*
X425300Y226031D02*
Y229969D01*
X423331Y228000D02*
X427269D01*
X417426Y222488D02*
X433174D01*
X417426Y233512D02*
X433174D01*
Y222488D02*
Y233512D01*
X417426Y222488D02*
Y233512D01*
X394032Y232000D02*
X397969D01*
X396000Y230031D02*
Y233968D01*
X390488Y224126D02*
Y239874D01*
X401512Y224126D02*
Y239874D01*
X390488Y224126D02*
X401512D01*
X390488Y239874D02*
X401512D01*
X382231Y232000D02*
X386169D01*
X384200Y230031D02*
Y233968D01*
X389712Y224126D02*
Y239874D01*
X378688Y224126D02*
Y239874D01*
X389712D01*
X378688Y224126D02*
X389712D01*
X384331Y279300D02*
X388268D01*
X386300Y277331D02*
Y281269D01*
X380788Y271426D02*
Y287174D01*
X391812Y271426D02*
Y287174D01*
X380788Y271426D02*
X391812D01*
X380788Y287174D02*
X391812D01*
X418500Y370031D02*
Y373969D01*
X416532Y372000D02*
X420469D01*
X410626Y366488D02*
X426374D01*
X410626Y377512D02*
X426374D01*
Y366488D02*
Y377512D01*
X410626Y366488D02*
Y377512D01*
X425300Y316431D02*
Y320369D01*
X423331Y318400D02*
X427269D01*
X417426Y312888D02*
X433174D01*
X417426Y323912D02*
X433174D01*
Y312888D02*
Y323912D01*
X417426Y312888D02*
Y323912D01*
X382931Y322100D02*
X386869D01*
X384900Y320131D02*
Y324068D01*
X379388Y314226D02*
Y329974D01*
X390412Y314226D02*
Y329974D01*
X379388Y314226D02*
X390412D01*
X379388Y329974D02*
X390412D01*
X395131Y322100D02*
X399068D01*
X397100Y320131D02*
Y324068D01*
X402612Y314226D02*
Y329974D01*
X391588Y314226D02*
Y329974D01*
X402612D01*
X391588Y314226D02*
X402612D01*
X384631Y367600D02*
X388568D01*
X386600Y365632D02*
Y369568D01*
X381088Y359726D02*
Y375474D01*
X392112Y359726D02*
Y375474D01*
X381088Y359726D02*
X392112D01*
X381088Y375474D02*
X392112D01*
X417800Y190232D02*
Y194168D01*
X415832Y192200D02*
X419768D01*
X409926Y186688D02*
X425674D01*
X409926Y197712D02*
X425674D01*
Y186688D02*
Y197712D01*
X409926Y186688D02*
Y197712D01*
X424800Y136031D02*
Y139969D01*
X422831Y138000D02*
X426768D01*
X416926Y132488D02*
X432674D01*
X416926Y143512D02*
X432674D01*
Y132488D02*
Y143512D01*
X416926Y132488D02*
Y143512D01*
X391231Y141500D02*
X395168D01*
X393200Y139532D02*
Y143468D01*
X387688Y133626D02*
Y149374D01*
X398712Y133626D02*
Y149374D01*
X387688Y133626D02*
X398712D01*
X387688Y149374D02*
X398712D01*
X379132Y141500D02*
X383068D01*
X381100Y139532D02*
Y143468D01*
X386612Y133626D02*
Y149374D01*
X375588Y133626D02*
Y149374D01*
X386612D01*
X375588Y133626D02*
X386612D01*
X383832Y188300D02*
X387769D01*
X385800Y186331D02*
Y190269D01*
X380288Y180426D02*
Y196174D01*
X391312Y180426D02*
Y196174D01*
X380288Y180426D02*
X391312D01*
X380288Y196174D02*
X391312D01*
D49*
X409842Y275254D02*
X440158D01*
X409842Y234546D02*
X440158D01*
X409842D02*
Y275254D01*
X440158Y234546D02*
Y275254D01*
X410442Y365354D02*
X440758D01*
X410442Y324646D02*
X440758D01*
X410442D02*
Y365354D01*
X440758Y324646D02*
Y365354D01*
X409842Y185454D02*
X440158D01*
X409842Y144746D02*
X440158D01*
X409842D02*
Y185454D01*
X440158Y144746D02*
Y185454D01*
X382664Y255494D02*
Y267305D01*
Y255494D02*
X403136D01*
Y267305D01*
X382664D02*
X403136D01*
X382764Y242895D02*
Y254706D01*
Y242895D02*
X403236D01*
Y254706D01*
X382764D02*
X403236D01*
X406137Y270979D02*
Y288421D01*
X393263Y270979D02*
Y288421D01*
Y270979D02*
X406137D01*
X393263Y288421D02*
X406137D01*
X456137Y234380D02*
Y251820D01*
X443263Y234380D02*
Y251820D01*
Y234380D02*
X456137D01*
X443263Y251820D02*
X456137D01*
X382872Y345595D02*
Y357405D01*
Y345595D02*
X403345D01*
Y357405D01*
X382872D02*
X403345D01*
X382972Y332794D02*
Y344605D01*
Y332794D02*
X403445D01*
Y344605D01*
X382972D02*
X403445D01*
X406337Y359080D02*
Y376520D01*
X393463Y359080D02*
Y376520D01*
Y359080D02*
X406337D01*
X393463Y376520D02*
X406337D01*
X456237Y324679D02*
Y342121D01*
X443363Y324679D02*
Y342121D01*
Y324679D02*
X456237D01*
X443363Y342121D02*
X456237D01*
X377511Y164969D02*
X402771D01*
X377511Y177631D02*
X402771D01*
X377511Y164969D02*
Y177631D01*
X402771Y164969D02*
Y177631D01*
X377370Y151069D02*
X402630D01*
X377370Y163731D02*
X402630D01*
X377370Y151069D02*
Y163731D01*
X402630Y151069D02*
Y163731D01*
X405437Y180180D02*
Y197620D01*
X392563Y180180D02*
Y197620D01*
Y180180D02*
X405437D01*
X392563Y197620D02*
X405437D01*
X454737Y144480D02*
Y161920D01*
X441863Y144480D02*
Y161920D01*
Y144480D02*
X454737D01*
X441863Y161920D02*
X454737D01*
X312099Y276469D02*
X349501D01*
Y235131D02*
Y276469D01*
X312099Y235131D02*
X349501D01*
X312099D02*
Y276469D01*
X462899Y118231D02*
X500301D01*
Y159569D01*
X462899D02*
X500301D01*
X462899Y118231D02*
Y159569D01*
Y163131D02*
X500301D01*
Y204469D01*
X462899D02*
X500301D01*
X462899Y163131D02*
Y204469D01*
X462799Y253331D02*
X500201D01*
Y294669D01*
X462799D02*
X500201D01*
X462799Y253331D02*
Y294669D01*
X462999Y208131D02*
X500401D01*
Y249469D01*
X462999D02*
X500401D01*
X462999Y208131D02*
Y249469D01*
X462899Y298731D02*
X500301D01*
Y340069D01*
X462899D02*
X500301D01*
X462899Y298731D02*
Y340069D01*
Y343831D02*
X500301D01*
Y385169D01*
X462899D02*
X500301D01*
X462899Y343831D02*
Y385169D01*
M02*
